<svg xmlns="http://www.w3.org/2000/svg" viewBox="0 0 1024 946"><defs><style>.cls-1{fill:#a8d0e6;}.cls-2{fill:#f8e9a1;}.cls-3{fill:#f8d8a1;}.cls-4{fill:#b7a187;}.cls-5{fill:#f8e9e6;}.cls-6{fill:#243030;}.cls-7{fill:#666;}.cls-8{fill:#c6976a;}</style></defs><title>birth</title><g id="frame"><path id="frame-2" data-name="frame" class="cls-1" d="M993.88,415.94c-7.65-78.6-200.43-44.14-154.94-129.62,27.67-22.42,50.54-59.76,25.55-93-14.13-19.27-41.42-27.67-64-19.69-39.74,25.49-95.42,42.41-84-24.73,25.85-48-2.76-110.17-63.22-95-31.67,9.43-26,58.79-55.09,75.29S531.36,30.57,498.1,25.7,446.62,84.42,419,98.91,383.92,68.83,364.39,55c-58.64-21.79-18.87,61.18-34.64,76.95S214.46,35.2,148.06,117.11c-59.25,75.53,130.61,120.8-22.83,167C62.06,288.69-20.22,366.9,47,418.38,82,437.14,136.45,408,159.87,440,186.7,538.12-.74,645.5,152.71,755.27c71.35,50.35,135.2-27.43,201.93-31.83,18.76,5.1,35.24,21.64,51.3,43.07l-.15.56L446,828.75v.18C459,848.57,472.69,868,488,884l1.71,1.78.61.62,1.13,1.14.73.72,1,1,.79.76c.32.31.64.63,1,.93s.55.53.83.79l.94.88.87.79.91.83.9.8.9.8.93.79.88.76,1,.8.87.72,1,.8.84.67,1,.81.82.63,1.06.8.82.61,1.08.78c.26.2.53.39.79.57l1.13.79.77.53,1.16.78.75.49,1.19.78.73.45c.41.26.82.52,1.24.77l.69.41,1.29.77.65.37,1.35.76.59.32,1.43.77.51.26,1.53.77.4.2,1.66.79.24.11c.6.28,1.21.56,1.83.83h0a91,91,0,0,0,11.26,4.07,84.2,84.2,0,0,0,12.36,2.6h0c.73.1,1.46.18,2.2.26h.1c.72.08,1.44.15,2.17.2h.14c.72.06,1.45.11,2.17.15h.16l2.19.08h.17c.73,0,1.46,0,2.2,0h.17l2.23,0h.16l2.27-.09h.13c.77,0,1.55-.1,2.33-.16H573c.79-.06,1.59-.14,2.39-.22h.05c16.2-1.74,34-7.83,53.63-19.45q2-1.15,4-2.39h0s38.49-21.71,52.18-49.11c35.54-55-11.64-178.21,85-134.65,67.46,70.81,166.64-1.53,129-81.44-21.45-30.34-87-39.83-78.76-86.77C853,484.88,1006.26,528.31,993.88,415.94Z"/></g><g id="lightbulb"><g id="light"><path class="cls-2" d="M438.87,462c.78-5.35,1-12.56,3.7-17.21,2.56-4.41,7.53-6.46,12.23-7.89a109.86,109.86,0,0,1,35.68-4.74,16.12,16.12,0,0,1,6.2,1.09,10.41,10.41,0,0,1,3.4,2.58l.12-1a75.13,75.13,0,0,0,.91-7.94c.81-7.13,1.38-12,1.51-12.91.29-2.11-.6-2.79-1.73-3-3.51-.54-7-.89-10.51-1.64A69.64,69.64,0,0,1,478.23,406c-2.51-1.05-4.68-3.43-6.93-5.4-3.89-3.38-6.21-9-8.25-14.86-3.3-1.2-5.62-3.36-6.07-6.16s1-5.54,3.6-7.82l-.12-1.81c-.52-8.24,1.26-16.33,3.14-24.21a44.18,44.18,0,0,1,2.58-7.46,20.13,20.13,0,0,1-1.21-4.22c-1.72-10.45,5-20.53,14.9-22.34a17.19,17.19,0,0,1,10.38,1.35,14.53,14.53,0,0,1,6.52-.36,27.26,27.26,0,0,1,16.5,9.53c3.19,3.64,7.31,15.42,7.7,17.42a65.67,65.67,0,0,1,.16,25c-1.74,9.24-3.36,18.51-5,27.76-.69,3.87-.64,3.91,1.82,4,.45,0,24.31,4.86,35.79,7.24,2,.42,2.29.28,2.9-3,1.87-10.17,3.28-22.22,5.53-30.54,2.35-8.69,4.09-13.05,7.27-18.81a42.19,42.19,0,0,1,10-12.12c4.71-3.94,9.55-6,14.82-6.23,3.46-.16,10.61,1.1,13.36,3.61,3.1,2.84,6.15,5.7,8.38,10a42.92,42.92,0,0,1,4.73,14.76,142.17,142.17,0,0,1,1.3,16.13,55.47,55.47,0,0,1-5.14,23.07c-.32.68-2.84,6.06-3.46,7-3.66,5.4-7.23,11.07-11.79,14.55a45,45,0,0,1-5.91,3.58c-3.37,1.86-6.66,1.9-10.06,2-7.5.27-14.51-1.91-21.61-3.75-1.51-.39-2,.09-2.52,2.62-.16.75-1,4.3-2.37,9.78l24.62.87c4.68.17,9.68.48,14,2.09h0l.1,0h0l25.63,9.23a7.69,7.69,0,0,1-.75-3.87,7.91,7.91,0,0,1,2-4.55,9.2,9.2,0,0,1,2.7-2.11,9.09,9.09,0,0,1,2.57-.9,7.69,7.69,0,0,1,1.25-.13,8.47,8.47,0,0,1,3.61.77,9.59,9.59,0,0,1,1.14.6,9.94,9.94,0,0,1,1.12.75l.6.45,3-10.68c3-10.54,5.92-21.11,7.76-31.93,6.05-35.59-.71-73.64-19.37-103.91S580,240.75,546.42,234.52a113.24,113.24,0,0,0-95.66,27.11c-18.8,17-32.08,40.7-37.15,66.33-2.32,11.76-2.95,24-.63,35.78,2,10.07,6.07,19.52,9,29.35,1.12,3.81,2.06,7.67,2.88,11.56a5.62,5.62,0,0,1,1.64-.24,5.88,5.88,0,0,1,.93.1,7.8,7.8,0,0,1,4.05,2.52,7.41,7.41,0,0,1,1.79,3.18,7.17,7.17,0,0,1-.11,3.75,16.45,16.45,0,0,1-.62,1.75,15.56,15.56,0,0,1-2.93,4.61c-.53.59-1.09,1.14-1.64,1.7.13.78.25,1.55.37,2.33l7.2,45a9.51,9.51,0,0,0-.82,1l4.84-1.61C437.42,467.71,438.27,466.12,438.87,462ZM501,426.68a75,75,0,0,1-.91,7.93C500.44,431.74,500.74,429.09,501,426.68Zm48.62-145.39c2.41.56,4.48,1.07,6.56,1.52,4.51,1,9.08,1.73,13.54,2.92,1.17.31,2.06,1.85,3.07,2.82-1.19.39-2.47,1.3-3.56,1.08-6.26-1.23-12.49-2.66-18.7-4.2-1-.24-1.73-1.39-2.59-2.12ZM560.16,297c9.88-1.91,19.37,5.13,21.09,15.65s-4.85,20.57-14.87,22.18c-10.64,1.72-19-4.65-20.93-15.41C543.59,309,549.35,299.38,560.16,297Zm-94,8.54c4.22-3,8.56-5.7,12.86-8.51l5.92-3.89c.69.41,1.88.86,1.85,1.17a4.25,4.25,0,0,1-1.08,2.76c-3.9,2.74-7.93,5.3-11.93,7.9a60.07,60.07,0,0,1-5.78,3.58c-.74.37-1.86-.13-2.81-.23C465.48,307.37,465.51,306,466.14,305.54Z"/></g><g id="light-2" data-name="light"><path class="cls-2" d="M568.61,406.79c3.12.62,6.24,1.26,9.37,1.9l0-.11,7.62,1.55c6.52,1.32,12.29-1.78,17.76-9.48,6.7-9.44,9.12-25,5.72-36.43a34,34,0,0,0-2.34-5.67c-2.24-4.38-5.36-6.86-9-7.95a6.35,6.35,0,0,1,1.3,2.91c.87,5.31-5.25,10.87-13.66,12.41a21.25,21.25,0,0,1-10.28-.5,26.31,26.31,0,0,0-2.47,6.94c-2,10.26-3.78,20.55-5.61,30.84C566.6,405.93,566.91,406.45,568.61,406.79Z"/></g><g id="light-3" data-name="light"><path class="cls-2" d="M564,624.76c0-.37,0-.75,0-1.12,0-1.08,0-2.17.07-3.25.07-2.89.13-5.34.17-7.15v0a90.18,90.18,0,0,1,.4-10.45c.51-4,.77-3.09,1.29-5.42.32-1.42,2-2.38,3.73-2.78a6.67,6.67,0,0,1,2.78-.15,6.55,6.55,0,0,1,4.91,4l12.06-26.09c-5.19-3-10.55-5.59-16.3-6.84-9.48-2.08-19.28-.35-29-.38a43.26,43.26,0,0,1-16.41-3q-3,11.86-5.93,23.73c-1.08,4.3-9.54,37.57-9.7,38.33l-9.85-2c.28-1,12.66-51.95,13.66-56,0-.22,1-4.19,2.66-10.66-.23-.28-.47-.56-.7-.85-6-8-3.95-22.7,5.4-25.31-4.4-5-8.95-10.3-10.73-16.89s.17-14.86,6-17.78a19,19,0,0,1-6.5-18.56c1.5-6.81,7.07-12.4,13.56-13.6-5.26-4.06-7.38-12.13-4.86-18.5s9.44-10.4,15.85-9.25l-2.6.64,14.41.51c2.16-8.63,3.5-14.06,3.53-14.22l-39-7.93c-.35,3.14-2.53,21.13-3.29,27.1-.49,3.84-11.63,103.49-12.09,107.21Q495.8,562.51,494.1,577c-.6,5-1.72,15.9-1.74,16.36-.14,2.23-1.66,16.53-2.76,26.25l-10.12-2.06a41.08,41.08,0,0,0,.7-6.82,33.12,33.12,0,0,1,.26-3.94l.64-5.12c.77-6.74,1.52-13.48,2.35-20.22.45-3.73.83-7.14,1.19-10.49q-.64,5.18-1.28,10.33c.37-3.08,1.13-9.51,2-16.79.2-1.83.42-3.7.65-5.63-10.75,7.12-26.37,10.08-30.3,22.76-1.23,3.94-1,8.21-1.53,12.32-.45,3.59-2.18,11-5.17,15.25L554.3,638.29C557.63,633.92,561,629.41,564,624.76Zm-85-7.48c.43-3.66.93-7.58,1.33-10.68.19-1.7.44-3.42.64-5.12-.1.85-.34,2.74-.64,5.12a35.4,35.4,0,0,0-.27,3.93,39.06,39.06,0,0,1-.7,6.83Z"/></g><g id="light-4" data-name="light"><path class="cls-2" d="M494.21,458.38a12.16,12.16,0,0,1,3,3.33l.42-3.77A11.27,11.27,0,0,1,494.21,458.38Z"/></g><g id="light-5" data-name="light"><path class="cls-2" d="M486.13,349.77a16.78,16.78,0,0,1-11.43-1.85c-.44,1.12-.87,2.25-1.28,3.38-.5,1.39-1.08,10.08-1.25,15.63C480,366,486.62,369,487.44,374c.71,4.37-3.32,8.91-9.47,11.24a30.92,30.92,0,0,0,4.06,3.52,8.58,8.58,0,0,0,3.55,1.36c5.65,1.14,11.35,2.08,17,3.31,2.28.5,2.34.7,3-2.9q2.69-14.73,5.31-29.48a16.73,16.73,0,0,0,.36-3.48c-.39-11.94-2.93-21.31-10.14-25.77C500.79,340.18,494.58,348.07,486.13,349.77Z"/></g><path id="wire" class="cls-3" d="M483.34,581.26q.63-5.16,1.28-10.33c-.36,3.35-.74,6.76-1.19,10.49-.83,6.74-1.58,13.48-2.35,20.22l-.64,5.12a33.12,33.12,0,0,0-.26,3.94,41.08,41.08,0,0,1-.7,6.82l10.12,2.06c1.1-9.72,2.62-24,2.76-26.25,0-.46,1.14-11.37,1.74-16.36q1.71-14.46,3.47-28.92c.46-3.72,11.6-103.37,12.09-107.21.76-6,2.94-24,3.29-27.1l39,7.93c0,.16-1.37,5.59-3.53,14.22l10.71.38c1.35-5.48,2.21-9,2.37-9.78.53-2.53,1-3,2.52-2.62,7.1,1.84,14.11,4,21.61,3.75,3.4-.12,6.69-.16,10.06-2a45,45,0,0,0,5.91-3.58c4.56-3.48,8.13-9.15,11.79-14.55.62-.9,3.14-6.28,3.46-7A55.47,55.47,0,0,0,622,377.44a142.17,142.17,0,0,0-1.3-16.13A42.92,42.92,0,0,0,616,346.55c-2.23-4.26-5.28-7.12-8.38-10-2.75-2.51-9.9-3.77-13.36-3.61-5.27.25-10.11,2.29-14.82,6.23a42.19,42.19,0,0,0-10,12.12c-3.18,5.76-4.92,10.12-7.27,18.81-2.25,8.32-3.66,20.37-5.53,30.54-.61,3.3-.86,3.44-2.9,3-11.48-2.38-35.34-7.22-35.79-7.24-2.46-.12-2.51-.16-1.82-4,1.66-9.25,3.28-18.52,5-27.76a65.67,65.67,0,0,0-.16-25c-.39-2-4.51-13.78-7.7-17.42a27.26,27.26,0,0,0-16.5-9.53,14.53,14.53,0,0,0-6.52.36,18.22,18.22,0,0,1,10.49,14.53,17,17,0,0,1,.35,4.2c7.21,4.46,9.75,13.83,10.14,25.77a16.73,16.73,0,0,1-.36,3.48q-2.62,14.74-5.31,29.48c-.66,3.6-.72,3.4-3,2.9-5.63-1.23-11.33-2.17-17-3.31a8.58,8.58,0,0,1-3.55-1.36,30.92,30.92,0,0,1-4.06-3.52,25.6,25.6,0,0,1-4.2,1.17,20.74,20.74,0,0,1-10.72-.67c2,5.86,4.36,11.48,8.25,14.86,2.25,2,4.42,4.35,6.93,5.4a69.64,69.64,0,0,0,12.15,3.33c3.47.75,7,1.1,10.51,1.64,1.13.18,2,.86,1.73,3-.13.9-.7,5.78-1.51,12.91a75.13,75.13,0,0,1-.91,7.94l-.12,1a16.38,16.38,0,0,1,2.74,4.33c2.69,6.11,1.57,14.94-4.33,17.47a7.56,7.56,0,0,1-.91.32l-.42,3.77a22.69,22.69,0,0,1,1.68,3.34,28,28,0,0,1,1.79,16.7,18.44,18.44,0,0,1-6.95,10.82c-.12,1.11-.24,2.18-.36,3.23a18.93,18.93,0,0,1,7.81,15.64c-.19,7.27-4.95,14.16-11.42,16.55,5.66,4.32,8.09,12.84,5.64,19.77-1.72,4.88-5.18,8.29-9.37,11.08-.23,1.93-.45,3.8-.65,5.63C484.47,571.75,483.71,578.18,483.34,581.26ZM567.09,403.2c1.83-10.29,3.65-20.58,5.61-30.84a26.31,26.31,0,0,1,2.47-6.94c-3.54-1.17-6-3.4-6.51-6.32-.87-5.31,5.25-10.87,13.66-12.41,6.71-1.23,12.84.47,15.49,3.91,3.59,1.09,6.71,3.57,9,7.95a34,34,0,0,1,2.34,5.67c3.4,11.43,1,27-5.72,36.43-5.47,7.7-11.24,10.8-17.76,9.48L578,408.58l0,.11c-3.13-.64-6.25-1.28-9.37-1.9C566.91,406.45,566.6,405.93,567.09,403.2Z"/><path id="wire-2" data-name="wire" class="cls-3" d="M518.6,555.48C517,562,516,565.92,515.94,566.14c-1,4.06-13.38,55-13.66,56l9.85,2c.16-.76,8.62-34,9.7-38.33q3-11.85,5.93-23.73A24,24,0,0,1,518.6,555.48Z"/><path id="wire-3" data-name="wire" class="cls-3" d="M472.17,366.93c.17-5.55.75-14.24,1.25-15.63.41-1.13.84-2.26,1.28-3.38a19.17,19.17,0,0,1-8.52-9.65,44.18,44.18,0,0,0-2.58,7.46c-1.88,7.88-3.66,16-3.14,24.21l.12,1.81a21.32,21.32,0,0,1,10.06-4.59C471.16,367.07,471.67,367,472.17,366.93Z"/><path id="hand" class="cls-4" d="M643.41,622.46a11.06,11.06,0,0,1-3.1-1.77c-2.47-2.09-3.2-5.26-2.69-10.24a10.08,10.08,0,0,0,0-2.27,8.43,8.43,0,0,0-.51-2,11,11,0,0,0-2.34-3.53,14.94,14.94,0,0,1-2.78-4.22,17.1,17.1,0,0,1-.64-1.65,11.54,11.54,0,0,1-.38-1.42,10.79,10.79,0,0,1,.27-5.25,16.64,16.64,0,0,1,1-2.47c.2-.4.41-.81.63-1.21a31.27,31.27,0,0,1,5.13-6.57c1.94-2,7.46-8.44,7.8-8.69l1.42-1c.54-2.27,1.14-4.52,1.84-6.74.64-2,1.36-4.07,2.06-6.13a2.54,2.54,0,0,0,0-.39,2.68,2.68,0,0,0-.13-.65,3.19,3.19,0,0,1-.14-1.9,3.4,3.4,0,0,1,.45-1,8.59,8.59,0,0,1,.7-.92l.39-.46c.23-.26.47-.49.71-.72a49.32,49.32,0,0,0,1.69-7.64h0l7.2-26.9a128.47,128.47,0,0,0,5.57-16.47c-.32-.56-.59-1-.78-1.28a174.82,174.82,0,0,0-15.83-19.12c-1.87-2-3.76-4-5.66-6l-4.78-5c-1.59-1.65-3.18-3.32-4.74-5q-1.83-2-3.6-4c-1.83-2.12-3.6-4.3-5.26-6.59-.8-1.1-1.67-2.14-2.46-3.25a9.88,9.88,0,0,1-.83-1.42L598,439.27h0l-.1,0h0c-4.36-1.61-9.36-1.92-14-2.09l-24.62-.87-10.71-.38L534,435.38l2.6-.64c-6.41-1.15-13.33,2.89-15.85,9.25s-.4,14.44,4.86,18.5c-6.49,1.2-12.06,6.79-13.56,13.6a19,19,0,0,0,6.5,18.56c-5.85,2.92-7.81,11.19-6,17.78s6.33,11.87,10.73,16.89c-9.35,2.61-11.43,17.28-5.4,25.31.23.29.47.57.7.85a24,24,0,0,0,9.16,6.62,43.26,43.26,0,0,0,16.41,3c9.67,0,19.47-1.7,29,.38,5.75,1.25,11.11,3.86,16.3,6.84l-12.06,26.09c0,.11.11.21.16.32a1.11,1.11,0,0,0,.07.16c.12.27.24.54.35.83a23.24,23.24,0,0,1,1,3.21c.26,1.09.46,2.19.62,3.29.24,1.66.4,3.33.57,5,.06.56.11,1.12.18,1.67.29,2.55.49,5.1.64,7.66.07,1.37.12,2.74.17,4.12l26.09,63.71a22.48,22.48,0,0,0,2.36,5.78L618.93,717c7.74,38.49,18.23,143.31,22.81,177.14a318.37,318.37,0,0,0,32.8-25.74,51.53,51.53,0,0,0,12.22-12.88C669.48,789.44,646.91,683.55,643.41,622.46Z"/><path id="hand-2" data-name="hand" class="cls-5" d="M699.9,589.61c-.21-2.16-.28-4.33-.31-6.51l0-3.26c0-1.09,0-2.18,0-3.26,0-.18,0-.37,0-.55a1.26,1.26,0,0,1,.11-.49h0a38.09,38.09,0,0,0-.11-3.92h0a9.4,9.4,0,0,1-.87.69,6.09,6.09,0,0,1-1.07.57c-.18.07-.37.12-.56.18a6.49,6.49,0,0,1-1.69.31,2.15,2.15,0,0,1-.53-.07,3.73,3.73,0,0,1-.56-.2c-.36-.18-.66-.41-.72-.65a3.65,3.65,0,0,1,.16-1.91c.06-.22.13-.43.2-.63a.48.48,0,0,1,.17-.21,3.82,3.82,0,0,1,.61-.32,2.25,2.25,0,0,0,.31-.16,12.84,12.84,0,0,0,1.37-1,6.06,6.06,0,0,0,2.48-4.67,8.38,8.38,0,0,0-1.42-4.33,19.52,19.52,0,0,0-1.72-2.45,16.87,16.87,0,0,0-2.06-2.08,14.13,14.13,0,0,0-5.2-2.76,3.89,3.89,0,0,0-.86-.15c-.75,0-1.19.37-1.47,1.2-.12.36-.24.72-.37,1.06a6.59,6.59,0,0,1-1.05,1.89,4.51,4.51,0,0,1-.85.77,1.35,1.35,0,0,0-.28,1,9.32,9.32,0,0,0,.08,1.33,2.69,2.69,0,0,1-1.5,2.84,6.63,6.63,0,0,1-3,1,10.05,10.05,0,0,1-1.55,0c-.52-.05-5.48-2.3-5.9-2.47a4.77,4.77,0,0,1-2.84-2.86,14.9,14.9,0,0,1-.14-3.14l0-1a6.76,6.76,0,0,0-.13-2.23,1,1,0,0,0-1-.65,8.82,8.82,0,0,0-1.5.15c-1.4.22-2.83.14-4.23.37a6.27,6.27,0,0,0-2.36.91c-1.49,1-2.87,2.15-4.35,3.14a3,3,0,0,0-1.32,3.77c.32.65.64,1.29,1,1.91a8.57,8.57,0,0,0,2.3,2.77,37.17,37.17,0,0,1,3,2.52,29,29,0,0,0,3,2.48c.46.33.66.6.7.84a.49.49,0,0,1-.1.41,1.47,1.47,0,0,1-.62.41,5.77,5.77,0,0,1-2.83.21,20.12,20.12,0,0,1-2.79-1.05,6.45,6.45,0,0,0-1.92-.33,5.59,5.59,0,0,0-1.83.25,4.92,4.92,0,0,0-2.83,2.28,8.65,8.65,0,0,1-1.44,1.88,22.85,22.85,0,0,1-1.71,1.52,3.78,3.78,0,0,0-.55.58c-.49.64-.87,1.45-1.39,2.08h0c-1.59,1.91-3.28,3.74-4.86,5.67-.82,1-1.68,2-2.5,3a25.25,25.25,0,0,0-2.25,3.2,7.47,7.47,0,0,0-.49,6.75,10.15,10.15,0,0,0,1.17,2.13c1,1.34,2,2.64,3,3.94s2,2.57,3.06,3.86l.18.25c0,.07.11.14.15.21a.87.87,0,0,1,.15.39c0,.17-.08.32-.31.46a1.63,1.63,0,0,1-.37.16,3.08,3.08,0,0,0-2.35,2.73,4.57,4.57,0,0,0-.05.75,11.65,11.65,0,0,0,.13,1.63,9.52,9.52,0,0,0,1.6,4.31,6.72,6.72,0,0,0,1.3,1.36,7,7,0,0,0,1.94,1.12,9.71,9.71,0,0,0,3,.56c.78,0,1.56,0,2.33,0a3.15,3.15,0,0,1,.83,0c.73.13,1.14.62,1.39,1.77a7.76,7.76,0,0,0,.6,1.82,4.27,4.27,0,0,0,.42.67,3.55,3.55,0,0,0,2.74,1.3,8.2,8.2,0,0,0,1,0,76.11,76.11,0,0,0,7.92-.88c1.09-.14,2.18-.38,3.27-.55a1,1,0,0,1,.87.17,1.63,1.63,0,0,1,.36,1,6.23,6.23,0,0,0,.32,1.32c.42,1.09,1.17,1.52,2.53,1.77a9.59,9.59,0,0,0,4.6-.28,16.48,16.48,0,0,0,4.19-2c.47-.3.86-.72,1.32-1,1.34-.93,1.87-1.28,2.18-.76a6.49,6.49,0,0,1,.44,1.93,2.79,2.79,0,0,0,.26.88,1.15,1.15,0,0,0,1,.67,3.1,3.1,0,0,0,.77-.08,12.22,12.22,0,0,0,9.24-7.1,13,13,0,0,0,.61-1.69c.34-1.19.65-2.39.93-3.58a75.17,75.17,0,0,0,1.93-14.55c0-1.22.06-2.45,0-3.69C700.28,594.57,700.14,592.09,699.9,589.61Z"/><path id="arm" class="cls-6" d="M703.37,579.77a21.54,21.54,0,0,0-1.64-4.55c-.08-.17-.53-2.56-1-5,.15-.22.28-.47.42-.71h0a7.16,7.16,0,0,0,.39-.66,11.36,11.36,0,0,0,.87-2.75,10.3,10.3,0,0,0,.11-2.71,12.3,12.3,0,0,0-1.08-4c-.19-.43-.41-.85-.65-1.28-2.94-5.22-7-8.89-12.9-9.84-1.13-.18-1.71-.67-1.63-1.34,0-.22.24-.41.3-.72.31-1.42,2-14.94,2-15.34.18-2.82.34-5.63.52-8.44l.54-9c0-.75.1-1.51.14-2.26-.07,0-.1-5.19-.22-7.77a40.35,40.35,0,0,0-.6-5.46c-.16-.88-.35-1.76-.57-2.62a31.13,31.13,0,0,0-2.93-7.38c-.43-.77-.9-1.54-1.41-2.28s-1-1.47-1.64-2.19q-3.78-4.59-7.69-9.08t-8-8.81c-5.4-5.76-11-11.3-16.92-16.53-3.83-3.41-7.88-6.57-12-9.63l-.6-.45a9.94,9.94,0,0,0-1.12-.75,9.59,9.59,0,0,0-1.14-.6,8.47,8.47,0,0,0-3.61-.77,7.69,7.69,0,0,0-1.25.13,9.09,9.09,0,0,0-2.57.9,9.2,9.2,0,0,0-2.7,2.11,7.91,7.91,0,0,0-2,4.55,7.69,7.69,0,0,0,.75,3.87,9.88,9.88,0,0,0,.83,1.42c.79,1.11,1.66,2.15,2.46,3.25,1.66,2.29,3.43,4.47,5.26,6.59q1.77,2.06,3.6,4c1.56,1.69,3.15,3.36,4.74,5l4.78,5c1.9,2,3.79,4,5.66,6a174.82,174.82,0,0,1,15.83,19.12c.19.27.46.72.78,1.28a57.89,57.89,0,0,1,3.25,6.45,20.92,20.92,0,0,1,.94,4.21c0,.42.07,1.6.08,2.69,0,.8,0,1.55,0,1.89-.13,1.42-.22,2.85-.28,4.28-.05.93-.06,1.86-.09,2.79,0,.5-1.39,21.57-1.57,22.7,0,.32-.48.7-.9.9a1.16,1.16,0,0,1-.4.13c-.57.09-1.15.15-1.72.2l-5.15.61a19.6,19.6,0,0,0-7.26,3,11.57,11.57,0,0,0-1.32,1.14c-.24.23-.48.46-.71.72l-.39.46a8.59,8.59,0,0,0-.7.92,3.4,3.4,0,0,0-.45,1,3.19,3.19,0,0,0,.14,1.9,2.68,2.68,0,0,1,.13.65,2.54,2.54,0,0,1,0,.39,4.94,4.94,0,0,1-.33,1.7,5,5,0,0,0-.28,1.05,4.8,4.8,0,0,0,.6,2.93,10.86,10.86,0,0,1,.48,1.1,3.79,3.79,0,0,1,.13,2.63c-.37,1-1.33,1.75-2.89,2.48a10.33,10.33,0,0,0-1.55.94l-.06,0-1.42,1c-.34.25-5.86,6.73-7.8,8.69a31.27,31.27,0,0,0-5.13,6.57c-.22.4-.43.81-.63,1.21a16.64,16.64,0,0,0-1,2.47,10.79,10.79,0,0,0-.27,5.25,11.54,11.54,0,0,0,.38,1.42,17.1,17.1,0,0,0,.64,1.65,14.94,14.94,0,0,0,2.78,4.22,11,11,0,0,1,2.34,3.53,8.43,8.43,0,0,1,.51,2,10.08,10.08,0,0,1,0,2.27c-.51,5,.22,8.15,2.69,10.24a11.06,11.06,0,0,0,3.1,1.77,22.09,22.09,0,0,0,3.36,1,7.15,7.15,0,0,1,1.08.33,5.46,5.46,0,0,1,2.64,2.16,7.87,7.87,0,0,0,4.88,3.29,12,12,0,0,0,2,.3c.88.05,1.77.1,2.66.11a19.52,19.52,0,0,0,2.65-.13,9.81,9.81,0,0,1,6.7,1.05,8.65,8.65,0,0,0,1.09.56,9.38,9.38,0,0,0,2.22.6,18.8,18.8,0,0,0,5.76-.38l7.18-.64a8.92,8.92,0,0,0,1.16.08,12.86,12.86,0,0,0,5-1.18,19.45,19.45,0,0,0,3.68-2.16,20.08,20.08,0,0,0,3.18-2.92,16.44,16.44,0,0,0,1.65-2.23,11,11,0,0,0,.63-1.17,10.28,10.28,0,0,0,.83-2.39c.73-3.53,1.5-7,2.08-10.62A79.89,79.89,0,0,0,703.37,579.77Zm-3.12,21a75.17,75.17,0,0,1-1.93,14.55c-.28,1.19-.59,2.39-.93,3.58a13,13,0,0,1-.61,1.69,12.22,12.22,0,0,1-9.24,7.1,3.1,3.1,0,0,1-.77.08,1.15,1.15,0,0,1-1-.67,2.79,2.79,0,0,1-.26-.88,6.49,6.49,0,0,0-.44-1.93c-.31-.52-.84-.17-2.18.76-.46.32-.85.74-1.32,1a16.48,16.48,0,0,1-4.19,2,9.59,9.59,0,0,1-4.6.28c-1.36-.25-2.11-.68-2.53-1.77a6.23,6.23,0,0,1-.32-1.32,1.63,1.63,0,0,0-.36-1,1,1,0,0,0-.87-.17c-1.09.17-2.18.41-3.27.55a76.11,76.11,0,0,1-7.92.88,8.2,8.2,0,0,1-1,0,3.55,3.55,0,0,1-2.74-1.3,4.27,4.27,0,0,1-.42-.67,7.76,7.76,0,0,1-.6-1.82c-.25-1.15-.66-1.64-1.39-1.77a3.15,3.15,0,0,0-.83,0c-.77,0-1.55,0-2.33,0a9.71,9.71,0,0,1-3-.56,7,7,0,0,1-1.94-1.12,6.72,6.72,0,0,1-1.3-1.36,9.52,9.52,0,0,1-1.6-4.31,11.65,11.65,0,0,1-.13-1.63,4.57,4.57,0,0,1,.05-.75,3.08,3.08,0,0,1,2.35-2.73,1.63,1.63,0,0,0,.37-.16c0-.36,0-.71,0-1.06l-.18-.25c-1-1.29-2-2.57-3.06-3.86s-2-2.6-3-3.94a10.15,10.15,0,0,1-1.17-2.13,7.47,7.47,0,0,1,.49-6.75,25.25,25.25,0,0,1,2.25-3.2c.82-1,1.68-2,2.5-3,1.58-1.93,3.27-3.76,4.86-5.67h0c.52-.63.9-1.44,1.39-2.08a3.78,3.78,0,0,1,.55-.58,22.85,22.85,0,0,0,1.71-1.52,8.65,8.65,0,0,0,1.44-1.88,4.92,4.92,0,0,1,2.83-2.28,5.59,5.59,0,0,1,1.83-.25,6.45,6.45,0,0,1,1.92.33,20.12,20.12,0,0,0,2.79,1.05A5.77,5.77,0,0,0,663,570a1.47,1.47,0,0,0,.62-.41.49.49,0,0,0,.1-.41c0-.24-.24-.51-.7-.84a29,29,0,0,1-3-2.48,37.17,37.17,0,0,0-3-2.52,8.57,8.57,0,0,1-2.3-2.77c-.36-.62-.68-1.26-1-1.91a3,3,0,0,1,1.32-3.77c1.48-1,2.86-2.16,4.35-3.14a6.27,6.27,0,0,1,2.36-.91c1.4-.23,2.83-.15,4.23-.37a8.82,8.82,0,0,1,1.5-.15,1,1,0,0,1,1,.65,6.76,6.76,0,0,1,.13,2.23l0,1a14.9,14.9,0,0,0,.14,3.14,4.77,4.77,0,0,0,2.84,2.86c.42.17,5.38,2.42,5.9,2.47a10.05,10.05,0,0,0,1.55,0,6.63,6.63,0,0,0,3-1,2.69,2.69,0,0,0,1.5-2.84,9.32,9.32,0,0,1-.08-1.33,1.35,1.35,0,0,1,.28-1,4.51,4.51,0,0,0,.85-.77,6.59,6.59,0,0,0,1.05-1.89c.13-.34.25-.7.37-1.06.28-.83.72-1.21,1.47-1.2a3.89,3.89,0,0,1,.86.15,14.13,14.13,0,0,1,5.2,2.76,16.87,16.87,0,0,1,2.06,2.08,19.52,19.52,0,0,1,1.72,2.45,8.38,8.38,0,0,1,1.42,4.33,6.06,6.06,0,0,1-2.48,4.67,12.84,12.84,0,0,1-1.37,1,2.25,2.25,0,0,1-.31.16,3.82,3.82,0,0,0-.61.32.48.48,0,0,0-.17.21c-.07.2-.14.41-.2.63a3.65,3.65,0,0,0-.16,1.91c.06.24.36.47.72.65a3.73,3.73,0,0,0,.56.2,2.15,2.15,0,0,0,.53.07,6.49,6.49,0,0,0,1.69-.31c.19-.06.38-.11.56-.18a6.09,6.09,0,0,0,1.07-.57,9.4,9.4,0,0,0,.87-.69h0a38.09,38.09,0,0,1,.11,3.92h0a1.26,1.26,0,0,0-.11.49c0,.18,0,.37,0,.55,0,1.08,0,2.17,0,3.26l0,3.26c0,2.18.1,4.35.31,6.51.24,2.48.38,5,.4,7.42C700.31,598.27,700.3,599.5,700.25,600.72Z"/><path id="food" class="cls-5" d="M477.18,739.08c-7.09-5-10.91-12-18.82-14.43a1.87,1.87,0,0,0-2.56,1.11c-.39.88-.64,1.83-1.07,2.69a9,9,0,0,1-1.68,2.67,7,7,0,0,1-2.47.89,9.06,9.06,0,0,1-.06-2.43c.62-2.52,1.52-5,2.07-7.49,1-4.63.35-8.45-4-11.22a7,7,0,0,0-1.55-.73,10.23,10.23,0,0,0-6.21.18,4.2,4.2,0,0,0-2.41,1.87c-.25.49.68,1.61,1,2.47,1.1,2.79,2.31,5.55,3.24,8.4a8.52,8.52,0,0,1-2.52,9.68,4,4,0,0,1-4.19,1,7.54,7.54,0,0,0-5.7-.08c-.71.32-2.14-.46-2.91-1.16a31,31,0,0,1-3.5-4c-.79-1-1.18-.74-1.75.25a16.74,16.74,0,0,0-2.62,9.19c.16,4.45,2.41,7,6.68,7.2,1.12,0,2.25-.21,3.37-.24.82,0,1.22.47.64,1.21a10.45,10.45,0,0,1-2,1.93,10.76,10.76,0,0,1-1.68.79,2,2,0,0,0-1.28,2.72c.47,1.2,1.36.56,2.1.41,2.31-.47,4.6-1.06,6.92-1.46,3.72-.64,7.38.06,11,.81a3.55,3.55,0,0,1,1.78,1l.08.07a9.87,9.87,0,0,1,1,2.25c-.38.11-.75.25-1.12.37a3.44,3.44,0,0,1-1.07.21,13,13,0,0,1-3.68-.39,22,22,0,0,0-13.08.57,28.79,28.79,0,0,0-14.78,11.09,35.15,35.15,0,0,0-3.72,6.63,31.79,31.79,0,0,0-1.81,5.57,32.37,32.37,0,0,0-.84,11.34,49.75,49.75,0,0,0,2,9.5,6.89,6.89,0,0,0,4.1,4.5,17.62,17.62,0,0,0,10,.7,42.25,42.25,0,0,0,6.79-1.88,62.87,62.87,0,0,0,16.07-9.19c.92-.7,1.83-1.41,2.74-2.14a100.49,100.49,0,0,0,12.25-12.16c.54-.62,1.27-1.06,1.82-1.67.76-.85,1.45-1.77,2.13-2.69.45-.59,5.2-9.63,5.9-10.82A91.66,91.66,0,0,0,476,752.9c.36-1.46.74-2.92,1.12-4.38a15.87,15.87,0,0,1,.73-2.49c.2-.46.57-2.94,1.07-4.91C478.84,741.09,479.44,740.69,477.18,739.08Z"/><path id="leg" class="cls-6" d="M480.23,736.6a29.87,29.87,0,0,0-7.83-8.92,33.18,33.18,0,0,0-13-6.27c-2.53-.53-2.39-.7-2.81-3.64-.88-6.23-4.66-10.39-9.52-11.42a12.09,12.09,0,0,0-3.67-.18,14.24,14.24,0,0,0-5.76,2.1c-1.46.89-2.2.45-3.1-.59q-2.59-3-5.21-6l-5.07-5.86a187.77,187.77,0,0,1-16.65-22c-2.8-4.43-3.8-9.23-2.32-14.24a54.72,54.72,0,0,1,4.5-10.63c6.51-12,13.28-23.77,19.84-35.71,2.08-3.8,4.11-7.62,6.13-11.45-.61-1.68-1.13-3.22-1.58-4.32q-3.82-9.37-6.82-19.1A59.8,59.8,0,0,0,416,593.69c-4.84,8.9-9.34,18-13.83,27.1-5.52,11.18-11.25,22.28-14.85,34.39-1.69,5.71-3.12,11.44-3,17.54a17,17,0,0,0,3.05,10c4.56,6.35,9.15,12.69,13.87,18.91,1,1.35,2.06,2.71,3.1,4.06,4.6,5.91,9.58,11.49,14.4,17.22,1.45,1.72,1.44,2.1.52,4a39.7,39.7,0,0,0-2.59,5.86c-1.71,5.68-1.12,11.5,3.95,14.61,1.85,1.13,1.87,3.2,1.95,5.18.07,1.62-1.06,2.06-2.1,2.84-2.91,2.19-5.86,4.37-8.06,7.47a44.31,44.31,0,0,0-4,7,43.84,43.84,0,0,0-3.8,13.86,33.19,33.19,0,0,0,4.27,20.21,11.08,11.08,0,0,0,7.13,5.78,32.91,32.91,0,0,0,4.24.49,28.75,28.75,0,0,0,4.34-.32,62.19,62.19,0,0,0,9.15-3,65.39,65.39,0,0,0,7.16-3.46c2.13-1.19,4.22-2.47,6.26-3.82A63.19,63.19,0,0,0,462,786.16c2-2.53,11.56-17.37,13.28-22.08,1.8-5,3.79-9.32,4.77-14.32.19-1,.42-1.91.54-2.88.08-.68.37-6.67.37-6.89A6.9,6.9,0,0,0,480.23,736.6Zm-1.34,4.52c-.5,2-.87,4.45-1.07,4.91a15.87,15.87,0,0,0-.73,2.49c-.38,1.46-.76,2.92-1.12,4.38a91.66,91.66,0,0,1-4.07,11.27c-.7,1.19-5.45,10.23-5.9,10.82-.68.92-1.37,1.84-2.13,2.69-.55.61-1.28,1.05-1.82,1.67a100.49,100.49,0,0,1-12.25,12.16c-.91.73-1.82,1.44-2.74,2.14A62.87,62.87,0,0,1,431,802.84a42.25,42.25,0,0,1-6.79,1.88,17.62,17.62,0,0,1-10-.7,6.89,6.89,0,0,1-4.1-4.5,49.75,49.75,0,0,1-2-9.5,32.37,32.37,0,0,1,.84-11.34,31.79,31.79,0,0,1,1.81-5.57,35.15,35.15,0,0,1,3.72-6.63,28.79,28.79,0,0,1,14.78-11.09,22,22,0,0,1,13.08-.57,13,13,0,0,0,3.68.39,3.44,3.44,0,0,0,1.07-.21v-2.69a3.55,3.55,0,0,0-1.78-1c-3.63-.75-7.29-1.45-11-.81-2.32.4-4.61,1-6.92,1.46-.74.15-1.63.79-2.1-.41a2,2,0,0,1,1.28-2.72,10.76,10.76,0,0,0,1.68-.79,10.45,10.45,0,0,0,2-1.93c.58-.74.18-1.23-.64-1.21-1.12,0-2.25.28-3.37.24-4.27-.16-6.52-2.75-6.68-7.2a16.74,16.74,0,0,1,2.62-9.19c.57-1,1-1.27,1.75-.25a31,31,0,0,0,3.5,4c.77.7,2.2,1.48,2.91,1.16a7.54,7.54,0,0,1,5.7.08,4,4,0,0,0,4.19-1,8.52,8.52,0,0,0,2.52-9.68c-.93-2.85-2.14-5.61-3.24-8.4-.35-.86-1.28-2-1-2.47a4.2,4.2,0,0,1,2.41-1.87,10.23,10.23,0,0,1,6.21-.18,7,7,0,0,1,1.55.73c4.33,2.77,5,6.59,4,11.22-.55,2.53-1.45,5-2.07,7.49a9.06,9.06,0,0,0,.06,2.43,7,7,0,0,0,2.47-.89,9,9,0,0,0,1.68-2.67c.43-.86.68-1.81,1.07-2.69a1.87,1.87,0,0,1,2.56-1.11c7.91,2.42,11.73,9.41,18.82,14.43C479.44,740.69,478.84,741.09,478.89,741.12Z"/><path id="arm-2" data-name="arm" class="cls-4" d="M484.33,699.62c-15.39-4.26-28.63-10.48-37.27-16.94v23.67c4.86,1,8.64,5.19,9.52,11.42.42,2.94.28,3.11,2.81,3.64a33.18,33.18,0,0,1,13,6.27,29.87,29.87,0,0,1,7.83,8.92A6.9,6.9,0,0,1,481,740c0,.22-.29,6.21-.37,6.89-.12,1-.35,1.93-.54,2.88-1,5-3,9.37-4.77,14.32-1.72,4.71-11.28,19.55-13.28,22.08a63.19,63.19,0,0,1-14.93,13.45v27.8c13,19.64,26.69,39.06,41.95,55.11V700.83C487.46,700.45,485.9,700.05,484.33,699.62Z"/><path id="hand-3" data-name="hand" class="cls-4" d="M498.49,457.62c5.9-2.53,7-11.36,4.33-17.47a16.38,16.38,0,0,0-2.74-4.33,10.41,10.41,0,0,0-3.4-2.58,16.12,16.12,0,0,0-6.2-1.09,109.86,109.86,0,0,0-35.68,4.74c-4.7,1.43-9.67,3.48-12.23,7.89-2.69,4.65-2.92,11.86-3.7,17.21-.6,4.13-1.45,5.72.65,6.74l-4.84,1.61-.85.28c-4.26,1.41-9,3.2-11,7.43-2.87,6,1.28,12.93,2.63,19.52,2.58,12.66-5.47,25-6.25,37.92a59.53,59.53,0,0,0,1.1,13.44,228.61,228.61,0,0,0,7,29.43q3,9.71,6.82,19.1c.45,1.1,1,2.64,1.58,4.32a29.94,29.94,0,0,0,4.06,8.16,7.27,7.27,0,0,1,.91.17l2.32.64.74-3,3.31.92,1.89.52c3-4.25,4.72-11.66,5.17-15.25.52-4.11.3-8.38,1.53-12.32,3.93-12.68,19.55-15.64,30.3-22.76,4.19-2.79,7.65-6.2,9.37-11.08,2.45-6.93,0-15.45-5.64-19.77,6.47-2.39,11.23-9.28,11.42-16.55a18.93,18.93,0,0,0-7.81-15.64,16.13,16.13,0,0,0-2.74-1.56,13.27,13.27,0,0,0,3.1-1.67,18.44,18.44,0,0,0,6.95-10.82,28,28,0,0,0-1.79-16.7,22.69,22.69,0,0,0-1.68-3.34,12.16,12.16,0,0,0-3-3.33,11.27,11.27,0,0,0,3.37-.44A7.56,7.56,0,0,0,498.49,457.62Zm-9.61,76.46c.14-1.18.28-2.35.41-3.53C489.26,530.85,489.11,532.12,488.88,534.08Zm5.93-52.46c-.13,1.22-.24,2.44-.37,3.66-.16,1.39-.34,2.79-.52,4.18C494.21,486.94,494.5,484.32,494.81,481.62Z"/><path id="food-2" data-name="food" class="cls-5" d="M573.87,759.69c-.39.28-.59.87-.67,1.83,0,.46-.08.92-.15,1.36a11.45,11.45,0,0,1-.28,1.32c0,.21-.14.42-.21.63s-.12.43-.21.63a8.55,8.55,0,0,1-.59,1.22,6,6,0,0,1-.65.94l-.18.18a4,4,0,0,1-1.18.87l-.33.15a4,4,0,0,1-.81.21l-.28.05-.63.08-1.05.13c-.55.06-1.11.12-1.66.14-.28,0-.56,0-.84,0a7.69,7.69,0,0,1-.83,0l-.85-.12a8.52,8.52,0,0,1-.84-.2l-.27-.09a5.75,5.75,0,0,1-1.79-.89l-.29-.23a2.8,2.8,0,0,1-.46-.57,3.4,3.4,0,0,1-.46-1.44,6.75,6.75,0,0,1,0-.9,8.55,8.55,0,0,1,.14-1,10.57,10.57,0,0,0,.14-1.13c0-.38.05-.76.05-1.14a4.86,4.86,0,0,0-.07-.8l0-.14a3.56,3.56,0,0,0-.2-.65,2.43,2.43,0,0,0-.28-.47,1.7,1.7,0,0,0-.86-.59,2.29,2.29,0,0,0-.36-.07,3.32,3.32,0,0,0-1.73.41,9.12,9.12,0,0,0-.79.47c-.18.11-.35.22-.53.31a2.44,2.44,0,0,1-.34.14,1.44,1.44,0,0,1-.45.09,5.88,5.88,0,0,0-3.84,1.47,8.75,8.75,0,0,0-.8.81,24,24,0,0,0-2.35,3.42,5,5,0,0,0-.51,1.11,3.83,3.83,0,0,0-.16.58,5.4,5.4,0,0,0-.09.58c0,.28,0,.54.06.8a6.26,6.26,0,0,0,.95,3.15h0a7.76,7.76,0,0,0,.5.67l.07.09.06.06a11.15,11.15,0,0,0,.8.87l.13.12a6.32,6.32,0,0,0,1.29,1,3.36,3.36,0,0,0,.54.26,5,5,0,0,0,1.19.32,1.44,1.44,0,0,1,.61.25,1.78,1.78,0,0,1,.26.22,1,1,0,0,1,.2.25l0,.09h0c0,.07.07.13.1.21a2.41,2.41,0,0,1,.08.25.55.55,0,0,1-.14.51l-.08,0a1,1,0,0,1-.31.12l-.09,0-.48,0a9.32,9.32,0,0,1-1.9.06,4.1,4.1,0,0,1-1.18-.26,3.58,3.58,0,0,1-.56-.27,4.56,4.56,0,0,1-.54-.39,3.62,3.62,0,0,0-.32-.22,4.73,4.73,0,0,0-.46-.32l-.15-.07-.26-.1a1.91,1.91,0,0,0-.63-.13h0l-.17.55-.58,1.89-5.73,8.45c-.15.38-.32.75-.48,1.12-.3.66-.61,1.31-.87,2l-.1.24c-.9,2.29-1.83,4.56-2.68,6.87-.3.79-.58,1.59-.86,2.39-.48,1.43-.93,2.88-1.34,4.35-.12.43-.23.86-.34,1.29-.28,1-.57,2.07-.83,3.11a9.68,9.68,0,0,0-.18,1,7.69,7.69,0,0,0,.36,3.39,8.71,8.71,0,0,0,.69,1.57,8.12,8.12,0,0,0,.45.74c.16.25.33.49.51.73.44.57.89,1.12,1.36,1.66s1,1,1.44,1.54.85.82,1.29,1.22.82.72,1.25,1.07h0c.38.31.77.61,1.16.9s.89.66,1.35,1,1,.65,1.45,1c1.18.73,2.41,1.4,3.67,2,.72.35,1.44.7,2.17,1a63.87,63.87,0,0,0,6.67,2.6c1,.32,2,.62,3,.88,2,.51,4,1,6.07,1.32L565,832c1.67.26,3.34.49,5,.65l1,.07c.39,0,.77,0,1.16.06l.74,0c.73,0,1.45,0,2.18,0,2.18,0,4.37-.11,6.56-.1a28.23,28.23,0,0,0,5-.43c.4-.07.81-.14,1.21-.23,1.22-.25,2.42-.57,3.61-.92s2.11-.68,3.15-1A64.32,64.32,0,0,0,601.4,827l.37-.17c.63-.32,1.26-.63,1.89-.92a4.86,4.86,0,0,0,.64-.36,3.67,3.67,0,0,0,.51-.44,3.32,3.32,0,0,0,.38-.46,3.42,3.42,0,0,0,.33-.59,4.72,4.72,0,0,0,.3-.92,6.34,6.34,0,0,0,.14-1c0-.23,0-.46,0-.69,0-.55,0-1.09-.05-1.63s0-1.12-.07-1.68V818l-.09-1.5c0-.55-.07-1.1-.1-1.65s-.08-1.16-.14-1.73-.13-1.14-.21-1.7a35.06,35.06,0,0,0-1.06-4.89c-.15-.52-.31-1-.49-1.56l-.15-.41a35.24,35.24,0,0,0-2.51-5.48,39.16,39.16,0,0,0-5.93-7.87c-.48-.51-1-1-1.48-1.45s-1-.9-1.54-1.32-1.06-.81-1.6-1.19a25.89,25.89,0,0,0-3.85-2.21c-.45-.21-.9-.41-1.37-.59l-.62-.22c-.51-.19-1-.36-1.55-.52s-1.1-.32-1.67-.45-1-.19-1.44-.26-.95-.11-1.42-.14-.7,0-1.06,0l-1.05,0c-.39,0-.77.06-1.16.1a32.7,32.7,0,0,0-5.09,1,31.27,31.27,0,0,0-8.95,4,30.14,30.14,0,0,0-2.6,1.88c-.84.67-1.65,1.39-2.42,2.14s-1.53,1.55-2.25,2.39c-.36.42-.72.84-1.07,1.28L552,797c-.55.75-1.08,1.54-1.6,2.34l-.33.51-.28.44c-.28.46-.58.92-.9,1.36a6.3,6.3,0,0,1-.37.53h0l0,0a1,1,0,0,1-.23.16l-.17.08-.27.06a.9.9,0,0,1-.24,0,.32.32,0,0,1-.16-.13.76.76,0,0,1-.15-.23.86.86,0,0,1-.11-.51c.08-.46.17-.93.29-1.38.06-.23.12-.45.2-.67s.16-.43.26-.64c.2-.4.42-.78.63-1.17.4-.73.81-1.43,1.25-2.11l.32-.49c.08-.13.18-.25.26-.38.53-.75,1.08-1.48,1.66-2.18a35.91,35.91,0,0,1,4.35-4.37c.87-.73,1.76-1.43,2.7-2.09s1.84-1.27,2.78-1.83a32.47,32.47,0,0,1,4.28-2.17c.73-.31,1.46-.58,2.2-.83s1.48-.46,2.23-.64,1.24-.27,1.86-.38h.1l.22,0c.56-.09,1.13-.16,1.7-.21h0l.19,0h0c.66-.06,1.33-.1,2-.11h.1c.69,0,1.39,0,2.1.06l.31,0,.21,0c1,.09,2.07.23,3.13.43l.66.12.39.06h.33a.92.92,0,0,0,.25-.08.72.72,0,0,0,.41-.59,1.39,1.39,0,0,0,0-.3v0c0-.06,0-.13,0-.2a1.15,1.15,0,0,1,0-.19c0-.21,0-.42-.08-.64s-.06-.57-.1-.85a9.15,9.15,0,0,0-.22-1c-.08-.27-.15-.49-.21-.68s-.09-.24-.13-.34a1.07,1.07,0,0,0-.13-.21.57.57,0,0,0-.25-.24.76.76,0,0,0-.27,0l-.31,0h0l-.11,0c-.17.05-.38.12-.61.21l-.35.13-.47.19a10.4,10.4,0,0,1-1.44.52,2.93,2.93,0,0,1-.65.1,1.31,1.31,0,0,1-.47-.07,10.62,10.62,0,0,1-1.29-.67l-.12-.07.21-.35a7.92,7.92,0,0,1,.42-.69,1.87,1.87,0,0,1,.26-.3c.6-.56,1.22-1.1,1.83-1.64s1.24-1.09,1.83-1.66c.17-.16.32-.31.46-.47s.27-.32.39-.48l.16-.23a5,5,0,0,0,.77-1.67,4.26,4.26,0,0,0,0-1.78,4.83,4.83,0,0,0-.17-.59,7.41,7.41,0,0,0-1.49-2.34,12,12,0,0,0-3.67-2.75c-.54-.26-1.1-.49-1.67-.7l-.86-.29A2.13,2.13,0,0,0,573.87,759.69Z"/><path id="leg-2" data-name="leg" class="cls-6" d="M608.88,815.4c-.1-1.61-.25-3.2-.49-4.78l-.06-.29c0-.24-.09-.48-.13-.72q-.15-.86-.33-1.68c-.14-.67-.3-1.34-.49-2a31.92,31.92,0,0,0-1.65-4.59A40.2,40.2,0,0,0,598,789.52a33.6,33.6,0,0,0-4.18-3.7q-1.12-.86-2.34-1.62c-.29-.18-.6-.36-.91-.53a6.29,6.29,0,0,1-2.35-1.93c-2-3.33-3.31-6.93-2.24-11a14.4,14.4,0,0,0,.43-2.35,9.45,9.45,0,0,0-.06-2.26,7.74,7.74,0,0,0-.66-2.13,8.11,8.11,0,0,0-1.37-2l-.44-.44c-.24-.25-.49-.48-.74-.71l-.17-.16c-.22-.19-.45-.39-.68-.57l-.25-.19-.61-.46c-.31-.21-.62-.42-.93-.61a18.07,18.07,0,0,0-4.47-1.9c-.49-.13-1-.19-1.2-.58a1.07,1.07,0,0,1-.13-.52c0-.91.54-7.79,1.16-14.78.2-2.3.4-4.61.59-6.72a69.42,69.42,0,0,0,.75-8.58h0c0-.36.08-1,.14-1.92q.44-6,.84-12.1.76-11,1.51-22c.06-.86.07-1.72.11-2.58.37-6.88.78-13.76,1.09-20.64v0h0c.11-2,.18-3.55.22-4.53v0c.21-6.12,0-12.25,0-18.38,0-2.56.07-5.12.09-7.68,0-1.28,0-2.56,0-3.84,0-2.23,0-4.46-.1-6.68l0-.72c-.05-1.37-.09-2.74-.16-4.1-.15-2.56-.35-5.11-.64-7.66-.07-.55-.12-1.11-.18-1.67-.17-1.67-.33-3.34-.57-5-.16-1.1-.36-2.2-.62-3.29a23.24,23.24,0,0,0-1-3.21c-.11-.29-.23-.56-.35-.83a1.11,1.11,0,0,1-.07-.16c0-.11-.11-.21-.16-.32a6.55,6.55,0,0,0-4.91-4,7.12,7.12,0,0,0-2.06,0c-.24,0-.48.08-.72.14-1.77.4-3.41,1.36-3.73,2.78-.52,2.33-.78,1.4-1.29,5.42a90.18,90.18,0,0,0-.4,10.45v0c0,1.81-.1,4.26-.17,7.15,0,1.08-.05,2.17-.07,3.25,0,.37,0,.75,0,1.12-.13,5.76-.28,12.57-.42,19.32l.35.09v0a6.71,6.71,0,0,1,4.12,8,6.41,6.41,0,0,1-4.76,4.81c0,1.85-.09,3.63-.13,5.29v.05c0,.75,0,1.47-.06,2.18a6.89,6.89,0,0,1,.68,5,6.67,6.67,0,0,1-.88,2c0,.81,0,1.62-.08,2.43-.48,11.66-1.14,23.31-1.71,35-.39,7.83-.75,15.67-1.13,23.5,0,1-.21,1.91-.25,2.86l-.06,1.68h0c-.09,1.23-.19,2.61-.29,4-.34,4.77-.72,10.1-.82,11.92,0,.06,0,.12,0,.19a1.28,1.28,0,0,0,0,.34.76.76,0,0,0,0,.15,3.68,3.68,0,0,1,.07.7,2.12,2.12,0,0,1-.27,1,2.94,2.94,0,0,1-1.6,1.14l-.52.18a11.88,11.88,0,0,1-2.39.35h0a16.67,16.67,0,0,0-2.07.22h0a9.44,9.44,0,0,0-2.12.84c-.42.21-.88.45-1.46.77a12.92,12.92,0,0,0-3.5,2.72l-2.21,6.47a15.48,15.48,0,0,0,0,2.64c0,.12,0,.28,0,.39l.11,1-7.81,15.32h0l0,0-.14.33h0l-.11.21h0c-.39.84-.73,1.7-1.11,2.55a75.69,75.69,0,0,0-3.93,10.53c-.33,1.2-.64,2.42-.89,3.66-.13.65-.23,1.3-.3,1.94a16,16,0,0,0,1.57,9,17.69,17.69,0,0,0,2.09,3.22,34.47,34.47,0,0,0,2.33,2.59,35,35,0,0,0,5.18,4.25,49.48,49.48,0,0,0,8.73,4.6c2,.85,4.12,1.61,6.22,2.33l1.34.44c.82.25,1.64.48,2.46.7l.82.22c.85.22,1.71.42,2.57.6a61,61,0,0,0,7.35,1c2.42.2,4.86.35,7.29.39,1.2,0,2.39,0,3.58,0s2.07-.1,3.1-.19l.6,0c1.54-.15,3.07-.37,4.6-.65a60.67,60.67,0,0,0,9-2.43q2.2-.78,4.38-1.73l.27-.13.25-.13c.39-.19.76-.4,1.14-.63l.58-.37.52-.37a12.88,12.88,0,0,0,3.37-3.84,10.79,10.79,0,0,0,1.41-5.26C609,818.64,609,817,608.88,815.4ZM577,727.85c-.06.64-.13,1.4-.2,2.24.07-.84.14-1.6.2-2.24s.07-.91.1-1.26C577.07,726.94,577,727.36,577,727.85Zm29,94.3a6.34,6.34,0,0,1-.14,1,4.72,4.72,0,0,1-.3.92,3.42,3.42,0,0,1-.33.59,3.32,3.32,0,0,1-.38.46,3.67,3.67,0,0,1-.51.44,4.86,4.86,0,0,1-.64.36c-.63.29-1.26.6-1.89.92l-.37.17a64.32,64.32,0,0,1-6.83,3.11c-1,.37-2.09.73-3.15,1s-2.39.67-3.61.92c-.4.09-.81.16-1.21.23a28.23,28.23,0,0,1-5,.43c-2.19,0-4.38.08-6.56.1-.73,0-1.45,0-2.18,0l-.74,0c-.39,0-.77,0-1.16-.06l-1-.07c-1.66-.16-3.33-.39-5-.65l-1.14-.18c-2-.36-4.07-.81-6.07-1.32-1-.26-2-.56-3-.88a63.87,63.87,0,0,1-6.67-2.6c-.73-.33-1.45-.68-2.17-1-1.26-.63-2.49-1.3-3.67-2-.49-.3-1-.62-1.45-1-.86-.59-1.7-1.22-2.51-1.88h0c-.37-.31-.74-.61-1.1-.93l-.15-.14c-.44-.4-.87-.8-1.29-1.22s-1-1-1.44-1.54-.92-1.09-1.36-1.66c-.18-.24-.35-.48-.51-.73a8.12,8.12,0,0,1-.45-.74,8.71,8.71,0,0,1-.69-1.57,7.69,7.69,0,0,1-.36-3.39,9.68,9.68,0,0,1,.18-1c.26-1,.55-2.07.83-3.11.11-.43.22-.86.34-1.29.41-1.47.86-2.92,1.34-4.35.28-.8.56-1.6.86-2.39.85-2.31,1.78-4.58,2.68-6.87l.1-.24c.26-.68.57-1.33.87-2,.16-.37.33-.74.48-1.12l5.73-8.45.58-1.89.17-.55h0a1.91,1.91,0,0,1,.63.13l.26.1.15.07a4.73,4.73,0,0,1,.46.32,3.62,3.62,0,0,1,.32.22,4.56,4.56,0,0,0,.54.39,3.58,3.58,0,0,0,.56.27,4.1,4.1,0,0,0,1.18.26,9.32,9.32,0,0,0,1.9-.06l.48,0,.09,0a1,1,0,0,0,.31-.12l.08,0a.55.55,0,0,0,.14-.51,2.41,2.41,0,0,0-.08-.25l-.1-.21,0-.09a1,1,0,0,0-.2-.25,1.78,1.78,0,0,0-.26-.22,1.44,1.44,0,0,0-.61-.25,5,5,0,0,1-1.19-.32,3.36,3.36,0,0,1-.54-.26,6.32,6.32,0,0,1-1.29-1l-.13-.12a11.15,11.15,0,0,1-.8-.87l-.06-.06-.07-.09a7.76,7.76,0,0,1-.5-.67,6.26,6.26,0,0,1-.95-3.15c0-.26,0-.52-.06-.8a5.4,5.4,0,0,1,.09-.58,3.83,3.83,0,0,1,.16-.58,5,5,0,0,1,.51-1.11,24,24,0,0,1,2.35-3.42,8.75,8.75,0,0,1,.8-.81,5.88,5.88,0,0,1,3.84-1.47,1.44,1.44,0,0,0,.45-.09,2.44,2.44,0,0,0,.34-.14c.18-.09.35-.2.53-.31a9.12,9.12,0,0,1,.79-.47,1.85,1.85,0,0,1-.28.09,1.85,1.85,0,0,0,.28-.09,3.32,3.32,0,0,1,1.73-.41,2.29,2.29,0,0,1,.36.07,1.7,1.7,0,0,1,.86.59,2.74,2.74,0,0,1,.48,1.12l0,.14a4.71,4.71,0,0,1,.07.78v0h0c0,.38,0,.76-.05,1.14a10.57,10.57,0,0,1-.14,1.13,8.55,8.55,0,0,0-.14,1,6.75,6.75,0,0,0,0,.9,3.4,3.4,0,0,0,.46,1.44,2.8,2.8,0,0,0,.46.57l.29.23.06.06a5.66,5.66,0,0,0,1.37.71l.36.12.27.09a8.52,8.52,0,0,0,.84.2l.85.12a7.69,7.69,0,0,0,.83,0c.28,0,.56,0,.84,0,.55,0,1.11-.08,1.66-.14l1.05-.13.63-.08.28-.05a4,4,0,0,0,.81-.21l.33-.15a4,4,0,0,0,1.18-.87l.18-.18a6,6,0,0,0,.65-.94,8.55,8.55,0,0,0,.59-1.22c.09-.2.14-.42.21-.63s.16-.42.21-.63a11.45,11.45,0,0,0,.28-1.32c.07-.44.12-.9.15-1.36.08-1,.28-1.55.67-1.83a2.13,2.13,0,0,1,1.84,0l.86.29c.57.21,1.13.44,1.67.7a12,12,0,0,1,3.67,2.75,7.41,7.41,0,0,1,1.49,2.34,4.83,4.83,0,0,1,.17.59,4.26,4.26,0,0,1,0,1.78,5,5,0,0,1-.77,1.67l-.16.23q-.18.24-.39.48c-.14.16-.29.31-.46.47-.59.57-1.21,1.12-1.83,1.66s-1.23,1.08-1.83,1.64a1.87,1.87,0,0,0-.26.3,7.92,7.92,0,0,0-.42.69l-.21.35.12.07a10.62,10.62,0,0,0,1.29.67,1.31,1.31,0,0,0,.47.07,2.93,2.93,0,0,0,.65-.1,10.4,10.4,0,0,0,1.44-.52l.47-.19.35-.13c.23-.09.44-.16.61-.21l.11,0h0l.31,0a.76.76,0,0,1,.27,0,.57.57,0,0,1,.25.24,1.07,1.07,0,0,1,.13.21c0,.1.08.22.13.34s.13.41.21.68a9.15,9.15,0,0,1,.22,1c0,.28.07.57.1.85s.05.43.08.64a1.15,1.15,0,0,0,0,.19c0,.07,0,.14,0,.2v0a1.39,1.39,0,0,1,0,.3.72.72,0,0,1-.41.59.92.92,0,0,1-.25.08h-.33l-.39-.06-.66-.12-.85-.16c-.75-.12-1.5-.2-2.24-.26h0l-.42,0c-.74,0-1.48-.08-2.21-.07h-.09c-.67,0-1.34.05-2,.11h0c-.4,0-.8.1-1.2.15l-.82.1-.13,0c-.65.1-1.29.23-1.92.38s-1.49.4-2.23.64-1.47.52-2.2.83a32.47,32.47,0,0,0-4.28,2.17c-.94.56-1.87,1.17-2.78,1.83s-1.83,1.36-2.7,2.09a35.91,35.91,0,0,0-4.35,4.37c-.58.7-1.13,1.43-1.66,2.18-.08.13-.18.25-.26.38l-.32.49c-.44.68-.85,1.38-1.25,2.11-.21.39-.43.77-.63,1.17-.1.21-.18.42-.26.64s-.14.44-.2.67c-.12.45-.21.92-.29,1.38a.86.86,0,0,0,.11.51.76.76,0,0,0,.15.23.32.32,0,0,0,.16.13.9.9,0,0,0,.24,0l.27-.06.17-.08a1,1,0,0,0,.23-.16l0,0a6.3,6.3,0,0,0,.37-.53c.32-.44.62-.9.9-1.36l.28-.44.33-.51c.52-.8,1-1.59,1.6-2.34l1-1.34c.35-.44.71-.86,1.07-1.28.72-.84,1.47-1.63,2.25-2.39s1.58-1.47,2.42-2.14a30.14,30.14,0,0,1,2.6-1.88,31.27,31.27,0,0,1,8.95-4,32.7,32.7,0,0,1,5.09-1c.39,0,.77-.08,1.16-.1l1.05,0c.36,0,.71,0,1.06,0s1,.08,1.42.14,1,.15,1.44.26,1.12.28,1.67.45h0c.74.22,1.47.46,2.17.74.47.18.92.38,1.37.59a25.89,25.89,0,0,1,3.85,2.21c.54.38,1.08.77,1.6,1.19s1,.86,1.54,1.32,1,.94,1.48,1.45a39.16,39.16,0,0,1,5.93,7.87,35.24,35.24,0,0,1,2.51,5.48l.15.41c.18.52.34,1,.49,1.56a35.06,35.06,0,0,1,1.06,4.89c.08.56.15,1.12.21,1.7s.11,1.15.14,1.73.07,1.1.1,1.65l.09,1.5v.12h0c.06,1.1.11,2.2.12,3.31C606,821.69,606,821.92,606,822.15Z"/><path id="socket" class="cls-6" d="M489,679.93l-41.95-11.59-10.2-2.82c-.09.24-.17.49-.24.74-1.19,4.88,2.84,10.74,10.44,16.42,8.64,6.46,21.88,12.68,37.27,16.94,1.57.43,3.13.83,4.68,1.21,26.93,6.53,49.87,4.23,52.3-5.63a6.51,6.51,0,0,0,.13-.77Z"/><polygon id="socket-2" data-name="socket" class="cls-7" points="434.5 645.5 552.71 678.18 553.83 673.65 435.61 640.97 434.5 645.5"/><polygon id="socket-3" data-name="socket" class="cls-7" points="489.01 674.29 466.59 668.09 431.34 658.35 430.04 663.63 436.86 665.52 447.06 668.34 489.01 679.93 541.44 694.43 548.26 696.32 549.56 691.03 489.01 674.29"/><polygon id="socket-4" data-name="socket" class="cls-7" points="540.02 651.28 452.23 627.01 439.88 623.6 438.77 628.13 456.43 633.01 523.76 651.63 556.98 660.81 558.1 656.28 540.02 651.28"/><polygon id="socket-5" data-name="socket" class="cls-7" points="554.3 638.29 448.98 609.17 447.09 608.65 443.78 607.73 443.04 610.75 446.44 611.7 447.76 612.06 552.27 640.95 561.25 643.44 561.99 640.41 554.3 638.29"/><path id="socket-6" data-name="socket" class="cls-6" d="M555.38,678.94v0l-2.67-.73L434.5,645.5l-2.32-.64a6.23,6.23,0,0,0-7.63,4.75,6.69,6.69,0,0,0,4.48,8.1l2.31.64,35.25,9.74,22.42,6.2L549.56,691l2.67.74v0a6.25,6.25,0,0,0,7.27-4.83A6.7,6.7,0,0,0,555.38,678.94Z"/><path id="socket-7" data-name="socket" class="cls-6" d="M563.09,664.5a6.26,6.26,0,0,0-3.44-2.93v0l-2.67-.74-33.22-9.18L456.43,633l-17.66-4.88-2.32-.64a6.23,6.23,0,0,0-7.63,4.75,6.67,6.67,0,0,0,4.48,8.09l2.31.64,118.22,32.68,2.67.74v0a6.09,6.09,0,0,0,6.39-2.78,6.67,6.67,0,0,0,.88-2A6.89,6.89,0,0,0,563.09,664.5Z"/><path id="socket-8" data-name="socket" class="cls-6" d="M563.92,644.19v0l-.35-.09-2.32-.64-9-2.49L447.76,612.06l-1.32-.36-3.4-1-2.32-.64a7.27,7.27,0,0,0-.91-.17,6.29,6.29,0,0,0-6.72,4.92,6.69,6.69,0,0,0,4.48,8.1l2.31.64L452.23,627,540,651.28l18.08,5,2.67.74v0a5.9,5.9,0,0,0,2.51,0,6.41,6.41,0,0,0,4.76-4.81A6.71,6.71,0,0,0,563.92,644.19Z"/><path id="eye" class="cls-6" d="M500.74,327.59a18.22,18.22,0,0,0-10.49-14.53,17.19,17.19,0,0,0-10.38-1.35c-9.89,1.81-16.62,11.89-14.9,22.34a20.13,20.13,0,0,0,1.21,4.22,19.17,19.17,0,0,0,8.52,9.65,16.78,16.78,0,0,0,11.43,1.85c8.45-1.7,14.66-9.59,15-18A17,17,0,0,0,500.74,327.59Zm-10-1.47c-.07,2.67-1.13,4.76-3.71,5.12a4.09,4.09,0,0,1-4.84-3.84c-.36-2.69,1-4.75,3.61-5.13S490,323.48,490.77,326.12ZM480,337.85a.39.39,0,0,1-.11.06c-.59.17-1.55-1.07-2.34-1.68.61-.87,1.06-2.15,1.86-2.49.62-.26,1.66.6,3.12,1.26l.08,0C481.5,336.33,480.87,337.52,480,337.85Z"/><path id="eye-2" data-name="eye" class="cls-6" d="M566.38,334.83c10-1.61,16.6-11.62,14.87-22.18S570,295.09,560.16,297c-10.81,2.38-16.57,12-14.71,22.42C547.35,330.18,555.74,336.55,566.38,334.83Zm1.46-17.28c.57-.28,1.65.59,3.17,1.23-1.17,1.4-1.76,2.68-2.6,2.9-.63.17-1.58-1-2.38-1.61C566.61,319.19,567,317.93,567.84,317.55Zm-10.62-8.26a7.1,7.1,0,0,1,.85-.31c2.17-.65,5,1.55,5.12,3.92.15,2.74-1.25,4.68-3.71,5a5.39,5.39,0,0,1-.88.07c-2,0-3.51-1.24-3.86-3.8A4.07,4.07,0,0,1,557.22,309.29Z"/><path id="eyebrow" class="cls-6" d="M550.55,285.43c6.21,1.54,12.44,3,18.7,4.2,1.09.22,2.37-.69,3.56-1.08-1-1-1.9-2.51-3.07-2.82-4.46-1.19-9-2-13.54-2.92-2.08-.45-4.15-1-6.56-1.52l-1.68,2C548.82,284,549.58,285.19,550.55,285.43Z"/><path id="eyebrow-2" data-name="eyebrow" class="cls-6" d="M468,308.55a60.07,60.07,0,0,0,5.78-3.58c4-2.6,8-5.16,11.93-7.9a4.25,4.25,0,0,0,1.08-2.76c0-.31-1.16-.76-1.85-1.17L479,297c-4.3,2.81-8.64,5.56-12.86,8.51-.63.44-.66,1.83-1,2.78C466.12,308.42,467.24,308.92,468,308.55Z"/><path class="cls-8" d="M487.44,374c-.82-5-7.49-8-15.27-7.06-.5.06-1,.14-1.53.23a21.32,21.32,0,0,0-10.06,4.59c-2.63,2.28-4.05,5.08-3.6,7.82s2.77,5,6.07,6.16a20.74,20.74,0,0,0,10.72.67,25.6,25.6,0,0,0,4.2-1.17C484.12,382.9,488.15,378.36,487.44,374Z"/><path class="cls-8" d="M599.11,353.51a6.35,6.35,0,0,0-1.3-2.91c-2.65-3.44-8.78-5.14-15.49-3.91-8.41,1.54-14.53,7.1-13.66,12.41.47,2.92,3,5.15,6.51,6.32a21.25,21.25,0,0,0,10.28.5C593.86,364.38,600,358.82,599.11,353.51Z"/><path id="mouth" class="cls-6" d="M513,377.93s-2.25-3,.17-3.39c0,0,15,6.89,19.91,5.93,0,0,7.91-.13,11.83-4.84,0,0,2-3.27,2.83-3.51,0,0,2.75-1.21,0,4,0,0-12.83,16.69-21,10.52Z"/><path id="beam" class="cls-2" d="M711.06,305.72H667.64a3.13,3.13,0,0,0,0,6.25h43.42a3.13,3.13,0,0,0,0-6.25Z"/><path id="beam-2" data-name="beam" class="cls-2" d="M388.78,305.72H345.36a3.13,3.13,0,0,0,0,6.25h43.42a3.13,3.13,0,0,0,0-6.25Z"/><path id="beam-3" data-name="beam" class="cls-2" d="M535,162.37a3,3,0,0,0-2.94,3.12v46.06a3,3,0,1,0,5.89,0V165.49A3,3,0,0,0,535,162.37Z"/><path id="beam-4" data-name="beam" class="cls-2" d="M667.09,214.53a2.82,2.82,0,0,0-4.16,0l-30.7,32.57a3.25,3.25,0,0,0,0,4.41,2.82,2.82,0,0,0,4.16,0L667.09,219A3.26,3.26,0,0,0,667.09,214.53Z"/><path id="beam-5" data-name="beam" class="cls-2" d="M407.1,204.38a2.83,2.83,0,0,0-4.17,0,3.26,3.26,0,0,0,0,4.42l30.71,32.56a2.82,2.82,0,0,0,4.16,0,3.25,3.25,0,0,0,0-4.41Z"/><path id="hand-4" data-name="hand" class="cls-5" d="M366,517.83a6.11,6.11,0,0,1-6.55-3.74,10.49,10.49,0,0,1-.77-3,7.46,7.46,0,0,1,0-1.25c0-.46.06-.86.08-1.21a5.69,5.69,0,0,0-.06-1.58.9.9,0,0,0-.6-.7,2.36,2.36,0,0,0-.59-.09,6.17,6.17,0,0,0-.83,0l-1.1.12a26.73,26.73,0,0,0-3.36.62l-.82.25a10,10,0,0,0-2.28,1,7.74,7.74,0,0,0-2.12,1.88,5.11,5.11,0,0,0-.61,1,4.65,4.65,0,0,0-.23.69c-.41,1.63.12,3.44,1.54,5.29a15.89,15.89,0,0,0,2,2l1.07,1,1.06,1c.25.24.48.51.73.76s.51.49.74.77a2.57,2.57,0,0,1,.27.85l-.42.13a1.32,1.32,0,0,1-.43.09,8.12,8.12,0,0,1-4.25-1,14.16,14.16,0,0,1-1.29-.77l-.77-.49c-1.59-1-1.85-.67-2.93,1.52-2.05,4.13-4.16,8.23-6.18,12.39a96.82,96.82,0,0,0-7.91,23.44,71,71,0,0,0-1.22,21.53,29.89,29.89,0,0,0,.71,4c.15.66.32,1.31.5,2l.54,1.95h0c.24.85.19,2.05,1.7,2.25,1.21-.09.58-1.92.63-2.89.1-2,0-4,0-6-.06,0,.05-3.88.21-7.13.06-.86.1-1.72.16-2.57a3.89,3.89,0,0,1,.71-1.9.73.73,0,0,1,.42-.29h.16c.21,0,.4.19.45.62.08.93.09,1.88.08,2.82,0,1.62,0,3.25,0,4.87a96.76,96.76,0,0,0,1.12,14.52h0a4.87,4.87,0,0,0,.87,3.06A6.2,6.2,0,0,0,338,597a.45.45,0,0,1,.15-.11.93.93,0,0,1,.35-.09h0a2.81,2.81,0,0,0,.49-.1,1,1,0,0,0,.56-.45,1.45,1.45,0,0,0,.18-.67,6.48,6.48,0,0,0,0-.76c0-.13,0-.26,0-.38,0-2.93,0-5.86,0-8.79s0-5.86.05-8.79a9.11,9.11,0,0,1-.09-2.33c.12-.39.43-.66,1.1-.66a1.1,1.1,0,0,1,.43.08.78.78,0,0,1,.42.56,4.22,4.22,0,0,1,0,1.34,6.56,6.56,0,0,0,0,.87c.31,4.17.46,8.35.74,12.52a28.9,28.9,0,0,1,0,4.76,21.39,21.39,0,0,0-.16,3.57,4.58,4.58,0,0,0,.62,1.45A5.93,5.93,0,0,0,347,601.6c1.07.13,1.72-.14,1.67-1.46-.08-2-.12-4-.11-5.95,0-.48,1.19-.92,1.58-.65a4.3,4.3,0,0,1,1.74,2.6,5.81,5.81,0,0,1,.16,1.12c0,.62,0,1.26.08,1.88a14.45,14.45,0,0,0,.19,1.87c0,.18.07.37.12.54A4.7,4.7,0,0,0,353,603a3.28,3.28,0,0,0,.7.74,3,3,0,0,0,1,.48,2.54,2.54,0,0,0,1.11.09,2.51,2.51,0,0,0,1.65-1.07,4.52,4.52,0,0,0,.55-1,15.18,15.18,0,0,0,1.23-4.41c.36-4,.49-7.93.74-11.89.07-1.1.16-3.78.35-6.38.1-1.4.22-2.77.38-3.86a29,29,0,0,1,2.54-8.42,26.66,26.66,0,0,1,1.41-2.56,14.36,14.36,0,0,1,1-1.45A13.35,13.35,0,0,1,368,561a13.1,13.1,0,0,1,2.73-1.64,14.49,14.49,0,0,1,4.74-1.18,7.71,7.71,0,0,1,1.44,0,7.36,7.36,0,0,1,1.34.23,6.18,6.18,0,0,1,3.27,2.22,8.65,8.65,0,0,1,1.37,2.79,12.59,12.59,0,0,1,.4,1.8c.16,1.08.28,2.17.4,3.26s.25,2.18.4,3.27a4.47,4.47,0,0,0,1,2.31,3.43,3.43,0,0,0,.88.74,3.18,3.18,0,0,0,1.05.4,3.39,3.39,0,0,0,1.27,0,4.38,4.38,0,0,0,2.26-1.3,4.53,4.53,0,0,0,.8-1.13,6.26,6.26,0,0,0,.66-2.16c0-.24.05-.49.06-.73a16,16,0,0,0-.24-2.93,39.4,39.4,0,0,1-.5-6.39,35.46,35.46,0,0,1,.63-6.38,22.41,22.41,0,0,0,.33-2.49,18.73,18.73,0,0,0-.77-6.93,20.3,20.3,0,0,0-1.82-4.21c-.38-.68-.8-1.34-1.26-2s-.95-1.29-1.47-1.92c-.64-.78-1.3-1.54-1.95-2.32s-1.26-1.57-1.83-2.4c-1-1.48-1.37-2-2.1-2.41a11.51,11.51,0,0,0-1.94-.65,1.52,1.52,0,0,1-.43-.2,6.13,6.13,0,0,1-.78-.69,4,4,0,0,0-.38-.34,5.82,5.82,0,0,1,1.07-1.31c1.4-1,2.92-1.7,4.28-2.71a5,5,0,0,0,2-2.88,6.06,6.06,0,0,0-.43-3.64,13,13,0,0,0-2.39-3.92,15.67,15.67,0,0,0-2.48-2.26c-.3-.23-.61-.44-.93-.65s-.43-.29-.62-.4a2.81,2.81,0,0,0-.93-.39c-.64-.09-1,.43-1.6,1.69a11.34,11.34,0,0,1-.69,1.24,11.92,11.92,0,0,1-2.7,3,16.31,16.31,0,0,1-1.48,1.05,9.32,9.32,0,0,1-3.51,1.33C366.8,517.75,366.39,517.8,366,517.83Z"/><path id="arm-3" data-name="arm" class="cls-6" d="M433.23,410.21a7.41,7.41,0,0,0-1.79-3.18,7.8,7.8,0,0,0-4.05-2.52,5.88,5.88,0,0,0-.93-.1,5.62,5.62,0,0,0-1.64.24l-.32.08a21.46,21.46,0,0,0-4.91,2.79q-3.79,2.58-7.47,5.35c-2.44,1.85-4.85,3.76-7.2,5.73q-7.07,5.89-13.6,12.52a81,81,0,0,0-12.39,15.94c-1.14,2-2.2,4-3.18,6.08a109.55,109.55,0,0,0-5.08,14.13c-.21.69-.42,1.37-.62,2.06-.56,1.83-1.11,3.65-1.7,5.47-.45,1.39-.87,2.8-1.3,4.2q-1.47,4.83-2.86,9.7c-1.12,3.9-2.21,7.8-3.35,11.69-.38,1.27-.57,1.8-1.21,2a3.84,3.84,0,0,1-1,.12h-.75c-.82,0-1.63,0-2.43.05a20.28,20.28,0,0,0-4.75.81,19.94,19.94,0,0,0-2.33.86c-4.25,1.92-6.79,6.32-6,10.36a7.53,7.53,0,0,0,.56,1.7,2.45,2.45,0,0,1,.23.8,2.19,2.19,0,0,1-.35,1.36,7.56,7.56,0,0,1-.44.66,46.58,46.58,0,0,0-2.72,4,104.88,104.88,0,0,0-6.33,12c-.62,1.38-1.22,2.78-1.79,4.19-.75,1.85-1.48,3.72-2.17,5.61s-1.33,3.8-1.88,5.73a99.84,99.84,0,0,0-3.32,17.46,56.45,56.45,0,0,0-.23,8.8,44.77,44.77,0,0,0,.67,5.76,42,42,0,0,0,2.47,8.44,6,6,0,0,0,1.45,2.22,3.49,3.49,0,0,0,2.18.92,3.19,3.19,0,0,1,.94.19,3.38,3.38,0,0,1,1.71,1.81,9.52,9.52,0,0,0,3.43,3.74,39.08,39.08,0,0,0,4.11.94c.42.49.85,1,1.23,1.5A6.75,6.75,0,0,0,345.6,605a9.3,9.3,0,0,0,1.47.34l1.23.21a11.16,11.16,0,0,1,3.52,1.28,8.57,8.57,0,0,0,1.36.67,6.74,6.74,0,0,0,2.73.44c.22,0,.44,0,.66-.07a5.54,5.54,0,0,0,1.85-.66,6.23,6.23,0,0,0,2.7-3.23c.21-.52.4-1,.58-1.6a25.21,25.21,0,0,0,.84-3.32c.1-.56.18-1.13.23-1.69.26-2.86.43-5.72.6-8.59s.31-5.74.52-8.61c.07-.94.16-1.87.28-2.8a29.66,29.66,0,0,1,1.19-5.44,21.48,21.48,0,0,1,1.06-2.6,18.41,18.41,0,0,1,1.34-2.35,11.35,11.35,0,0,1,3.66-3.51,11.06,11.06,0,0,1,2.48-1,6.82,6.82,0,0,1,2.16-.29,3.23,3.23,0,0,1,2.45,1.14,6,6,0,0,1,1.16,3.44c.17,2.08.47,4.15.83,6.2a7.18,7.18,0,0,0,5.75,6.12,7.29,7.29,0,0,0,1.61.13,7,7,0,0,0,3.09-.8,9.2,9.2,0,0,0,1.19-.73c2.58-1.83,3.7-4.55,3.69-8.1,0-6.37.13-12.75.32-19.13a25.12,25.12,0,0,0-.07-2.61,24.31,24.31,0,0,0-1.86-7.41,23.19,23.19,0,0,0-1.67-3.21,23.46,23.46,0,0,0-2.08-2.86,27.37,27.37,0,0,0-5.23-4.71,6.29,6.29,0,0,1-1.26-1,.58.58,0,0,1-.08-.55,4.79,4.79,0,0,1,.87-1.28c.13-.16.27-.31.4-.46l.4-.46a11,11,0,0,0,1.1-1.44,8.73,8.73,0,0,0,1-7.77,12.18,12.18,0,0,0-1.67-3.18,25.21,25.21,0,0,0-3.79-4.17,23.06,23.06,0,0,0-2.64-2.06,5.89,5.89,0,0,1-1.51-1.25,1.48,1.48,0,0,1-.28-.84A3.94,3.94,0,0,1,378,504c0-.24.12-.5.21-.8.4-1.45.79-2.9,1.19-4.34s.79-2.9,1.2-4.35l1.59-5.8c.88-3.25,1.78-6.48,2.74-9.7.12-.41.23-.83.36-1.24q1-3.25,2.06-6.49c.73-2.15,1.49-4.28,2.31-6.39a66,66,0,0,1,4.24-9,49.3,49.3,0,0,1,2.67-4.18,45.67,45.67,0,0,1,3.11-3.89,91.39,91.39,0,0,1,8-7.73c1.4-1.21,2.82-2.4,4.23-3.59s2.83-2.38,4.23-3.59c2.31-2,4.63-4,6.89-6.06q2.52-2.31,4.9-4.78c.55-.56,1.11-1.11,1.64-1.7a15.56,15.56,0,0,0,2.93-4.61,16.45,16.45,0,0,0,.62-1.75A7.17,7.17,0,0,0,433.23,410.21ZM378.12,509.8c.19.11.39.24.62.4s.63.42.93.65a15.67,15.67,0,0,1,2.48,2.26,13,13,0,0,1,2.39,3.92,6.06,6.06,0,0,1,.43,3.64,5,5,0,0,1-2,2.88c-1.36,1-2.88,1.76-4.28,2.71a5.82,5.82,0,0,0-1.07,1.31,4,4,0,0,1,.38.34,6.13,6.13,0,0,0,.78.69,1.52,1.52,0,0,0,.43.2,11.51,11.51,0,0,1,1.94.65c.73.38,1.09.93,2.1,2.41.57.83,1.19,1.62,1.83,2.4s1.31,1.54,1.95,2.32q.78.95,1.47,1.92c.46.66.88,1.32,1.26,2a20.3,20.3,0,0,1,1.82,4.21,18.73,18.73,0,0,1,.77,6.93,22.41,22.41,0,0,1-.33,2.49,35.46,35.46,0,0,0-.63,6.38,39.4,39.4,0,0,0,.5,6.39,16,16,0,0,1,.24,2.93c0,.24,0,.49-.06.73a6.26,6.26,0,0,1-.66,2.16,4.53,4.53,0,0,1-.8,1.13,4.38,4.38,0,0,1-2.26,1.3,3.39,3.39,0,0,1-1.27,0,3.18,3.18,0,0,1-1.05-.4,3.43,3.43,0,0,1-.88-.74,4.47,4.47,0,0,1-1-2.31c-.15-1.09-.27-2.18-.4-3.27s-.24-2.18-.4-3.26a12.59,12.59,0,0,0-.4-1.8,8.65,8.65,0,0,0-1.37-2.79,6.18,6.18,0,0,0-3.27-2.22,7.36,7.36,0,0,0-1.34-.23,7.71,7.71,0,0,0-1.44,0,14.49,14.49,0,0,0-4.74,1.18A13.1,13.1,0,0,0,368,561a13.35,13.35,0,0,0-2.34,2.35,14.36,14.36,0,0,0-1,1.45,26.66,26.66,0,0,0-1.41,2.56,29,29,0,0,0-2.54,8.42c-.16,1.09-.28,2.46-.38,3.86-.19,2.6-.28,5.28-.35,6.38-.25,4-.38,7.94-.74,11.89a15.18,15.18,0,0,1-1.23,4.41,4.52,4.52,0,0,1-.55,1,2.51,2.51,0,0,1-1.65,1.07,2.54,2.54,0,0,1-1.11-.09,3,3,0,0,1-1-.48,3.28,3.28,0,0,1-.7-.74,4.7,4.7,0,0,1-.64-1.46c0-.17-.08-.36-.12-.54a14.45,14.45,0,0,1-.19-1.87c0-.62,0-1.26-.08-1.88a5.81,5.81,0,0,0-.16-1.12,4.3,4.3,0,0,0-1.74-2.6c-.39-.27-1.58.17-1.58.65,0,2,0,4,.11,5.95.05,1.32-.6,1.59-1.67,1.46a5.93,5.93,0,0,1-4.21-2.56,4.58,4.58,0,0,1-.62-1.45,21.39,21.39,0,0,1,.16-3.57,28.9,28.9,0,0,0,0-4.76c-.28-4.17-.43-8.35-.74-12.52a6.56,6.56,0,0,1,0-.87,4.22,4.22,0,0,0,0-1.34.78.78,0,0,0-.42-.56,1.1,1.1,0,0,0-.43-.08c-.67,0-1,.27-1.1.66a9.11,9.11,0,0,0,.09,2.33c0,2.93-.05,5.86-.05,8.79s0,5.86,0,8.79c0,.12,0,.25,0,.38a6.48,6.48,0,0,1,0,.76,1.45,1.45,0,0,1-.18.67,1,1,0,0,1-.56.45,2.81,2.81,0,0,1-.49.1h0a.93.93,0,0,0-.35.09.45.45,0,0,0-.15.11,6.2,6.2,0,0,1-1.56-1.32,4.87,4.87,0,0,1-.87-3.06h0a96.76,96.76,0,0,1-1.12-14.52c0-1.62,0-3.25,0-4.87,0-.94,0-1.89-.08-2.82-.05-.43-.24-.6-.45-.62h-.16a.73.73,0,0,0-.42.29,3.89,3.89,0,0,0-.71,1.9c-.06.85-.1,1.71-.16,2.57-.16,3.25-.27,7.13-.21,7.13,0,2,.07,4,0,6,0,1,.58,2.8-.63,2.89-1.51-.2-1.46-1.4-1.7-2.25h0l-.54-1.95c-.18-.65-.35-1.3-.5-2a29.89,29.89,0,0,1-.71-4,71,71,0,0,1,1.22-21.53,96.82,96.82,0,0,1,7.91-23.44c2-4.16,4.13-8.26,6.18-12.39,1.08-2.19,1.34-2.49,2.93-1.52l.77.49a14.16,14.16,0,0,0,1.29.77,8.12,8.12,0,0,0,4.25,1,1.32,1.32,0,0,0,.43-.09l.42-.13a2.57,2.57,0,0,0-.27-.85c-.23-.28-.49-.52-.74-.77s-.48-.52-.73-.76l-1.06-1-1.07-1a15.89,15.89,0,0,1-2-2c-1.42-1.85-1.95-3.66-1.54-5.29a4.65,4.65,0,0,1,.23-.69,5.11,5.11,0,0,1,.61-1,7.74,7.74,0,0,1,2.12-1.88,10,10,0,0,1,2.28-1l.82-.25a26.73,26.73,0,0,1,3.36-.62l1.1-.12a6.17,6.17,0,0,1,.83,0,2.36,2.36,0,0,1,.59.09.9.9,0,0,1,.6.7,5.69,5.69,0,0,1,.06,1.58c0,.35-.05.75-.08,1.21a7.46,7.46,0,0,0,0,1.25,10.49,10.49,0,0,0,.77,3,6.11,6.11,0,0,0,6.55,3.74c.42,0,.83-.08,1.24-.15a9.32,9.32,0,0,0,3.51-1.33,16.31,16.31,0,0,0,1.48-1.05,11.92,11.92,0,0,0,2.7-3,11.34,11.34,0,0,0,.69-1.24c.6-1.26,1-1.78,1.6-1.69A2.81,2.81,0,0,1,378.12,509.8Z"/></g></svg>