<svg xmlns="http://www.w3.org/2000/svg" viewBox="0 0 972.65 897.57"><defs><style>.cls-1{fill:#a8d0e6;}</style></defs><title>Asset 1</title><g id="Layer_2" data-name="Layer 2"><g id="lightbulb"><path id="frame" class="cls-1" d="M971.94,390.51c-7.65-78.6-200.43-44.15-154.93-129.63,27.67-22.42,50.53-59.75,25.55-93-14.14-19.27-41.43-27.67-64-19.69-39.73,25.49-95.42,42.4-84.05-24.74,25.86-48-2.76-110.16-63.22-95-31.67,9.42-26,58.79-55.08,75.29S509.43,5.14,476.16.27,424.68,59,397.1,73.48,362,43.4,342.45,29.52c-58.64-21.78-18.87,61.19-34.64,77S192.52,9.77,126.13,91.68c-59.26,75.53,130.6,120.79-22.83,167C40.13,263.26-42.15,341.47,25.1,393c35,18.75,89.42-10.42,112.84,21.62,26.82,98.12-160.61,205.5-7.16,315.27C202.12,780.19,266,702.4,332.71,698c18.76,5.11,35.23,21.64,51.29,43.07l-.15.57,40.21,61.67v.18c13,19.65,26.7,39.06,41.95,55.11.57.6,1.14,1.2,1.72,1.79l.61.61c.37.38.74.77,1.12,1.14l.73.73,1,1,.79.76,1,.93.84.79.93.87.87.8.92.83c.29.27.59.53.89.79s.6.54.91.8l.92.8.88.75,1,.81.87.71,1,.8c.28.23.56.46.85.68s.68.54,1,.8l.82.64,1.05.8.82.6,1.08.79.8.57,1.12.79.77.53,1.16.78.75.49,1.2.77.72.46,1.24.77.69.41,1.3.77.64.36c.45.26.9.52,1.36.77l.59.32c.47.26.95.51,1.43.76l.5.26c.51.27,1,.53,1.54.78l.4.19,1.65.8.24.11c.61.28,1.22.56,1.83.82h0a91.49,91.49,0,0,0,11.25,4.07,87,87,0,0,0,12.37,2.6h0l2.19.27h.1l2.18.2h.14c.72.06,1.44.1,2.17.14h.16c.72,0,1.45.07,2.18.09h.17c.73,0,1.47,0,2.2,0h.18l2.22,0h.16c.76,0,1.51-.06,2.27-.1h.14l2.32-.16h.09c.8-.07,1.59-.14,2.39-.23h0c16.21-1.75,34-7.84,53.63-19.45q2-1.16,4-2.4h0s38.49-21.71,52.17-49.12c35.55-55-11.63-178.2,85.06-134.65,67.46,70.82,166.64-1.52,129-81.44-21.44-30.33-87-39.82-78.75-86.77C831,459.45,984.33,502.88,971.94,390.51Z"/></g></g></svg>