<svg xmlns="http://www.w3.org/2000/svg" xmlns:xlink="http://www.w3.org/1999/xlink" viewBox="0 0 381.04 661.46"><defs><style>.cls-1{fill:#f8e9a1;}.cls-2{fill:#f8d8a1;}.cls-3{fill:url(#linear-gradient);}.cls-4{fill:#f8e9e6;}.cls-5{fill:#243030;}.cls-6{fill:url(#linear-gradient-2);}.cls-7{fill:#b7a187;}.cls-8{fill:#666;}.cls-9{fill:#c6976a;}</style><linearGradient id="linear-gradient" x1="275.37" y1="620.1" x2="275.37" y2="481.44" gradientUnits="userSpaceOnUse"><stop offset="0.35" stop-color="#fff"/><stop offset="0.83" stop-color="#b7a187"/></linearGradient><linearGradient id="linear-gradient-2" x1="144.18" y1="649.82" x2="144.18" y2="449.99" xlink:href="#linear-gradient"/></defs><title>Asset 4</title><g id="Layer_2" data-name="Layer 2"><g id="lightbulb"><g id="light"><path class="cls-1" d="M115,229.29c.78-5.34,1-12.55,3.7-17.2,2.56-4.42,7.53-6.46,12.23-7.89a109.86,109.86,0,0,1,35.68-4.74,16.12,16.12,0,0,1,6.2,1.09,10.41,10.41,0,0,1,3.4,2.58l.12-1a75,75,0,0,0,.91-7.93c.81-7.13,1.38-12,1.51-12.91.29-2.11-.6-2.79-1.73-3-3.51-.54-7-.89-10.51-1.64a68.8,68.8,0,0,1-12.15-3.34c-2.51-1-4.68-3.43-6.93-5.39-3.89-3.39-6.21-9-8.25-14.86-3.3-1.2-5.62-3.36-6.07-6.16s1-5.54,3.6-7.82l-.12-1.82c-.52-8.23,1.26-16.32,3.14-24.2a44.18,44.18,0,0,1,2.58-7.46,20.3,20.3,0,0,1-1.21-4.22c-1.72-10.45,5-20.54,14.9-22.34a17.26,17.26,0,0,1,10.38,1.34,14.67,14.67,0,0,1,6.52-.35,27.25,27.25,0,0,1,16.5,9.52c3.19,3.65,7.31,15.43,7.7,17.43a65.67,65.67,0,0,1,.16,25c-1.74,9.24-3.36,18.5-5,27.76-.69,3.87-.64,3.91,1.82,4,.45,0,24.31,4.86,35.79,7.24,2,.42,2.29.28,2.9-3,1.87-10.18,3.28-22.22,5.53-30.54,2.35-8.69,4.09-13,7.27-18.81a42.19,42.19,0,0,1,10-12.12c4.71-3.94,9.55-6,14.82-6.23,3.46-.16,10.61,1.1,13.36,3.61,3.1,2.84,6.15,5.7,8.38,10a42.94,42.94,0,0,1,4.73,14.75,142.35,142.35,0,0,1,1.3,16.14A55.51,55.51,0,0,1,293,167.82c-.32.67-2.84,6.06-3.46,7-3.66,5.39-7.23,11.07-11.79,14.54a44,44,0,0,1-5.91,3.59c-3.37,1.85-6.66,1.9-10.06,2-7.5.27-14.51-1.92-21.61-3.75-1.51-.39-2,.08-2.52,2.61-.16.76-1,4.31-2.37,9.79l24.62.87c4.68.17,9.68.48,14,2.09h0l.1,0h0l25.63,9.23a7.69,7.69,0,0,1-.75-3.87,7.91,7.91,0,0,1,2-4.55,9.2,9.2,0,0,1,2.7-2.11,9.09,9.09,0,0,1,2.57-.9,7.69,7.69,0,0,1,1.25-.13,8.32,8.32,0,0,1,3.61.77,9.59,9.59,0,0,1,1.14.6,9.94,9.94,0,0,1,1.12.75l.6.45,3-10.68c3-10.55,5.92-21.11,7.76-31.94,6.05-35.59-.71-73.63-19.37-103.9S256.15,8.06,222.57,1.83a113.27,113.27,0,0,0-95.66,27.1c-18.8,17-32.08,40.71-37.15,66.34-2.32,11.76-3,24-.63,35.78,2,10.07,6.07,19.52,9,29.34,1.12,3.82,2.06,7.68,2.88,11.57a5.62,5.62,0,0,1,1.64-.24,5.88,5.88,0,0,1,.93.1,7.74,7.74,0,0,1,4,2.52,7.41,7.41,0,0,1,1.79,3.18,7.17,7.17,0,0,1-.11,3.75,16.45,16.45,0,0,1-.62,1.75,15.56,15.56,0,0,1-2.93,4.61c-.53.59-1.09,1.14-1.64,1.7.13.78.25,1.55.37,2.33l7.2,45a8.62,8.62,0,0,0-.82,1l4.84-1.61C113.57,235,114.42,233.43,115,229.29ZM177.17,194a75,75,0,0,1-.91,7.93C176.59,199.05,176.89,196.4,177.17,194Zm48.62-145.4c2.41.57,4.48,1.08,6.56,1.52,4.51,1,9.08,1.74,13.54,2.92,1.17.32,2.06,1.85,3.07,2.83-1.19.39-2.47,1.3-3.56,1.08-6.26-1.23-12.49-2.66-18.7-4.2-1-.24-1.73-1.4-2.59-2.13Zm10.52,15.72c9.88-1.91,19.37,5.13,21.09,15.65s-4.85,20.57-14.87,22.18c-10.64,1.72-19-4.65-20.93-15.41C219.74,76.27,225.5,66.69,236.31,64.31Zm-94,8.54c4.22-2.95,8.56-5.7,12.86-8.52,1.89-1.23,3.77-2.48,5.92-3.89.69.42,1.88.87,1.85,1.18a4.2,4.2,0,0,1-1.08,2.75c-3.9,2.75-7.93,5.31-11.93,7.91a60.07,60.07,0,0,1-5.78,3.58c-.74.37-1.86-.13-2.81-.23C141.63,74.68,141.66,73.29,142.29,72.85Z"/></g><g id="light-2" data-name="light"><path class="cls-1" d="M244.76,174.1c3.12.62,6.24,1.26,9.37,1.9l0-.11,7.62,1.55c6.52,1.32,12.29-1.78,17.76-9.48,6.7-9.44,9.12-25,5.72-36.43a33.65,33.65,0,0,0-2.34-5.67c-2.24-4.38-5.36-6.86-9-8a6.43,6.43,0,0,1,1.3,2.92c.87,5.31-5.25,10.87-13.66,12.41a21.12,21.12,0,0,1-10.28-.51,26.38,26.38,0,0,0-2.47,6.95c-2,10.26-3.78,20.55-5.61,30.84C242.75,173.23,243.06,173.76,244.76,174.1Z"/></g><g id="light-3" data-name="light"><path class="cls-1" d="M240.14,392.07c0-.37,0-.76,0-1.12,0-1.09.05-2.17.07-3.25.07-2.89.13-5.35.17-7.15v-.05a90.18,90.18,0,0,1,.4-10.45c.51-4,.77-3.09,1.29-5.42.32-1.42,2-2.38,3.73-2.79a6.84,6.84,0,0,1,2.78-.14,6.55,6.55,0,0,1,4.91,4l12.06-26.09c-5.19-3-10.55-5.59-16.3-6.85-9.48-2.07-19.28-.34-29-.38a43.06,43.06,0,0,1-16.41-2.95q-3,11.86-5.93,23.73c-1.08,4.3-9.54,37.57-9.7,38.32l-9.85-2c.28-1,12.66-51.95,13.66-56,0-.22,1-4.19,2.66-10.67-.23-.28-.47-.55-.7-.84-6-8-4-22.71,5.4-25.31-4.4-5-8.95-10.3-10.73-16.89s.17-14.87,6-17.78a19,19,0,0,1-6.5-18.56c1.5-6.81,7.07-12.4,13.56-13.61-5.26-4.06-7.38-12.12-4.86-18.49s9.44-10.4,15.85-9.26l-2.59.65,14.4.51c2.16-8.64,3.5-14.06,3.53-14.22l-39-7.93c-.35,3.14-2.53,21.13-3.29,27.1-.49,3.83-11.63,103.48-12.09,107.2q-1.77,14.46-3.47,28.93c-.6,5-1.72,15.9-1.74,16.36-.14,2.23-1.66,16.53-2.76,26.24l-10.12-2.05a41.09,41.09,0,0,0,.7-6.83,33.1,33.1,0,0,1,.26-3.93l.64-5.12c.77-6.74,1.52-13.48,2.35-20.22.45-3.73.83-7.14,1.19-10.49-.43,3.44-.86,6.89-1.28,10.33.37-3.08,1.13-9.51,2-16.79.2-1.83.42-3.7.65-5.64-10.75,7.13-26.37,10.08-30.3,22.77-1.23,3.94-1,8.2-1.53,12.32-.45,3.59-2.18,11-5.17,15.25L230.45,405.6C233.78,401.23,237.11,396.72,240.14,392.07Zm-85-7.48c.43-3.66.93-7.59,1.33-10.68.19-1.7.44-3.42.64-5.12-.1.85-.34,2.74-.64,5.12a35.23,35.23,0,0,0-.27,3.93,39,39,0,0,1-.7,6.82Z"/></g><g id="light-4" data-name="light"><path class="cls-1" d="M170.36,225.69a12.16,12.16,0,0,1,2.95,3.33l.42-3.77A11.6,11.6,0,0,1,170.36,225.69Z"/></g><g id="light-5" data-name="light"><path class="cls-1" d="M162.28,117.08a16.78,16.78,0,0,1-11.43-1.85c-.44,1.12-.87,2.25-1.28,3.38-.5,1.38-1.08,10.08-1.25,15.63,7.78-.93,14.45,2.07,15.27,7.06.71,4.37-3.32,8.91-9.47,11.23a30.28,30.28,0,0,0,4.06,3.53,8.43,8.43,0,0,0,3.55,1.35c5.65,1.15,11.35,2.09,17,3.32,2.28.5,2.34.7,3-2.9q2.68-14.73,5.31-29.49a16.56,16.56,0,0,0,.36-3.47c-.39-11.94-2.93-21.32-10.14-25.77C176.94,107.48,170.73,115.38,162.28,117.08Z"/></g><path id="wire" class="cls-2" d="M159.49,348.57c.42-3.44.85-6.89,1.28-10.33-.36,3.35-.74,6.76-1.19,10.49-.83,6.74-1.58,13.48-2.35,20.22l-.64,5.12a33.1,33.1,0,0,0-.26,3.93,41.09,41.09,0,0,1-.7,6.83l10.12,2.05c1.1-9.71,2.62-24,2.76-26.24,0-.46,1.14-11.37,1.74-16.36q1.71-14.46,3.47-28.93c.46-3.72,11.6-103.37,12.09-107.2.76-6,2.94-24,3.29-27.1l39,7.93c0,.16-1.37,5.58-3.53,14.22l10.71.38c1.35-5.48,2.21-9,2.37-9.79.53-2.53,1-3,2.52-2.61,7.1,1.83,14.11,4,21.61,3.75,3.4-.12,6.69-.17,10.06-2a44,44,0,0,0,5.91-3.59c4.56-3.47,8.13-9.15,11.79-14.54.62-.9,3.14-6.29,3.46-7a55.51,55.51,0,0,0,5.14-23.07,142.35,142.35,0,0,0-1.3-16.14,42.94,42.94,0,0,0-4.73-14.75c-2.23-4.26-5.28-7.12-8.38-10-2.75-2.51-9.9-3.77-13.36-3.61-5.27.25-10.11,2.29-14.82,6.23a42.19,42.19,0,0,0-10,12.12c-3.18,5.76-4.92,10.12-7.27,18.81-2.25,8.32-3.66,20.36-5.53,30.54-.61,3.3-.86,3.44-2.9,3-11.48-2.38-35.34-7.22-35.79-7.24-2.46-.12-2.51-.16-1.82-4,1.66-9.26,3.28-18.52,5-27.76a65.67,65.67,0,0,0-.16-25c-.39-2-4.51-13.78-7.7-17.43A27.25,27.25,0,0,0,172.92,80a14.67,14.67,0,0,0-6.52.35,18.25,18.25,0,0,1,10.49,14.53,17.12,17.12,0,0,1,.35,4.21c7.21,4.45,9.75,13.83,10.14,25.77a16.56,16.56,0,0,1-.36,3.47q-2.62,14.76-5.31,29.49c-.66,3.6-.72,3.4-3,2.9-5.63-1.23-11.33-2.17-17-3.32a8.43,8.43,0,0,1-3.55-1.35,30.28,30.28,0,0,1-4.06-3.53,23.76,23.76,0,0,1-4.2,1.17A20.85,20.85,0,0,1,139.2,153c2,5.86,4.36,11.47,8.25,14.86,2.25,2,4.42,4.34,6.93,5.39a68.8,68.8,0,0,0,12.15,3.34c3.47.75,7,1.1,10.51,1.64,1.13.18,2,.86,1.73,3-.13.9-.7,5.78-1.51,12.91a75,75,0,0,1-.91,7.93l-.12,1a16.38,16.38,0,0,1,2.74,4.33c2.69,6.11,1.57,14.94-4.33,17.47a7.56,7.56,0,0,1-.91.32l-.42,3.77a23.08,23.08,0,0,1,1.68,3.33,28.07,28.07,0,0,1,1.79,16.71,18.47,18.47,0,0,1-6.95,10.82c-.12,1.11-.24,2.18-.36,3.23a18.93,18.93,0,0,1,7.81,15.63c-.19,7.27-4.95,14.17-11.42,16.56,5.66,4.32,8.09,12.84,5.64,19.77-1.72,4.88-5.18,8.29-9.37,11.07-.23,1.94-.45,3.81-.65,5.64C160.62,339.06,159.86,345.49,159.49,348.57Zm83.75-178.06c1.83-10.29,3.65-20.58,5.61-30.84a26.38,26.38,0,0,1,2.47-6.95c-3.54-1.16-6-3.39-6.51-6.31-.87-5.32,5.25-10.87,13.66-12.41,6.71-1.23,12.84.47,15.49,3.9,3.59,1.1,6.71,3.58,9,8a33.65,33.65,0,0,1,2.34,5.67c3.4,11.43,1,27-5.72,36.43-5.47,7.7-11.24,10.8-17.76,9.48l-7.62-1.55,0,.11c-3.13-.64-6.25-1.28-9.37-1.9C243.06,173.76,242.75,173.23,243.24,170.51Z"/><path id="wire-2" data-name="wire" class="cls-2" d="M194.75,322.78c-1.61,6.48-2.61,10.45-2.66,10.67-1,4.06-13.38,55-13.66,56l9.85,2c.16-.75,8.62-34,9.7-38.32q3-11.85,5.93-23.73A24,24,0,0,1,194.75,322.78Z"/><path id="wire-3" data-name="wire" class="cls-2" d="M148.32,134.24c.17-5.55.75-14.25,1.25-15.63.41-1.13.84-2.26,1.28-3.38a19.17,19.17,0,0,1-8.52-9.65,44.18,44.18,0,0,0-2.58,7.46c-1.88,7.88-3.66,16-3.14,24.2l.12,1.82a21.32,21.32,0,0,1,10.06-4.59C147.31,134.38,147.82,134.3,148.32,134.24Z"/><path id="hand" class="cls-3" d="M319.56,389.77a11.06,11.06,0,0,1-3.1-1.77c-2.47-2.09-3.2-5.26-2.69-10.24a10.07,10.07,0,0,0,0-2.27,8.43,8.43,0,0,0-.51-2,11,11,0,0,0-2.34-3.53,15.08,15.08,0,0,1-2.78-4.22,16.33,16.33,0,0,1-.64-1.66,11.4,11.4,0,0,1-.38-1.41,11.2,11.2,0,0,1-.18-1.37,11,11,0,0,1,.45-3.89,17,17,0,0,1,1-2.46c.2-.4.41-.81.63-1.21a31,31,0,0,1,5.13-6.57c1.94-2,7.46-8.45,7.8-8.7s1-.7,1.42-1c.54-2.27,1.14-4.52,1.84-6.74.64-2,1.36-4.08,2.06-6.13a2.67,2.67,0,0,0,0-.4,2.6,2.6,0,0,0-.13-.64,3.19,3.19,0,0,1-.14-1.9,3.4,3.4,0,0,1,.45-1,9.83,9.83,0,0,1,.7-.93l.39-.45c.23-.26.47-.49.71-.73a49,49,0,0,0,1.69-7.63h0l7.2-26.9a128.47,128.47,0,0,0,5.57-16.47c-.32-.56-.59-1-.78-1.29a174.71,174.71,0,0,0-15.83-19.11c-1.87-2-3.76-4-5.66-6-1.59-1.67-3.19-3.31-4.78-5s-3.18-3.32-4.74-5q-1.83-2-3.6-4c-1.83-2.12-3.6-4.3-5.26-6.59-.8-1.1-1.67-2.14-2.46-3.25a9.88,9.88,0,0,1-.83-1.42l-25.63-9.23h0l-.1,0h0c-4.36-1.61-9.36-1.92-14-2.09l-24.62-.87-10.71-.38-14.4-.51,2.59-.65c-6.41-1.14-13.33,2.9-15.85,9.26s-.4,14.43,4.86,18.49c-6.49,1.21-12.06,6.8-13.56,13.61a19,19,0,0,0,6.5,18.56c-5.85,2.91-7.81,11.19-6,17.78s6.33,11.87,10.73,16.89c-9.35,2.6-11.43,17.28-5.4,25.31.23.29.47.56.7.84a24,24,0,0,0,9.16,6.63,43.06,43.06,0,0,0,16.41,2.95c9.67,0,19.47-1.69,29,.38,5.75,1.26,11.11,3.87,16.3,6.85l-12.06,26.09c.05.11.11.21.16.32a1.11,1.11,0,0,0,.07.16c.12.27.24.54.35.83a23.24,23.24,0,0,1,1,3.21c.26,1.09.46,2.19.62,3.29.24,1.66.4,3.33.57,5,.06.56.11,1.12.18,1.67.29,2.55.49,5.1.64,7.66.07,1.37.12,2.74.17,4.12l26.09,63.7a22.21,22.21,0,0,0,2.36,5.78l9.38,22.9c7.74,38.48,18.23,143.31,22.81,177.14a318.37,318.37,0,0,0,32.8-25.74,51.53,51.53,0,0,0,12.22-12.88C345.63,556.75,323.06,450.86,319.56,389.77Z"/><path id="hand-2" data-name="hand" class="cls-4" d="M376.05,356.92c-.21-2.16-.28-4.33-.31-6.51l0-3.26c0-1.09,0-2.18,0-3.26,0-.18,0-.37,0-.55a1.26,1.26,0,0,1,.11-.49h0a38,38,0,0,0-.11-3.92h0a7.87,7.87,0,0,1-.87.68,6.14,6.14,0,0,1-1.07.58c-.18.07-.37.12-.56.18a6.49,6.49,0,0,1-1.69.31,2.15,2.15,0,0,1-.53-.07,2.92,2.92,0,0,1-.56-.21c-.36-.17-.66-.4-.72-.64a3.64,3.64,0,0,1,.16-1.91c.06-.22.13-.43.2-.63a.43.43,0,0,1,.17-.21,2.68,2.68,0,0,1,.61-.32,2.25,2.25,0,0,0,.31-.16,12.84,12.84,0,0,0,1.37-1,6.07,6.07,0,0,0,2.48-4.67,8.41,8.41,0,0,0-1.42-4.34,18.71,18.71,0,0,0-1.72-2.44,16.2,16.2,0,0,0-2.06-2.08,14.13,14.13,0,0,0-5.2-2.76,3,3,0,0,0-.86-.15c-.75,0-1.19.37-1.47,1.2-.12.36-.24.72-.37,1.06a6.59,6.59,0,0,1-1.05,1.89,4.51,4.51,0,0,1-.85.77,1.35,1.35,0,0,0-.28,1,9.32,9.32,0,0,0,.08,1.33,2.67,2.67,0,0,1-1.5,2.83,6.65,6.65,0,0,1-3,1,10.05,10.05,0,0,1-1.55,0c-.52-.05-5.48-2.3-5.9-2.47A4.75,4.75,0,0,1,345,324.7a14.78,14.78,0,0,1-.14-3.13l0-1.05a6.85,6.85,0,0,0-.13-2.24,1,1,0,0,0-1-.64,8.64,8.64,0,0,0-1.5.14c-1.4.23-2.83.15-4.23.38a6.27,6.27,0,0,0-2.36.91c-1.49,1-2.87,2.15-4.35,3.14A3,3,0,0,0,329.9,326c.32.64.64,1.29,1,1.91a8.43,8.43,0,0,0,2.3,2.76,37.3,37.3,0,0,1,3,2.53,30.36,30.36,0,0,0,3,2.48c.46.32.66.6.7.84a.5.5,0,0,1-.1.41,1.47,1.47,0,0,1-.62.41,5.77,5.77,0,0,1-2.83.21,20.12,20.12,0,0,1-2.79-1,6.45,6.45,0,0,0-1.92-.33,5.59,5.59,0,0,0-1.83.25,4.92,4.92,0,0,0-2.83,2.28,8.65,8.65,0,0,1-1.44,1.88,22.85,22.85,0,0,1-1.71,1.52,3.78,3.78,0,0,0-.55.58c-.49.64-.87,1.45-1.39,2.08h0c-1.59,1.91-3.28,3.74-4.86,5.67-.82,1-1.68,2-2.5,3a26.31,26.31,0,0,0-2.25,3.2,7.47,7.47,0,0,0-.49,6.75,10.08,10.08,0,0,0,1.17,2.12c1,1.34,2,2.65,3,3.95s2.05,2.57,3.06,3.86l.18.25.15.2a1,1,0,0,1,.15.4c0,.17-.08.32-.31.45a1.61,1.61,0,0,1-.37.17,3.08,3.08,0,0,0-2.35,2.73,4.57,4.57,0,0,0-.05.75,11.65,11.65,0,0,0,.13,1.63,9.52,9.52,0,0,0,1.6,4.31,6.72,6.72,0,0,0,1.3,1.36,7,7,0,0,0,1.94,1.12,9.71,9.71,0,0,0,3,.56c.78,0,1.56.05,2.33,0a3.15,3.15,0,0,1,.83,0c.73.13,1.14.62,1.39,1.77a7.92,7.92,0,0,0,.6,1.82,4.8,4.8,0,0,0,.42.67,3.58,3.58,0,0,0,2.74,1.3,8.2,8.2,0,0,0,1,0,78.93,78.93,0,0,0,7.92-.88c1.09-.14,2.18-.38,3.27-.55a1,1,0,0,1,.87.17,1.6,1.6,0,0,1,.36.95,6.23,6.23,0,0,0,.32,1.32c.42,1.09,1.17,1.52,2.53,1.77a9.71,9.71,0,0,0,4.6-.28,16.48,16.48,0,0,0,4.19-2c.47-.3.86-.73,1.32-1,1.34-.93,1.87-1.28,2.18-.76a6.4,6.4,0,0,1,.44,1.93,2.79,2.79,0,0,0,.26.88,1.15,1.15,0,0,0,1,.67,3.1,3.1,0,0,0,.77-.08,12.22,12.22,0,0,0,9.24-7.1,13,13,0,0,0,.61-1.69c.34-1.19.65-2.39.93-3.58A75.28,75.28,0,0,0,376.4,368c.05-1.23.06-2.46.05-3.69C376.43,361.88,376.29,359.4,376.05,356.92Z"/><path id="arm" class="cls-5" d="M379.52,347.08a21.54,21.54,0,0,0-1.64-4.55c-.08-.17-.53-2.56-1-5,.15-.22.28-.48.42-.71h0a7.16,7.16,0,0,0,.39-.66,11.36,11.36,0,0,0,.87-2.75,10.3,10.3,0,0,0,.11-2.71,12.3,12.3,0,0,0-1.08-4,14,14,0,0,0-.65-1.28c-2.94-5.23-7-8.89-12.9-9.84-1.13-.18-1.71-.67-1.63-1.34,0-.22.24-.41.3-.72.31-1.42,2-14.94,2-15.34.18-2.82.34-5.63.52-8.45l.54-8.95c.05-.75.1-1.51.14-2.26-.07,0-.1-5.19-.22-7.77a40.35,40.35,0,0,0-.6-5.46c-.16-.89-.35-1.76-.57-2.62a31.13,31.13,0,0,0-2.93-7.38q-.65-1.17-1.41-2.28a26,26,0,0,0-1.64-2.19c-2.52-3.06-5.09-6.1-7.69-9.08s-5.26-5.92-8-8.81c-5.4-5.76-11-11.3-16.92-16.54-3.83-3.4-7.88-6.56-12-9.62l-.6-.45a9.94,9.94,0,0,0-1.12-.75,9.59,9.59,0,0,0-1.14-.6,8.32,8.32,0,0,0-3.61-.77,7.69,7.69,0,0,0-1.25.13,9.09,9.09,0,0,0-2.57.9,9.2,9.2,0,0,0-2.7,2.11,7.91,7.91,0,0,0-2,4.55,7.69,7.69,0,0,0,.75,3.87,9.88,9.88,0,0,0,.83,1.42c.79,1.11,1.66,2.15,2.46,3.25,1.66,2.29,3.43,4.47,5.26,6.59q1.77,2.06,3.6,4c1.56,1.69,3.15,3.35,4.74,5s3.19,3.3,4.78,5c1.9,2,3.79,4,5.66,6a174.71,174.71,0,0,1,15.83,19.11c.19.28.46.73.78,1.29a57.89,57.89,0,0,1,3.25,6.45,21,21,0,0,1,.94,4.2c0,.42.07,1.61.08,2.7,0,.8,0,1.55-.05,1.89-.13,1.42-.22,2.85-.28,4.28-.05.92-.06,1.85-.09,2.78,0,.51-1.39,21.58-1.57,22.71-.05.31-.48.7-.9.9a1.43,1.43,0,0,1-.4.13c-.57.09-1.15.14-1.72.19l-5.15.62a19.58,19.58,0,0,0-7.26,3,14,14,0,0,0-1.32,1.14c-.24.24-.48.47-.71.73l-.39.45a9.83,9.83,0,0,0-.7.93,3.4,3.4,0,0,0-.45,1,3.19,3.19,0,0,0,.14,1.9,2.6,2.6,0,0,1,.13.64,2.67,2.67,0,0,1,0,.4,4.94,4.94,0,0,1-.33,1.7,4.47,4.47,0,0,0,.32,4,10.86,10.86,0,0,1,.48,1.1,3.79,3.79,0,0,1,.13,2.63c-.37,1-1.33,1.75-2.89,2.48a10.33,10.33,0,0,0-1.55.94l-.06,0c-.47.34-.94.7-1.42,1s-5.86,6.73-7.8,8.7a31,31,0,0,0-5.13,6.57c-.22.4-.43.81-.63,1.21a17,17,0,0,0-1,2.46,11,11,0,0,0-.45,3.89,11.2,11.2,0,0,0,.18,1.37,11.4,11.4,0,0,0,.38,1.41,16.33,16.33,0,0,0,.64,1.66,15.08,15.08,0,0,0,2.78,4.22,11,11,0,0,1,2.34,3.53,8.43,8.43,0,0,1,.51,2,10.07,10.07,0,0,1,0,2.27c-.51,5,.22,8.15,2.69,10.24a11.06,11.06,0,0,0,3.1,1.77,23.29,23.29,0,0,0,3.36,1,7.15,7.15,0,0,1,1.08.33,5.46,5.46,0,0,1,2.64,2.16,7.91,7.91,0,0,0,4.88,3.29,11.07,11.07,0,0,0,2,.29c.88.06,1.77.11,2.66.12a18,18,0,0,0,2.65-.14,9.76,9.76,0,0,1,6.7,1.06,8.65,8.65,0,0,0,1.09.56,8.9,8.9,0,0,0,2.22.59,18.49,18.49,0,0,0,5.76-.37l7.18-.64a8.92,8.92,0,0,0,1.16.08,12.7,12.7,0,0,0,5-1.19,19.4,19.4,0,0,0,3.68-2.15,20.08,20.08,0,0,0,3.18-2.92,16.44,16.44,0,0,0,1.65-2.23,11,11,0,0,0,.63-1.17,10,10,0,0,0,.83-2.39c.73-3.54,1.5-7,2.08-10.62A79.89,79.89,0,0,0,379.52,347.08ZM376.4,368a75.28,75.28,0,0,1-1.93,14.55c-.28,1.19-.59,2.39-.93,3.58a13,13,0,0,1-.61,1.69,12.22,12.22,0,0,1-9.24,7.1,3.1,3.1,0,0,1-.77.08,1.15,1.15,0,0,1-1-.67,2.79,2.79,0,0,1-.26-.88,6.4,6.4,0,0,0-.44-1.93c-.31-.52-.84-.17-2.18.76-.46.31-.85.74-1.32,1a16.48,16.48,0,0,1-4.19,2,9.71,9.71,0,0,1-4.6.28c-1.36-.25-2.11-.68-2.53-1.77a6.23,6.23,0,0,1-.32-1.32,1.6,1.6,0,0,0-.36-.95,1,1,0,0,0-.87-.17c-1.09.17-2.18.41-3.27.55a78.93,78.93,0,0,1-7.92.88,8.2,8.2,0,0,1-1,0,3.58,3.58,0,0,1-2.74-1.3,4.8,4.8,0,0,1-.42-.67,7.92,7.92,0,0,1-.6-1.82c-.25-1.15-.66-1.64-1.39-1.77a3.15,3.15,0,0,0-.83,0c-.77.05-1.55,0-2.33,0a9.71,9.71,0,0,1-3-.56,7,7,0,0,1-1.94-1.12,6.72,6.72,0,0,1-1.3-1.36,9.52,9.52,0,0,1-1.6-4.31,11.65,11.65,0,0,1-.13-1.63,4.57,4.57,0,0,1,.05-.75,3.08,3.08,0,0,1,2.35-2.73,1.61,1.61,0,0,0,.37-.17c0-.35,0-.7,0-1.05l-.18-.25c-1-1.29-2-2.57-3.06-3.86s-2-2.61-3-3.95a10.08,10.08,0,0,1-1.17-2.12,7.47,7.47,0,0,1,.49-6.75,26.31,26.31,0,0,1,2.25-3.2c.82-1,1.68-2,2.5-3,1.58-1.93,3.27-3.76,4.86-5.67h0c.52-.63.9-1.44,1.39-2.08a3.78,3.78,0,0,1,.55-.58,22.85,22.85,0,0,0,1.71-1.52,8.65,8.65,0,0,0,1.44-1.88,4.92,4.92,0,0,1,2.83-2.28,5.59,5.59,0,0,1,1.83-.25,6.45,6.45,0,0,1,1.92.33,20.12,20.12,0,0,0,2.79,1,5.77,5.77,0,0,0,2.83-.21,1.47,1.47,0,0,0,.62-.41.5.5,0,0,0,.1-.41c0-.24-.24-.52-.7-.84a30.36,30.36,0,0,1-3-2.48,37.3,37.3,0,0,0-3-2.53,8.43,8.43,0,0,1-2.3-2.76c-.36-.62-.68-1.27-1-1.91a3,3,0,0,1,1.32-3.77c1.48-1,2.86-2.16,4.35-3.14a6.27,6.27,0,0,1,2.36-.91c1.4-.23,2.83-.15,4.23-.38a8.64,8.64,0,0,1,1.5-.14,1,1,0,0,1,1,.64,6.85,6.85,0,0,1,.13,2.24l0,1.05a14.78,14.78,0,0,0,.14,3.13,4.75,4.75,0,0,0,2.84,2.87c.42.17,5.38,2.42,5.9,2.47a10.05,10.05,0,0,0,1.55,0,6.65,6.65,0,0,0,3-1,2.67,2.67,0,0,0,1.5-2.83,9.32,9.32,0,0,1-.08-1.33,1.35,1.35,0,0,1,.28-1,4.51,4.51,0,0,0,.85-.77,6.59,6.59,0,0,0,1.05-1.89c.13-.34.25-.7.37-1.06.28-.83.72-1.22,1.47-1.2a3,3,0,0,1,.86.15,14.13,14.13,0,0,1,5.2,2.76,16.2,16.2,0,0,1,2.06,2.08,18.71,18.71,0,0,1,1.72,2.44,8.41,8.41,0,0,1,1.42,4.34,6.07,6.07,0,0,1-2.48,4.67,12.84,12.84,0,0,1-1.37,1,2.25,2.25,0,0,1-.31.16,2.68,2.68,0,0,0-.61.32.43.43,0,0,0-.17.21c-.07.2-.14.41-.2.63a3.64,3.64,0,0,0-.16,1.91c.06.24.36.47.72.64a2.92,2.92,0,0,0,.56.21,2.15,2.15,0,0,0,.53.07,6.49,6.49,0,0,0,1.69-.31c.19-.06.38-.11.56-.18a6.14,6.14,0,0,0,1.07-.58,7.87,7.87,0,0,0,.87-.68h0a38,38,0,0,1,.11,3.92h0a1.26,1.26,0,0,0-.11.49c0,.18,0,.37,0,.55,0,1.08,0,2.17,0,3.26l0,3.26c0,2.18.1,4.35.31,6.51.24,2.48.38,5,.4,7.42C376.46,365.57,376.45,366.8,376.4,368Z"/><path id="food" class="cls-4" d="M153.33,506.39c-7.09-5-10.91-12-18.82-14.43a1.87,1.87,0,0,0-2.56,1.1c-.39.89-.64,1.84-1.07,2.7a9,9,0,0,1-1.68,2.66,6.86,6.86,0,0,1-2.47.9,9.06,9.06,0,0,1-.06-2.43c.62-2.52,1.52-5,2.07-7.49,1-4.63.35-8.45-4-11.22a7.06,7.06,0,0,0-1.55-.74,10.31,10.31,0,0,0-6.21.19,4.2,4.2,0,0,0-2.41,1.87c-.25.49.68,1.6,1,2.46,1.1,2.8,2.31,5.55,3.24,8.41a8.52,8.52,0,0,1-2.52,9.68,4,4,0,0,1-4.19,1,7.49,7.49,0,0,0-5.7-.08c-.71.31-2.14-.46-2.91-1.16a31,31,0,0,1-3.5-4c-.79-1-1.18-.74-1.75.25a16.74,16.74,0,0,0-2.62,9.19c.16,4.45,2.41,7,6.68,7.2,1.12,0,2.25-.21,3.37-.24.82,0,1.22.47.64,1.21a10.76,10.76,0,0,1-2,1.93,9.88,9.88,0,0,1-1.68.78c-1.24.62-1.73,1.6-1.28,2.72s1.36.57,2.1.42c2.31-.47,4.6-1.06,6.92-1.46,3.72-.64,7.38.06,11,.81a3.48,3.48,0,0,1,1.78,1l.08.07a9.68,9.68,0,0,1,1,2.25c-.38.11-.75.25-1.12.37a3.44,3.44,0,0,1-1.07.21,13,13,0,0,1-3.68-.39,22,22,0,0,0-13.08.57A28.77,28.77,0,0,0,90.6,533.78a35.55,35.55,0,0,0-3.72,6.64A31.52,31.52,0,0,0,85.07,546a32.37,32.37,0,0,0-.84,11.34,49.75,49.75,0,0,0,2,9.5,6.93,6.93,0,0,0,4.1,4.5,17.62,17.62,0,0,0,10,.7,41.26,41.26,0,0,0,6.79-1.89A62.28,62.28,0,0,0,123.21,561c.92-.69,1.83-1.41,2.74-2.13a101.21,101.21,0,0,0,12.25-12.16c.54-.62,1.27-1.06,1.82-1.67.76-.85,1.45-1.77,2.13-2.69.45-.59,5.2-9.64,5.9-10.82a91.66,91.66,0,0,0,4.07-11.27c.36-1.46.74-2.92,1.12-4.38a15.87,15.87,0,0,1,.73-2.49c.2-.46.57-3,1.07-4.91C155,508.4,155.59,508,153.33,506.39Z"/><path id="leg" class="cls-5" d="M156.38,503.91a29.74,29.74,0,0,0-7.83-8.92,33.18,33.18,0,0,0-13-6.27c-2.53-.53-2.39-.7-2.81-3.64-.88-6.23-4.66-10.39-9.52-11.42a12.09,12.09,0,0,0-3.67-.18,14.24,14.24,0,0,0-5.76,2.1c-1.46.89-2.2.45-3.1-.59q-2.59-3-5.21-6l-5.07-5.87a186.83,186.83,0,0,1-16.65-22c-2.8-4.43-3.8-9.23-2.32-14.25a54.89,54.89,0,0,1,4.5-10.62c6.51-12,13.28-23.78,19.84-35.71,2.08-3.8,4.11-7.62,6.13-11.46-.61-1.67-1.13-3.22-1.58-4.32-2.55-6.24-4.82-12.62-6.82-19.09A59.46,59.46,0,0,0,92.13,361c-4.84,8.89-9.34,18-13.83,27.1-5.52,11.18-11.25,22.27-14.85,34.39-1.69,5.71-3.12,11.44-3,17.54a17,17,0,0,0,3.05,10c4.56,6.36,9.15,12.7,13.87,18.92,1,1.35,2.06,2.71,3.1,4.06,4.6,5.91,9.58,11.49,14.4,17.22,1.45,1.72,1.44,2.1.52,4a39.7,39.7,0,0,0-2.59,5.86c-1.71,5.69-1.12,11.51,3.95,14.62,1.85,1.13,1.87,3.2,2,5.18.07,1.62-1.06,2.06-2.1,2.83-2.91,2.2-5.86,4.38-8.06,7.48a44.31,44.31,0,0,0-4,7A43.84,43.84,0,0,0,80.66,551a33.19,33.19,0,0,0,4.27,20.21A11.08,11.08,0,0,0,92.06,577a32.91,32.91,0,0,0,4.24.49,28.65,28.65,0,0,0,4.34-.33,62.15,62.15,0,0,0,9.15-2.95,65.39,65.39,0,0,0,7.16-3.46q3.19-1.8,6.26-3.82a63.41,63.41,0,0,0,14.93-13.45c2-2.54,11.56-17.37,13.28-22.09,1.8-5,3.79-9.31,4.77-14.31.19-1,.42-1.91.54-2.88.08-.68.37-6.67.37-6.89A6.88,6.88,0,0,0,156.38,503.91ZM155,508.43c-.5,2-.87,4.45-1.07,4.91a15.87,15.87,0,0,0-.73,2.49c-.38,1.46-.76,2.92-1.12,4.38a91.66,91.66,0,0,1-4.07,11.27c-.7,1.18-5.45,10.23-5.9,10.82-.68.92-1.37,1.84-2.13,2.69-.55.61-1.28,1-1.82,1.67A101.21,101.21,0,0,1,126,558.82c-.91.72-1.82,1.44-2.74,2.13a62.28,62.28,0,0,1-16.07,9.19,41.26,41.26,0,0,1-6.79,1.89,17.62,17.62,0,0,1-10-.7,6.93,6.93,0,0,1-4.1-4.5,49.75,49.75,0,0,1-2-9.5A32.37,32.37,0,0,1,85.07,546a31.52,31.52,0,0,1,1.81-5.57,35.55,35.55,0,0,1,3.72-6.64,28.77,28.77,0,0,1,14.78-11.08,22,22,0,0,1,13.08-.57,13,13,0,0,0,3.68.39,3.44,3.44,0,0,0,1.07-.21v-2.69a3.48,3.48,0,0,0-1.78-1c-3.63-.75-7.29-1.45-11-.81-2.32.4-4.61,1-6.92,1.46-.74.15-1.63.79-2.1-.42s0-2.1,1.28-2.72a9.88,9.88,0,0,0,1.68-.78,10.76,10.76,0,0,0,2-1.93c.58-.74.18-1.23-.64-1.21-1.12,0-2.25.28-3.37.24-4.27-.16-6.52-2.75-6.68-7.2a16.74,16.74,0,0,1,2.62-9.19c.57-1,1-1.28,1.75-.25a31,31,0,0,0,3.5,4c.77.7,2.2,1.47,2.91,1.16a7.49,7.49,0,0,1,5.7.08,4,4,0,0,0,4.19-1,8.52,8.52,0,0,0,2.52-9.68c-.93-2.86-2.14-5.61-3.24-8.41-.35-.86-1.28-2-1-2.46a4.2,4.2,0,0,1,2.41-1.87,10.31,10.31,0,0,1,6.21-.19,7.06,7.06,0,0,1,1.55.74c4.33,2.77,5,6.59,4,11.22-.55,2.53-1.45,5-2.07,7.49a9.06,9.06,0,0,0,.06,2.43,6.86,6.86,0,0,0,2.47-.9,9,9,0,0,0,1.68-2.66c.43-.86.68-1.81,1.07-2.7a1.87,1.87,0,0,1,2.56-1.1c7.91,2.42,11.73,9.41,18.82,14.43C155.59,508,155,508.4,155,508.43Z"/><path id="arm-2" data-name="arm" class="cls-6" d="M160.48,466.92c-15.39-4.25-28.63-10.47-37.27-16.93v23.67c4.86,1,8.64,5.19,9.52,11.42.42,2.94.28,3.11,2.81,3.64a33.18,33.18,0,0,1,13,6.27,29.74,29.74,0,0,1,7.83,8.92,6.88,6.88,0,0,1,.72,3.39c0,.22-.29,6.21-.37,6.89-.12,1-.35,1.92-.54,2.88-1,5-3,9.36-4.77,14.31-1.72,4.72-11.28,19.55-13.28,22.09a63.41,63.41,0,0,1-14.93,13.45v27.8c13,19.64,26.69,39.06,42,55.1V468.13C163.61,467.76,162.05,467.36,160.48,466.92Z"/><path id="hand-3" data-name="hand" class="cls-7" d="M174.64,224.93c5.9-2.53,7-11.36,4.33-17.47a16.38,16.38,0,0,0-2.74-4.33,10.41,10.41,0,0,0-3.4-2.58,16.12,16.12,0,0,0-6.2-1.09A109.86,109.86,0,0,0,131,204.2c-4.7,1.43-9.67,3.47-12.23,7.89-2.69,4.65-2.92,11.86-3.7,17.2-.6,4.14-1.45,5.73.65,6.75l-4.84,1.61-.85.28c-4.26,1.41-9,3.2-11,7.43-2.87,6,1.28,12.92,2.63,19.52,2.58,12.66-5.47,25-6.25,37.92a59.53,59.53,0,0,0,1.1,13.44,228.61,228.61,0,0,0,7,29.43c2,6.47,4.27,12.85,6.82,19.09.45,1.1,1,2.65,1.58,4.32a29.86,29.86,0,0,0,4.06,8.17,7.27,7.27,0,0,1,.91.17l2.32.64.74-3,3.31.92,1.89.52c3-4.25,4.72-11.66,5.17-15.25.52-4.12.3-8.38,1.53-12.32,3.93-12.69,19.55-15.64,30.3-22.77,4.19-2.78,7.65-6.19,9.37-11.07,2.45-6.93,0-15.45-5.64-19.77,6.47-2.39,11.23-9.29,11.42-16.56a18.93,18.93,0,0,0-7.81-15.63,15.48,15.48,0,0,0-2.74-1.56,13.65,13.65,0,0,0,3.1-1.67,18.47,18.47,0,0,0,6.95-10.82A28.07,28.07,0,0,0,175,232.35a23.08,23.08,0,0,0-1.68-3.33,12.16,12.16,0,0,0-2.95-3.33,11.6,11.6,0,0,0,3.37-.44A7.56,7.56,0,0,0,174.64,224.93ZM165,301.39c.14-1.18.28-2.35.41-3.53C165.41,298.16,165.26,299.43,165,301.39ZM171,248.93c-.13,1.22-.24,2.44-.37,3.66-.16,1.39-.34,2.78-.52,4.18C170.36,254.25,170.65,251.63,171,248.93Z"/><path id="food-2" data-name="food" class="cls-4" d="M250,527c-.39.28-.59.87-.67,1.83,0,.46-.08.92-.15,1.36a11.45,11.45,0,0,1-.28,1.32c0,.21-.14.42-.21.63s-.12.42-.21.63a9.1,9.1,0,0,1-.59,1.22,5.47,5.47,0,0,1-.65.93l-.18.19a4,4,0,0,1-1.18.87l-.33.15a4.79,4.79,0,0,1-.81.21l-.28,0-.63.08-1,.13c-.55.06-1.11.11-1.66.14-.28,0-.56,0-.84,0s-.55,0-.83,0l-.85-.12a8.52,8.52,0,0,1-.84-.2l-.27-.09a5.75,5.75,0,0,1-1.79-.89l-.29-.23a3.11,3.11,0,0,1-.46-.57,3.4,3.4,0,0,1-.46-1.44,6.75,6.75,0,0,1,0-.9,8.55,8.55,0,0,1,.14-1,10.57,10.57,0,0,0,.14-1.13c0-.38.05-.76.05-1.14a5.09,5.09,0,0,0-.07-.81l0-.13a3.56,3.56,0,0,0-.2-.65,2.43,2.43,0,0,0-.28-.47,1.7,1.7,0,0,0-.86-.59,2.29,2.29,0,0,0-.36-.07,3.14,3.14,0,0,0-1.73.41,9.12,9.12,0,0,0-.79.47c-.18.11-.35.22-.53.31a2.44,2.44,0,0,1-.34.14,1.44,1.44,0,0,1-.45.09,5.88,5.88,0,0,0-3.84,1.47,10.06,10.06,0,0,0-.8.8,24.11,24.11,0,0,0-2.35,3.43,5,5,0,0,0-.51,1.11,4,4,0,0,0-.16.57c0,.2-.07.39-.09.58s0,.55.06.81a6.22,6.22,0,0,0,1,3.14h0a7.76,7.76,0,0,0,.5.67l.07.09.06.06a11.15,11.15,0,0,0,.8.87l.13.12a6.32,6.32,0,0,0,1.29,1,4.49,4.49,0,0,0,.54.26,5,5,0,0,0,1.19.32,1.55,1.55,0,0,1,.61.24,2.75,2.75,0,0,1,.26.22,1.21,1.21,0,0,1,.2.26.73.73,0,0,1,0,.09h0c0,.07.07.13.1.21a1.83,1.83,0,0,1,.08.25.55.55,0,0,1-.14.51l-.08,0a.8.8,0,0,1-.31.11l-.09,0-.48.06a9.32,9.32,0,0,1-1.9.06,4.1,4.1,0,0,1-1.18-.26,3.58,3.58,0,0,1-.56-.27,4.56,4.56,0,0,1-.54-.39,2.27,2.27,0,0,0-.32-.22,4.73,4.73,0,0,0-.46-.32l-.15-.07-.26-.1a2.22,2.22,0,0,0-.63-.14h0l-.17.56-.58,1.88-5.73,8.46c-.15.38-.32.74-.48,1.11-.3.67-.61,1.32-.87,2l-.1.24c-.9,2.29-1.83,4.56-2.68,6.86-.3.8-.58,1.6-.86,2.4-.48,1.43-.93,2.88-1.34,4.34-.12.43-.23.87-.34,1.3-.28,1-.57,2.07-.83,3.11a9.68,9.68,0,0,0-.18,1,7.69,7.69,0,0,0,.36,3.39,8.33,8.33,0,0,0,.69,1.56,7.09,7.09,0,0,0,.45.75q.24.38.51.72c.44.58.89,1.13,1.36,1.66s1,1,1.44,1.55.85.82,1.29,1.21.82.73,1.25,1.07v0c.38.31.77.61,1.16.9s.89.66,1.35,1,1,.65,1.45.95c1.18.73,2.41,1.4,3.67,2,.72.36,1.44.7,2.17,1a61.8,61.8,0,0,0,6.67,2.61c1,.32,2,.61,3,.88,2,.51,4,1,6.07,1.32l1.14.17c1.67.27,3.34.5,5,.66l1,.07,1.16.06.74,0c.73,0,1.45,0,2.18,0,2.18,0,4.37-.1,6.56-.09a28.23,28.23,0,0,0,5-.43l1.21-.23c1.22-.25,2.42-.57,3.61-.93s2.11-.67,3.15-1a64.32,64.32,0,0,0,6.83-3.11l.37-.18c.63-.31,1.26-.62,1.89-.91a3.58,3.58,0,0,0,.64-.37,3.05,3.05,0,0,0,.51-.43,3.4,3.4,0,0,0,.38-.47,3.33,3.33,0,0,0,.33-.58,4.72,4.72,0,0,0,.3-.92,6.34,6.34,0,0,0,.14-1c0-.23,0-.46,0-.7,0-.54,0-1.08-.05-1.62s0-1.12-.07-1.68v-.12l-.09-1.51c0-.54-.07-1.09-.1-1.64s-.08-1.16-.14-1.73-.13-1.14-.21-1.7a35.06,35.06,0,0,0-1.06-4.89c-.15-.53-.31-1-.49-1.56l-.15-.41a35.24,35.24,0,0,0-2.51-5.48,38.94,38.94,0,0,0-5.93-7.88c-.48-.5-1-1-1.48-1.44s-1-.9-1.54-1.32-1.06-.82-1.6-1.19a25.89,25.89,0,0,0-3.85-2.21c-.45-.21-.9-.41-1.37-.59l-.62-.22c-.51-.19-1-.36-1.55-.52s-1.1-.32-1.67-.45-1-.19-1.44-.26-.95-.11-1.42-.14-.7,0-1.06,0-.7,0-1.05,0-.77,0-1.16.1a32.7,32.7,0,0,0-5.09,1,31.27,31.27,0,0,0-8.95,4,30.14,30.14,0,0,0-2.6,1.88c-.84.67-1.65,1.39-2.42,2.14s-1.53,1.55-2.25,2.39c-.36.42-.72.84-1.07,1.28s-.68.88-1,1.34c-.55.75-1.08,1.54-1.6,2.34l-.33.51-.28.44c-.28.46-.58.92-.9,1.36a6.3,6.3,0,0,1-.37.53h0l0,0a1,1,0,0,1-.23.16l-.17.08a.86.86,0,0,1-.27.05.63.63,0,0,1-.24,0,.38.38,0,0,1-.16-.13.76.76,0,0,1-.15-.23.86.86,0,0,1-.11-.51c.08-.46.17-.93.29-1.38.06-.23.12-.45.2-.67s.16-.43.26-.64c.2-.4.42-.78.63-1.17.4-.73.81-1.43,1.25-2.11.11-.16.21-.33.32-.5s.18-.24.26-.37c.53-.75,1.08-1.49,1.66-2.19a36.56,36.56,0,0,1,4.35-4.36c.87-.73,1.76-1.43,2.7-2.1s1.84-1.26,2.78-1.82a33.82,33.82,0,0,1,4.28-2.18c.73-.3,1.46-.58,2.2-.82s1.48-.46,2.23-.64,1.24-.27,1.86-.38l.11,0,.21,0c.56-.09,1.13-.16,1.7-.21h0l.19,0h0c.66-.06,1.33-.1,2-.11h.1c.69,0,1.39,0,2.1.07l.31,0,.21,0a29,29,0,0,1,3.13.43l.66.12.39.06a1.19,1.19,0,0,0,.33,0,.66.66,0,0,0,.25-.07.72.72,0,0,0,.41-.59,1.39,1.39,0,0,0,0-.3v0c0-.06,0-.12,0-.19a1.15,1.15,0,0,1,0-.19c0-.21,0-.43-.08-.64s-.06-.57-.1-.85a9.15,9.15,0,0,0-.22-1c-.08-.27-.15-.49-.21-.68s-.09-.24-.13-.34a.84.84,0,0,0-.13-.21.57.57,0,0,0-.25-.24.59.59,0,0,0-.27,0,1.24,1.24,0,0,0-.31,0h0l-.11,0c-.17,0-.38.12-.61.21l-.35.13-.47.19a11.88,11.88,0,0,1-1.44.52,3.65,3.65,0,0,1-.65.1,1.31,1.31,0,0,1-.47-.07,10.62,10.62,0,0,1-1.29-.67l-.12-.07.21-.35a6.66,6.66,0,0,1,.42-.69,1.87,1.87,0,0,1,.26-.3c.6-.56,1.22-1.1,1.83-1.64s1.24-1.09,1.83-1.66c.17-.16.32-.32.46-.47s.27-.32.39-.48l.16-.24a5,5,0,0,0,.77-1.66,4.17,4.17,0,0,0,.08-.59,4,4,0,0,0-.09-1.19,4.36,4.36,0,0,0-.17-.59,7.56,7.56,0,0,0-1.49-2.35,12,12,0,0,0-3.67-2.74,14.37,14.37,0,0,0-1.67-.7l-.86-.29A2.13,2.13,0,0,0,250,527Z"/><path id="leg-2" data-name="leg" class="cls-5" d="M285,582.71c-.1-1.61-.25-3.2-.49-4.78l-.06-.29c0-.24-.09-.48-.13-.73q-.15-.84-.33-1.68c-.14-.66-.3-1.33-.49-2a32.48,32.48,0,0,0-1.65-4.6,40.29,40.29,0,0,0-7.76-11.81,33.6,33.6,0,0,0-4.18-3.7q-1.12-.86-2.34-1.62l-.91-.54a6.17,6.17,0,0,1-2.35-1.92c-1.95-3.33-3.31-6.93-2.24-11a14.51,14.51,0,0,0,.43-2.36,9.36,9.36,0,0,0-.06-2.25,7.91,7.91,0,0,0-.66-2.14,8.06,8.06,0,0,0-1.37-2l-.44-.44c-.24-.25-.49-.49-.74-.72l-.17-.15c-.22-.2-.45-.39-.68-.58l-.25-.18c-.2-.16-.4-.32-.61-.46s-.62-.42-.93-.61a17.7,17.7,0,0,0-4.47-1.9c-.49-.13-1-.19-1.2-.58a1.07,1.07,0,0,1-.13-.52c0-.91.54-7.79,1.16-14.78.2-2.3.4-4.61.59-6.72a69.41,69.41,0,0,0,.75-8.59h0c0-.37.08-1,.14-1.92q.43-6,.84-12.1.76-11,1.51-22c.06-.86.07-1.72.11-2.58.37-6.88.78-13.76,1.09-20.64v0h0c.11-2,.18-3.55.22-4.53v0c.21-6.12,0-12.25,0-18.38,0-2.56.07-5.12.09-7.68,0-1.28,0-2.56,0-3.84,0-2.23,0-4.46-.1-6.69l0-.71c-.05-1.37-.09-2.74-.16-4.1-.15-2.56-.35-5.11-.64-7.66-.07-.55-.12-1.11-.18-1.67-.17-1.67-.33-3.34-.57-5-.16-1.1-.36-2.2-.62-3.29a23.24,23.24,0,0,0-1-3.21c-.11-.29-.23-.56-.35-.83a1.11,1.11,0,0,1-.07-.16c0-.11-.11-.21-.16-.32a6.55,6.55,0,0,0-4.91-4,7.12,7.12,0,0,0-2.06,0l-.72.13c-1.77.41-3.41,1.37-3.73,2.79-.52,2.33-.78,1.4-1.29,5.42a90.18,90.18,0,0,0-.4,10.45v.05c0,1.8-.1,4.26-.17,7.15,0,1.08,0,2.16-.07,3.25,0,.36,0,.75,0,1.12-.13,5.76-.28,12.57-.42,19.31l.35.1v0a6.71,6.71,0,0,1,4.12,8,6.41,6.41,0,0,1-4.76,4.81c-.05,1.85-.09,3.63-.13,5.29v.05c0,.75,0,1.47-.06,2.18a6.87,6.87,0,0,1,.68,5,6.62,6.62,0,0,1-.88,2c0,.81,0,1.62-.08,2.43-.48,11.65-1.14,23.3-1.71,35-.39,7.83-.75,15.67-1.13,23.5,0,1-.21,1.9-.25,2.86l-.06,1.68h0c-.09,1.22-.19,2.61-.29,4-.34,4.77-.72,10.09-.82,11.92,0,.06,0,.12,0,.18a1.3,1.3,0,0,0,0,.34.81.81,0,0,0,0,.16,3.6,3.6,0,0,1,.07.7,2.05,2.05,0,0,1-.27,1,2.91,2.91,0,0,1-1.6,1.15l-.52.18a11.88,11.88,0,0,1-2.39.35h0a18.58,18.58,0,0,0-2.07.23h0a9,9,0,0,0-2.12.84c-.42.21-.88.45-1.46.77a12.73,12.73,0,0,0-3.5,2.72l-2.21,6.47a15.37,15.37,0,0,0,0,2.63c0,.13,0,.29,0,.4l.11,1-7.81,15.33h0l0,.05c0,.11-.09.22-.14.32h0l-.11.22h0c-.38.84-.73,1.7-1.11,2.55a75.69,75.69,0,0,0-3.93,10.53c-.33,1.2-.64,2.42-.89,3.65q-.19,1-.3,1.95a16,16,0,0,0,1.57,9,18,18,0,0,0,2.09,3.22c.75.92,1.53,1.78,2.33,2.59a35,35,0,0,0,5.18,4.25,49.48,49.48,0,0,0,8.73,4.6c2,.85,4.12,1.61,6.22,2.33l1.34.43c.82.26,1.64.49,2.46.71l.82.22c.85.21,1.71.42,2.57.6a61,61,0,0,0,7.35,1c2.42.2,4.86.35,7.29.39,1.2,0,2.39,0,3.58,0s2.07-.1,3.1-.19l.6,0c1.54-.15,3.07-.37,4.6-.65a60.67,60.67,0,0,0,9-2.43q2.2-.78,4.38-1.73l.27-.13.25-.13c.39-.19.76-.4,1.14-.63l.58-.37c.17-.12.35-.24.52-.38a12.64,12.64,0,0,0,3.37-3.84,10.74,10.74,0,0,0,1.41-5.25C285.16,586,285.12,584.32,285,582.71Zm-31.88-87.55c-.06.64-.13,1.4-.2,2.24.07-.84.14-1.6.2-2.24s.07-.91.1-1.26C253.22,494.25,253.19,494.67,253.15,495.16Zm29,94.3a6.34,6.34,0,0,1-.14,1,4.72,4.72,0,0,1-.3.92,3.33,3.33,0,0,1-.33.58,3.4,3.4,0,0,1-.38.47,3.05,3.05,0,0,1-.51.43,3.58,3.58,0,0,1-.64.37c-.63.29-1.26.6-1.89.91l-.37.18a64.32,64.32,0,0,1-6.83,3.11c-1,.37-2.09.73-3.15,1s-2.39.68-3.61.93l-1.21.23a28.23,28.23,0,0,1-5,.43c-2.19,0-4.38.08-6.56.09-.73,0-1.45,0-2.18,0l-.74,0-1.16-.06-1-.07c-1.66-.16-3.33-.39-5-.66l-1.14-.17c-2-.36-4.07-.81-6.07-1.32-1-.27-2-.56-3-.88a61.8,61.8,0,0,1-6.67-2.61c-.73-.33-1.45-.67-2.17-1-1.26-.62-2.49-1.29-3.67-2-.49-.3-1-.62-1.45-.95-.86-.59-1.7-1.22-2.51-1.88h0c-.37-.3-.74-.6-1.1-.92l-.15-.15c-.44-.39-.87-.79-1.29-1.21s-1-1-1.44-1.55-.92-1.08-1.36-1.66q-.27-.35-.51-.72a7.09,7.09,0,0,1-.45-.75,8.33,8.33,0,0,1-.69-1.56,7.69,7.69,0,0,1-.36-3.39,9.68,9.68,0,0,1,.18-1c.26-1,.55-2.07.83-3.11.11-.43.22-.87.34-1.3.41-1.46.86-2.91,1.34-4.34.28-.8.56-1.6.86-2.4.85-2.3,1.78-4.57,2.68-6.86l.1-.24c.26-.68.57-1.33.87-2,.16-.37.33-.73.48-1.11l5.73-8.46.58-1.88.17-.56h0a2.22,2.22,0,0,1,.63.14l.26.1.15.07a4.73,4.73,0,0,1,.46.32,2.27,2.27,0,0,1,.32.22,4.56,4.56,0,0,0,.54.39,3.58,3.58,0,0,0,.56.27,4.1,4.1,0,0,0,1.18.26,9.32,9.32,0,0,0,1.9-.06l.48-.06.09,0a.8.8,0,0,0,.31-.11l.08,0a.55.55,0,0,0,.14-.51,1.83,1.83,0,0,0-.08-.25,2.09,2.09,0,0,0-.1-.21.73.73,0,0,0,0-.09,1.21,1.21,0,0,0-.2-.26,2.75,2.75,0,0,0-.26-.22,1.55,1.55,0,0,0-.61-.24,5,5,0,0,1-1.19-.32,4.49,4.49,0,0,1-.54-.26,6.32,6.32,0,0,1-1.29-1l-.13-.12a11.15,11.15,0,0,1-.8-.87l-.06-.06-.07-.09a7.76,7.76,0,0,1-.5-.67,6.28,6.28,0,0,1-1-3.15c0-.26,0-.53-.06-.81s.05-.38.09-.58a4,4,0,0,1,.16-.57,5,5,0,0,1,.51-1.11,24.11,24.11,0,0,1,2.35-3.43,10.06,10.06,0,0,1,.8-.8,5.88,5.88,0,0,1,3.84-1.47,1.44,1.44,0,0,0,.45-.09,2.44,2.44,0,0,0,.34-.14c.18-.09.35-.2.53-.31a9.12,9.12,0,0,1,.79-.47l-.28.08.28-.08a3.14,3.14,0,0,1,1.73-.41,2.29,2.29,0,0,1,.36.07,1.7,1.7,0,0,1,.86.59,2.62,2.62,0,0,1,.48,1.12l0,.13a4.94,4.94,0,0,1,.07.79v0h0c0,.38,0,.76-.05,1.14a10.57,10.57,0,0,1-.14,1.13,8.55,8.55,0,0,0-.14,1,6.75,6.75,0,0,0,0,.9,3.4,3.4,0,0,0,.46,1.44,3.11,3.11,0,0,0,.46.57l.29.23.06.06a5.66,5.66,0,0,0,1.37.71l.36.12.27.09a8.52,8.52,0,0,0,.84.2l.85.12c.28,0,.55,0,.83,0s.56,0,.84,0c.55,0,1.11-.08,1.66-.14l1-.13.63-.08.28,0a4.79,4.79,0,0,0,.81-.21l.33-.15a4,4,0,0,0,1.18-.87l.18-.19a5.47,5.47,0,0,0,.65-.93,9.1,9.1,0,0,0,.59-1.22c.09-.21.14-.42.21-.63s.16-.42.21-.63a11.45,11.45,0,0,0,.28-1.32c.07-.44.12-.9.15-1.36.08-1,.28-1.55.67-1.83a2.13,2.13,0,0,1,1.84,0l.86.29a14.37,14.37,0,0,1,1.67.7,12,12,0,0,1,3.67,2.74,7.56,7.56,0,0,1,1.49,2.35,4.36,4.36,0,0,1,.17.59,4,4,0,0,1,.09,1.19,4.17,4.17,0,0,1-.08.59,5,5,0,0,1-.77,1.66l-.16.24q-.18.24-.39.48c-.14.15-.29.31-.46.47-.59.57-1.21,1.11-1.83,1.66s-1.23,1.08-1.83,1.64a1.87,1.87,0,0,0-.26.3,6.66,6.66,0,0,0-.42.69l-.21.35.12.07a10.62,10.62,0,0,0,1.29.67,1.31,1.31,0,0,0,.47.07,3.65,3.65,0,0,0,.65-.1,11.88,11.88,0,0,0,1.44-.52l.47-.19.35-.13c.23-.09.44-.16.61-.21l.11,0h0a1.24,1.24,0,0,1,.31,0,.59.59,0,0,1,.27,0,.57.57,0,0,1,.25.24.84.84,0,0,1,.13.21c0,.1.08.22.13.34s.13.41.21.68a9.15,9.15,0,0,1,.22,1c0,.28.07.57.1.85s.05.43.08.64a1.15,1.15,0,0,0,0,.19c0,.07,0,.13,0,.19v0a1.39,1.39,0,0,1,0,.3.72.72,0,0,1-.41.59.66.66,0,0,1-.25.07,1.19,1.19,0,0,1-.33,0l-.39-.06-.66-.12-.85-.16c-.75-.12-1.5-.2-2.24-.27h0l-.42,0c-.74,0-1.48-.08-2.21-.08h-.09c-.67,0-1.34,0-2,.11h0c-.4,0-.8.09-1.2.15l-.82.1-.13,0q-1,.17-1.92.39c-.75.18-1.49.4-2.23.64s-1.47.52-2.2.82a33.82,33.82,0,0,0-4.28,2.18c-.94.56-1.87,1.17-2.78,1.82s-1.83,1.37-2.7,2.1a36.56,36.56,0,0,0-4.35,4.36c-.58.7-1.13,1.44-1.66,2.19-.08.13-.18.25-.26.37s-.21.34-.32.5c-.44.68-.85,1.38-1.25,2.11-.21.39-.43.77-.63,1.17-.1.21-.18.42-.26.64s-.14.44-.2.67c-.12.45-.21.92-.29,1.38a.86.86,0,0,0,.11.51.76.76,0,0,0,.15.23.38.38,0,0,0,.16.13.63.63,0,0,0,.24,0,.86.86,0,0,0,.27-.05l.17-.08a1,1,0,0,0,.23-.16l0,0A6.3,6.3,0,0,0,225,569c.32-.44.62-.9.9-1.36l.28-.44.33-.51c.52-.8,1.05-1.59,1.6-2.34.34-.46.68-.9,1-1.34s.71-.86,1.07-1.28c.72-.84,1.47-1.63,2.25-2.39s1.58-1.47,2.42-2.14a30.14,30.14,0,0,1,2.6-1.88,31.27,31.27,0,0,1,8.95-4,32.7,32.7,0,0,1,5.09-1c.39,0,.77-.08,1.16-.1s.7,0,1.05,0,.71,0,1.06,0,.95.07,1.42.14,1,.15,1.44.26,1.12.28,1.67.45h0c.74.22,1.47.46,2.17.74.47.18.92.38,1.37.59a25.89,25.89,0,0,1,3.85,2.21c.54.37,1.08.77,1.6,1.19s1,.86,1.54,1.32,1,.94,1.48,1.44a38.94,38.94,0,0,1,5.93,7.88,35.24,35.24,0,0,1,2.51,5.48l.15.41c.18.52.34,1,.49,1.56a35.06,35.06,0,0,1,1.06,4.89c.08.56.15,1.12.21,1.7s.11,1.15.14,1.73.07,1.1.1,1.64l.09,1.51v.12h0c.06,1.1.11,2.2.12,3.3C282.13,589,282.13,589.23,282.11,589.46Z"/><path id="socket" class="cls-5" d="M165.16,447.24l-41.95-11.59L113,432.83c-.09.24-.17.48-.24.74-1.19,4.88,2.84,10.74,10.44,16.42,8.64,6.46,21.88,12.68,37.27,16.93,1.57.44,3.13.84,4.68,1.21,26.93,6.54,49.87,4.24,52.3-5.62a6.51,6.51,0,0,0,.13-.77Z"/><polygon id="socket-2" data-name="socket" class="cls-8" points="110.65 412.81 228.86 445.49 229.98 440.96 111.76 408.28 110.65 412.81"/><polygon id="socket-3" data-name="socket" class="cls-8" points="165.16 441.6 142.74 435.4 107.49 425.65 106.19 430.94 113.01 432.83 123.21 435.65 165.16 447.24 217.59 461.74 224.41 463.62 225.71 458.34 165.16 441.6"/><polygon id="socket-4" data-name="socket" class="cls-8" points="216.17 418.59 128.38 394.32 116.03 390.9 114.92 395.44 132.58 400.32 199.91 418.93 233.13 428.12 234.25 423.59 216.17 418.59"/><polygon id="socket-5" data-name="socket" class="cls-8" points="230.45 405.6 125.13 376.48 123.24 375.96 119.93 375.04 119.19 378.06 122.59 379 123.91 379.37 228.42 408.26 237.4 410.75 238.14 407.72 230.45 405.6"/><path id="socket-6" data-name="socket" class="cls-5" d="M231.53,446.25v0l-2.67-.74L110.65,412.81l-2.32-.64a6.23,6.23,0,0,0-7.63,4.75,6.68,6.68,0,0,0,4.48,8.09l2.31.64,35.25,9.75,22.42,6.2,60.55,16.74,2.67.73v0a6.23,6.23,0,0,0,7.27-4.82A6.7,6.7,0,0,0,231.53,446.25Z"/><path id="socket-7" data-name="socket" class="cls-5" d="M239.24,431.81a6.26,6.26,0,0,0-3.44-2.93v0l-2.67-.74-33.22-9.19-67.33-18.61-17.66-4.88-2.32-.64a6.23,6.23,0,0,0-7.63,4.74,6.68,6.68,0,0,0,4.48,8.1l2.31.64L230,441l2.67.74v0A6.1,6.1,0,0,0,239,438.9a6.62,6.62,0,0,0,.88-2A6.87,6.87,0,0,0,239.24,431.81Z"/><path id="socket-8" data-name="socket" class="cls-5" d="M240.07,411.5v0l-.35-.1-2.32-.64-9-2.48L123.91,379.37l-1.32-.37-3.4-.94-2.32-.64a7.27,7.27,0,0,0-.91-.17,6.29,6.29,0,0,0-6.72,4.92,6.67,6.67,0,0,0,4.48,8.09l2.31.64,12.35,3.42,87.79,24.27,18.08,5,2.67.74v0a5.9,5.9,0,0,0,2.51,0,6.41,6.41,0,0,0,4.76-4.81A6.71,6.71,0,0,0,240.07,411.5Z"/><path id="eye" class="cls-5" d="M176.89,94.89A18.25,18.25,0,0,0,166.4,80.36,17.26,17.26,0,0,0,156,79c-9.89,1.8-16.62,11.89-14.9,22.34a20.3,20.3,0,0,0,1.21,4.22,19.17,19.17,0,0,0,8.52,9.65,16.78,16.78,0,0,0,11.43,1.85c8.45-1.7,14.66-9.6,15-18A17.12,17.12,0,0,0,176.89,94.89Zm-10-1.46c-.07,2.67-1.13,4.76-3.71,5.12a4.09,4.09,0,0,1-4.84-3.84C158,92,159.41,90,162,89.58S166.18,90.79,166.92,93.43Zm-10.73,11.73-.11.06c-.59.17-1.55-1.07-2.34-1.68.61-.87,1.06-2.15,1.86-2.49.62-.26,1.66.6,3.12,1.25l.08,0C157.65,103.64,157,104.83,156.19,105.16Z"/><path id="eye-2" data-name="eye" class="cls-5" d="M242.53,102.14c10-1.61,16.6-11.62,14.87-22.18S246.19,62.4,236.31,64.31c-10.81,2.38-16.57,12-14.71,22.42C223.5,97.49,231.89,103.86,242.53,102.14ZM244,84.85c.57-.28,1.65.6,3.17,1.24-1.17,1.4-1.76,2.68-2.6,2.9-.63.17-1.58-1-2.38-1.61C242.76,86.5,243.19,85.24,244,84.85ZM233.37,76.6a7.1,7.1,0,0,1,.85-.31c2.17-.65,5,1.55,5.12,3.92.15,2.74-1.25,4.68-3.71,5a4.44,4.44,0,0,1-.88.06c-2,0-3.51-1.23-3.86-3.79A4.07,4.07,0,0,1,233.37,76.6Z"/><path id="eyebrow" class="cls-5" d="M226.7,52.74c6.21,1.54,12.44,3,18.7,4.2,1.09.22,2.37-.69,3.56-1.08-1-1-1.9-2.51-3.07-2.83-4.46-1.18-9-2-13.54-2.92-2.08-.44-4.15-1-6.56-1.52l-1.68,2C225,51.34,225.73,52.5,226.7,52.74Z"/><path id="eyebrow-2" data-name="eyebrow" class="cls-5" d="M144.13,75.86a60.07,60.07,0,0,0,5.78-3.58c4-2.6,8-5.16,11.93-7.91a4.2,4.2,0,0,0,1.08-2.75c0-.31-1.16-.76-1.85-1.18-2.15,1.41-4,2.66-5.92,3.89-4.3,2.82-8.64,5.57-12.86,8.52-.63.44-.66,1.83-1,2.78C142.27,75.73,143.39,76.23,144.13,75.86Z"/><path class="cls-9" d="M163.59,141.3c-.82-5-7.49-8-15.27-7.06-.5.06-1,.14-1.53.23a21.32,21.32,0,0,0-10.06,4.59c-2.63,2.28-4,5.08-3.6,7.82s2.77,5,6.07,6.16a20.85,20.85,0,0,0,10.72.66,23.76,23.76,0,0,0,4.2-1.17C160.27,150.21,164.3,145.67,163.59,141.3Z"/><path class="cls-9" d="M275.26,120.82a6.43,6.43,0,0,0-1.3-2.92c-2.65-3.43-8.78-5.13-15.49-3.9-8.41,1.54-14.53,7.09-13.66,12.41.47,2.92,3,5.15,6.51,6.31a21.12,21.12,0,0,0,10.28.51C270,131.69,276.13,126.13,275.26,120.82Z"/><path id="mouth" class="cls-5" d="M189.1,145.23s-2.25-3,.17-3.38c0,0,15,6.89,19.91,5.92,0,0,7.91-.12,11.83-4.83,0,0,2-3.27,2.83-3.51,0,0,2.75-1.21,0,4,0,0-12.83,16.69-21,10.52Z"/><path id="hand-4" data-name="hand" class="cls-4" d="M42.12,285.14a6.11,6.11,0,0,1-6.55-3.74,10.49,10.49,0,0,1-.77-3,7.46,7.46,0,0,1,0-1.25c0-.46.06-.86.08-1.21a5.79,5.79,0,0,0-.06-1.59.91.91,0,0,0-.6-.69,2.36,2.36,0,0,0-.59-.09,6.17,6.17,0,0,0-.83,0l-1.1.12a26.73,26.73,0,0,0-3.36.62l-.82.25a10.24,10.24,0,0,0-2.28,1,7.74,7.74,0,0,0-2.12,1.88,5.11,5.11,0,0,0-.61,1.05,4,4,0,0,0-.23.69c-.41,1.63.12,3.44,1.54,5.29a15.89,15.89,0,0,0,2,2.05l1.07.95,1.06,1c.25.24.48.51.73.76s.51.49.74.76a2.74,2.74,0,0,1,.27.85l-.42.14a1.65,1.65,0,0,1-.43.09,8,8,0,0,1-4.25-1,12.09,12.09,0,0,1-1.29-.76c-.29-.19-.54-.36-.77-.49-1.59-1-1.85-.67-2.93,1.52-2.05,4.13-4.16,8.23-6.18,12.39A96.74,96.74,0,0,0,5.5,326.2a71,71,0,0,0-1.22,21.53,29.75,29.75,0,0,0,.71,4c.15.66.32,1.31.5,2L6,355.6H6c.24.86.19,2,1.7,2.25,1.21-.08.58-1.91.63-2.88.1-2,0-4,0-6-.06,0,0-3.88.21-7.13.06-.86.1-1.72.16-2.57a3.92,3.92,0,0,1,.23-1,4.05,4.05,0,0,1,.48-.9.73.73,0,0,1,.42-.29h.16c.21,0,.4.19.45.62.08.93.09,1.88.08,2.82,0,1.62,0,3.25,0,4.87a96.86,96.86,0,0,0,1.12,14.52h0a4.9,4.9,0,0,0,.87,3.07,6.2,6.2,0,0,0,1.56,1.32.45.45,0,0,1,.15-.11.93.93,0,0,1,.35-.09h0a2.09,2.09,0,0,0,.49-.11,1,1,0,0,0,.56-.44,1.48,1.48,0,0,0,.18-.67,6.43,6.43,0,0,0,0-.76c0-.13,0-.26,0-.38,0-2.93,0-5.86,0-8.79s0-5.86,0-8.79a9.11,9.11,0,0,1-.09-2.33c.12-.4.43-.67,1.1-.66a1.1,1.1,0,0,1,.43.08.78.78,0,0,1,.42.56,4.22,4.22,0,0,1,0,1.34,6.56,6.56,0,0,0,0,.87c.31,4.17.46,8.35.74,12.52a28.9,28.9,0,0,1,0,4.76,21.32,21.32,0,0,0-.16,3.56,4.53,4.53,0,0,0,.62,1.46,6,6,0,0,0,4.21,2.56c1.07.13,1.72-.14,1.67-1.46-.08-2-.12-4-.11-6,0-.47,1.19-.91,1.58-.64a4.28,4.28,0,0,1,1.74,2.6,5.7,5.7,0,0,1,.16,1.12c0,.62,0,1.26.08,1.88a14.45,14.45,0,0,0,.19,1.87c0,.18.07.36.12.54a4.7,4.7,0,0,0,.64,1.46,3.51,3.51,0,0,0,.7.74,3.26,3.26,0,0,0,1,.48,2.54,2.54,0,0,0,1.11.09,2.51,2.51,0,0,0,1.65-1.07,4.52,4.52,0,0,0,.55-1,15.18,15.18,0,0,0,1.23-4.41c.36-4,.49-7.93.74-11.9.07-1.09.16-3.77.35-6.37.1-1.4.22-2.77.38-3.86a29,29,0,0,1,2.54-8.42,26.81,26.81,0,0,1,1.41-2.57,15.43,15.43,0,0,1,1-1.44,13.35,13.35,0,0,1,2.34-2.35,12.69,12.69,0,0,1,2.73-1.64,14.75,14.75,0,0,1,4.74-1.19,8.65,8.65,0,0,1,1.44,0,6.59,6.59,0,0,1,1.34.23,6.18,6.18,0,0,1,3.27,2.22,8.65,8.65,0,0,1,1.37,2.79,12.76,12.76,0,0,1,.4,1.79c.16,1.09.28,2.18.4,3.27s.25,2.18.4,3.27a4.47,4.47,0,0,0,1,2.31,3.43,3.43,0,0,0,.88.74,3.17,3.17,0,0,0,2.32.38,4.24,4.24,0,0,0,2.26-1.3,4.67,4.67,0,0,0,.8-1.12,6.26,6.26,0,0,0,.66-2.16c0-.25,0-.49.06-.73a16,16,0,0,0-.24-2.93,39.49,39.49,0,0,1-.5-6.39,35.46,35.46,0,0,1,.63-6.38,22.41,22.41,0,0,0,.33-2.49,18.71,18.71,0,0,0-.77-6.93,20.3,20.3,0,0,0-1.82-4.21,22.27,22.27,0,0,0-1.26-2c-.46-.65-1-1.29-1.47-1.93s-1.3-1.53-2-2.31-1.26-1.57-1.83-2.4c-1-1.48-1.37-2-2.1-2.41a11.51,11.51,0,0,0-1.94-.65,1.52,1.52,0,0,1-.43-.2,6.13,6.13,0,0,1-.78-.69l-.38-.35a6,6,0,0,1,1.07-1.3c1.4-.95,2.92-1.7,4.28-2.71a5.06,5.06,0,0,0,2-2.88,6.06,6.06,0,0,0-.43-3.64,13,13,0,0,0-2.39-3.92,15.67,15.67,0,0,0-2.48-2.26q-.45-.35-.93-.66l-.62-.39a2.81,2.81,0,0,0-.93-.39c-.64-.09-1,.42-1.6,1.69a11.34,11.34,0,0,1-.69,1.24,11.92,11.92,0,0,1-2.7,3,16.31,16.31,0,0,1-1.48,1.05A9.67,9.67,0,0,1,43.36,285C43,285.06,42.54,285.11,42.12,285.14Z"/><path id="arm-3" data-name="arm" class="cls-5" d="M109.38,177.52a7.41,7.41,0,0,0-1.79-3.18,7.74,7.74,0,0,0-4-2.52,5.88,5.88,0,0,0-.93-.1A5.62,5.62,0,0,0,101,172c-.11,0-.21,0-.32.08a21.46,21.46,0,0,0-4.91,2.79q-3.8,2.58-7.47,5.35c-2.44,1.85-4.85,3.76-7.2,5.72q-7.06,5.91-13.6,12.53a81,81,0,0,0-12.39,15.94c-1.14,2-2.2,4-3.18,6.08a109.55,109.55,0,0,0-5.08,14.13c-.21.68-.42,1.37-.62,2.06-.56,1.83-1.11,3.65-1.7,5.47-.45,1.39-.87,2.8-1.3,4.2q-1.47,4.83-2.86,9.69c-1.12,3.9-2.21,7.81-3.35,11.7-.38,1.27-.57,1.8-1.21,2a3.84,3.84,0,0,1-1,.12H34c-.82,0-1.63,0-2.43,0a21.37,21.37,0,0,0-4.75.81,20,20,0,0,0-2.33.87c-4.25,1.92-6.79,6.32-6,10.36a7.7,7.7,0,0,0,.56,1.7,2.38,2.38,0,0,1,.23.8,2.21,2.21,0,0,1-.35,1.36,6.2,6.2,0,0,1-.44.65,48.33,48.33,0,0,0-2.72,4,104.88,104.88,0,0,0-6.33,12c-.62,1.38-1.22,2.78-1.79,4.19-.75,1.85-1.48,3.72-2.17,5.61s-1.33,3.8-1.88,5.73A99.9,99.9,0,0,0,.31,335.43a56.61,56.61,0,0,0-.23,8.81A44.41,44.41,0,0,0,.75,350a42,42,0,0,0,2.47,8.45,6,6,0,0,0,1.45,2.22,3.42,3.42,0,0,0,2.18.91,3.54,3.54,0,0,1,.94.2,3.38,3.38,0,0,1,1.71,1.81,9.52,9.52,0,0,0,3.43,3.74,37.29,37.29,0,0,0,4.11.93c.42.5.85,1,1.23,1.51a6.75,6.75,0,0,0,3.48,2.58,9.3,9.3,0,0,0,1.47.34l1.23.21A11.16,11.16,0,0,1,28,374.17a8.57,8.57,0,0,0,1.36.67,6.74,6.74,0,0,0,2.73.44c.22,0,.44,0,.66-.07a5.54,5.54,0,0,0,1.85-.66,6.27,6.27,0,0,0,2.7-3.23c.21-.52.4-1.06.58-1.6a25.21,25.21,0,0,0,.84-3.32c.1-.56.18-1.13.23-1.69.26-2.86.43-5.73.6-8.6s.31-5.74.52-8.6c.07-.94.16-1.87.28-2.8a29.66,29.66,0,0,1,1.19-5.44,21.48,21.48,0,0,1,1.06-2.6,17.75,17.75,0,0,1,1.34-2.35,11.35,11.35,0,0,1,3.66-3.51,11.06,11.06,0,0,1,2.48-1,6.82,6.82,0,0,1,2.16-.29,3.23,3.23,0,0,1,2.45,1.14,5.93,5.93,0,0,1,1.16,3.44c.17,2.08.47,4.15.83,6.19a7.18,7.18,0,0,0,5.75,6.13,8,8,0,0,0,1.61.13,7,7,0,0,0,3.09-.8,9.2,9.2,0,0,0,1.19-.73c2.58-1.84,3.7-4.55,3.69-8.1,0-6.38.13-12.75.32-19.13a25.12,25.12,0,0,0-.07-2.61,24.17,24.17,0,0,0-1.86-7.41,23.19,23.19,0,0,0-1.67-3.21,23.46,23.46,0,0,0-2.08-2.86,27.42,27.42,0,0,0-5.23-4.72,5.65,5.65,0,0,1-1.26-1,.57.57,0,0,1-.08-.55,4.79,4.79,0,0,1,.87-1.27l.4-.47c.14-.15.27-.3.4-.46a11.64,11.64,0,0,0,1.1-1.43,8.73,8.73,0,0,0,1-7.77,12.18,12.18,0,0,0-1.67-3.18,25.21,25.21,0,0,0-3.79-4.17,24.32,24.32,0,0,0-2.64-2.07,5.7,5.7,0,0,1-1.51-1.24,1.48,1.48,0,0,1-.28-.84,3.94,3.94,0,0,1,.16-1.17c.05-.24.12-.51.21-.8.4-1.45.79-2.9,1.19-4.35s.79-2.89,1.2-4.34L58.31,256c.88-3.24,1.78-6.47,2.74-9.69.12-.41.23-.83.36-1.24.65-2.17,1.34-4.34,2.06-6.49s1.49-4.28,2.31-6.39a65.49,65.49,0,0,1,4.24-9A49.3,49.3,0,0,1,72.69,219a44.15,44.15,0,0,1,3.11-3.89,91.39,91.39,0,0,1,8-7.73c1.4-1.21,2.82-2.4,4.23-3.59s2.83-2.38,4.23-3.59c2.31-2,4.63-4,6.89-6.06q2.52-2.31,4.9-4.78c.55-.56,1.11-1.11,1.64-1.7a15.56,15.56,0,0,0,2.93-4.61,16.45,16.45,0,0,0,.62-1.75A7.17,7.17,0,0,0,109.38,177.52ZM54.27,277.11l.62.39q.48.31.93.66a15.67,15.67,0,0,1,2.48,2.26,13,13,0,0,1,2.39,3.92,6.06,6.06,0,0,1,.43,3.64,5.06,5.06,0,0,1-2,2.88c-1.36,1-2.88,1.76-4.28,2.71a6,6,0,0,0-1.07,1.3l.38.35a6.13,6.13,0,0,0,.78.69,1.52,1.52,0,0,0,.43.2,11.51,11.51,0,0,1,1.94.65c.73.38,1.09.93,2.1,2.41.57.83,1.19,1.62,1.83,2.4s1.31,1.54,2,2.31,1,1.28,1.47,1.93a22.27,22.27,0,0,1,1.26,2A20.3,20.3,0,0,1,67.69,312a18.71,18.71,0,0,1,.77,6.93,22.41,22.41,0,0,1-.33,2.49,35.46,35.46,0,0,0-.63,6.38,39.49,39.49,0,0,0,.5,6.39,16,16,0,0,1,.24,2.93c0,.24,0,.48-.06.73a6.26,6.26,0,0,1-.66,2.16,4.67,4.67,0,0,1-.8,1.12,4.24,4.24,0,0,1-2.26,1.3,3.17,3.17,0,0,1-2.32-.38,3.43,3.43,0,0,1-.88-.74,4.47,4.47,0,0,1-1-2.31c-.15-1.09-.27-2.18-.4-3.27s-.24-2.18-.4-3.27a12.76,12.76,0,0,0-.4-1.79,8.65,8.65,0,0,0-1.37-2.79,6.18,6.18,0,0,0-3.27-2.22,6.59,6.59,0,0,0-1.34-.23,8.65,8.65,0,0,0-1.44,0,14.75,14.75,0,0,0-4.74,1.19,12.69,12.69,0,0,0-2.73,1.64,13.35,13.35,0,0,0-2.34,2.35,15.43,15.43,0,0,0-1,1.44,26.81,26.81,0,0,0-1.41,2.57,29,29,0,0,0-2.54,8.42c-.16,1.09-.28,2.46-.38,3.86-.19,2.6-.28,5.28-.35,6.37-.25,4-.38,7.94-.74,11.9a15.18,15.18,0,0,1-1.23,4.41,4.52,4.52,0,0,1-.55,1A2.51,2.51,0,0,1,32,371.63a2.54,2.54,0,0,1-1.11-.09,3.26,3.26,0,0,1-1-.48,3.51,3.51,0,0,1-.7-.74,4.7,4.7,0,0,1-.64-1.46c-.05-.18-.08-.36-.12-.54a14.45,14.45,0,0,1-.19-1.87c0-.62,0-1.26-.08-1.88a5.7,5.7,0,0,0-.16-1.12,4.28,4.28,0,0,0-1.74-2.6c-.39-.27-1.58.17-1.58.64,0,2,0,4,.11,6,.05,1.32-.6,1.59-1.67,1.46a6,6,0,0,1-4.21-2.56,4.53,4.53,0,0,1-.62-1.46,21.32,21.32,0,0,1,.16-3.56,28.9,28.9,0,0,0,0-4.76c-.28-4.17-.43-8.35-.74-12.52a6.56,6.56,0,0,1,0-.87,4.22,4.22,0,0,0,0-1.34.78.78,0,0,0-.42-.56,1.1,1.1,0,0,0-.43-.08c-.67,0-1,.26-1.1.66a9.11,9.11,0,0,0,.09,2.33c0,2.93,0,5.86,0,8.79s0,5.86,0,8.79c0,.12,0,.25,0,.38a6.43,6.43,0,0,1,0,.76,1.48,1.48,0,0,1-.18.67,1,1,0,0,1-.56.44,2.09,2.09,0,0,1-.49.11h0a.93.93,0,0,0-.35.09.45.45,0,0,0-.15.11A6.2,6.2,0,0,1,12.55,363a4.9,4.9,0,0,1-.87-3.07h0a96.86,96.86,0,0,1-1.12-14.52c0-1.62,0-3.25,0-4.87,0-.94,0-1.89-.08-2.82-.05-.43-.24-.6-.45-.62H9.89a.73.73,0,0,0-.42.29,4.05,4.05,0,0,0-.48.9,3.92,3.92,0,0,0-.23,1c-.06.85-.1,1.71-.16,2.57-.16,3.25-.27,7.13-.21,7.13,0,2,.07,4,0,6,0,1,.58,2.8-.63,2.88-1.51-.2-1.46-1.39-1.7-2.25H6l-.54-1.94c-.18-.65-.35-1.3-.5-2a29.75,29.75,0,0,1-.71-4A71,71,0,0,1,5.5,326.2a96.74,96.74,0,0,1,7.91-23.43c2-4.16,4.13-8.26,6.18-12.39,1.08-2.19,1.34-2.5,2.93-1.52.23.13.48.3.77.49a12.09,12.09,0,0,0,1.29.76,8,8,0,0,0,4.25,1,1.65,1.65,0,0,0,.43-.09l.42-.14a2.74,2.74,0,0,0-.27-.85c-.23-.27-.49-.51-.74-.76s-.48-.52-.73-.76l-1.06-1-1.07-.95a15.89,15.89,0,0,1-2-2.05c-1.42-1.85-1.95-3.66-1.54-5.29a4,4,0,0,1,.23-.69,5.11,5.11,0,0,1,.61-1.05,7.74,7.74,0,0,1,2.12-1.88,10.24,10.24,0,0,1,2.28-1l.82-.25a26.73,26.73,0,0,1,3.36-.62l1.1-.12a6.17,6.17,0,0,1,.83,0,2.36,2.36,0,0,1,.59.09.91.91,0,0,1,.6.69A5.79,5.79,0,0,1,34.9,276c0,.35,0,.75-.08,1.21a7.46,7.46,0,0,0,0,1.25,10.49,10.49,0,0,0,.77,3,6.11,6.11,0,0,0,6.55,3.74c.42,0,.83-.08,1.24-.15a9.67,9.67,0,0,0,3.51-1.33,16.31,16.31,0,0,0,1.48-1.05,11.92,11.92,0,0,0,2.7-3,11.34,11.34,0,0,0,.69-1.24c.6-1.27,1-1.78,1.6-1.69A2.81,2.81,0,0,1,54.27,277.11Z"/></g></g></svg>