<?xml version="1.0" encoding="utf-8"?>
<!-- Generator: Adobe Illustrator 24.1.1, SVG Export Plug-In . SVG Version: 6.00 Build 0)  -->
<svg version="1.1" xmlns="http://www.w3.org/2000/svg" xmlns:xlink="http://www.w3.org/1999/xlink" x="0px" y="0px"
	 viewBox="0 0 1920 1080" style="enable-background:new 0 0 1920 1080;" xml:space="preserve">
<style type="text/css">
	.st0{fill:#333333;}
	.st1{fill:#A8D0E6;}
	.st2{fill:#F8E9A1;}
	.st3{fill:#F8D8A1;}
	.st4{fill:#B7A187;}
	.st5{fill:#F8E9E6;}
	.st6{fill:#243030;}
	.st7{fill:#666666;}
	.st8{fill:#C6976A;}
</style>
<g id="background">
	<g id="background_1_">
		<rect x="4" class="st0" width="1919" height="1089"/>
	</g>
</g>
<g id="frame">
	<path id="frame_1_" class="st1" d="M1414.88,440.94c-7.65-78.6-200.43-44.14-154.93-129.62c27.67-22.42,50.53-59.75,25.55-93.05
		c-14.14-19.27-41.42-27.67-63.95-19.69c-39.74,25.49-95.42,42.41-84.05-24.73c25.86-48.04-2.76-110.16-63.22-95.02
		c-31.67,9.43-25.96,58.79-55.08,75.29c-29.13,16.5-66.82-98.55-100.09-103.42c-33.27-4.87-51.48,58.72-79.06,73.21
		c-27.58,14.49-35.12-30.08-54.65-43.95c-58.64-21.78-18.87,61.19-34.64,76.96c-15.77,15.77-115.29-96.71-181.68-14.8
		c-59.26,75.53,130.6,120.8-22.83,166.96c-63.17,4.62-145.45,82.83-78.2,134.31c34.97,18.76,89.41-10.42,112.84,21.63
		c26.82,98.11-160.61,205.5-7.16,315.27c71.35,50.35,135.2-27.44,201.93-31.84c18.76,5.1,35.23,21.64,51.29,43.07l-0.15,0.57
		L867,853.75v0.18c13.01,19.64,26.69,39.06,41.95,55.11c0.57,0.6,1.14,1.19,1.72,1.79c0.2,0.21,0.41,0.41,0.61,0.62
		c0.37,0.38,0.75,0.76,1.12,1.14c0.24,0.24,0.49,0.48,0.73,0.73c0.34,0.33,0.67,0.67,1.01,1c0.26,0.26,0.53,0.51,0.79,0.76
		c0.32,0.31,0.64,0.62,0.97,0.93c0.28,0.26,0.56,0.52,0.83,0.78c0.31,0.29,0.62,0.59,0.94,0.88c0.29,0.27,0.58,0.53,0.87,0.79
		c0.3,0.28,0.61,0.56,0.91,0.83c0.3,0.27,0.6,0.53,0.9,0.8c0.3,0.27,0.6,0.53,0.9,0.8c0.31,0.27,0.62,0.53,0.92,0.8
		c0.29,0.25,0.59,0.51,0.88,0.75c0.32,0.27,0.64,0.54,0.96,0.8c0.29,0.24,0.58,0.48,0.87,0.72c0.33,0.27,0.66,0.54,0.99,0.8
		c0.28,0.23,0.56,0.45,0.84,0.68c0.34,0.27,0.68,0.54,1.03,0.8c0.27,0.21,0.55,0.43,0.82,0.64c0.35,0.27,0.7,0.53,1.06,0.8
		c0.27,0.2,0.54,0.41,0.82,0.61c0.36,0.26,0.72,0.53,1.08,0.79c0.26,0.19,0.53,0.38,0.8,0.57c0.37,0.26,0.75,0.53,1.12,0.79
		c0.26,0.18,0.51,0.35,0.77,0.53c0.39,0.26,0.77,0.52,1.16,0.78c0.25,0.17,0.5,0.33,0.75,0.49c0.4,0.26,0.8,0.52,1.2,0.77
		c0.24,0.15,0.48,0.3,0.72,0.45c0.41,0.26,0.83,0.52,1.24,0.77c0.23,0.14,0.46,0.28,0.69,0.41c0.43,0.26,0.86,0.51,1.29,0.76
		c0.21,0.12,0.43,0.25,0.64,0.37c0.45,0.26,0.9,0.51,1.36,0.76c0.2,0.11,0.39,0.21,0.59,0.32c0.48,0.26,0.95,0.52,1.43,0.77
		c0.17,0.09,0.34,0.17,0.51,0.26c0.51,0.26,1.02,0.52,1.53,0.78c0.13,0.07,0.27,0.13,0.4,0.19c0.55,0.27,1.1,0.54,1.66,0.79
		c0.08,0.04,0.16,0.07,0.24,0.11c0.61,0.28,1.22,0.56,1.83,0.83c0,0,0,0,0,0c3.66,1.6,7.41,2.96,11.26,4.07
		c4.01,1.16,8.13,2.03,12.36,2.6c0.01,0,0.03,0,0.04,0.01c0.73,0.1,1.46,0.18,2.2,0.26c0.03,0,0.06,0.01,0.1,0.01
		c0.72,0.08,1.45,0.14,2.18,0.2c0.05,0,0.09,0.01,0.14,0.01c0.72,0.06,1.45,0.1,2.17,0.14c0.05,0,0.11,0.01,0.16,0.01
		c0.72,0.04,1.45,0.06,2.18,0.08c0.06,0,0.11,0,0.17,0c0.73,0.02,1.46,0.03,2.2,0.03c0.06,0,0.12,0,0.17,0
		c0.74,0,1.48-0.01,2.23-0.03c0.05,0,0.11,0,0.16,0c0.75-0.02,1.51-0.05,2.27-0.09c0.04,0,0.09,0,0.13-0.01
		c0.77-0.04,1.55-0.1,2.32-0.16c0.03,0,0.06-0.01,0.09-0.01c0.79-0.06,1.59-0.14,2.39-0.23c0.02,0,0.03,0,0.05-0.01
		c16.21-1.75,33.97-7.84,53.63-19.45c1.31-0.77,2.63-1.57,3.96-2.4c0,0,0.01,0,0.01,0l0.01,0c0,0,38.49-21.71,52.17-49.12
		c35.54-54.98-11.64-178.2,85.05-134.65c67.46,70.81,166.64-1.52,128.99-81.44c-21.45-30.33-86.96-39.82-78.76-86.77
		C1273.96,509.88,1427.26,553.31,1414.88,440.94z"/>
</g>
<g id="lightbulb">
	<g id="light_3_">
		<path class="st2" d="M859.87,486.99c0.78-5.35,1.01-12.56,3.71-17.2c2.56-4.42,7.53-6.46,12.22-7.89
			c11.57-3.53,23.65-5.14,35.68-4.74c2.11,0.07,4.26,0.21,6.2,1.09c1.3,0.59,2.43,1.5,3.4,2.58c0.04-0.35,0.08-0.71,0.12-1.05
			c0.41-2.66,0.79-5.32,0.9-7.94c0.82-7.13,1.38-12.01,1.51-12.91c0.3-2.11-0.6-2.79-1.73-2.96c-3.5-0.55-7.04-0.9-10.5-1.65
			c-4.1-0.89-8.24-1.7-12.15-3.33c-2.51-1.05-4.69-3.43-6.94-5.39c-3.88-3.39-6.2-9-8.24-14.86c-3.31-1.2-5.62-3.36-6.07-6.16
			c-0.45-2.74,0.98-5.54,3.6-7.83c-0.04-0.6-0.08-1.21-0.12-1.81c-0.52-8.23,1.26-16.32,3.14-24.21c0.61-2.55,1.52-5.05,2.57-7.46
			c-0.54-1.33-0.96-2.74-1.2-4.21c-1.72-10.46,5-20.54,14.89-22.34c3.69-0.67,7.26-0.1,10.38,1.34c2.15-0.59,4.32-0.75,6.51-0.35
			c7.97,1.46,12.77,5.25,16.5,9.52c3.19,3.65,7.31,15.43,7.7,17.43c1.54,7.96,1.83,16.22,0.16,25.02
			c-1.74,9.24-3.37,18.5-5.02,27.76c-0.69,3.87-0.64,3.9,1.82,4.02c0.45,0.02,24.3,4.86,35.79,7.24c2.04,0.42,2.29,0.28,2.9-3.02
			c1.87-10.17,3.29-22.22,5.53-30.53c2.35-8.69,4.09-13.06,7.27-18.81c2.86-5.17,6.32-9.03,10.01-12.12
			c4.71-3.94,9.55-5.98,14.82-6.23c3.46-0.16,10.61,1.1,13.35,3.61c3.1,2.84,6.16,5.7,8.39,9.96c2.22,4.24,4.02,9.08,4.72,14.75
			c0.57,4.59,1.34,11.47,1.3,16.13c-0.09,8.92-2.16,16.78-5.13,23.07c-0.32,0.68-2.85,6.06-3.46,6.97
			c-3.66,5.39-7.23,11.07-11.79,14.54c-1.91,1.45-3.93,2.49-5.91,3.59c-3.37,1.85-6.66,1.9-10.07,2.02
			c-7.5,0.27-14.5-1.92-21.6-3.75c-1.51-0.39-2,0.09-2.52,2.62c-0.16,0.76-1.02,4.31-2.37,9.79c8.21,0.29,16.41,0.58,24.62,0.87
			c4.68,0.17,9.68,0.48,14.04,2.09l0,0l0.1,0.03c0.01,0,0.02,0.01,0.03,0.01l25.64,9.23c-0.62-1.31-0.85-2.63-0.75-3.88
			c0.13-1.7,0.86-3.27,1.98-4.55c0.75-0.85,1.67-1.57,2.7-2.11c0.87-0.45,1.73-0.75,2.57-0.9c0.42-0.08,0.84-0.12,1.25-0.13
			c1.24-0.03,2.44,0.25,3.61,0.77c0.39,0.17,0.77,0.37,1.15,0.6c0.38,0.23,0.75,0.48,1.12,0.75c0.2,0.15,0.4,0.3,0.59,0.45
			c1-3.56,2-7.12,2.99-10.68c2.96-10.54,5.92-21.11,7.76-31.93c6.05-35.59-0.71-73.64-19.37-103.9
			c-18.66-30.27-49.19-52.24-82.77-58.47c-33.58-6.24-69.71,3.66-95.66,27.11c-18.79,16.98-32.08,40.71-37.15,66.34
			c-2.32,11.76-2.95,24.02-0.63,35.77c1.99,10.07,6.08,19.52,8.96,29.35c1.12,3.81,2.06,7.67,2.88,11.57
			c0.56-0.16,1.11-0.25,1.64-0.24c0.32,0.01,0.62,0.04,0.93,0.1c1.52,0.3,2.88,1.24,4.06,2.51c0.88,0.95,1.49,2.02,1.78,3.18
			c0.29,1.16,0.27,2.42-0.11,3.74c-0.17,0.6-0.38,1.19-0.61,1.76c-0.7,1.7-1.67,3.23-2.93,4.61c-0.53,0.58-1.09,1.13-1.64,1.7
			c0.12,0.78,0.25,1.55,0.37,2.33c2.4,14.99,4.79,29.97,7.19,44.96c-0.28,0.31-0.56,0.66-0.82,1.03c1.62-0.54,3.23-1.07,4.85-1.61
			C858.42,492.71,859.27,491.12,859.87,486.99z M922.02,451.68c-0.12,2.62-0.5,5.28-0.9,7.94
			C921.44,456.74,921.74,454.09,922.02,451.68z M970.64,306.29c2.41,0.56,4.47,1.08,6.55,1.52c4.52,0.96,9.08,1.73,13.54,2.92
			c1.17,0.31,2.06,1.85,3.07,2.83c-1.19,0.39-2.47,1.3-3.56,1.08c-6.26-1.23-12.5-2.66-18.7-4.21c-0.97-0.24-1.74-1.39-2.6-2.12
			C969.51,307.64,970.06,306.98,970.64,306.29z M981.16,322c9.88-1.91,19.36,5.13,21.09,15.65c1.73,10.56-4.86,20.57-14.87,22.18
			c-10.64,1.72-19.03-4.66-20.93-15.41C964.59,333.96,970.35,324.38,981.16,322z M887.14,330.54c4.22-2.95,8.56-5.7,12.86-8.52
			c1.89-1.24,3.77-2.48,5.92-3.89c0.69,0.42,1.88,0.87,1.85,1.17c-0.1,0.97-0.41,2.28-1.08,2.76c-3.91,2.75-7.94,5.3-11.94,7.91
			c-1.9,1.24-3.76,2.58-5.78,3.58c-0.74,0.37-1.86-0.13-2.81-0.23C886.48,332.37,886.51,330.98,887.14,330.54z"/>
	</g>
	<g id="light_4_">
		<path class="st2" d="M989.61,431.79c3.13,0.62,6.25,1.27,9.37,1.9c0.01-0.04,0.01-0.07,0.02-0.11c2.54,0.52,5.08,1.03,7.63,1.55
			c6.52,1.32,12.29-1.78,17.76-9.48c6.7-9.44,9.12-25,5.72-36.43c-0.61-2.04-1.45-3.93-2.34-5.68c-2.23-4.38-5.35-6.85-8.95-7.95
			c0.67,0.87,1.13,1.84,1.3,2.92c0.87,5.31-5.25,10.87-13.66,12.41c-3.79,0.69-7.38,0.45-10.28-0.51c-1.07,2.12-1.98,4.39-2.47,6.95
			c-1.96,10.26-3.78,20.55-5.61,30.84C987.6,430.93,987.91,431.45,989.61,431.79z"/>
	</g>
	<g id="light_2_">
		<path class="st2" d="M984.99,649.76c0.01-0.37,0.02-0.76,0.02-1.12c0.02-1.08,0.05-2.17,0.07-3.25c0.07-2.89,0.12-5.34,0.17-7.15
			c0-0.02,0-0.03,0-0.05c0.08-3.05-0.12-6.43,0.39-10.45c0.51-4.02,0.78-3.09,1.3-5.42c0.32-1.42,1.96-2.38,3.73-2.78
			c0.88-0.24,1.86-0.29,2.78-0.15c2.41,0.38,3.88,1.92,4.91,3.98l12.07-26.09c-5.19-2.98-10.55-5.59-16.3-6.85
			c-9.48-2.07-19.28-0.34-28.95-0.38c-5.52-0.02-11.32-0.81-16.41-2.96c-1.97,7.91-3.94,15.83-5.93,23.74
			c-1.08,4.29-9.54,37.57-9.7,38.32l-9.84-2c0.27-0.99,12.65-51.95,13.65-56.01c0.05-0.22,1.05-4.19,2.66-10.66
			c-0.23-0.28-0.48-0.55-0.7-0.85c-6.03-8.02-3.96-22.7,5.4-25.31c-4.41-5.02-8.96-10.3-10.74-16.89s0.17-14.87,6.02-17.78
			c-5.32-4.12-7.99-11.75-6.49-18.56c1.5-6.81,7.07-12.4,13.56-13.6c-5.26-4.06-7.39-12.13-4.87-18.49
			c2.52-6.37,9.44-10.4,15.86-9.26l-2.6,0.65c4.8,0.17,9.61,0.34,14.41,0.51c2.15-8.64,3.5-14.06,3.53-14.22
			c-13.14-2.67-25.95-5.28-39.03-7.93c-0.35,3.14-2.54,21.13-3.29,27.1c-0.49,3.83-11.63,103.48-12.09,107.2
			c-1.18,9.64-2.33,19.28-3.48,28.92c-0.59,4.99-1.71,15.9-1.74,16.36c-0.14,2.23-1.65,16.53-2.76,26.25l-10.12-2.06
			c0.39-2.26,0.71-4.51,0.7-6.82c0-1.29,0.11-2.61,0.26-3.93l0.64-5.12c0.77-6.74,1.52-13.48,2.35-20.22
			c0.46-3.74,0.83-7.14,1.2-10.49c-0.43,3.44-0.87,6.89-1.29,10.33c0.38-3.08,1.14-9.51,1.99-16.79c0.2-1.83,0.42-3.7,0.65-5.63
			c-10.75,7.13-26.36,10.08-30.3,22.76c-1.22,3.94-1.01,8.21-1.53,12.32c-0.45,3.59-2.18,11-5.17,15.25l105.32,29.12
			C978.63,658.92,981.96,654.41,984.99,649.76z M900.02,642.28c0.44-3.66,0.94-7.59,1.33-10.68c0.19-1.7,0.45-3.42,0.64-5.12
			c-0.1,0.85-0.34,2.74-0.64,5.12c-0.15,1.33-0.27,2.64-0.26,3.93c0.01,2.31-0.31,4.56-0.7,6.82L900.02,642.28z"/>
	</g>
	<g id="light_1_">
		<path class="st2" d="M915.21,483.38c1.17,0.86,2.14,2.03,2.95,3.33c0.14-1.26,0.28-2.51,0.42-3.77
			C917.48,483.27,916.36,483.39,915.21,483.38z"/>
	</g>
	<g id="light">
		<path class="st2" d="M907.13,374.77c-4.01,0.81-8,0.04-11.43-1.84c-0.44,1.12-0.87,2.25-1.28,3.38
			c-0.5,1.38-1.08,10.07-1.25,15.63c7.77-0.93,14.45,2.07,15.26,7.05c0.71,4.38-3.32,8.91-9.47,11.24c1.27,1.35,2.66,2.47,4.06,3.53
			c1.05,0.79,2.32,1.1,3.54,1.35c5.66,1.14,11.35,2.08,16.99,3.32c2.28,0.5,2.34,0.7,2.99-2.9c1.79-9.83,3.56-19.66,5.32-29.49
			c0.2-1.15,0.4-2.36,0.36-3.47c-0.39-11.94-2.93-21.32-10.14-25.77C921.79,365.18,915.58,373.07,907.13,374.77z"/>
	</g>
	<path id="wire" class="st3" d="M904.34,606.26c0.42-3.44,0.86-6.89,1.29-10.33c-0.36,3.35-0.74,6.76-1.2,10.49
		c-0.82,6.74-1.58,13.48-2.35,20.22l-0.64,5.12c-0.15,1.33-0.27,2.64-0.26,3.93c0.01,2.31-0.31,4.56-0.7,6.82l10.12,2.06
		c1.1-9.71,2.62-24.02,2.76-26.25c0.03-0.46,1.15-11.37,1.74-16.36c1.15-9.64,2.3-19.28,3.48-28.92
		c0.45-3.72,11.6-103.37,12.09-107.2c0.76-5.98,2.95-23.96,3.29-27.1c13.08,2.66,25.89,5.26,39.03,7.93
		c-0.03,0.16-1.38,5.58-3.53,14.22c3.57,0.13,7.14,0.25,10.71,0.38c1.35-5.48,2.21-9.03,2.37-9.79c0.52-2.53,1.01-3.01,2.52-2.62
		c7.1,1.84,14.11,4.02,21.6,3.75c3.41-0.12,6.7-0.16,10.07-2.02c1.99-1.09,4-2.13,5.91-3.59c4.56-3.47,8.12-9.15,11.79-14.54
		c0.61-0.9,3.14-6.29,3.46-6.97c2.97-6.29,5.05-14.15,5.13-23.07c0.04-4.66-0.73-11.54-1.3-16.13c-0.71-5.67-2.5-10.51-4.72-14.75
		c-2.23-4.26-5.28-7.12-8.39-9.96c-2.75-2.51-9.9-3.77-13.35-3.61c-5.28,0.25-10.11,2.29-14.82,6.23
		c-3.69,3.08-7.15,6.95-10.01,12.12c-3.18,5.76-4.92,10.12-7.27,18.81c-2.25,8.32-3.66,20.36-5.53,30.53
		c-0.61,3.3-0.85,3.44-2.9,3.02c-11.48-2.38-35.34-7.22-35.79-7.24c-2.46-0.12-2.51-0.16-1.82-4.02c1.65-9.26,3.27-18.52,5.02-27.76
		c1.66-8.8,1.38-17.06-0.16-25.02c-0.39-2-4.5-13.78-7.7-17.43c-3.74-4.27-8.53-8.06-16.5-9.52c-2.19-0.4-4.36-0.24-6.51,0.35
		c5.68,2.63,9.86,8.18,10.49,14.53c0.3,1.4,0.39,2.81,0.34,4.2c7.22,4.46,9.75,13.83,10.14,25.77c0.04,1.11-0.16,2.33-0.36,3.47
		c-1.75,9.83-3.52,19.66-5.32,29.49c-0.66,3.6-0.71,3.4-2.99,2.9c-5.64-1.24-11.33-2.17-16.99-3.32c-1.22-0.25-2.49-0.56-3.54-1.35
		c-1.4-1.06-2.79-2.17-4.06-3.53c-1.31,0.5-2.72,0.9-4.2,1.17c-3.98,0.73-7.75,0.42-10.72-0.66c2.04,5.85,4.36,11.47,8.24,14.86
		c2.25,1.96,4.43,4.34,6.94,5.39c3.91,1.64,8.05,2.45,12.15,3.33c3.46,0.75,7,1.1,10.5,1.65c1.13,0.18,2.03,0.86,1.73,2.96
		c-0.13,0.9-0.69,5.78-1.51,12.91c-0.12,2.62-0.5,5.28-0.9,7.94c-0.04,0.34-0.08,0.7-0.12,1.05c1.13,1.26,2.04,2.75,2.74,4.33
		c2.69,6.11,1.57,14.94-4.33,17.47c-0.3,0.13-0.61,0.23-0.91,0.32c-0.14,1.25-0.28,2.51-0.42,3.77c0.66,1.05,1.22,2.19,1.69,3.34
		c2.14,5.23,3.07,11.17,1.79,16.71c-1,4.33-3.49,8.36-6.95,10.82c-0.12,1.11-0.24,2.18-0.36,3.23c4.82,3.39,7.96,9.47,7.81,15.63
		c-0.19,7.27-4.94,14.17-11.42,16.56c5.66,4.32,8.1,12.84,5.64,19.76c-1.73,4.88-5.18,8.3-9.38,11.08c-0.23,1.94-0.44,3.8-0.65,5.63
		C905.47,596.75,904.71,603.18,904.34,606.26z M988.09,428.2c1.83-10.29,3.65-20.58,5.61-30.84c0.49-2.55,1.4-4.83,2.47-6.95
		c-3.54-1.17-6.04-3.4-6.51-6.32c-0.87-5.31,5.25-10.87,13.66-12.41c6.71-1.23,12.84,0.47,15.49,3.91c3.59,1.1,6.71,3.58,8.95,7.95
		c0.89,1.75,1.73,3.63,2.34,5.68c3.4,11.43,0.98,26.99-5.72,36.43c-5.47,7.7-11.24,10.8-17.76,9.48c-2.54-0.52-5.08-1.03-7.63-1.55
		c-0.01,0.04-0.01,0.07-0.02,0.11c-3.12-0.63-6.24-1.28-9.37-1.9C987.91,431.45,987.6,430.93,988.09,428.2z"/>
	<path id="wire_1_" class="st3" d="M939.6,580.48c-1.62,6.47-2.61,10.44-2.66,10.66c-1,4.06-13.38,55.02-13.65,56.01l9.84,2
		c0.17-0.76,8.62-34.03,9.7-38.32c2-7.91,3.96-15.82,5.93-23.74C945.26,585.61,942.1,583.47,939.6,580.48z"/>
	<path id="wire_2_" class="st3" d="M893.17,391.93c0.17-5.56,0.75-14.25,1.25-15.63c0.41-1.13,0.84-2.26,1.28-3.38
		c-3.74-2.05-6.82-5.45-8.52-9.66c-1.05,2.41-1.96,4.92-2.57,7.46c-1.89,7.88-3.67,15.97-3.14,24.21c0.04,0.6,0.08,1.21,0.12,1.81
		c2.46-2.14,5.99-3.84,10.06-4.58C892.16,392.07,892.67,391.99,893.17,391.93z"/>
	<path id="hand_2_" class="st4" d="M1064.41,647.46c-1.24-0.49-2.27-1.06-3.1-1.76c-2.48-2.09-3.2-5.26-2.69-10.25
		c0.08-0.8,0.07-1.56-0.02-2.27c-0.09-0.71-0.26-1.38-0.51-2.02c-0.5-1.28-1.29-2.43-2.33-3.53c-1.16-1.23-2.08-2.63-2.78-4.22
		c-0.24-0.53-0.45-1.08-0.64-1.65c-0.16-0.48-0.29-0.95-0.38-1.42c-0.09-0.46-0.15-0.92-0.18-1.37c-0.09-1.35,0.09-2.63,0.45-3.88
		c0.25-0.83,0.58-1.65,0.97-2.46c0.2-0.41,0.41-0.81,0.63-1.21c1.4-2.5,3.19-4.61,5.13-6.57c1.94-1.96,7.46-8.44,7.8-8.69
		c0.47-0.34,0.94-0.71,1.42-1.05c0.54-2.27,1.14-4.52,1.84-6.74c0.64-2.03,1.36-4.08,2.06-6.13c0-0.13,0.01-0.27-0.01-0.4
		c-0.02-0.23-0.06-0.45-0.13-0.65c-0.26-0.74-0.28-1.35-0.14-1.9c0.09-0.36,0.25-0.7,0.45-1.02c0.2-0.32,0.44-0.62,0.7-0.92
		c0.13-0.15,0.26-0.3,0.39-0.45c0.23-0.26,0.47-0.49,0.71-0.73c0.75-2.53,1.36-5.08,1.69-7.63l0.01,0l7.2-26.9
		c0,0,3.06-7.03,5.57-16.47c-0.32-0.56-0.6-1.01-0.78-1.28c-4.78-6.87-10.21-13.08-15.82-19.12c-1.87-2.01-3.77-4-5.66-5.99
		c-1.59-1.66-3.19-3.31-4.78-4.97c-1.59-1.66-3.18-3.32-4.74-5.01c-1.22-1.33-2.42-2.67-3.6-4.04c-1.83-2.12-3.6-4.3-5.26-6.59
		c-0.8-1.1-1.67-2.14-2.46-3.25c-0.33-0.47-0.6-0.94-0.83-1.42l-25.64-9.23c-0.01,0-0.02-0.01-0.03-0.01l-0.1-0.03l0,0
		c-4.36-1.6-9.36-1.92-14.04-2.09c-8.21-0.29-16.41-0.58-24.62-0.87c-3.57-0.13-7.14-0.25-10.71-0.38
		c-4.8-0.17-9.61-0.34-14.41-0.51l2.6-0.65c-6.42-1.15-13.33,2.89-15.86,9.26c-2.52,6.37-0.4,14.43,4.87,18.49
		c-6.49,1.2-12.07,6.79-13.56,13.6c-1.5,6.81,1.17,14.44,6.49,18.56c-5.85,2.92-7.8,11.19-6.02,17.78s6.33,11.87,10.74,16.89
		c-9.36,2.61-11.43,17.28-5.4,25.31c0.22,0.3,0.46,0.57,0.7,0.85c2.5,2.99,5.66,5.14,9.16,6.62c5.09,2.15,10.89,2.94,16.41,2.96
		c9.67,0.04,19.48-1.69,28.95,0.38c5.75,1.26,11.11,3.87,16.3,6.85l-12.07,26.09c0.05,0.11,0.11,0.21,0.16,0.32
		c0.02,0.05,0.05,0.11,0.07,0.16c0.12,0.27,0.24,0.54,0.35,0.82c0.41,1.06,0.73,2.13,0.99,3.22c0.26,1.09,0.45,2.18,0.61,3.29
		c0.24,1.66,0.4,3.33,0.57,5c0.06,0.56,0.12,1.11,0.18,1.67c0.29,2.55,0.5,5.1,0.64,7.65c0.08,1.37,0.13,2.75,0.17,4.12l26.09,63.71
		c0.3,1.61,1.04,3.17,2.37,5.78l9.38,22.89c7.74,38.49,18.23,143.31,22.81,177.14c10.41-7.03,21.33-15.55,32.8-25.73
		c4.89-3.6,8.9-7.96,12.23-12.89C1090.48,814.44,1067.91,708.55,1064.41,647.46z"/>
	<path id="hand_1_" class="st5" d="M1120.9,614.61c-0.21-2.16-0.28-4.33-0.31-6.5c-0.01-1.09-0.02-2.18-0.03-3.26
		c-0.01-1.09-0.02-2.18-0.04-3.26c0-0.17-0.01-0.36-0.01-0.54c0.01-0.18,0.03-0.35,0.1-0.5v0c0.07-0.15-0.01-1.89-0.11-3.92v0
		c-0.27,0.25-0.56,0.48-0.87,0.69c-0.34,0.22-0.69,0.42-1.07,0.57c-0.18,0.08-0.37,0.12-0.56,0.18c-0.53,0.15-1.08,0.28-1.69,0.31
		c-0.16,0.01-0.34-0.02-0.53-0.07c-0.19-0.05-0.38-0.12-0.56-0.21c-0.36-0.17-0.66-0.41-0.72-0.64c-0.16-0.56-0.03-1.26,0.16-1.91
		c0.06-0.22,0.13-0.43,0.2-0.64c0.03-0.08,0.09-0.15,0.16-0.21c0.16-0.12,0.39-0.21,0.62-0.31c0.11-0.05,0.22-0.1,0.31-0.16
		c0.51-0.33,0.96-0.67,1.37-1.02c1.63-1.39,2.47-2.92,2.48-4.67c0.01-1.31-0.46-2.75-1.42-4.34c-0.52-0.87-1.1-1.69-1.73-2.45
		c-0.63-0.76-1.31-1.45-2.06-2.07c-1.49-1.24-3.21-2.2-5.2-2.77c-0.32-0.09-0.61-0.14-0.86-0.15c-0.75-0.01-1.19,0.37-1.47,1.2
		c-0.12,0.36-0.24,0.72-0.37,1.06c-0.26,0.69-0.58,1.33-1.05,1.89c-0.24,0.28-0.51,0.54-0.85,0.77c-0.19,0.13-0.26,0.51-0.28,0.96
		c-0.01,0.44,0.03,0.95,0.07,1.33c0.15,1.38-0.42,2.17-1.5,2.83c-0.98,0.6-2,0.88-3.02,0.95c-0.51,0.04-1.03,0.02-1.55-0.02
		c-0.52-0.05-5.48-2.31-5.9-2.47c-1.26-0.5-2.63-1.73-2.84-2.86c-0.19-1.01-0.17-2.07-0.14-3.13c0.01-0.35,0.02-0.71,0.03-1.05
		c0.04-1.08,0.03-1.79-0.13-2.23c-0.16-0.45-0.48-0.63-1.05-0.65c-0.38-0.01-0.87,0.05-1.5,0.15c-1.4,0.22-2.84,0.15-4.23,0.37
		c-0.81,0.13-1.65,0.46-2.35,0.91c-1.49,0.98-2.87,2.15-4.35,3.14c-1.3,0.87-2,2.35-1.32,3.76c0.31,0.65,0.64,1.29,0.99,1.91
		c0.59,1.04,1.28,2.01,2.3,2.77c1.03,0.77,1.99,1.65,2.96,2.53c0.96,0.88,1.93,1.74,2.98,2.48c0.46,0.32,0.66,0.6,0.7,0.83
		c0.03,0.16-0.02,0.29-0.11,0.41c-0.13,0.18-0.37,0.31-0.62,0.41c-0.87,0.32-1.91,0.37-2.83,0.22c-0.96-0.16-1.85-0.74-2.8-1.05
		c-0.63-0.21-1.28-0.32-1.91-0.33c-0.63-0.01-1.25,0.07-1.83,0.26c-1.16,0.37-2.17,1.13-2.82,2.28c-0.42,0.74-0.91,1.34-1.44,1.88
		c-0.53,0.54-1.11,1.02-1.72,1.52c-0.2,0.17-0.38,0.36-0.55,0.58c-0.49,0.64-0.87,1.45-1.39,2.08c0,0-0.01,0.01-0.01,0.01
		c-1.59,1.92-3.28,3.74-4.85,5.67c-0.82,1.01-1.69,2-2.51,3.02c-0.82,1.02-1.59,2.07-2.25,3.2c-1.29,2.23-1.37,4.56-0.5,6.75
		c0.29,0.73,0.69,1.44,1.18,2.13c0.96,1.34,1.96,2.65,2.97,3.94c1.01,1.29,2.04,2.58,3.06,3.87c0.07,0.09,0.12,0.17,0.18,0.25
		c0.05,0.07,0.11,0.14,0.15,0.2c0.09,0.14,0.14,0.27,0.15,0.4c0.01,0.17-0.08,0.32-0.31,0.46c-0.1,0.06-0.22,0.12-0.38,0.17
		c-0.94,0.31-1.54,0.79-1.91,1.39c-0.24,0.4-0.38,0.85-0.45,1.34c-0.03,0.24-0.05,0.5-0.05,0.76c0,0.52,0.05,1.07,0.13,1.63
		c0.24,1.73,0.78,3.17,1.6,4.31c0.37,0.52,0.81,0.97,1.3,1.36c0.58,0.46,1.22,0.84,1.95,1.11c0.89,0.34,1.9,0.52,3.01,0.56
		c0.78,0.03,1.55,0.05,2.33,0c0.32-0.02,0.59-0.02,0.83,0.03c0.72,0.14,1.14,0.62,1.39,1.77c0.16,0.72,0.35,1.33,0.6,1.82
		c0.12,0.25,0.26,0.47,0.42,0.67c0.62,0.79,1.49,1.19,2.74,1.3c0.31,0.03,0.65,0.04,1.01,0.03c2.64-0.06,5.28-0.55,7.91-0.88
		c1.1-0.14,2.18-0.38,3.28-0.55c0.4-0.06,0.67-0.01,0.86,0.17c0.19,0.18,0.3,0.49,0.37,0.96c0.08,0.52,0.18,0.96,0.32,1.32
		c0.42,1.09,1.17,1.52,2.53,1.77c1.62,0.3,3.14,0.15,4.6-0.28c1.45-0.43,2.84-1.16,4.19-2.03c0.47-0.3,0.86-0.72,1.32-1.04
		c1.34-0.93,1.87-1.28,2.18-0.76c0.19,0.31,0.29,0.93,0.44,1.93c0.05,0.36,0.14,0.65,0.25,0.88c0.23,0.45,0.58,0.64,1.04,0.66
		c0.23,0.01,0.49-0.02,0.78-0.07c4.37-0.89,7.59-3.33,9.24-7.1c0.24-0.54,0.44-1.1,0.61-1.7c0.34-1.19,0.65-2.38,0.93-3.58
		c1.12-4.79,1.75-9.64,1.93-14.55c0.04-1.23,0.06-2.46,0.05-3.69C1121.28,619.57,1121.14,617.09,1120.9,614.61z"/>
	<path id="arm" class="st6" d="M1124.37,604.77c-0.31-1.58-1-3.08-1.64-4.55c-0.08-0.17-0.53-2.56-1.04-4.99
		c0.15-0.22,0.28-0.47,0.42-0.71c0,0,0,0,0,0c0.13-0.22,0.28-0.41,0.39-0.66c0.42-0.92,0.71-1.84,0.87-2.75
		c0.16-0.91,0.19-1.82,0.11-2.71c-0.12-1.34-0.49-2.66-1.08-3.95c-0.19-0.43-0.41-0.86-0.65-1.28c-2.95-5.23-7.01-8.89-12.91-9.84
		c-1.12-0.18-1.7-0.67-1.62-1.34c0.03-0.22,0.24-0.41,0.3-0.72c0.31-1.42,1.98-14.94,2.01-15.34c0.18-2.81,0.34-5.63,0.52-8.44
		c0.18-2.98,0.37-5.97,0.55-8.95c0.05-0.75,0.09-1.51,0.14-2.26c-0.07,0-0.1-5.19-0.22-7.77c-0.08-1.86-0.28-3.68-0.6-5.46
		c-0.16-0.89-0.35-1.76-0.57-2.62c-0.67-2.58-1.63-5.05-2.93-7.38c-0.43-0.78-0.9-1.54-1.41-2.28c-0.51-0.74-1.05-1.47-1.64-2.19
		c-2.53-3.07-5.09-6.1-7.7-9.08c-2.61-2.98-5.26-5.92-7.96-8.81c-5.41-5.76-11.02-11.3-16.92-16.54c-3.84-3.41-7.88-6.56-11.97-9.63
		c-0.2-0.15-0.4-0.3-0.59-0.45c-0.37-0.27-0.74-0.53-1.12-0.75c-0.38-0.23-0.76-0.43-1.15-0.6c-1.16-0.52-2.37-0.79-3.61-0.77
		c-0.41,0.01-0.83,0.05-1.25,0.13c-0.84,0.15-1.7,0.45-2.57,0.9c-1.04,0.54-1.96,1.26-2.7,2.11c-1.12,1.28-1.85,2.85-1.98,4.55
		c-0.1,1.25,0.13,2.56,0.75,3.88c0.22,0.47,0.5,0.95,0.83,1.42c0.78,1.11,1.66,2.15,2.46,3.25c1.66,2.29,3.43,4.47,5.26,6.59
		c1.18,1.37,2.38,2.72,3.6,4.04c1.56,1.69,3.15,3.35,4.74,5.01c1.59,1.66,3.19,3.3,4.78,4.97c1.9,1.99,3.79,3.98,5.66,5.99
		c5.62,6.03,11.05,12.25,15.82,19.12c0.19,0.27,0.46,0.73,0.78,1.28c1.16,2.01,2.9,5.39,3.25,6.45c0.45,1.35,0.76,2.75,0.93,4.21
		c0.05,0.42,0.08,1.61,0.08,2.69c0,0.8-0.01,1.55-0.04,1.89c-0.13,1.42-0.22,2.85-0.29,4.28c-0.04,0.93-0.06,1.86-0.08,2.79
		c-0.01,0.5-1.4,21.57-1.57,22.7c-0.05,0.32-0.48,0.7-0.9,0.9c-0.14,0.07-0.28,0.11-0.4,0.13c-0.57,0.08-1.15,0.14-1.72,0.19
		l-5.14,0.62c-2.58,0.6-5.1,1.42-7.26,3.01c-0.46,0.34-0.9,0.73-1.32,1.14c-0.24,0.23-0.48,0.47-0.71,0.73
		c-0.13,0.15-0.26,0.3-0.39,0.45c-0.26,0.3-0.5,0.6-0.7,0.92c-0.2,0.32-0.36,0.65-0.45,1.02c-0.14,0.55-0.12,1.16,0.14,1.9
		c0.07,0.2,0.11,0.42,0.13,0.65c0.01,0.13,0.01,0.26,0.01,0.4c-0.01,0.58-0.14,1.2-0.33,1.7c-0.14,0.36-0.23,0.71-0.28,1.05
		c-0.15,1.01,0.1,1.92,0.6,2.94c0.19,0.39,0.35,0.75,0.47,1.1c0.37,1.04,0.41,1.89,0.13,2.62c-0.37,0.98-1.33,1.76-2.89,2.49
		c-0.54,0.25-1.05,0.58-1.55,0.93c-0.02,0.01-0.04,0.03-0.06,0.04c-0.48,0.34-0.95,0.7-1.42,1.05c-0.34,0.25-5.87,6.73-7.8,8.69
		c-1.94,1.96-3.73,4.07-5.13,6.57c-0.22,0.4-0.44,0.81-0.63,1.21c-0.39,0.81-0.72,1.63-0.97,2.46c-0.37,1.25-0.54,2.54-0.45,3.88
		c0.03,0.45,0.09,0.91,0.18,1.37c0.09,0.46,0.22,0.94,0.38,1.42c0.19,0.57,0.4,1.12,0.64,1.65c0.71,1.59,1.62,2.99,2.78,4.22
		c1.04,1.1,1.84,2.25,2.33,3.53c0.25,0.64,0.42,1.31,0.51,2.02c0.09,0.71,0.1,1.46,0.02,2.27c-0.5,4.98,0.22,8.15,2.69,10.25
		c0.83,0.7,1.86,1.28,3.1,1.76c0.98,0.39,2.1,0.72,3.36,1.01c0.38,0.08,0.73,0.19,1.08,0.32c1.02,0.4,1.9,1.05,2.64,2.16
		c1.22,1.81,2.94,2.83,4.88,3.29c0.65,0.16,1.32,0.25,2.01,0.29c0.88,0.06,1.77,0.11,2.66,0.12c0.89,0.01,1.77-0.02,2.65-0.14
		c2.37-0.31,4.55-0.24,6.71,1.06c0.36,0.22,0.72,0.4,1.08,0.55c0.73,0.31,1.47,0.5,2.22,0.6c1.88,0.26,3.81-0.03,5.76-0.38
		l7.18-0.64c0.38,0.05,0.76,0.08,1.16,0.08c1.58-0.01,3.3-0.44,4.98-1.18c1.26-0.56,2.51-1.29,3.68-2.15
		c1.17-0.86,2.25-1.85,3.18-2.92c0.62-0.71,1.18-1.46,1.65-2.23c0.23-0.39,0.45-0.78,0.64-1.17c0.38-0.79,0.66-1.59,0.83-2.39
		c0.73-3.54,1.5-7.04,2.08-10.63C1126.39,623.61,1126.2,614.18,1124.37,604.77z M1121.25,625.72c-0.18,4.9-0.81,9.76-1.93,14.55
		c-0.28,1.2-0.59,2.39-0.93,3.58c-0.17,0.59-0.37,1.16-0.61,1.7c-1.65,3.77-4.87,6.2-9.24,7.1c-0.29,0.06-0.54,0.09-0.78,0.07
		c-0.46-0.02-0.81-0.22-1.04-0.66c-0.11-0.22-0.2-0.51-0.25-0.88c-0.15-1-0.25-1.62-0.44-1.93c-0.31-0.52-0.84-0.17-2.18,0.76
		c-0.46,0.32-0.85,0.74-1.32,1.04c-1.35,0.87-2.73,1.59-4.19,2.03c-1.45,0.43-2.98,0.57-4.6,0.28c-1.36-0.25-2.12-0.68-2.53-1.77
		c-0.14-0.36-0.24-0.8-0.32-1.32c-0.07-0.47-0.18-0.78-0.37-0.96c-0.19-0.18-0.46-0.23-0.86-0.17c-1.09,0.17-2.18,0.41-3.28,0.55
		c-2.63,0.33-5.27,0.82-7.91,0.88c-0.36,0.01-0.7,0-1.01-0.03c-1.25-0.11-2.12-0.51-2.74-1.3c-0.15-0.2-0.29-0.42-0.42-0.67
		c-0.25-0.5-0.45-1.1-0.6-1.82c-0.25-1.15-0.67-1.64-1.39-1.77c-0.24-0.05-0.52-0.05-0.83-0.03c-0.77,0.05-1.55,0.02-2.33,0
		c-1.11-0.04-2.12-0.23-3.01-0.56c-0.73-0.27-1.37-0.65-1.95-1.11c-0.49-0.39-0.92-0.84-1.3-1.36c-0.82-1.14-1.36-2.58-1.6-4.31
		c-0.08-0.56-0.13-1.11-0.13-1.63c0-0.26,0.02-0.51,0.05-0.76c0.07-0.49,0.2-0.94,0.45-1.34c0.36-0.6,0.96-1.08,1.91-1.39
		c0.16-0.05,0.28-0.11,0.38-0.17c0-0.36,0.01-0.7,0.01-1.05c-0.06-0.08-0.11-0.16-0.18-0.25c-1.02-1.29-2.05-2.57-3.06-3.87
		c-1.01-1.29-2.01-2.6-2.97-3.94c-0.49-0.69-0.89-1.4-1.18-2.13c-0.87-2.18-0.8-4.51,0.5-6.75c0.65-1.13,1.43-2.18,2.25-3.2
		c0.82-1.02,1.68-2.01,2.51-3.02c1.57-1.93,3.26-3.75,4.85-5.67c0,0,0.01-0.01,0.01-0.01c0.52-0.63,0.9-1.43,1.39-2.08
		c0.16-0.21,0.34-0.41,0.55-0.58c0.61-0.5,1.19-0.98,1.72-1.52c0.53-0.54,1.02-1.14,1.44-1.88c0.65-1.15,1.66-1.91,2.82-2.28
		c0.58-0.18,1.2-0.27,1.83-0.26c0.63,0.01,1.28,0.12,1.91,0.33c0.95,0.31,1.84,0.89,2.8,1.05c0.92,0.15,1.96,0.11,2.83-0.22
		c0.25-0.09,0.48-0.23,0.62-0.41c0.09-0.12,0.13-0.26,0.11-0.41c-0.04-0.23-0.25-0.51-0.7-0.83c-1.05-0.74-2.02-1.61-2.98-2.48
		c-0.96-0.88-1.92-1.76-2.96-2.53c-1.02-0.76-1.71-1.73-2.3-2.77c-0.35-0.62-0.68-1.26-0.99-1.91c-0.68-1.41,0.02-2.89,1.32-3.76
		c1.48-0.99,2.86-2.17,4.35-3.14c0.7-0.46,1.54-0.78,2.35-0.91c1.4-0.22,2.84-0.15,4.23-0.37c0.63-0.1,1.12-0.16,1.5-0.15
		c0.57,0.02,0.88,0.2,1.05,0.65c0.16,0.45,0.17,1.16,0.13,2.23c-0.01,0.35-0.02,0.7-0.03,1.05c-0.04,1.06-0.05,2.12,0.14,3.13
		c0.21,1.14,1.58,2.36,2.84,2.86c0.42,0.17,5.38,2.42,5.9,2.47c0.52,0.05,1.04,0.06,1.55,0.02c1.03-0.07,2.04-0.35,3.02-0.95
		c1.07-0.66,1.64-1.45,1.5-2.83c-0.04-0.39-0.09-0.89-0.07-1.33c0.01-0.44,0.09-0.82,0.28-0.96c0.33-0.23,0.61-0.49,0.85-0.77
		c0.47-0.56,0.79-1.2,1.05-1.89c0.13-0.34,0.25-0.7,0.37-1.06c0.28-0.83,0.72-1.22,1.47-1.2c0.25,0,0.53,0.05,0.86,0.15
		c1.99,0.57,3.71,1.52,5.2,2.77c0.74,0.62,1.43,1.32,2.06,2.07c0.63,0.76,1.2,1.58,1.73,2.45c0.96,1.59,1.42,3.03,1.42,4.34
		c-0.01,1.75-0.85,3.28-2.48,4.67c-0.41,0.35-0.86,0.69-1.37,1.02c-0.09,0.06-0.2,0.11-0.31,0.16c-0.22,0.1-0.46,0.19-0.62,0.31
		c-0.08,0.06-0.14,0.13-0.16,0.21c-0.07,0.2-0.14,0.42-0.2,0.64c-0.19,0.65-0.32,1.35-0.16,1.91c0.07,0.24,0.36,0.47,0.72,0.64
		c0.18,0.09,0.37,0.16,0.56,0.21c0.19,0.05,0.37,0.07,0.53,0.07c0.61-0.02,1.16-0.15,1.69-0.31c0.19-0.06,0.38-0.11,0.56-0.18
		c0.38-0.15,0.73-0.35,1.07-0.57c0.31-0.21,0.59-0.43,0.87-0.69v0c0.1,2.03,0.18,3.77,0.11,3.92v0c-0.07,0.14-0.1,0.32-0.1,0.5
		c-0.01,0.18,0,0.37,0.01,0.54c0.03,1.09,0.04,2.17,0.04,3.26c0.01,1.09,0.01,2.18,0.03,3.26c0.03,2.18,0.1,4.35,0.31,6.5
		c0.24,2.49,0.38,4.96,0.4,7.43C1121.31,623.27,1121.3,624.5,1121.25,625.72z"/>
	<path id="food_1_" class="st5" d="M898.18,764.08c-7.08-5.02-10.91-12.02-18.82-14.43c-1.17-0.36-2.03-0.07-2.55,1.1
		c-0.39,0.88-0.64,1.84-1.07,2.69c-0.48,0.95-0.93,2-1.68,2.67c-0.62,0.55-1.63,0.61-2.47,0.89c-0.03-0.81-0.25-1.68-0.06-2.43
		c0.62-2.52,1.53-4.96,2.07-7.49c1-4.62,0.35-8.45-3.98-11.22c-0.51-0.32-1.02-0.55-1.55-0.73c-2.01-0.69-4.14-0.41-6.21,0.18
		c-0.93,0.27-1.98,1.02-2.41,1.87c-0.25,0.49,0.69,1.6,1.03,2.47c1.11,2.79,2.31,5.55,3.24,8.41c1.23,3.76,0.41,7.1-2.52,9.68
		c-1.18,1.04-2.49,1.6-4.2,1.03c-1.82-0.61-3.69-0.97-5.69-0.09c-0.72,0.32-2.14-0.46-2.92-1.15c-1.31-1.17-2.39-2.64-3.49-4.05
		c-0.8-1.02-1.19-0.74-1.76,0.26c-1.62,2.83-2.75,5.75-2.62,9.18c0.17,4.45,2.41,7.04,6.68,7.2c1.12,0.04,2.25-0.21,3.38-0.24
		c0.81-0.02,1.21,0.47,0.64,1.21c-0.57,0.73-1.27,1.37-2,1.93c-0.49,0.37-1.13,0.51-1.68,0.78c-1.24,0.62-1.72,1.59-1.28,2.72
		c0.47,1.2,1.37,0.56,2.1,0.41c2.31-0.47,4.6-1.06,6.92-1.46c3.72-0.64,7.37,0.06,11.01,0.81c0.64,0.13,1.33,0.51,1.78,1
		c0.02,0.03,0.05,0.05,0.08,0.08c0.5,0.6,0.71,1.49,1.04,2.25c-0.37,0.1-0.75,0.25-1.12,0.37c-0.36,0.11-0.72,0.21-1.07,0.21
		c-1.23,0-2.5-0.04-3.67-0.39c-4.43-1.31-8.89-0.77-13.09,0.57c-5.98,1.91-10.94,5.71-14.77,11.09c-1.49,2.08-2.73,4.31-3.72,6.64
		c-0.76,1.79-1.38,3.65-1.81,5.57c-0.83,3.66-1.34,7.47-0.84,11.34c0.42,3.24,0.98,6.39,2.02,9.5c0.77,2.3,2.19,3.75,4.1,4.51
		c3.22,1.27,6.56,1.35,10,0.7c2.35-0.44,4.61-1.09,6.79-1.89c5.79-2.13,11.04-5.39,16.06-9.19c0.92-0.7,1.83-1.41,2.74-2.14
		c4.5-3.61,8.42-7.82,12.25-12.16c0.55-0.62,1.27-1.06,1.82-1.67c0.76-0.85,1.45-1.77,2.14-2.69c0.44-0.59,5.2-9.64,5.9-10.82
		c0.47-0.79,3.34-8.25,4.07-11.27c0.36-1.47,0.74-2.92,1.12-4.38c0.22-0.84,0.38-1.71,0.72-2.49c0.21-0.46,0.57-2.95,1.07-4.91
		C899.84,766.09,900.44,765.69,898.18,764.08z"/>
	<path id="leg_1_" class="st6" d="M901.23,761.6c-2.05-3.5-4.65-6.55-7.83-8.92c-3.95-2.94-8.19-5.26-13.01-6.27
		c-2.54-0.53-2.4-0.71-2.81-3.65c-0.88-6.23-4.66-10.39-9.52-11.42c-1.17-0.25-2.4-0.32-3.67-0.18c-1.98,0.2-4.02,1.04-5.76,2.1
		c-1.46,0.89-2.2,0.45-3.1-0.59c-1.73-2.01-3.47-4.02-5.21-6.02c-1.69-1.95-3.39-3.9-5.07-5.86c-5.99-6.95-11.69-14.14-16.65-21.98
		c-2.81-4.43-3.8-9.23-2.32-14.25c1.09-3.68,2.67-7.28,4.5-10.63c6.51-11.96,13.28-23.77,19.84-35.71
		c2.08-3.79,4.12-7.62,6.13-11.45c-0.61-1.68-1.13-3.22-1.58-4.32c-2.56-6.25-4.82-12.62-6.82-19.09
		c-4.68,4.38-8.3,9.67-11.38,15.33c-4.83,8.89-9.33,18-13.82,27.1c-5.52,11.18-11.25,22.28-14.85,34.4
		c-1.69,5.7-3.12,11.43-3.04,17.54c0.05,3.78,0.97,7.13,3.04,10.02c4.56,6.35,9.15,12.69,13.87,18.91c1.03,1.36,2.06,2.72,3.1,4.06
		c4.6,5.92,9.58,11.5,14.4,17.22c1.45,1.72,1.44,2.1,0.52,3.96c-0.95,1.91-1.97,3.82-2.59,5.86c-1.71,5.69-1.13,11.51,3.95,14.61
		c1.85,1.13,1.88,3.2,1.96,5.18c0.07,1.61-1.07,2.05-2.1,2.83c-2.91,2.2-5.86,4.37-8.06,7.47c-1.58,2.23-2.92,4.55-4.04,6.97
		c-1.99,4.29-3.26,8.88-3.79,13.86c-0.79,7.37,0.81,13.98,4.27,20.21c1.62,2.9,3.94,5.03,7.12,5.78c1.49,0.35,3.05,0.36,4.24,0.49
		c1.69-0.11,3.06-0.02,4.35-0.32c3.13-0.74,6.18-1.74,9.15-2.96c2.44-1,4.83-2.15,7.16-3.46c2.14-1.2,4.23-2.47,6.26-3.82
		c5.58-3.71,10.71-8.07,14.93-13.45c1.99-2.54,11.56-17.37,13.28-22.09c1.8-4.95,3.79-9.32,4.77-14.31
		c0.19-0.96,0.41-1.91,0.54-2.88c0.09-0.68,0.37-6.67,0.37-6.9C901.96,763.85,901.78,762.54,901.23,761.6z M899.89,766.12
		c-0.5,1.97-0.87,4.45-1.07,4.91c-0.35,0.78-0.5,1.65-0.72,2.49c-0.38,1.46-0.76,2.92-1.12,4.38c-0.73,3.02-3.61,10.47-4.07,11.27
		c-0.7,1.18-5.45,10.23-5.9,10.82c-0.69,0.92-1.38,1.84-2.14,2.69c-0.55,0.61-1.28,1.05-1.82,1.67c-3.83,4.34-7.75,8.55-12.25,12.16
		c-0.91,0.73-1.82,1.44-2.74,2.14c-5.03,3.8-10.28,7.06-16.06,9.19c-2.18,0.8-4.44,1.44-6.79,1.89c-3.44,0.65-6.78,0.57-10-0.7
		c-1.91-0.76-3.33-2.21-4.1-4.51c-1.04-3.11-1.6-6.26-2.02-9.5c-0.5-3.87,0.01-7.68,0.84-11.34c0.43-1.92,1.05-3.78,1.81-5.57
		c0.99-2.33,2.24-4.55,3.72-6.64c3.83-5.37,8.79-9.18,14.77-11.09c4.19-1.34,8.65-1.88,13.09-0.57c1.17,0.35,2.45,0.39,3.67,0.39
		c0.36,0,0.72-0.09,1.07-0.21v-2.7c-0.45-0.49-1.14-0.87-1.78-1c-3.63-0.76-7.29-1.45-11.01-0.81c-2.32,0.4-4.61,0.99-6.92,1.46
		c-0.73,0.15-1.63,0.79-2.1-0.41c-0.44-1.13,0.04-2.1,1.28-2.72c0.56-0.28,1.2-0.41,1.68-0.78c0.73-0.56,1.44-1.2,2-1.93
		c0.57-0.74,0.17-1.23-0.64-1.21c-1.13,0.03-2.25,0.28-3.38,0.24c-4.27-0.16-6.52-2.75-6.68-7.2c-0.13-3.44,1-6.35,2.62-9.18
		c0.57-0.99,0.96-1.28,1.76-0.26c1.1,1.41,2.19,2.88,3.49,4.05c0.77,0.69,2.2,1.47,2.92,1.15c2-0.89,3.87-0.52,5.69,0.09
		c1.7,0.57,3.01,0.01,4.2-1.03c2.93-2.58,3.74-5.92,2.52-9.68c-0.93-2.86-2.14-5.62-3.24-8.41c-0.34-0.86-1.27-1.98-1.03-2.47
		c0.43-0.85,1.48-1.6,2.41-1.87c2.07-0.6,4.2-0.87,6.21-0.18c0.52,0.18,1.04,0.41,1.55,0.73c4.33,2.77,4.98,6.6,3.98,11.22
		c-0.55,2.53-1.45,4.97-2.07,7.49c-0.19,0.75,0.03,1.62,0.06,2.43c0.84-0.28,1.85-0.34,2.47-0.89c0.74-0.66,1.2-1.72,1.68-2.67
		c0.43-0.86,0.68-1.81,1.07-2.69c0.52-1.17,1.39-1.46,2.55-1.1c7.91,2.41,11.73,9.41,18.82,14.43
		C900.44,765.69,899.84,766.09,899.89,766.12z"/>
	<path id="arm_2_" class="st4" d="M905.33,724.62c-15.38-4.25-28.63-10.47-37.27-16.93v23.67c4.87,1.02,8.64,5.19,9.52,11.42
		c0.42,2.94,0.28,3.11,2.81,3.65c4.82,1.01,9.06,3.33,13.01,6.27c3.18,2.37,5.78,5.42,7.83,8.92c0.55,0.93,0.72,2.25,0.71,3.39
		c0,0.22-0.28,6.21-0.37,6.9c-0.12,0.97-0.35,1.92-0.54,2.88c-0.98,5-2.97,9.36-4.77,14.31c-1.72,4.72-11.28,19.55-13.28,22.09
		c-4.22,5.37-9.35,9.73-14.93,13.45v27.8c13.01,19.64,26.69,39.06,41.95,55.11V725.83C908.46,725.45,906.9,725.05,905.33,724.62z"/>
	<path id="hand" class="st4" d="M919.49,482.62c5.89-2.53,7.02-11.36,4.33-17.47c-0.69-1.57-1.61-3.07-2.74-4.33
		c-0.97-1.09-2.1-1.99-3.4-2.58c-1.94-0.88-4.09-1.02-6.2-1.09c-12.03-0.4-24.12,1.21-35.68,4.74c-4.7,1.43-9.67,3.48-12.22,7.89
		c-2.69,4.65-2.93,11.86-3.71,17.2c-0.6,4.13-1.44,5.72,0.66,6.75c-1.62,0.54-3.23,1.07-4.85,1.61c-0.28,0.09-0.57,0.19-0.85,0.28
		c-4.26,1.41-8.96,3.2-10.97,7.43c-2.87,6.02,1.28,12.93,2.63,19.52c2.59,12.66-5.47,25-6.25,37.92c-0.27,4.5,0.35,9,1.1,13.44
		c1.68,9.97,4.04,19.81,7.01,29.43c2,6.47,4.27,12.85,6.82,19.09c0.45,1.1,0.97,2.64,1.58,4.32c1.03,2.82,2.33,6.03,4.06,8.17
		c0.3,0.03,0.61,0.09,0.91,0.17l2.31,0.64l0.74-3.02l3.31,0.91l1.89,0.52c2.99-4.25,4.72-11.66,5.17-15.25
		c0.51-4.12,0.3-8.38,1.53-12.32c3.94-12.68,19.55-15.64,30.3-22.76c4.2-2.78,7.65-6.2,9.38-11.08c2.45-6.93,0.02-15.45-5.64-19.76
		c6.47-2.39,11.23-9.29,11.42-16.56c0.16-6.16-2.98-12.24-7.81-15.63c-0.87-0.61-1.78-1.14-2.74-1.56c1.11-0.41,2.14-0.99,3.11-1.67
		c3.46-2.46,5.95-6.48,6.95-10.82c1.28-5.54,0.35-11.47-1.79-16.71c-0.47-1.15-1.03-2.28-1.69-3.34c-0.81-1.3-1.78-2.46-2.95-3.33
		c1.15,0,2.28-0.11,3.37-0.44C918.89,482.85,919.19,482.75,919.49,482.62z M909.88,559.08c0.14-1.18,0.27-2.35,0.41-3.53
		C910.26,555.85,910.11,557.12,909.88,559.08z M915.81,506.62c-0.12,1.22-0.23,2.44-0.37,3.66c-0.16,1.39-0.34,2.79-0.51,4.18
		C915.21,511.94,915.5,509.32,915.81,506.62z"/>
	<path id="food" class="st5" d="M994.87,784.69c-0.4,0.28-0.6,0.87-0.67,1.83c-0.03,0.46-0.09,0.92-0.16,1.36
		c-0.07,0.45-0.16,0.88-0.27,1.31c-0.06,0.22-0.14,0.42-0.21,0.63c-0.07,0.21-0.13,0.42-0.21,0.63c-0.17,0.41-0.36,0.82-0.59,1.22
		c-0.2,0.35-0.42,0.66-0.65,0.94c-0.06,0.07-0.12,0.13-0.18,0.19c-0.35,0.36-0.74,0.65-1.18,0.87c-0.11,0.05-0.22,0.11-0.33,0.15
		c-0.25,0.09-0.52,0.16-0.81,0.21c-0.09,0.02-0.19,0.04-0.28,0.05c-0.21,0.03-0.42,0.05-0.63,0.08c-0.35,0.04-0.7,0.09-1.05,0.13
		c-0.56,0.06-1.11,0.12-1.67,0.14c-0.28,0.01-0.56,0.02-0.83,0.01c-0.28,0-0.56-0.02-0.84-0.05c-0.28-0.03-0.56-0.06-0.84-0.12
		c-0.28-0.05-0.56-0.12-0.85-0.2c-0.1-0.03-0.18-0.06-0.27-0.09c-0.74-0.24-1.33-0.53-1.79-0.88c-0.1-0.08-0.2-0.15-0.29-0.24
		c-0.18-0.17-0.33-0.36-0.46-0.57c-0.25-0.41-0.4-0.88-0.46-1.44c-0.03-0.28-0.03-0.58-0.01-0.9c0.02-0.32,0.07-0.67,0.14-1.04
		c0.07-0.37,0.12-0.75,0.15-1.13c0.03-0.38,0.04-0.76,0.04-1.14c0-0.29-0.03-0.56-0.07-0.8c-0.01-0.05-0.02-0.09-0.03-0.14
		c-0.05-0.23-0.11-0.45-0.2-0.64c-0.08-0.17-0.17-0.34-0.28-0.47c-0.23-0.29-0.52-0.49-0.87-0.59c-0.11-0.03-0.23-0.06-0.36-0.07
		c-0.5-0.05-1.09,0.08-1.73,0.41c-0.26,0.13-0.53,0.31-0.79,0.47c-0.18,0.11-0.35,0.22-0.53,0.31c-0.11,0.06-0.23,0.1-0.35,0.14
		c-0.15,0.05-0.3,0.09-0.45,0.09c-1.61,0.03-2.83,0.61-3.83,1.47c-0.29,0.25-0.55,0.52-0.81,0.8c-0.89,1.01-1.61,2.23-2.34,3.42
		c-0.22,0.36-0.39,0.73-0.52,1.11c-0.06,0.19-0.11,0.38-0.15,0.57c-0.04,0.19-0.07,0.39-0.09,0.58c0.02,0.28,0.03,0.55,0.05,0.81
		c0.09,1.13,0.29,2.11,0.95,3.14c0,0,0,0,0,0c0.15,0.23,0.32,0.45,0.5,0.67c0.03,0.03,0.05,0.07,0.07,0.1
		c0.02,0.02,0.04,0.04,0.06,0.06c0.26,0.3,0.53,0.6,0.8,0.86c0.04,0.04,0.09,0.08,0.13,0.12c0.4,0.38,0.82,0.71,1.29,0.97
		c0.17,0.1,0.35,0.18,0.54,0.26c0.37,0.15,0.77,0.26,1.2,0.32c0.19,0.03,0.41,0.12,0.6,0.25c0.1,0.06,0.19,0.14,0.27,0.22
		c0.08,0.08,0.15,0.16,0.2,0.25c0.02,0.03,0.03,0.06,0.05,0.09l0,0c0.04,0.07,0.07,0.13,0.1,0.21c0.03,0.08,0.06,0.17,0.08,0.25
		c0.03,0.19,0.01,0.38-0.14,0.51c-0.02,0.02-0.05,0.03-0.07,0.04c-0.08,0.05-0.18,0.09-0.32,0.11c-0.03,0.01-0.05,0.02-0.09,0.02
		c-0.16,0.02-0.31,0.04-0.47,0.05c-0.64,0.07-1.28,0.12-1.9,0.07c-0.4-0.04-0.8-0.11-1.18-0.26c-0.19-0.07-0.37-0.16-0.56-0.27
		s-0.36-0.24-0.54-0.39c-0.1-0.09-0.21-0.14-0.32-0.22c-0.15-0.11-0.3-0.23-0.46-0.32c-0.05-0.03-0.1-0.05-0.15-0.07
		c-0.09-0.04-0.18-0.07-0.27-0.1c-0.2-0.07-0.4-0.13-0.63-0.13c0,0,0,0,0,0s0,0,0,0l-0.17,0.55l-0.58,1.89l-5.73,8.45
		c-0.15,0.38-0.32,0.75-0.48,1.12c-0.3,0.66-0.6,1.32-0.87,2c-0.03,0.08-0.06,0.16-0.1,0.24c-0.9,2.28-1.83,4.56-2.68,6.86
		c-0.3,0.79-0.58,1.59-0.85,2.4c-0.49,1.43-0.93,2.88-1.34,4.34c-0.12,0.43-0.23,0.87-0.34,1.3c-0.28,1.03-0.56,2.07-0.82,3.11
		c-0.09,0.35-0.15,0.69-0.19,1.03c-0.14,1.19,0,2.32,0.36,3.39c0.18,0.54,0.41,1.06,0.69,1.56c0.14,0.25,0.29,0.5,0.45,0.75
		c0.16,0.24,0.33,0.49,0.51,0.72c0.44,0.57,0.89,1.13,1.36,1.66c0.47,0.53,0.95,1.05,1.44,1.54c0.42,0.42,0.85,0.82,1.29,1.21
		c0.41,0.37,0.83,0.72,1.25,1.07c0.01,0,0.01,0.01,0.02,0.01c0.38,0.31,0.76,0.61,1.15,0.91c0.44,0.33,0.9,0.66,1.35,0.98
		c0.48,0.33,0.96,0.65,1.45,0.95c1.18,0.73,2.4,1.4,3.66,2.02c0.72,0.36,1.45,0.7,2.17,1.03c2.18,0.99,4.41,1.87,6.66,2.6
		c1,0.32,2.02,0.62,3.04,0.88c2,0.52,4.03,0.96,6.07,1.32c0.38,0.07,0.76,0.12,1.14,0.18c1.66,0.27,3.33,0.5,5,0.65
		c0.33,0.03,0.67,0.05,1,0.07c0.39,0.03,0.77,0.05,1.16,0.06c0.25,0.01,0.49,0.02,0.74,0.03c0.73,0.02,1.45,0.02,2.18,0.02
		c2.18-0.01,4.37-0.1,6.56-0.09c1.68,0.01,3.33-0.15,4.96-0.43c0.41-0.07,0.81-0.15,1.22-0.23c1.21-0.25,2.42-0.57,3.61-0.93
		c1.06-0.32,2.11-0.67,3.15-1.04c2.34-0.84,4.58-1.99,6.83-3.11c0.12-0.06,0.25-0.12,0.37-0.18c0.63-0.31,1.26-0.62,1.89-0.92
		c0.23-0.11,0.44-0.23,0.63-0.36c0.19-0.13,0.36-0.28,0.51-0.43c0.14-0.15,0.27-0.3,0.38-0.47c0.13-0.19,0.24-0.38,0.33-0.58
		c0.13-0.29,0.23-0.6,0.3-0.92c0.07-0.32,0.12-0.66,0.14-1c0.02-0.23,0.02-0.46,0.02-0.7c0-0.54-0.03-1.08-0.05-1.63
		c-0.02-0.56-0.04-1.12-0.08-1.68c0-0.04,0-0.08-0.01-0.12c-0.03-0.5-0.06-1.01-0.09-1.51c-0.03-0.55-0.07-1.09-0.1-1.64
		c-0.03-0.59-0.08-1.16-0.14-1.74c-0.06-0.57-0.13-1.14-0.21-1.7c-0.25-1.68-0.6-3.31-1.06-4.89c-0.15-0.53-0.32-1.04-0.49-1.56
		c-0.05-0.14-0.1-0.27-0.15-0.41c-0.68-1.9-1.51-3.73-2.5-5.48c-1.59-2.81-3.58-5.43-5.93-7.87c-0.48-0.5-0.98-0.98-1.48-1.44
		c-0.5-0.46-1.02-0.9-1.54-1.32s-1.06-0.82-1.6-1.19c-1.23-0.85-2.51-1.59-3.85-2.21c-0.45-0.21-0.9-0.4-1.36-0.59
		c-0.21-0.08-0.42-0.14-0.63-0.22c-0.51-0.19-1.02-0.36-1.55-0.52c-0.55-0.16-1.1-0.32-1.67-0.45c-0.48-0.11-0.96-0.2-1.43-0.26
		s-0.95-0.11-1.42-0.14c-0.35-0.02-0.71-0.03-1.06-0.03c-0.35,0-0.7,0.01-1.05,0.03c-0.39,0.02-0.78,0.05-1.16,0.1
		c-1.7,0.18-3.39,0.55-5.09,1.01c-3.29,0.89-6.26,2.24-8.96,3.99c-0.9,0.58-1.76,1.21-2.6,1.88s-1.64,1.38-2.42,2.14
		c-0.78,0.76-1.53,1.55-2.25,2.39c-0.36,0.42-0.72,0.85-1.06,1.28s-0.69,0.88-1.02,1.34c-0.55,0.75-1.08,1.54-1.6,2.34
		c-0.11,0.17-0.22,0.33-0.33,0.5c-0.09,0.15-0.19,0.29-0.28,0.44c-0.29,0.46-0.59,0.92-0.9,1.36c-0.12,0.17-0.24,0.36-0.37,0.52l0,0
		v0c-0.01,0.01-0.03,0.03-0.05,0.04c-0.06,0.06-0.14,0.11-0.22,0.16c-0.06,0.03-0.11,0.06-0.17,0.08c-0.09,0.03-0.18,0.05-0.27,0.06
		c-0.09,0.01-0.17,0-0.24-0.02c-0.05-0.02-0.11-0.06-0.16-0.12c-0.05-0.06-0.1-0.15-0.15-0.23c-0.09-0.18-0.14-0.38-0.11-0.51
		c0.09-0.46,0.18-0.92,0.29-1.38c0.06-0.23,0.12-0.45,0.2-0.67s0.16-0.43,0.26-0.64c0.2-0.4,0.42-0.79,0.63-1.18
		c0.39-0.72,0.81-1.43,1.25-2.1c0.11-0.16,0.2-0.34,0.31-0.5c0.09-0.13,0.18-0.25,0.27-0.37c0.53-0.75,1.08-1.49,1.66-2.19
		c1.32-1.58,2.78-3.03,4.35-4.36c0.86-0.73,1.76-1.43,2.69-2.1c0.92-0.66,1.84-1.27,2.78-1.83c1.41-0.84,2.83-1.57,4.29-2.18
		c0.73-0.3,1.46-0.58,2.2-0.82c0.74-0.24,1.48-0.46,2.23-0.64c0.61-0.15,1.24-0.27,1.86-0.38c0.03-0.01,0.07-0.01,0.1-0.02
		c0.07-0.01,0.14-0.02,0.21-0.03c0.56-0.09,1.13-0.16,1.71-0.22c0,0,0,0,0,0c0,0,0,0,0,0c0.06-0.01,0.13-0.01,0.19-0.02c0,0,0,0,0,0
		c0,0,0,0,0,0c0.66-0.06,1.33-0.1,2-0.11c0,0,0,0,0,0c0.02,0,0.04,0,0.06,0c0,0,0,0,0,0h0l0,0c0.01,0,0.02,0,0.02,0c0,0,0,0,0,0
		c0,0,0,0,0,0c0,0,0,0,0,0c0,0,0,0,0,0c0.69-0.01,1.4,0.02,2.1,0.07c0.11,0.01,0.21,0.01,0.32,0.01c0.07,0.01,0.14,0.02,0.21,0.02
		c1.03,0.09,2.07,0.23,3.13,0.43c0.22,0.04,0.44,0.08,0.66,0.12c0.14,0.03,0.27,0.05,0.39,0.06c0.12,0.01,0.23,0.01,0.32-0.01
		c0.1-0.01,0.18-0.04,0.26-0.07c0.23-0.1,0.36-0.3,0.41-0.6c0.02-0.09,0.02-0.19,0.02-0.3c0-0.01,0-0.02,0-0.03
		c0-0.06-0.01-0.13-0.01-0.19c0-0.06,0-0.12-0.01-0.19c-0.02-0.21-0.05-0.43-0.07-0.64c-0.03-0.28-0.07-0.57-0.11-0.85
		c-0.05-0.35-0.12-0.7-0.22-1.04c-0.08-0.27-0.15-0.49-0.21-0.68c-0.04-0.12-0.08-0.25-0.13-0.34c-0.04-0.09-0.08-0.15-0.13-0.21
		c-0.08-0.11-0.16-0.2-0.25-0.24c-0.08-0.03-0.17-0.05-0.27-0.05c-0.09,0-0.2,0.02-0.31,0.05c-0.02,0-0.03,0-0.04,0.01
		c-0.03,0.01-0.08,0.03-0.11,0.03c-0.17,0.05-0.37,0.12-0.61,0.2c-0.11,0.04-0.22,0.08-0.35,0.13c-0.16,0.06-0.32,0.12-0.48,0.19
		c-0.48,0.2-0.96,0.4-1.44,0.52c-0.21,0.05-0.43,0.09-0.65,0.1c-0.15,0.01-0.31-0.02-0.46-0.07c-0.43-0.14-0.86-0.45-1.3-0.67
		c-0.04-0.02-0.08-0.04-0.12-0.06c0.07-0.11,0.14-0.23,0.21-0.35c0.14-0.24,0.27-0.48,0.42-0.69c0.08-0.11,0.16-0.21,0.26-0.3
		c0.6-0.57,1.22-1.11,1.84-1.65c0.62-0.54,1.24-1.08,1.83-1.66c0.16-0.16,0.32-0.32,0.46-0.47c0.14-0.16,0.27-0.32,0.39-0.47
		c0.06-0.08,0.11-0.16,0.16-0.24c0.38-0.55,0.64-1.11,0.76-1.66c0.05-0.2,0.07-0.4,0.09-0.59c0.03-0.4,0-0.79-0.09-1.19
		c-0.04-0.2-0.1-0.39-0.17-0.59c-0.29-0.79-0.8-1.57-1.49-2.35c-1.09-1.21-2.33-2.08-3.67-2.75c-0.54-0.26-1.09-0.5-1.66-0.7
		c-0.28-0.1-0.57-0.2-0.87-0.29C995.86,784.43,995.27,784.41,994.87,784.69z"/>
	<path id="leg" class="st6" d="M1029.88,840.4c-0.09-1.61-0.25-3.2-0.49-4.78c-0.01-0.1-0.04-0.19-0.05-0.29
		c-0.04-0.24-0.09-0.49-0.14-0.73c-0.1-0.56-0.2-1.12-0.32-1.68c-0.15-0.67-0.31-1.33-0.49-2c-0.43-1.55-0.98-3.08-1.65-4.59
		c-2.01-4.52-4.55-8.48-7.76-11.82c-1.28-1.33-2.68-2.57-4.18-3.7c-0.75-0.57-1.53-1.1-2.35-1.62c-0.29-0.18-0.59-0.36-0.9-0.54
		c-0.92-0.54-1.86-1.1-2.35-1.93c-1.95-3.33-3.31-6.92-2.24-11.01c0.21-0.8,0.36-1.59,0.42-2.36c0.07-0.77,0.05-1.52-0.06-2.26
		c-0.11-0.73-0.33-1.45-0.66-2.13c-0.33-0.69-0.78-1.36-1.37-2c-0.14-0.15-0.29-0.3-0.44-0.44c-0.24-0.25-0.49-0.48-0.74-0.71
		c-0.06-0.05-0.11-0.1-0.17-0.15c-0.22-0.2-0.45-0.39-0.68-0.58c-0.08-0.06-0.16-0.12-0.24-0.19c-0.2-0.16-0.41-0.31-0.62-0.46
		c-0.31-0.21-0.61-0.42-0.93-0.61c-1.38-0.83-2.88-1.46-4.47-1.9c-0.48-0.13-0.97-0.19-1.2-0.58c-0.08-0.13-0.12-0.3-0.13-0.52
		c-0.04-0.91,0.54-7.8,1.16-14.79c0.2-2.3,0.41-4.6,0.59-6.72c0.56-2.77,0.54-5.72,0.75-8.58c0,0,0,0,0-0.01
		c0.03-0.36,0.07-1.04,0.13-1.92c0.29-4.03,0.57-8.07,0.85-12.1c0.51-7.34,1.01-14.68,1.51-22.02c0.06-0.86,0.06-1.72,0.11-2.58
		c0.37-6.88,0.78-13.76,1.09-20.64c0,0,0-0.01,0-0.01c0-0.01,0-0.01,0-0.02c0.1-1.98,0.18-3.55,0.21-4.53c0,0,0-0.01,0-0.02
		c0.21-6.12,0.04-12.25,0.04-18.38c0.04-2.56,0.07-5.12,0.09-7.68c0.01-1.28,0.01-2.56,0.01-3.84c0-2.23-0.04-4.46-0.11-6.69
		c-0.01-0.24-0.02-0.48-0.03-0.72c-0.04-1.37-0.08-2.74-0.16-4.1c-0.14-2.55-0.35-5.11-0.64-7.65c-0.06-0.55-0.12-1.11-0.18-1.67
		c-0.17-1.67-0.33-3.34-0.57-5c-0.16-1.11-0.35-2.2-0.61-3.29c-0.26-1.09-0.58-2.16-0.99-3.22c-0.11-0.28-0.23-0.55-0.35-0.82
		c-0.02-0.05-0.04-0.11-0.07-0.16c-0.05-0.11-0.11-0.21-0.16-0.32c-1.03-2.06-2.5-3.6-4.91-3.98c-0.63-0.1-1.34-0.09-2.06,0.01
		c-0.24,0.03-0.48,0.08-0.72,0.13c-1.77,0.4-3.42,1.36-3.73,2.78c-0.52,2.34-0.78,1.41-1.3,5.42c-0.51,4.02-0.31,7.4-0.39,10.45
		c0,0.02,0,0.03,0,0.05c-0.05,1.81-0.1,4.26-0.17,7.15c-0.02,1.08-0.05,2.17-0.07,3.25c-0.01,0.37-0.02,0.75-0.02,1.12
		c-0.13,5.76-0.27,12.57-0.42,19.31l0.36,0.1l0,0.02c3.13,1.07,4.96,4.56,4.12,7.98c-0.62,2.52-2.52,4.31-4.76,4.81
		c-0.04,1.85-0.09,3.63-0.13,5.29c0,0.01,0,0.03,0,0.04c-0.02,0.75-0.04,1.47-0.05,2.18c0.82,1.47,1.12,3.26,0.68,5.05
		c-0.19,0.75-0.49,1.44-0.88,2.05c-0.02,0.81-0.04,1.62-0.08,2.43c-0.48,11.66-1.14,23.31-1.72,34.96
		c-0.38,7.83-0.74,15.67-1.13,23.5c-0.05,0.95-0.21,1.9-0.25,2.86c-0.02,0.56-0.05,1.12-0.07,1.68c0,0,0,0,0,0
		c-0.09,1.22-0.19,2.6-0.29,4.03c-0.34,4.78-0.71,10.1-0.81,11.92c-0.01,0.06-0.02,0.13-0.02,0.19c-0.01,0.12-0.02,0.23-0.01,0.34
		c0,0.05,0,0.11,0.01,0.16c0.05,0.25,0.07,0.48,0.07,0.7c0,0.42-0.1,0.76-0.27,1.05c-0.33,0.57-0.93,0.9-1.6,1.15
		c-0.17,0.06-0.34,0.12-0.52,0.17c-0.76,0.24-1.59,0.27-2.39,0.36c0,0,0,0,0,0c-0.01,0-0.01,0-0.02,0c-0.9,0.1-1.41,0.08-2.06,0.22
		c0,0,0,0,0,0h0c-0.52,0.12-1.15,0.36-2.12,0.84c-0.42,0.21-0.88,0.45-1.46,0.77c-1.48,0.82-2.63,1.72-3.5,2.72l-2.2,6.47
		c-0.07,0.9-0.1,1.89,0,2.63c0.02,0.13,0.02,0.29,0.04,0.39l0.1,0.99l-7.8,15.32c0,0.01-0.01,0.01-0.01,0.02
		c-0.01,0.02-0.03,0.03-0.04,0.05c-0.05,0.11-0.1,0.22-0.15,0.32l0,0c0,0,0,0,0,0l-0.11,0.21l0.01,0c-0.39,0.84-0.74,1.7-1.11,2.55
		c-1.53,3.42-2.9,6.91-3.92,10.53c-0.34,1.2-0.64,2.42-0.89,3.66c-0.13,0.66-0.24,1.3-0.3,1.94c-0.33,3.2,0.18,6.21,1.57,8.99
		c0.56,1.11,1.25,2.19,2.09,3.22c0.75,0.92,1.53,1.79,2.33,2.59c1.62,1.62,3.35,3.02,5.18,4.25c2.74,1.85,5.68,3.33,8.73,4.6
		c2.03,0.85,4.11,1.61,6.22,2.33c0.45,0.15,0.9,0.29,1.35,0.44c0.81,0.26,1.63,0.49,2.45,0.71c0.27,0.07,0.55,0.15,0.82,0.22
		c0.86,0.22,1.71,0.42,2.58,0.6c2.43,0.5,4.88,0.85,7.35,1.04c2.42,0.19,4.86,0.35,7.29,0.39c1.2,0.02,2.39,0.01,3.58-0.03
		c1.03-0.03,2.06-0.1,3.09-0.19c0.2-0.02,0.4-0.03,0.6-0.05c1.54-0.15,3.08-0.37,4.6-0.66c3.05-0.57,6.05-1.39,8.99-2.43
		c1.47-0.52,2.93-1.1,4.38-1.73c0.09-0.04,0.18-0.09,0.27-0.13c0.09-0.04,0.17-0.09,0.26-0.13c0.38-0.19,0.76-0.4,1.14-0.63
		c0.19-0.12,0.39-0.23,0.58-0.37c0.17-0.12,0.35-0.24,0.52-0.37c1.32-1.01,2.51-2.31,3.37-3.84c0.58-1.02,1-2.15,1.23-3.36
		c0.11-0.61,0.17-1.24,0.18-1.89C1030.01,843.64,1029.97,842.01,1029.88,840.4z M998,752.85c-0.06,0.65-0.12,1.4-0.2,2.24
		C997.87,754.25,997.94,753.49,998,752.85c0.04-0.48,0.08-0.91,0.11-1.26C998.07,751.94,998.04,752.36,998,752.85z M1026.96,847.15
		c-0.02,0.34-0.07,0.68-0.14,1c-0.07,0.32-0.17,0.63-0.3,0.92c-0.09,0.2-0.2,0.4-0.33,0.58c-0.11,0.16-0.24,0.32-0.38,0.47
		c-0.15,0.16-0.32,0.3-0.51,0.43c-0.19,0.13-0.4,0.25-0.63,0.36c-0.63,0.3-1.26,0.61-1.89,0.92c-0.12,0.06-0.25,0.12-0.37,0.18
		c-2.25,1.12-4.49,2.27-6.83,3.11c-1.04,0.37-2.09,0.73-3.15,1.04c-1.19,0.36-2.39,0.67-3.61,0.93c-0.4,0.08-0.81,0.16-1.22,0.23
		c-1.63,0.28-3.28,0.44-4.96,0.43c-2.18-0.01-4.37,0.08-6.56,0.09c-0.73,0-1.46,0-2.18-0.02c-0.25-0.01-0.49-0.02-0.74-0.03
		c-0.39-0.01-0.77-0.03-1.16-0.06c-0.33-0.02-0.67-0.04-1-0.07c-1.67-0.16-3.34-0.38-5-0.65c-0.38-0.06-0.76-0.11-1.14-0.18
		c-2.04-0.36-4.07-0.8-6.07-1.32c-1.02-0.26-2.03-0.56-3.04-0.88c-2.26-0.73-4.48-1.61-6.66-2.6c-0.73-0.33-1.45-0.67-2.17-1.03
		c-1.26-0.62-2.49-1.29-3.66-2.02c-0.49-0.3-0.98-0.62-1.45-0.95c-0.86-0.59-1.7-1.22-2.51-1.88c0,0,0,0,0,0
		c0,0-0.01-0.01-0.01-0.01c-0.37-0.3-0.74-0.61-1.1-0.93c-0.05-0.05-0.1-0.1-0.15-0.14c-0.44-0.39-0.87-0.79-1.29-1.21
		c-0.49-0.5-0.97-1.01-1.44-1.54c-0.47-0.53-0.92-1.09-1.36-1.66c-0.18-0.24-0.35-0.48-0.51-0.72c-0.16-0.24-0.31-0.49-0.45-0.75
		c-0.28-0.51-0.51-1.03-0.69-1.56c-0.36-1.07-0.5-2.2-0.36-3.39c0.04-0.34,0.1-0.68,0.19-1.03c0.26-1.04,0.54-2.07,0.82-3.11
		c0.12-0.43,0.22-0.87,0.34-1.3c0.41-1.46,0.86-2.91,1.34-4.34c0.27-0.8,0.56-1.6,0.85-2.4c0.85-2.3,1.78-4.58,2.68-6.86
		c0.03-0.08,0.06-0.16,0.1-0.24c0.27-0.68,0.57-1.33,0.87-2c0.17-0.37,0.34-0.74,0.48-1.12l5.73-8.45l0.58-1.89l0.17-0.55l0,0
		c0,0,0,0,0,0c0,0,0,0,0,0c0.22,0.01,0.43,0.06,0.63,0.13c0.09,0.03,0.18,0.06,0.27,0.1c0.05,0.02,0.1,0.05,0.15,0.07
		c0.16,0.09,0.31,0.21,0.46,0.32c0.11,0.08,0.21,0.13,0.32,0.22c0.18,0.15,0.36,0.28,0.54,0.39s0.37,0.2,0.56,0.27
		c0.39,0.15,0.78,0.23,1.18,0.26c0.62,0.06,1.26,0,1.9-0.07c0.16-0.02,0.31-0.03,0.47-0.05c0.04,0,0.06-0.01,0.09-0.02
		c0.13-0.02,0.24-0.06,0.32-0.11c0.02-0.02,0.06-0.03,0.07-0.04c0.15-0.13,0.17-0.32,0.14-0.51c-0.02-0.08-0.05-0.17-0.08-0.25
		c-0.03-0.07-0.06-0.14-0.1-0.21c-0.02-0.03-0.03-0.06-0.05-0.09c-0.05-0.09-0.12-0.17-0.2-0.25c-0.08-0.08-0.17-0.15-0.27-0.22
		c-0.19-0.13-0.41-0.22-0.6-0.25c-0.43-0.06-0.83-0.16-1.2-0.32c-0.19-0.08-0.36-0.16-0.54-0.26c-0.47-0.26-0.89-0.6-1.29-0.97
		c-0.04-0.04-0.09-0.08-0.13-0.12c-0.27-0.27-0.54-0.56-0.8-0.86c-0.02-0.02-0.04-0.04-0.06-0.06c-0.03-0.03-0.05-0.07-0.07-0.1
		c-0.18-0.22-0.35-0.44-0.5-0.67c-0.66-1.03-0.86-2.01-0.95-3.14c-0.02-0.26-0.04-0.53-0.05-0.81c0.02-0.19,0.05-0.39,0.09-0.58
		c0.04-0.19,0.09-0.38,0.15-0.57c0.12-0.38,0.29-0.75,0.52-1.11c0.73-1.19,1.45-2.42,2.34-3.42c0.25-0.29,0.52-0.56,0.81-0.8
		c1-0.86,2.22-1.43,3.83-1.47c0.15,0,0.3-0.04,0.45-0.09c0.12-0.04,0.23-0.09,0.35-0.14c0.18-0.09,0.35-0.2,0.53-0.31
		c0.26-0.17,0.53-0.34,0.79-0.47c-0.05,0.03-0.14,0.05-0.28,0.08c0.13-0.03,0.23-0.06,0.28-0.08c0.64-0.33,1.23-0.46,1.73-0.41
		c0.13,0.01,0.25,0.03,0.36,0.07c0.34,0.1,0.64,0.3,0.87,0.59c0.23,0.28,0.38,0.66,0.48,1.11c0.01,0.05,0.02,0.09,0.03,0.14
		c0.04,0.24,0.07,0.5,0.07,0.79c0,0.01,0,0.01,0,0.02v0c0,0.38-0.01,0.76-0.04,1.14c-0.03,0.38-0.08,0.76-0.15,1.13
		c-0.07,0.37-0.12,0.71-0.14,1.04c-0.02,0.32-0.02,0.62,0.01,0.9c0.05,0.56,0.2,1.03,0.46,1.44c0.13,0.2,0.28,0.39,0.46,0.57
		c0.09,0.08,0.19,0.16,0.29,0.24c0.02,0.02,0.04,0.04,0.06,0.05c0.37,0.28,0.83,0.51,1.37,0.71c0.11,0.04,0.24,0.08,0.35,0.12
		c0.09,0.03,0.17,0.06,0.27,0.09c0.28,0.08,0.57,0.15,0.85,0.2s0.56,0.09,0.84,0.12c0.28,0.03,0.56,0.04,0.84,0.05
		c0.28,0,0.56,0,0.83-0.01c0.56-0.02,1.11-0.08,1.67-0.14c0.35-0.04,0.7-0.09,1.05-0.13c0.21-0.03,0.42-0.05,0.63-0.08
		c0.1-0.01,0.19-0.03,0.28-0.05c0.28-0.05,0.56-0.12,0.81-0.21c0.12-0.04,0.22-0.1,0.33-0.15c0.44-0.21,0.83-0.5,1.18-0.87
		c0.06-0.06,0.12-0.12,0.18-0.19c0.24-0.28,0.45-0.59,0.65-0.94c0.23-0.4,0.42-0.8,0.59-1.22c0.08-0.21,0.14-0.42,0.21-0.63
		c0.07-0.21,0.15-0.42,0.21-0.63c0.11-0.43,0.2-0.87,0.27-1.31c0.07-0.45,0.12-0.9,0.16-1.36c0.07-0.96,0.27-1.55,0.67-1.83
		s0.99-0.26,1.83,0c0.29,0.09,0.58,0.19,0.87,0.29c0.57,0.2,1.12,0.43,1.66,0.7c1.34,0.66,2.58,1.54,3.67,2.75
		c0.7,0.78,1.21,1.56,1.49,2.35c0.07,0.2,0.13,0.39,0.17,0.59c0.09,0.39,0.12,0.79,0.09,1.19c-0.01,0.2-0.04,0.4-0.09,0.59
		c-0.13,0.55-0.38,1.11-0.76,1.66c-0.05,0.08-0.1,0.16-0.16,0.24c-0.12,0.16-0.25,0.32-0.39,0.47s-0.29,0.32-0.46,0.47
		c-0.59,0.57-1.21,1.11-1.83,1.66c-0.62,0.54-1.24,1.08-1.84,1.65c-0.09,0.09-0.18,0.19-0.26,0.3c-0.16,0.21-0.29,0.46-0.42,0.69
		c-0.07,0.12-0.14,0.24-0.21,0.35c0.04,0.02,0.08,0.04,0.12,0.06c0.43,0.22,0.87,0.53,1.3,0.67c0.16,0.05,0.31,0.08,0.46,0.07
		c0.22-0.01,0.43-0.05,0.65-0.1c0.48-0.12,0.96-0.33,1.44-0.52c0.16-0.07,0.32-0.13,0.48-0.19c0.13-0.05,0.23-0.09,0.35-0.13
		c0.23-0.09,0.44-0.16,0.61-0.2c0.03-0.01,0.08-0.03,0.11-0.03c0.02,0,0.03,0,0.04-0.01c0.11-0.03,0.22-0.05,0.31-0.05
		c0.1,0,0.19,0.01,0.27,0.05c0.1,0.04,0.18,0.13,0.25,0.24c0.04,0.06,0.09,0.12,0.13,0.21c0.04,0.09,0.08,0.22,0.13,0.34
		c0.07,0.19,0.13,0.41,0.21,0.68c0.1,0.34,0.16,0.69,0.22,1.04c0.04,0.28,0.08,0.56,0.11,0.85c0.02,0.21,0.05,0.43,0.07,0.64
		c0.01,0.07,0.01,0.13,0.01,0.19c0,0.06,0.01,0.13,0.01,0.19c0,0.01,0,0.02,0,0.03c0,0.11-0.01,0.21-0.02,0.3
		c-0.05,0.29-0.18,0.49-0.41,0.6c-0.08,0.03-0.16,0.06-0.26,0.07c-0.1,0.01-0.2,0.02-0.32,0.01c-0.12-0.01-0.25-0.03-0.39-0.06
		c-0.22-0.05-0.44-0.08-0.66-0.12c-0.28-0.05-0.57-0.11-0.85-0.16c-0.75-0.12-1.5-0.21-2.24-0.27c-0.01,0-0.03,0-0.04-0.01
		c-0.14-0.01-0.28-0.02-0.42-0.03c-0.74-0.05-1.47-0.08-2.2-0.07c-0.01,0-0.02,0-0.03,0c0,0,0,0,0,0c-0.02,0-0.04,0-0.07,0
		c-0.67,0.01-1.34,0.05-2,0.11c0,0,0,0,0,0c-0.4,0.04-0.8,0.1-1.2,0.15c-0.27,0.04-0.55,0.06-0.82,0.11
		c-0.04,0.01-0.09,0.01-0.13,0.02c-0.64,0.11-1.28,0.23-1.91,0.39c-0.75,0.18-1.5,0.4-2.23,0.64c-0.74,0.24-1.47,0.52-2.2,0.82
		c-1.45,0.61-2.88,1.34-4.29,2.18c-0.94,0.56-1.86,1.17-2.78,1.83c-0.93,0.67-1.83,1.37-2.69,2.1c-1.57,1.33-3.03,2.78-4.35,4.36
		c-0.58,0.7-1.13,1.43-1.66,2.19c-0.09,0.13-0.18,0.25-0.27,0.37c-0.11,0.16-0.21,0.33-0.31,0.5c-0.44,0.68-0.86,1.38-1.25,2.1
		c-0.21,0.39-0.43,0.77-0.63,1.18c-0.1,0.2-0.19,0.42-0.26,0.63c-0.08,0.22-0.14,0.44-0.2,0.67c-0.12,0.45-0.21,0.92-0.29,1.38
		c-0.03,0.13,0.03,0.33,0.11,0.51c0.04,0.09,0.09,0.17,0.15,0.23c0.05,0.06,0.11,0.11,0.16,0.12c0.07,0.02,0.15,0.03,0.24,0.02
		c0.09-0.01,0.18-0.03,0.27-0.06c0.06-0.02,0.12-0.05,0.17-0.08c0.09-0.05,0.16-0.1,0.22-0.16c0.01-0.01,0.04-0.03,0.05-0.04
		c0.13-0.17,0.25-0.35,0.37-0.52c0.31-0.44,0.61-0.9,0.9-1.36c0.09-0.15,0.19-0.3,0.28-0.44c0.11-0.17,0.22-0.34,0.33-0.5
		c0.52-0.8,1.05-1.59,1.6-2.34c0.33-0.46,0.68-0.9,1.02-1.34s0.7-0.86,1.06-1.28c0.72-0.84,1.47-1.63,2.25-2.39
		c0.78-0.76,1.58-1.47,2.42-2.14c0.84-0.67,1.7-1.3,2.6-1.88c2.69-1.75,5.67-3.1,8.96-3.99c1.69-0.46,3.38-0.83,5.09-1.01
		c0.39-0.04,0.77-0.07,1.16-0.1c0.35-0.02,0.7-0.03,1.05-0.03c0.35,0,0.7,0.01,1.06,0.03c0.47,0.03,0.94,0.07,1.42,0.14
		c0.48,0.07,0.95,0.15,1.43,0.26c0.57,0.13,1.13,0.28,1.67,0.45c0,0,0,0,0,0c0.74,0.22,1.47,0.46,2.18,0.74
		c0.46,0.18,0.92,0.38,1.36,0.59c1.34,0.63,2.63,1.36,3.85,2.21c0.54,0.38,1.08,0.77,1.6,1.19s1.04,0.86,1.54,1.32
		c0.5,0.46,1,0.94,1.48,1.44c2.35,2.44,4.34,5.06,5.93,7.87c0.99,1.75,1.82,3.58,2.5,5.48c0.05,0.14,0.1,0.27,0.15,0.41
		c0.18,0.51,0.34,1.03,0.49,1.56c0.46,1.58,0.81,3.2,1.06,4.89c0.08,0.56,0.15,1.13,0.21,1.7c0.06,0.57,0.1,1.15,0.14,1.74
		c0.03,0.55,0.07,1.1,0.1,1.64c0.03,0.5,0.06,1.01,0.09,1.51c0,0.04,0,0.08,0.01,0.12c0,0,0,0,0,0c0.06,1.1,0.12,2.2,0.12,3.3
		C1026.98,846.69,1026.98,846.92,1026.96,847.15z"/>
	<path id="socket_7_" class="st6" d="M910.01,704.93l-41.95-11.6l-10.2-2.82c-0.09,0.24-0.18,0.49-0.24,0.74
		c-1.2,4.88,2.84,10.74,10.43,16.42c8.64,6.46,21.88,12.68,37.27,16.93c1.57,0.43,3.13,0.83,4.68,1.21
		c26.93,6.54,49.88,4.24,52.3-5.62c0.06-0.25,0.1-0.51,0.13-0.77L910.01,704.93z"/>
	<polygon id="socket_6_" class="st7" points="855.5,670.5 973.71,703.19 974.83,698.65 856.61,665.97 	"/>
	<polygon id="socket_5_" class="st7" points="910.01,699.29 887.59,693.09 852.34,683.35 851.04,688.63 857.86,690.52 
		868.06,693.34 910.01,704.93 962.44,719.43 969.26,721.32 970.56,716.03 	"/>
	<polygon id="socket_4_" class="st7" points="961.02,676.28 873.23,652.01 860.88,648.6 859.77,653.13 877.43,658.01 944.76,676.63 
		977.98,685.81 979.1,681.28 	"/>
	<polygon id="socket_3_" class="st7" points="975.3,663.29 869.98,634.17 868.09,633.65 864.78,632.73 864.04,635.75 867.44,636.7 
		868.76,637.06 973.27,665.95 982.25,668.44 982.99,665.41 	"/>
	<path id="socket_2_" class="st6" d="M976.38,703.94l0-0.02l-2.67-0.74L855.5,670.5l-2.31-0.64c-3.34-0.92-6.76,1.2-7.63,4.75
		c-0.87,3.55,1.13,7.17,4.48,8.09l2.31,0.64l35.25,9.74l22.42,6.2l60.55,16.74l2.67,0.74l0-0.02c3.22,0.68,6.43-1.41,7.27-4.83
		C981.34,708.5,979.51,705.02,976.38,703.94z"/>
	<path id="socket_1_" class="st6" d="M984.09,689.5c-0.75-1.35-1.95-2.42-3.45-2.93l0-0.02l-2.67-0.74l-33.22-9.18l-67.33-18.62
		l-17.66-4.88l-2.31-0.64c-3.34-0.92-6.76,1.2-7.63,4.75c-0.87,3.55,1.13,7.17,4.48,8.09l2.31,0.64l118.21,32.68l2.67,0.74l0-0.02
		c2.51,0.53,5.01-0.63,6.39-2.78c0.39-0.61,0.7-1.29,0.88-2.05C985.21,692.76,984.92,690.97,984.09,689.5z"/>
	<path id="socket" class="st6" d="M984.92,669.19l0-0.02l-0.36-0.1l-2.32-0.64l-8.99-2.48l-104.51-28.89l-1.32-0.36l-3.4-0.94
		l-2.31-0.64c-0.31-0.08-0.61-0.13-0.91-0.17c-3.03-0.35-5.92,1.69-6.72,4.92c-0.87,3.55,1.13,7.17,4.48,8.09l2.31,0.64l12.35,3.42
		l87.78,24.27l18.08,5l2.67,0.74l0-0.02c0.85,0.18,1.7,0.16,2.51-0.02c2.25-0.5,4.15-2.29,4.76-4.81
		C989.88,673.75,988.04,670.27,984.92,669.19z"/>
	<path id="eye_1_" class="st6" d="M921.74,352.59c-0.63-6.35-4.81-11.9-10.49-14.53c-3.12-1.45-6.7-2.02-10.38-1.34
		c-9.89,1.81-16.62,11.89-14.89,22.34c0.24,1.48,0.66,2.88,1.2,4.21c1.71,4.21,4.78,7.6,8.52,9.66c3.43,1.88,7.42,2.65,11.43,1.84
		c8.45-1.7,14.66-9.59,14.96-17.98C922.14,355.39,922.04,353.98,921.74,352.59z M911.77,351.12c-0.07,2.67-1.13,4.76-3.71,5.12
		c-2.52,0.35-4.48-1.12-4.84-3.84c-0.36-2.7,1.04-4.76,3.61-5.13C909.37,346.9,911.03,348.48,911.77,351.12z M901.04,362.85
		c-0.04,0.02-0.08,0.04-0.12,0.05c-0.58,0.17-1.54-1.07-2.34-1.68c0.6-0.87,1.06-2.15,1.86-2.49c0.62-0.26,1.66,0.6,3.12,1.25
		c0.03,0.01,0.05,0.02,0.08,0.04C902.5,361.33,901.87,362.52,901.04,362.85z"/>
	<path id="eye" class="st6" d="M987.38,359.83c10.01-1.62,16.6-11.63,14.87-22.18c-1.73-10.52-11.21-17.56-21.09-15.65
		c-10.82,2.38-16.57,11.96-14.72,22.42C968.35,355.18,976.74,361.55,987.38,359.83z M988.84,342.55c0.58-0.28,1.65,0.59,3.17,1.23
		c-1.17,1.4-1.76,2.68-2.6,2.9c-0.63,0.17-1.58-1.02-2.38-1.61C987.61,344.19,988.04,342.93,988.84,342.55z M978.22,334.29
		c0.27-0.12,0.55-0.22,0.84-0.31c2.18-0.65,4.98,1.55,5.12,3.92c0.16,2.75-1.24,4.68-3.71,5.05c-0.3,0.04-0.6,0.07-0.88,0.06
		c-1.99-0.02-3.51-1.23-3.86-3.8C975.28,336.66,976.36,335.11,978.22,334.29z"/>
	<path id="eyebrow_1_" class="st6" d="M971.55,310.43c6.2,1.54,12.44,2.97,18.7,4.21c1.09,0.21,2.37-0.69,3.56-1.08
		c-1.02-0.98-1.9-2.51-3.07-2.83c-4.46-1.19-9.03-1.96-13.54-2.92c-2.08-0.44-4.15-0.96-6.55-1.52c-0.58,0.7-1.13,1.36-1.68,2.02
		C969.82,309.04,970.58,310.19,971.55,310.43z"/>
	<path id="eyebrow" class="st6" d="M888.98,333.55c2.01-1,3.87-2.34,5.78-3.58c4-2.6,8.03-5.16,11.94-7.91
		c0.67-0.47,0.98-1.79,1.08-2.76c0.03-0.31-1.16-0.75-1.85-1.17c-2.14,1.41-4.03,2.65-5.92,3.89c-4.3,2.82-8.64,5.57-12.86,8.52
		c-0.63,0.44-0.66,1.83-0.97,2.78C887.12,333.42,888.24,333.92,888.98,333.55z"/>
	<path class="st8" d="M908.44,398.99c-0.81-4.99-7.49-7.98-15.26-7.05c-0.51,0.06-1.02,0.14-1.53,0.23
		c-4.07,0.75-7.6,2.44-10.06,4.58c-2.63,2.29-4.05,5.09-3.6,7.83c0.46,2.8,2.77,4.96,6.07,6.16c2.97,1.08,6.74,1.39,10.72,0.66
		c1.48-0.27,2.88-0.67,4.2-1.17C905.12,407.9,909.15,403.36,908.44,398.99z"/>
	<path class="st8" d="M1020.11,378.51c-0.17-1.07-0.63-2.05-1.3-2.92c-2.65-3.43-8.78-5.14-15.49-3.91
		c-8.41,1.54-14.53,7.1-13.66,12.41c0.48,2.92,2.97,5.15,6.51,6.32c2.9,0.96,6.5,1.2,10.28,0.51
		C1014.86,389.38,1020.98,383.82,1020.11,378.51z"/>
	<path id="mouth" class="st6" d="M933.95,402.93c0,0-2.25-3.02,0.17-3.39c0,0,14.99,6.89,19.91,5.93c0,0,7.91-0.12,11.83-4.84
		c0,0,2-3.26,2.83-3.51c0,0,2.75-1.21,0,3.99c0,0-12.83,16.69-20.99,10.52L933.95,402.93z"/>
	<path id="beam_4_" class="st2" d="M1132.06,330.72h-43.42c-1.63,0-2.94,1.4-2.94,3.12c0,1.72,1.32,3.12,2.94,3.12h43.42
		c1.63,0,2.94-1.4,2.94-3.12C1135,332.12,1133.68,330.72,1132.06,330.72z"/>
	<path id="beam_3_" class="st2" d="M809.78,330.72h-43.42c-1.63,0-2.94,1.4-2.94,3.12c0,1.72,1.32,3.12,2.94,3.12h43.42
		c1.63,0,2.94-1.4,2.94-3.12C812.72,332.12,811.4,330.72,809.78,330.72z"/>
	<path id="beam_2_" class="st2" d="M956.01,187.37c-1.63,0-2.94,1.4-2.94,3.12v46.06c0,1.72,1.32,3.12,2.94,3.12
		c1.63,0,2.94-1.4,2.94-3.12v-46.06C958.96,188.77,957.64,187.37,956.01,187.37z"/>
	<path id="beam_1_" class="st2" d="M1088.09,239.53c-1.15-1.22-3.01-1.22-4.16,0l-30.7,32.57c-1.15,1.22-1.15,3.2,0,4.42
		c1.15,1.22,3.01,1.22,4.16,0l30.7-32.57C1089.24,242.73,1089.24,240.75,1088.09,239.53z"/>
	<path id="beam" class="st2" d="M828.1,229.38c-1.15-1.22-3.01-1.22-4.16,0c-1.15,1.22-1.15,3.2,0,4.42l30.7,32.57
		c1.15,1.22,3.01,1.22,4.16,0c1.15-1.22,1.15-3.2,0-4.42L828.1,229.38z"/>
	<path id="hand_3_" class="st5" d="M786.97,542.83c-3.15,0.26-5.4-1.15-6.55-3.74c-0.38-0.87-0.64-1.86-0.77-2.98
		c-0.05-0.41-0.02-0.84,0.02-1.25c0.03-0.45,0.06-0.86,0.08-1.21c0.04-0.71,0.03-1.22-0.06-1.58c-0.1-0.37-0.28-0.58-0.6-0.69
		c-0.16-0.06-0.35-0.08-0.59-0.09c-0.23-0.01-0.51,0-0.83,0.03c-0.32,0.03-0.68,0.07-1.1,0.12c-1.1,0.14-2.25,0.32-3.36,0.62
		c-0.28,0.07-0.55,0.15-0.82,0.24c-0.81,0.27-1.58,0.61-2.28,1.04c-0.91,0.57-1.61,1.2-2.12,1.88c-0.25,0.34-0.46,0.69-0.61,1.05
		c-0.1,0.23-0.17,0.46-0.23,0.69c-0.41,1.63,0.12,3.45,1.55,5.29c0.58,0.75,1.26,1.41,1.97,2.05c0.35,0.32,0.71,0.63,1.07,0.95
		c0.36,0.32,0.71,0.64,1.05,0.97c0.25,0.24,0.49,0.51,0.74,0.76c0.25,0.25,0.51,0.49,0.74,0.76c0.17,0.21,0.19,0.56,0.27,0.85
		c-0.14,0.04-0.28,0.09-0.42,0.14c-0.14,0.05-0.28,0.08-0.43,0.09c-1.53,0.09-2.93-0.33-4.25-1.02c-0.44-0.23-0.87-0.49-1.29-0.77
		c-0.29-0.19-0.54-0.35-0.77-0.49c-1.59-0.97-1.86-0.66-2.94,1.52c-2.04,4.14-4.16,8.24-6.17,12.39
		c-3.61,7.44-6.29,15.28-7.92,23.44c-1.41,7.07-1.99,14.3-1.22,21.53c0.14,1.33,0.4,2.65,0.71,3.97c0.16,0.66,0.33,1.31,0.5,1.96
		c0.18,0.65,0.36,1.3,0.54,1.94c0,0,0,0,0,0c0.24,0.85,0.18,2.05,1.7,2.25c1.21-0.09,0.58-1.92,0.63-2.89
		c0.1-1.98,0.03-3.97,0.03-5.96c-0.06,0,0.05-3.88,0.22-7.13c0.06-0.86,0.09-1.72,0.16-2.57c0.03-0.33,0.11-0.67,0.23-1
		c0.12-0.33,0.29-0.64,0.48-0.9c0.1-0.14,0.26-0.25,0.42-0.29c0.05-0.01,0.11-0.02,0.16-0.01c0.21,0.02,0.4,0.19,0.44,0.62
		c0.09,0.93,0.1,1.88,0.08,2.82c-0.03,1.62-0.03,3.25-0.02,4.87c0.05,4.86,0.34,9.71,1.12,14.53c0,0,0,0,0,0
		c0.02,1.51,0.39,2.43,0.87,3.07c0.47,0.62,1.06,0.97,1.56,1.32c0.04-0.04,0.08-0.08,0.15-0.11c0.09-0.04,0.19-0.08,0.35-0.1
		c0,0,0,0,0,0c0.19-0.02,0.35-0.05,0.49-0.1c0.27-0.1,0.45-0.25,0.56-0.45c0.11-0.19,0.16-0.42,0.18-0.67
		c0.02-0.24,0-0.51-0.01-0.76c-0.01-0.13-0.01-0.26-0.01-0.38c0.01-2.93,0-5.86,0-8.79c0-2.93,0.01-5.86,0.05-8.79
		c0.01-0.66-0.3-1.67-0.1-2.33c0.12-0.4,0.43-0.67,1.1-0.66c0.17,0,0.31,0.03,0.42,0.08c0.23,0.11,0.36,0.31,0.43,0.56
		c0.1,0.38,0.07,0.87,0.04,1.34c-0.02,0.31-0.04,0.62-0.02,0.87c0.32,4.17,0.46,8.35,0.75,12.52c0.11,1.64,0.11,1.64-0.05,4.76
		c-0.04,0.71-0.31,2.87-0.16,3.56c0.12,0.53,0.34,1.02,0.62,1.46c0.93,1.44,2.6,2.37,4.21,2.56c1.07,0.13,1.72-0.14,1.67-1.47
		c-0.08-1.98-0.11-3.97-0.11-5.95c0-0.48,1.19-0.92,1.58-0.64c0.93,0.66,1.49,1.54,1.74,2.6c0.08,0.35,0.14,0.72,0.16,1.11
		c0.03,0.63,0.05,1.26,0.08,1.89c0.03,0.63,0.09,1.25,0.19,1.87c0.03,0.18,0.07,0.37,0.12,0.54c0.14,0.53,0.35,1.03,0.64,1.45
		c0.19,0.28,0.43,0.53,0.7,0.74c0.28,0.21,0.59,0.37,0.96,0.48c0.4,0.12,0.78,0.15,1.12,0.09c0.68-0.1,1.23-0.51,1.65-1.07
		c0.21-0.28,0.39-0.61,0.54-0.96c0.6-1.39,1.1-2.91,1.23-4.41c0.36-3.95,0.49-7.93,0.74-11.89c0.07-1.09,0.16-3.78,0.35-6.37
		c0.1-1.4,0.22-2.77,0.39-3.86c0.45-3,1.27-5.8,2.53-8.42c0.42-0.87,0.89-1.73,1.41-2.56c0.32-0.51,0.66-1,1.02-1.45
		c0.71-0.9,1.5-1.69,2.35-2.35c0.85-0.66,1.76-1.21,2.73-1.64c1.45-0.65,3.04-1.04,4.73-1.18c0.5-0.04,0.98-0.05,1.44-0.01
		c0.47,0.04,0.91,0.12,1.34,0.24c1.29,0.36,2.4,1.09,3.27,2.22c0.58,0.75,1.04,1.68,1.37,2.78c0.17,0.55,0.3,1.15,0.4,1.8
		c0.16,1.08,0.29,2.17,0.41,3.26c0.12,1.09,0.24,2.18,0.39,3.27c0.13,0.93,0.48,1.72,1,2.31c0.26,0.3,0.55,0.55,0.87,0.74
		c0.32,0.19,0.68,0.33,1.05,0.4c0.42,0.08,0.85,0.07,1.27-0.01c0.84-0.17,1.64-0.64,2.26-1.3c0.31-0.33,0.59-0.71,0.8-1.13
		c0.36-0.71,0.57-1.43,0.66-2.16c0.03-0.24,0.05-0.49,0.06-0.73c0.04-0.98-0.09-1.96-0.24-2.93c-0.34-2.14-0.51-4.26-0.49-6.39
		c0.01-2.12,0.22-4.25,0.63-6.38c0.16-0.84,0.27-1.67,0.33-2.49c0.18-2.44-0.1-4.74-0.77-6.93c-0.44-1.46-1.06-2.86-1.82-4.21
		c-0.38-0.68-0.8-1.34-1.26-2c-0.46-0.65-0.95-1.3-1.47-1.93c-0.64-0.77-1.3-1.54-1.94-2.32s-1.26-1.57-1.84-2.4
		c-1.01-1.47-1.37-2.03-2.1-2.4c-0.44-0.23-1.01-0.39-1.94-0.65c-0.15-0.04-0.29-0.11-0.42-0.2c-0.27-0.18-0.52-0.44-0.78-0.68
		c-0.13-0.12-0.26-0.24-0.39-0.35c0.35-0.44,0.63-1.01,1.07-1.31c1.4-0.95,2.92-1.7,4.28-2.71c1.12-0.84,1.79-1.8,2.04-2.88
		c0.25-1.08,0.1-2.29-0.43-3.64c-0.59-1.51-1.41-2.8-2.39-3.92c-0.74-0.84-1.57-1.59-2.48-2.26c-0.3-0.22-0.61-0.44-0.93-0.65
		c-0.23-0.15-0.44-0.28-0.62-0.39c-0.38-0.22-0.67-0.35-0.93-0.39c-0.64-0.09-1,0.42-1.6,1.69c-0.21,0.44-0.44,0.85-0.68,1.24
		c-0.74,1.17-1.65,2.13-2.7,2.96c-0.47,0.37-0.96,0.72-1.48,1.05c-1.13,0.72-2.29,1.11-3.51,1.33
		C787.8,542.75,787.39,542.8,786.97,542.83z"/>
	<path id="arm_1_" class="st6" d="M854.23,435.21c-0.29-1.16-0.91-2.23-1.78-3.18c-1.17-1.27-2.54-2.21-4.06-2.51
		c-0.3-0.06-0.61-0.09-0.93-0.1c-0.53-0.01-1.08,0.08-1.64,0.24c-0.11,0.03-0.21,0.04-0.31,0.08c-1.74,0.6-3.35,1.72-4.91,2.79
		c-2.54,1.72-5.03,3.51-7.47,5.36c-2.45,1.85-4.85,3.75-7.2,5.72c-4.71,3.93-9.25,8.11-13.6,12.52
		c-4.75,4.81-8.95,10.08-12.38,15.95c-1.15,1.96-2.21,3.98-3.18,6.08c-2.11,4.55-3.63,9.33-5.09,14.13
		c-0.21,0.69-0.42,1.37-0.62,2.06c-0.55,1.83-1.11,3.66-1.69,5.47c-0.45,1.39-0.87,2.8-1.3,4.2c-0.99,3.22-1.94,6.45-2.87,9.7
		c-1.11,3.9-2.21,7.8-3.35,11.69c-0.37,1.27-0.57,1.8-1.21,2c-0.26,0.08-0.58,0.11-1.02,0.12c-0.22,0-0.47,0-0.75-0.01
		c-0.82-0.02-1.63,0-2.43,0.04c-1.61,0.1-3.18,0.35-4.74,0.81c-0.78,0.23-1.56,0.52-2.33,0.87c-4.25,1.92-6.79,6.32-5.98,10.36
		c0.12,0.58,0.3,1.15,0.56,1.7c0.13,0.29,0.21,0.55,0.23,0.8c0.05,0.5-0.1,0.93-0.35,1.37c-0.13,0.22-0.28,0.43-0.45,0.65
		c-0.98,1.28-1.86,2.65-2.72,4.03c-2.37,3.85-4.47,7.87-6.33,12.01c-0.62,1.38-1.21,2.78-1.78,4.19c-0.75,1.86-1.49,3.73-2.18,5.62
		c-0.69,1.89-1.33,3.79-1.88,5.73c-1.63,5.69-2.72,11.53-3.32,17.46c-0.3,2.97-0.39,5.9-0.23,8.8c0.11,1.93,0.33,3.85,0.67,5.76
		c0.52,2.85,1.33,5.67,2.47,8.44c0.38,0.93,0.85,1.68,1.45,2.22c0.59,0.54,1.31,0.86,2.18,0.92c0.36,0.02,0.67,0.09,0.94,0.19
		c0.81,0.31,1.26,0.96,1.71,1.81c0.82,1.57,1.98,2.83,3.44,3.74c0.26,0.16,2.55,0.63,4.11,0.94c0.42,0.49,0.85,0.98,1.23,1.5
		c0.97,1.33,2.11,2.13,3.49,2.58c0.46,0.15,0.95,0.26,1.46,0.34c0.41,0.06,0.82,0.13,1.23,0.21c1.24,0.25,2.47,0.63,3.52,1.27
		c0.45,0.27,0.9,0.5,1.36,0.67c0.92,0.35,1.85,0.49,2.74,0.44c0.22-0.01,0.44-0.04,0.66-0.07c0.65-0.11,1.28-0.33,1.85-0.66
		c1.15-0.65,2.11-1.74,2.7-3.23c0.21-0.52,0.4-1.05,0.58-1.6c0.35-1.08,0.64-2.2,0.84-3.32c0.1-0.56,0.18-1.12,0.23-1.69
		c0.26-2.86,0.43-5.73,0.6-8.6c0.16-2.87,0.31-5.74,0.52-8.61c0.07-0.94,0.16-1.87,0.28-2.8c0.24-1.85,0.61-3.68,1.2-5.44
		c0.29-0.88,0.64-1.75,1.05-2.6c0.41-0.84,0.85-1.63,1.34-2.35c0.99-1.45,2.17-2.64,3.66-3.51c0.74-0.43,1.56-0.78,2.47-1.04
		c0.78-0.22,1.5-0.33,2.16-0.29c0.99,0.05,1.83,0.4,2.45,1.14c0.62,0.74,1.03,1.86,1.16,3.45c0.17,2.07,0.47,4.14,0.83,6.19
		c0.62,3.6,3.08,5.61,5.75,6.12c0.53,0.1,1.08,0.15,1.62,0.13c1.08-0.03,2.14-0.3,3.08-0.8c0.43-0.23,0.83-0.47,1.19-0.73
		c2.58-1.84,3.7-4.55,3.69-8.1c-0.01-6.38,0.12-12.75,0.31-19.13c0.03-0.88,0-1.75-0.07-2.61c-0.21-2.58-0.86-5.05-1.86-7.41
		c-0.48-1.14-1.04-2.21-1.67-3.22c-0.63-1.01-1.32-1.96-2.08-2.85c-1.51-1.79-3.28-3.35-5.23-4.72c-0.66-0.46-1.07-0.75-1.26-1.02
		c-0.13-0.18-0.15-0.35-0.09-0.55c0.1-0.3,0.4-0.68,0.87-1.28c0.13-0.16,0.27-0.31,0.4-0.46s0.27-0.31,0.4-0.46
		c0.42-0.47,0.78-0.95,1.1-1.44c1.58-2.44,1.92-5.11,1.03-7.77c-0.36-1.06-0.92-2.13-1.67-3.18c-1.13-1.57-2.39-2.94-3.79-4.17
		c-0.83-0.74-1.7-1.44-2.64-2.06c-0.76-0.51-1.24-0.87-1.51-1.25c-0.18-0.25-0.27-0.52-0.28-0.83c-0.01-0.32,0.05-0.69,0.16-1.17
		c0.06-0.24,0.13-0.5,0.21-0.8c0.4-1.45,0.8-2.89,1.19-4.34c0.4-1.45,0.79-2.9,1.19-4.34c0.54-1.93,1.06-3.87,1.59-5.81
		c0.89-3.24,1.78-6.48,2.74-9.7c0.12-0.41,0.23-0.83,0.36-1.24c0.66-2.17,1.34-4.34,2.07-6.49c0.73-2.15,1.49-4.29,2.31-6.4
		c1.21-3.14,2.6-6.17,4.24-9.04c0.82-1.43,1.71-2.83,2.67-4.17c0.96-1.35,2-2.65,3.12-3.89c2.51-2.79,5.23-5.3,8.03-7.73
		c1.4-1.21,2.81-2.4,4.23-3.59c1.42-1.19,2.83-2.38,4.23-3.59c2.31-2.01,4.63-4,6.89-6.06c1.68-1.53,3.31-3.13,4.9-4.78
		c0.55-0.57,1.11-1.12,1.64-1.7c1.26-1.38,2.23-2.91,2.93-4.61c0.23-0.57,0.44-1.15,0.61-1.76
		C854.5,437.63,854.52,436.38,854.23,435.21z M799.12,534.8c0.19,0.11,0.39,0.24,0.62,0.39c0.32,0.21,0.63,0.43,0.93,0.65
		c0.91,0.67,1.74,1.42,2.48,2.26c0.99,1.12,1.8,2.41,2.39,3.92c0.53,1.35,0.68,2.56,0.43,3.64c-0.26,1.08-0.92,2.04-2.04,2.88
		c-1.35,1.01-2.88,1.76-4.28,2.71c-0.44,0.3-0.72,0.86-1.07,1.31c0.13,0.11,0.26,0.23,0.39,0.35c0.26,0.25,0.51,0.5,0.78,0.68
		c0.14,0.09,0.28,0.16,0.42,0.2c0.93,0.26,1.5,0.42,1.94,0.65c0.73,0.38,1.09,0.93,2.1,2.4c0.57,0.83,1.2,1.62,1.84,2.4
		s1.3,1.54,1.94,2.32c0.52,0.63,1.02,1.27,1.47,1.93c0.46,0.65,0.88,1.32,1.26,2c0.77,1.35,1.38,2.76,1.82,4.21
		c0.66,2.18,0.94,4.49,0.77,6.93c-0.06,0.81-0.17,1.64-0.33,2.49c-0.41,2.14-0.61,4.26-0.63,6.38c-0.01,2.12,0.16,4.25,0.49,6.39
		c0.15,0.97,0.28,1.96,0.24,2.93c-0.01,0.24-0.03,0.49-0.06,0.73c-0.09,0.73-0.29,1.45-0.66,2.16c-0.21,0.42-0.48,0.8-0.8,1.13
		c-0.63,0.66-1.43,1.13-2.26,1.3c-0.42,0.08-0.85,0.09-1.27,0.01c-0.37-0.07-0.73-0.21-1.05-0.4c-0.32-0.19-0.62-0.44-0.87-0.74
		c-0.51-0.6-0.87-1.39-1-2.31c-0.15-1.09-0.27-2.18-0.39-3.27c-0.12-1.09-0.25-2.18-0.41-3.26c-0.1-0.65-0.23-1.24-0.4-1.8
		c-0.33-1.11-0.8-2.03-1.37-2.78c-0.86-1.13-1.98-1.86-3.27-2.22c-0.43-0.12-0.88-0.2-1.34-0.24c-0.47-0.04-0.95-0.04-1.44,0.01
		c-1.69,0.15-3.28,0.54-4.73,1.18c-0.97,0.43-1.88,0.98-2.73,1.64c-0.85,0.66-1.63,1.45-2.35,2.35c-0.36,0.45-0.7,0.93-1.02,1.45
		c-0.52,0.84-0.99,1.69-1.41,2.56c-1.26,2.62-2.08,5.42-2.53,8.42c-0.16,1.09-0.29,2.46-0.39,3.86c-0.19,2.6-0.28,5.28-0.35,6.37
		c-0.24,3.96-0.38,7.94-0.74,11.89c-0.14,1.5-0.64,3.03-1.23,4.41c-0.15,0.35-0.33,0.67-0.54,0.96c-0.42,0.57-0.97,0.97-1.65,1.07
		c-0.34,0.05-0.71,0.02-1.12-0.09c-0.37-0.11-0.69-0.27-0.96-0.48c-0.28-0.21-0.51-0.46-0.7-0.74c-0.29-0.42-0.5-0.92-0.64-1.45
		c-0.05-0.18-0.09-0.36-0.12-0.54c-0.11-0.61-0.16-1.24-0.19-1.87c-0.03-0.63-0.05-1.26-0.08-1.89c-0.02-0.39-0.07-0.76-0.16-1.11
		c-0.25-1.06-0.8-1.94-1.74-2.6c-0.39-0.28-1.58,0.17-1.58,0.64c-0.01,1.98,0.03,3.97,0.11,5.95c0.05,1.32-0.6,1.6-1.67,1.47
		c-1.61-0.19-3.28-1.12-4.21-2.56c-0.28-0.44-0.5-0.93-0.62-1.46c-0.15-0.69,0.12-2.85,0.16-3.56c0.16-3.12,0.16-3.12,0.05-4.76
		c-0.28-4.17-0.43-8.35-0.75-12.52c-0.02-0.25,0-0.55,0.02-0.87c0.03-0.47,0.06-0.96-0.04-1.34c-0.07-0.25-0.2-0.45-0.43-0.56
		c-0.11-0.05-0.25-0.08-0.42-0.08c-0.67-0.01-0.98,0.27-1.1,0.66c-0.2,0.66,0.11,1.67,0.1,2.33c-0.05,2.93-0.05,5.86-0.05,8.79
		c0,2.93,0.01,5.86,0,8.79c0,0.12,0,0.25,0.01,0.38c0.01,0.26,0.02,0.52,0.01,0.76c-0.02,0.25-0.06,0.47-0.18,0.67
		c-0.11,0.19-0.29,0.35-0.56,0.45c-0.14,0.05-0.3,0.08-0.49,0.1c0,0,0,0,0,0c-0.16,0.02-0.26,0.05-0.35,0.1
		c-0.07,0.03-0.11,0.07-0.15,0.11c-0.5-0.35-1.09-0.7-1.56-1.32c-0.49-0.64-0.85-1.56-0.87-3.07c0,0,0,0,0,0
		c-0.78-4.82-1.07-9.66-1.12-14.53c-0.02-1.62-0.01-3.24,0.02-4.87c0.01-0.94,0.01-1.89-0.08-2.82c-0.04-0.43-0.23-0.6-0.44-0.62
		c-0.05,0-0.11,0-0.16,0.01c-0.16,0.04-0.32,0.15-0.42,0.29c-0.19,0.26-0.35,0.57-0.48,0.9c-0.12,0.33-0.21,0.67-0.23,1
		c-0.07,0.86-0.1,1.71-0.16,2.57c-0.17,3.25-0.27,7.13-0.22,7.13c0,1.99,0.07,3.98-0.03,5.96c-0.05,0.97,0.59,2.8-0.63,2.89
		c-1.52-0.2-1.46-1.4-1.7-2.25c0,0,0,0,0,0c-0.18-0.64-0.37-1.29-0.54-1.94c-0.18-0.65-0.35-1.3-0.5-1.96
		c-0.31-1.31-0.57-2.64-0.71-3.97c-0.77-7.23-0.19-14.46,1.22-21.53c1.62-8.16,4.31-16,7.92-23.44c2.02-4.15,4.13-8.25,6.17-12.39
		c1.08-2.18,1.35-2.49,2.94-1.52c0.23,0.14,0.48,0.3,0.77,0.49c0.42,0.28,0.85,0.54,1.29,0.77c1.32,0.69,2.71,1.11,4.25,1.02
		c0.14-0.01,0.28-0.05,0.43-0.09c0.14-0.04,0.28-0.1,0.42-0.14c-0.09-0.29-0.1-0.64-0.27-0.85c-0.23-0.27-0.49-0.51-0.74-0.76
		c-0.25-0.25-0.48-0.52-0.74-0.76c-0.34-0.33-0.7-0.65-1.05-0.97c-0.36-0.32-0.72-0.63-1.07-0.95c-0.71-0.64-1.39-1.3-1.97-2.05
		c-1.43-1.85-1.95-3.66-1.55-5.29c0.06-0.23,0.14-0.46,0.23-0.69c0.15-0.36,0.36-0.71,0.61-1.05c0.51-0.68,1.21-1.31,2.12-1.88
		c0.7-0.44,1.47-0.78,2.28-1.04c0.27-0.09,0.54-0.17,0.82-0.24c1.11-0.3,2.25-0.48,3.36-0.62c0.42-0.05,0.78-0.1,1.1-0.12
		c0.32-0.03,0.59-0.04,0.83-0.03c0.23,0.01,0.43,0.04,0.59,0.09c0.32,0.11,0.5,0.33,0.6,0.69c0.1,0.36,0.1,0.88,0.06,1.58
		c-0.02,0.35-0.05,0.75-0.08,1.21c-0.03,0.42-0.06,0.84-0.02,1.25c0.13,1.11,0.38,2.11,0.77,2.98c1.14,2.6,3.4,4,6.55,3.74
		c0.42-0.03,0.83-0.08,1.24-0.15c1.22-0.21,2.38-0.61,3.51-1.33c0.52-0.33,1.02-0.68,1.48-1.05c1.05-0.84,1.96-1.8,2.7-2.96
		c0.25-0.39,0.47-0.8,0.68-1.24c0.6-1.27,0.97-1.78,1.6-1.69C798.45,534.45,798.74,534.58,799.12,534.8z"/>
</g>
</svg>
