<svg xmlns="http://www.w3.org/2000/svg" viewBox="0 0 277.87 84.24"><defs><style>.cls-1{fill:#845349;}</style></defs><title>Asset 3</title><g id="Layer_2" data-name="Layer 2"><g id="teaser"><g id="changed"><path id="c" class="cls-1" d="M27.77,30.23a17,17,0,0,1-.3,3,12.72,12.72,0,0,1-1,3.09,7.43,7.43,0,0,1-1.81,2.42,4,4,0,0,1-2.72,1,1.57,1.57,0,0,1-1.12-.27,1.35,1.35,0,0,1-.24-.92c0-.26,0-.65,0-1.16s0-1,0-1.48a3.58,3.58,0,0,0-.22-1.34c-.15-.36-.51-.55-1.1-.55a4.45,4.45,0,0,0-2.26.77,14.65,14.65,0,0,0-2.51,2,27.36,27.36,0,0,0-2.44,2.79A32.54,32.54,0,0,0,10,42.74a19.67,19.67,0,0,0-1.49,3.09,7.57,7.57,0,0,0-.55,2.55A3,3,0,0,0,9,50.8a4.44,4.44,0,0,0,2.92.88A15,15,0,0,0,16.13,51a34.57,34.57,0,0,0,4.46-1.67c1.48-.67,2.91-1.41,4.28-2.2s2.63-1.54,3.76-2.26S30.7,43.56,31.46,43s1.26-.82,1.5-.94a3,3,0,0,1,1.32-.35,1.63,1.63,0,0,1,.9.24,2,2,0,0,1,.59.57,2.18,2.18,0,0,1,.31.7,2.86,2.86,0,0,1,.09.64,6,6,0,0,1-.09,1,2.87,2.87,0,0,1-.66,1.25c-.15.17-.62.62-1.43,1.34S32.15,49,30.87,50s-2.74,2-4.39,3.09a43.39,43.39,0,0,1-5.32,3,39.36,39.36,0,0,1-5.87,2.27,20.9,20.9,0,0,1-6,.9,10.71,10.71,0,0,1-4-.7,8.44,8.44,0,0,1-2.92-1.92,8.05,8.05,0,0,1-1.8-2.83A9.4,9.4,0,0,1,0,50.36a13.85,13.85,0,0,1,.92-4.55,30,30,0,0,1,2.55-5.25,42.23,42.23,0,0,1,3.82-5.27,33.49,33.49,0,0,1,4.77-4.62,25.41,25.41,0,0,1,5.36-3.25,13.91,13.91,0,0,1,5.65-1.23,7.23,7.23,0,0,1,1.83.22,4.42,4.42,0,0,1,1.49.68,3.31,3.31,0,0,1,1,1.25A4.4,4.4,0,0,1,27.77,30.23Z"/><path id="h" class="cls-1" d="M27.11,51.2c.71-1.5,1.51-3.16,2.42-5s1.82-3.65,2.75-5.45,1.79-3.52,2.61-5.14,1.51-3,2.07-4.16L51.46,2.94a3.81,3.81,0,0,1,.81-1.09A6.71,6.71,0,0,1,53.53.9,6.44,6.44,0,0,1,55,.24,5.41,5.41,0,0,1,56.6,0a3.8,3.8,0,0,1,2.68.73A2.36,2.36,0,0,1,60,2.5a5,5,0,0,1-.48,2.05,14.7,14.7,0,0,1-1.1,2c-1.29,2.2-2.53,4.41-3.72,6.66S52.36,17.7,51.17,20s-2.38,4.53-3.58,6.77-2.46,4.46-3.78,6.66c.82-.79,1.7-1.61,2.62-2.46a21.73,21.73,0,0,1,3-2.33A17.06,17.06,0,0,1,53,26.87a13.78,13.78,0,0,1,7-.41,7.05,7.05,0,0,1,2.24.85,4.37,4.37,0,0,1,1.53,1.63,5,5,0,0,1,.58,2.52,10.55,10.55,0,0,1-.6,3.63,16,16,0,0,1-1.51,3.12,28.17,28.17,0,0,1-2,2.81c-.74.9-1.43,1.81-2.09,2.73a20.1,20.1,0,0,0-1.72,2.88,9.67,9.67,0,0,0-.9,3.25.47.47,0,0,1,0,.17,1.1,1.1,0,0,0,0,.18c0,.59.2,1,.59,1.1a4.61,4.61,0,0,0,1.52.22,8.2,8.2,0,0,0,2.55-.46,17.28,17.28,0,0,0,2.74-1.23c.93-.52,1.85-1.1,2.77-1.74s1.8-1.3,2.64-2,1.6-1.32,2.31-2,1.3-1.18,1.8-1.65a2.78,2.78,0,0,1,.83-.53,2.21,2.21,0,0,1,.84-.17,1.74,1.74,0,0,1,1.34.59,2.3,2.3,0,0,1,.55,1.6,4.62,4.62,0,0,1-.64,2.11,7.93,7.93,0,0,1-2.17,2.38q-2.43,2.1-4.93,4A48.42,48.42,0,0,1,63.15,56a29.29,29.29,0,0,1-5.08,2.37,14.86,14.86,0,0,1-4.94.88,8.12,8.12,0,0,1-5-1.43,5.27,5.27,0,0,1-1.89-4.5A11.73,11.73,0,0,1,47,49.07a23.87,23.87,0,0,1,1.89-3.87c.75-1.25,1.54-2.45,2.39-3.61a38.29,38.29,0,0,0,2.25-3.4,8.36,8.36,0,0,0,.81-1.39,3.31,3.31,0,0,0,.28-1.38,1.6,1.6,0,0,0-.35-1.08,1.38,1.38,0,0,0-1.1-.41,9.38,9.38,0,0,0-4.79,1.27,17.65,17.65,0,0,0-4,3.25,35.31,35.31,0,0,0-3.43,4.33Q39.34,45.14,38,47.29a25.28,25.28,0,0,0-1.25,2.21L35.4,52.08c-.46.87-.93,1.75-1.43,2.61A19.35,19.35,0,0,1,32.41,57a8.07,8.07,0,0,1-1.71,1.62,3.29,3.29,0,0,1-1.87.62,3.05,3.05,0,0,1-2.37-.9,3.2,3.2,0,0,1-.84-2.27A7.29,7.29,0,0,1,26,53.94,22.72,22.72,0,0,1,27.11,51.2Z"/><path id="a" class="cls-1" d="M118.61,45.48c-.53.5-1.23,1.19-2.11,2.07s-1.88,1.83-3,2.86-2.33,2.05-3.6,3.09A41.34,41.34,0,0,1,106,56.34,25.84,25.84,0,0,1,102,58.42a9.29,9.29,0,0,1-3.65.82,5,5,0,0,1-2.63-.66,5.87,5.87,0,0,1-1.83-1.71,7.68,7.68,0,0,1-1.07-2.4,10.53,10.53,0,0,1-.36-2.75,12.29,12.29,0,0,1,.14-1.82,7.11,7.11,0,0,1,.44-1.69Q91.72,50.05,90,52a30.63,30.63,0,0,1-3.74,3.56,21.14,21.14,0,0,1-4.17,2.64,10.32,10.32,0,0,1-4.42,1A9.58,9.58,0,0,1,75,58.78a9.1,9.1,0,0,1-2.88-1.52,8.73,8.73,0,0,1-2.28-2.72,8.33,8.33,0,0,1-.92-4.09,20.36,20.36,0,0,1,.55-4.31,30.38,30.38,0,0,1,1.67-5.21A31,31,0,0,1,74,35.6a23.49,23.49,0,0,1,4.11-4.73,19.84,19.84,0,0,1,5.41-3.38,16.91,16.91,0,0,1,6.76-1.3,10.83,10.83,0,0,1,3.39.48,15.22,15.22,0,0,1,2.46,1.06,12.34,12.34,0,0,1,2,1.54c.5-.27,1-.52,1.54-.75a14.16,14.16,0,0,1,1.38-.55,4.12,4.12,0,0,1,1.25-.24,4,4,0,0,1,2.73.92,2.68,2.68,0,0,1,1,2,2.13,2.13,0,0,1,0,.49c-.15.55-.37,1.26-.68,2.11l-1,2.83c-.38,1-.77,2.13-1.17,3.25s-.75,2.24-1.08,3.32-.58,2.1-.79,3.06a12.1,12.1,0,0,0-.3,2.43,4.67,4.67,0,0,0,.44,2.18,1.54,1.54,0,0,0,1.49.86,3.8,3.8,0,0,0,1.56-.42,15.35,15.35,0,0,0,2-1.12c.7-.47,1.42-1,2.17-1.61s1.47-1.2,2.18-1.82q2.46-2.19,5.23-5a2.17,2.17,0,0,1,1.36-.57,1.74,1.74,0,0,1,1.47.86,3.22,3.22,0,0,1,.59,1.91A2.8,2.8,0,0,1,118.61,45.48ZM88.15,34.15a8.24,8.24,0,0,0-4,1.05A12.31,12.31,0,0,0,80.73,38a13.81,13.81,0,0,0-2.38,3.84,11.3,11.3,0,0,0-.87,4.29,14.43,14.43,0,0,0,.11,1.82,5.23,5.23,0,0,0,.5,1.74A3.57,3.57,0,0,0,79.21,51a3.28,3.28,0,0,0,2,.52,4.28,4.28,0,0,0,2.26-.85,19.13,19.13,0,0,0,2.68-2.2,33.8,33.8,0,0,0,2.7-3c.88-1.06,1.67-2.11,2.38-3.14a29,29,0,0,0,1.71-2.77,4.51,4.51,0,0,0,.66-1.8A2.29,2.29,0,0,0,93,36.28a5.06,5.06,0,0,0-1.41-1.17,6.92,6.92,0,0,0-1.78-.72A6.83,6.83,0,0,0,88.15,34.15Z"/><path id="n" class="cls-1" d="M121.07,31.46a7,7,0,0,1,2.2-2.81,4.55,4.55,0,0,1,2.59-.92,2.74,2.74,0,0,1,1.89.77,2.91,2.91,0,0,1,.83,2.26,6.13,6.13,0,0,1-.13,1.23A6.54,6.54,0,0,1,128,33.4a13.72,13.72,0,0,1,2.77-2.53,25.9,25.9,0,0,1,4-2.33,28.93,28.93,0,0,1,4.49-1.69,15.83,15.83,0,0,1,4.37-.66,6.55,6.55,0,0,1,3.89,1.12,4.37,4.37,0,0,1,1.56,3.8,11.84,11.84,0,0,1-.49,3.3,25.4,25.4,0,0,1-1.25,3.43q-.76,1.71-1.71,3.36c-.63,1.1-1.25,2.13-1.87,3.1L142,47c-.51.8-.92,1.47-1.21,2a2.48,2.48,0,0,0-.57,1.62.92.92,0,0,0,.22.62.88.88,0,0,0,.7.26,3.68,3.68,0,0,0,.7-.07,2.38,2.38,0,0,0,1-.46,40.92,40.92,0,0,0,4.86-2.19q2.48-1.32,4.77-2.8T156.64,43c1.28-1,2.34-1.87,3.19-2.66a2.46,2.46,0,0,1,.7-.44,1.88,1.88,0,0,1,.66-.13,1.37,1.37,0,0,1,1.17.57,2.46,2.46,0,0,1,.41,1.45,6.72,6.72,0,0,1-.85,3,9.52,9.52,0,0,1-2.71,3.12l-4.59,3.3q-2.09,1.5-4.26,2.79a46.28,46.28,0,0,1-4.66,2.42,45.84,45.84,0,0,1-5.82,2.09,18.14,18.14,0,0,1-2.09.52,9.35,9.35,0,0,1-1.74.18,4.16,4.16,0,0,1-3.4-1.3,5.49,5.49,0,0,1-1.08-3.62c0-.21,0-.41,0-.6s0-.4.07-.63a9.92,9.92,0,0,1,.73-3,31.51,31.51,0,0,1,1.53-3.34c.6-1.14,1.24-2.28,1.91-3.41s1.3-2.19,1.87-3.21,1.05-1.91,1.43-2.7a4.74,4.74,0,0,0,.57-1.93,1.7,1.7,0,0,0-.37-1.12,1.35,1.35,0,0,0-1.12-.46,9.45,9.45,0,0,0-5.34,1.67,24.76,24.76,0,0,0-4.73,4.1,48.18,48.18,0,0,0-4,5.17q-1.84,2.72-3.25,4.88a25.66,25.66,0,0,0-1.6,3.09c-.49,1.1-1,2.13-1.52,3.08A9.93,9.93,0,0,1,116,58.29a3.46,3.46,0,0,1-2.48,1,3.09,3.09,0,0,1-2.42-1,3.36,3.36,0,0,1-.88-2.37,8.15,8.15,0,0,1,.62-2.42c.41-1.11.93-2.4,1.58-3.87s1.37-3,2.17-4.72,1.61-3.35,2.42-5l2.31-4.68C120,33.74,120.6,32.49,121.07,31.46Z"/><path id="g" class="cls-1" d="M176.22,26.19a10.72,10.72,0,0,1,3.38.48,14.48,14.48,0,0,1,2.46,1.06,12,12,0,0,1,2,1.54,12.76,12.76,0,0,1,1.31-.75,10.28,10.28,0,0,1,1.37-.55,5.56,5.56,0,0,1,4.48.55,2.32,2.32,0,0,1,1.05,1.89,2.43,2.43,0,0,1-.3,1.14L181.71,51l.84-.75q5.19-3,8.52-4.77t5.32-2.57a20.93,20.93,0,0,1,2.84-1,7.34,7.34,0,0,1,1.07-.2,1.8,1.8,0,0,1,1.56.77,3.19,3.19,0,0,1,.55,1.91,5.41,5.41,0,0,1-.72,2.6,4.15,4.15,0,0,1-2.22,1.89c-1.32.67-2.86,1.4-4.62,2.17s-3.59,1.64-5.49,2.57-3.82,2-5.73,3.14a42,42,0,0,0-5.39,3.85L169.72,76c-.71,1.67-1.34,3-1.91,4.08a13.24,13.24,0,0,1-1.7,2.51,4.72,4.72,0,0,1-1.71,1.27,5.32,5.32,0,0,1-2,.35,3.3,3.3,0,0,1-2.7-1.18,4.33,4.33,0,0,1-1-2.86,12.31,12.31,0,0,1,.83-4.09,34,34,0,0,1,2.35-5,59.62,59.62,0,0,1,3.67-5.67c1.44-2,3-4,4.79-6l5.45-6.94a27.7,27.7,0,0,1-3.3,2.63,20.26,20.26,0,0,1-3.12,1.78,14.26,14.26,0,0,1-2.79,1,9.64,9.64,0,0,1-2.26.31,6.72,6.72,0,0,1-3.25-.81,7.81,7.81,0,0,1-2.57-2.27,11.27,11.27,0,0,1-1.69-3.42,14.48,14.48,0,0,1-.62-4.31,20,20,0,0,1,1.87-8.75,22,22,0,0,1,4.79-6.65,21.64,21.64,0,0,1,6.46-4.24A17.64,17.64,0,0,1,176.22,26.19Zm-1.67,7.74a8.36,8.36,0,0,0-4,1,12.45,12.45,0,0,0-3.43,2.72,13.57,13.57,0,0,0-2.37,3.89,12.05,12.05,0,0,0-.88,4.53,11.8,11.8,0,0,0,.11,1.51,4.38,4.38,0,0,0,.49,1.52,3,3,0,0,0,1.09,1.17,3.79,3.79,0,0,0,2,.46,4.15,4.15,0,0,0,2.18-.82,19.24,19.24,0,0,0,2.59-2.06A31.66,31.66,0,0,0,175,45.11c.85-1,1.61-2,2.3-3a22.53,22.53,0,0,0,1.65-2.61,4.37,4.37,0,0,0,.62-1.74A2.81,2.81,0,0,0,179,36.1a4.69,4.69,0,0,0-1.3-1.21,6.17,6.17,0,0,0-1.62-.72A5.72,5.72,0,0,0,174.55,33.93Z"/><path id="e" class="cls-1" d="M217.05,26.15c2.43,0,4.24.58,5.45,1.76a6.48,6.48,0,0,1,1.8,4.87,8.91,8.91,0,0,1-1,3.87A13.31,13.31,0,0,1,220,40.76,35.49,35.49,0,0,1,213.64,45a74.46,74.46,0,0,1-9.95,4.37,2.84,2.84,0,0,0,1.36,2,5.53,5.53,0,0,0,3,.73,17.68,17.68,0,0,0,4.33-.59A35.47,35.47,0,0,0,217,50c1.51-.62,3-1.28,4.42-2s2.73-1.4,3.89-2,2.12-1.2,2.9-1.67a16.91,16.91,0,0,1,1.56-.88,1.69,1.69,0,0,1,.72-.31,4.38,4.38,0,0,1,.59,0,1.5,1.5,0,0,1,.88.24,2.33,2.33,0,0,1,.6.57,2,2,0,0,1,.33.7,2.71,2.71,0,0,1,.08.64,6,6,0,0,1-.08,1,2.87,2.87,0,0,1-.66,1.25c-.15.14-.64.54-1.47,1.18s-1.92,1.41-3.23,2.29-2.85,1.81-4.6,2.79a54.56,54.56,0,0,1-5.53,2.7,43.53,43.53,0,0,1-6.09,2,24.66,24.66,0,0,1-6.24.82,10.22,10.22,0,0,1-8.15-3.74,12,12,0,0,1-2.18-4,14.73,14.73,0,0,1-.74-4.7,13.31,13.31,0,0,1,.74-4.16,21.8,21.8,0,0,1,2.16-4.55,27.17,27.17,0,0,1,3.45-4.46,25,25,0,0,1,4.59-3.84,23.73,23.73,0,0,1,5.6-2.68A20.49,20.49,0,0,1,217.05,26.15Zm-1.59,6.06a1.84,1.84,0,0,0-.39,0h-.4a7.46,7.46,0,0,0-3.12.66,11,11,0,0,0-2.66,1.73A14,14,0,0,0,206.74,37c-.63.91-1.19,1.81-1.69,2.7a23.18,23.18,0,0,0-1.25,2.58c-.34.82-.6,1.5-.77,2.06q1.53-.8,3.18-1.8c1.1-.67,2.14-1.32,3.1-1.93s1.81-1.18,2.53-1.67,1.22-.84,1.51-1a9.29,9.29,0,0,0,2.73-2.3,3.45,3.45,0,0,0,.75-1.87,1.36,1.36,0,0,0-.42-1A1.75,1.75,0,0,0,215.46,32.21Z"/><path id="d" class="cls-1" d="M255,49.22a.48.48,0,0,0-.05.22.48.48,0,0,1,0,.22,4,4,0,0,0,.39,1.65,1.33,1.33,0,0,0,1.28.85,1.34,1.34,0,0,0,.52-.08,20.35,20.35,0,0,0,5.08-2.38,50.21,50.21,0,0,0,4.94-3.56,54.72,54.72,0,0,0,4.38-4c1.33-1.35,2.44-2.55,3.31-3.61a1.79,1.79,0,0,1,1.37-.74,1.47,1.47,0,0,1,1.16.61,2.54,2.54,0,0,1,.51,1.67,5.57,5.57,0,0,1-.46,2,10.36,10.36,0,0,1-1.52,2.46c-1.73,1.9-3.5,3.74-5.32,5.49a53.59,53.59,0,0,1-5.49,4.68A29.76,29.76,0,0,1,259.56,58a13.09,13.09,0,0,1-5.38,1.23,6.89,6.89,0,0,1-5.05-1.82,7.4,7.4,0,0,1-1.85-5.48v-.46a3.42,3.42,0,0,1,0-.46,13.62,13.62,0,0,1-2.59,3.36,17.57,17.57,0,0,1-3.47,2.6,18.86,18.86,0,0,1-3.91,1.67,14.06,14.06,0,0,1-3.91.59,9.77,9.77,0,0,1-3-.44,5.81,5.81,0,0,1-2.35-1.41,6.5,6.5,0,0,1-1.54-2.46,10.36,10.36,0,0,1-.55-3.6,21.42,21.42,0,0,1,1.14-7,26.22,26.22,0,0,1,3-6.11,27.76,27.76,0,0,1,4.33-5,30.9,30.9,0,0,1,5-3.78A24.89,24.89,0,0,1,244.78,27a15.46,15.46,0,0,1,4.74-.84,10.13,10.13,0,0,1,4.31.84,6.05,6.05,0,0,1,1.62,1.18c.12-.26.24-.51.36-.74.29-.71.55-1.31.79-1.83s.39-.88.48-1.12.34-.88.75-1.84.88-2.11,1.43-3.41,1.12-2.7,1.75-4.2,1.21-2.9,1.74-4.22,1-2.45,1.36-3.4.62-1.56.7-1.82a11.88,11.88,0,0,1,.84-2.14,8.12,8.12,0,0,1,1.25-1.8A5.87,5.87,0,0,1,268.59.46a5,5,0,0,1,2.2-.46,4.88,4.88,0,0,1,2.77.73,3.11,3.11,0,0,1,1.1,2.79,6.92,6.92,0,0,1-.22,1.71q-.22.88-.51,1.71c-.19.56-.39,1.11-.61,1.65s-.42,1.05-.59,1.52q-2.21,4.39-4.62,9.56t-4.79,10.39q-2.37,5.22-4.53,10.19T255,49.22ZM253.7,32a17.79,17.79,0,0,0-5.54,1.14,19.76,19.76,0,0,0-6.11,3.4,20.48,20.48,0,0,0-4.68,5.56,16.93,16.93,0,0,0-2.17,7.56c0,1.17.49,1.76,1.49,1.76a8.39,8.39,0,0,0,3.52-.77,13.81,13.81,0,0,0,3.18-2.06,21.71,21.71,0,0,0,2.84-3,40,40,0,0,0,2.44-3.47c.74-1.2,1.42-2.4,2-3.58s1.12-2.3,1.56-3.32l.61-1.36C253.1,33.37,253.37,32.74,253.7,32Z"/></g></g></g></svg>