<svg xmlns="http://www.w3.org/2000/svg" viewBox="0 0 272.37 67.02"><defs><style>.cls-1{fill:#845349;}</style></defs><title>Asset 1</title><g id="Layer_2" data-name="Layer 2"><g id="teaser"><g id="howThe"><path id="h" class="cls-1" d="M58.14,45.62a2,2,0,0,0-.37,0l-.33,0q-2.16,4.83-3.81,8.48c-1.09,2.43-1.94,4.19-2.52,5.27a11.91,11.91,0,0,1-1.69,2.38,10.75,10.75,0,0,1-2,1.69,8.94,8.94,0,0,1-2.13,1,6.9,6.9,0,0,1-2,.33A3.85,3.85,0,0,1,41,64.16a2.26,2.26,0,0,1-.92-2,6.62,6.62,0,0,1,.7-2.68l6.33-13.4q-4.78.18-9.21.31c-2.94.08-5.78.16-8.5.22A82.05,82.05,0,0,1,25,54.56,42.92,42.92,0,0,1,20,61a23.62,23.62,0,0,1-5.49,4.37A12,12,0,0,1,8.53,67a8.3,8.3,0,0,1-4.4-1.23,4.62,4.62,0,0,1-1.34-1,9.4,9.4,0,0,1-1.34-1.74,11.41,11.41,0,0,1-1-2.2A7.15,7.15,0,0,1,0,58.45a4.7,4.7,0,0,1,.31-1.7,5.61,5.61,0,0,1,.88-1.55c.17-.21.38-.47.61-.8a7.19,7.19,0,0,1,.84-.94,5,5,0,0,1,1-.77,2.5,2.5,0,0,1,1.21-.31,2.32,2.32,0,0,1,.52.07,1.18,1.18,0,0,1,.49.24,2.67,2.67,0,0,1,.86,1.19c.27.61.58,1.25.92,1.91a10.78,10.78,0,0,0,1.12,1.78,1.79,1.79,0,0,0,1.45.79,4,4,0,0,0,2.39-.9A13.07,13.07,0,0,0,15.09,55a31.58,31.58,0,0,0,2.53-3.84c.85-1.5,1.7-3.12,2.55-4.88a3.64,3.64,0,0,1-2-1.25,2.91,2.91,0,0,1-.57-1.69,1.71,1.71,0,0,1,.4-1.06,3.7,3.7,0,0,1,1.1-.94,8.07,8.07,0,0,1,1.64-.73,7.94,7.94,0,0,1,2.09-.35q1.59-3.87,3-8c1-2.79,1.89-5.51,2.77-8.18s1.69-5.22,2.42-7.66S32.45,11.69,33,9.76,34,6.23,34.37,5s.57-2,.65-2.38a3.16,3.16,0,0,1,1.34-2A4,4,0,0,1,38.5,0a3.14,3.14,0,0,1,2.61,1.12c.6.75.9,2.1.9,4.07v.72a7.83,7.83,0,0,1,0,.81c-.06.77-.21,1.8-.44,3.1s-.54,2.81-.92,4.51-.86,3.56-1.41,5.6S38,24.09,37.33,26.3s-1.45,4.49-2.28,6.83-1.74,4.68-2.71,7h3l3.67,0,4.64.09,5.93.16a.15.15,0,0,1,.09,0l.09,0q3.86-8.13,7.33-15.32t6.38-12.56A78.89,78.89,0,0,1,68.6,4Q70.84.92,72.29.92a3.3,3.3,0,0,1,2.31.73,2.55,2.55,0,0,1,.77,2,4.14,4.14,0,0,1-.16,1.17,9.45,9.45,0,0,1-.42,1.12C74,7.73,73.07,10,71.89,12.7s-2.44,5.6-3.82,8.72-2.8,6.36-4.28,9.72-2.91,6.59-4.29,9.73a8,8,0,0,1,2.18.72,1.37,1.37,0,0,1,.85,1.21,2.4,2.4,0,0,1-1,1.83A5.77,5.77,0,0,1,58.14,45.62Z"/><path id="o" class="cls-1" d="M84.77,31.46a16.19,16.19,0,0,1,3.58.44,11.22,11.22,0,0,1,3.54,1.5,8.79,8.79,0,0,1,2.7,2.79,8,8,0,0,1,1.08,4.28,15.22,15.22,0,0,1-.35,3A23.76,23.76,0,0,1,94.26,47a2.5,2.5,0,0,0,1,.75A3.32,3.32,0,0,0,96.5,48a4.91,4.91,0,0,0,2-.53,15.33,15.33,0,0,0,2.3-1.36,28.09,28.09,0,0,0,2.38-1.89c.79-.7,1.54-1.41,2.24-2.11s1.34-1.37,1.91-2,1.05-1.16,1.43-1.6a1,1,0,0,1,.74-.31,1.37,1.37,0,0,1,1.1.64,2.81,2.81,0,0,1,.49,1.78,6.52,6.52,0,0,1-.68,2.63,9.82,9.82,0,0,1-2.53,3.12L105.51,49a32.06,32.06,0,0,1-2.9,2.81,18.38,18.38,0,0,1-3.21,2.24,6.78,6.78,0,0,1-3.34.93,7,7,0,0,1-2.22-.36,7.85,7.85,0,0,1-2.17-1.14A26.67,26.67,0,0,1,88.07,58a22.16,22.16,0,0,1-4.51,3.48A23,23,0,0,1,78.2,63.7a22.53,22.53,0,0,1-6.13.81A10.33,10.33,0,0,1,69.21,64a9.54,9.54,0,0,1-3.09-1.61,9.28,9.28,0,0,1-2.49-2.92,8.88,8.88,0,0,1-1-4.39,19.17,19.17,0,0,1,.57-4.22,28.07,28.07,0,0,1,1.74-5.08,32.66,32.66,0,0,1,2.94-5.18A23.17,23.17,0,0,1,72.11,36a20.53,20.53,0,0,1,5.63-3.29A18.84,18.84,0,0,1,84.77,31.46ZM82.48,39.2a8.22,8.22,0,0,0-4,1A12.14,12.14,0,0,0,75.12,43a13.79,13.79,0,0,0-2.35,3.82,11.48,11.48,0,0,0-.88,4.37A13.66,13.66,0,0,0,72,53a5.69,5.69,0,0,0,.55,1.84,3.76,3.76,0,0,0,1.2,1.43,3.54,3.54,0,0,0,2.11.57,8,8,0,0,0,3.94-1.07,12.67,12.67,0,0,0,3.4-2.82A13.86,13.86,0,0,0,85.61,49a12,12,0,0,0,.87-4.44,14.32,14.32,0,0,0-.11-1.82A4.83,4.83,0,0,0,85.85,41a3.42,3.42,0,0,0-1.21-1.3A4.06,4.06,0,0,0,82.48,39.2Z"/><path id="w" class="cls-1" d="M105,41.92q1.36-3,2.25-4.9a20.27,20.27,0,0,1,1.6-2.9,3.42,3.42,0,0,1,3.27-1.73A4.19,4.19,0,0,1,115,33.46a3.52,3.52,0,0,1,1.21,2.75,3.07,3.07,0,0,1-.11.79,4.69,4.69,0,0,1-.29.79l-7.47,17.67a3,3,0,0,0-.24.77,4.94,4.94,0,0,0-.06.68,1.32,1.32,0,0,0,.24.86.67.67,0,0,0,.5.28,2.37,2.37,0,0,0,1-.22,5.19,5.19,0,0,0,1.19-.77c.45-.36,1-.86,1.67-1.49s1.47-1.43,2.44-2.4a32.71,32.71,0,0,0,2.81-3.49c1-1.36,1.91-2.8,2.84-4.31s1.77-3,2.57-4.57,1.48-3,2.06-4.28a22.51,22.51,0,0,1,1.19-2.13,6.1,6.1,0,0,1,1-1.26,2.79,2.79,0,0,1,1-.59,4.6,4.6,0,0,1,1.23-.15c1.79,0,2.68.77,2.68,2.33a5.37,5.37,0,0,0-.11.79,3.11,3.11,0,0,1-.24,1l-6.85,20.26a1,1,0,0,0,1.1,1.1,6,6,0,0,0,2.08-.82,16.52,16.52,0,0,0,2.62-1.84,17,17,0,0,0,2.46-2.6,10.19,10.19,0,0,0,1.67-3c.64-1.93,1.3-3.88,1.95-5.84a51.29,51.29,0,0,1,2.11-5.34,18.59,18.59,0,0,1,2.42-4,4.21,4.21,0,0,1,2.88-1.69,3.13,3.13,0,0,1,2.31.9,3.17,3.17,0,0,1,.9,2.35,16.75,16.75,0,0,1-.46,3.69,31.48,31.48,0,0,1-1.21,4,28.2,28.2,0,0,1-1.78,3.82,33.23,33.23,0,0,1-2.13,3.34,1.22,1.22,0,0,0,1.27.92,18,18,0,0,0,6.18-1,26.72,26.72,0,0,0,2.85-1.21q1.43-.7,3-1.62a2.43,2.43,0,0,1,1.4-.49,2.32,2.32,0,0,1,2.29,2.38,3.09,3.09,0,0,1-.86,2,11,11,0,0,1-2.26,2,21.31,21.31,0,0,1-3.19,1.8,38.39,38.39,0,0,1-3.6,1.48,32.26,32.26,0,0,1-3.52,1,13.79,13.79,0,0,1-3,.37A10.58,10.58,0,0,1,137.72,57a24.68,24.68,0,0,1-6.39,5.63,13.24,13.24,0,0,1-6.75,1.93q-3.17,0-4.54-1.65a7.26,7.26,0,0,1-1.39-4.81,27,27,0,0,1-6.17,4.9,12.27,12.27,0,0,1-5.91,1.56,9.65,9.65,0,0,1-3.23-.46,5.22,5.22,0,0,1-2.09-1.3,4.64,4.64,0,0,1-1.12-2,8.62,8.62,0,0,1-.33-2.44,18.29,18.29,0,0,1,.61-4.55,43.28,43.28,0,0,1,1.48-4.64c.57-1.49,1.14-2.87,1.71-4.15S104.63,42.71,105,41.92Z"/><path id="t" class="cls-1" d="M187.16,39c-1.08,2.11-2.11,4.17-3.07,6.17s-1.88,3.86-2.73,5.56a25.67,25.67,0,0,0-1,2.44,7.25,7.25,0,0,0-.51,2.44,1.52,1.52,0,0,0,.29,1,1.16,1.16,0,0,0,.94.35,6.57,6.57,0,0,0,2.33-.55,26.39,26.39,0,0,0,3-1.45q1.62-.9,3.42-2.07c1.2-.77,2.38-1.58,3.54-2.41s2.26-1.67,3.32-2.51,2-1.6,2.81-2.3a2.33,2.33,0,0,1,1.32-.49,1.46,1.46,0,0,1,1.23.66,2.77,2.77,0,0,1,.48,1.67,5,5,0,0,1-.48,2.07,5.83,5.83,0,0,1-1.76,2.06q-2.85,2.59-5.78,4.92a57.56,57.56,0,0,1-5.8,4.11A32.8,32.8,0,0,1,183,63.46a15.51,15.51,0,0,1-5.45,1.05,8.1,8.1,0,0,1-2.94-.46,4.67,4.67,0,0,1-2.95-3.16,8.6,8.6,0,0,1-.3-2.31,15.08,15.08,0,0,1,.74-4.57,31.82,31.82,0,0,1,1.67-4.26l2.62-5.41c.86-1.79,1.71-3.5,2.53-5.14h-1.9a5.33,5.33,0,0,1-3.38-.79,2.35,2.35,0,0,1-.92-1.8,2.73,2.73,0,0,1,.28-1.08,4,4,0,0,1,.84-1.19,5.17,5.17,0,0,1,1.34-.94A3.91,3.91,0,0,1,177,33h4.75L191,14.59a5.71,5.71,0,0,1,2.18-2.4,5.46,5.46,0,0,1,2.7-.72,4.35,4.35,0,0,1,2.41.7,2.55,2.55,0,0,1,1.1,2.33,4.16,4.16,0,0,1-.37,1.69c-.25.57-.58,1.24-1,2-.26.5-.59,1.1-1,1.78l-1.2,2.2c-.43.78-.87,1.59-1.32,2.44s-.9,1.67-1.34,2.46c-1,1.88-2,3.85-3.17,5.93h14.33a16.22,16.22,0,0,1,1.93.11,4.68,4.68,0,0,1,1.52.44,2.54,2.54,0,0,1,1,.9,3,3,0,0,1,.35,1.54,3.27,3.27,0,0,1-.15,1,2.3,2.3,0,0,1-.57.88,3.48,3.48,0,0,1-1.15.66,7.42,7.42,0,0,1-1.87.35Z"/><path id="h-2" data-name="h" class="cls-1" d="M193.05,56.47c.7-1.49,1.51-3.16,2.42-5s1.82-3.65,2.74-5.45,1.8-3.51,2.62-5.14,1.51-3,2.06-4.15L217.4,8.22a3.5,3.5,0,0,1,.81-1.1,7.09,7.09,0,0,1,1.25-1,7.76,7.76,0,0,1,1.5-.66,5.36,5.36,0,0,1,1.58-.24,3.8,3.8,0,0,1,2.68.73A2.38,2.38,0,0,1,226,7.78a5.06,5.06,0,0,1-.49,2,13.19,13.19,0,0,1-1.1,2q-1.92,3.3-3.71,6.66c-1.19,2.24-2.37,4.5-3.56,6.77s-2.38,4.52-3.58,6.76-2.46,4.46-3.78,6.66c.82-.79,1.69-1.61,2.62-2.46a21.73,21.73,0,0,1,3-2.33,16.55,16.55,0,0,1,3.56-1.73,12.68,12.68,0,0,1,4.3-.69,12.89,12.89,0,0,1,2.68.27,6.87,6.87,0,0,1,2.24.85,4.31,4.31,0,0,1,1.54,1.63,5.17,5.17,0,0,1,.57,2.53,10.49,10.49,0,0,1-.59,3.62,15.53,15.53,0,0,1-1.52,3.12,25.4,25.4,0,0,1-2,2.82c-.73.89-1.43,1.8-2.09,2.72a20,20,0,0,0-1.71,2.88,9.73,9.73,0,0,0-.9,3.25,1.1,1.1,0,0,1,0,.18.5.5,0,0,0,0,.17c0,.59.19,1,.59,1.1a4.33,4.33,0,0,0,1.52.22,7.82,7.82,0,0,0,2.54-.46,17,17,0,0,0,2.75-1.23,30.1,30.1,0,0,0,2.77-1.74c.92-.64,1.8-1.3,2.64-2s1.6-1.33,2.3-2,1.31-1.18,1.8-1.65a2.91,2.91,0,0,1,.84-.52,2.18,2.18,0,0,1,.83-.18,1.8,1.8,0,0,1,1.35.59,2.31,2.31,0,0,1,.55,1.61,4.66,4.66,0,0,1-.64,2.11,7.84,7.84,0,0,1-2.18,2.37c-1.61,1.41-3.25,2.75-4.92,4a48.42,48.42,0,0,1-5,3.43A27.88,27.88,0,0,1,224,63.63a14.86,14.86,0,0,1-4.94.88,8.05,8.05,0,0,1-5-1.43,5.27,5.27,0,0,1-1.89-4.5,11.52,11.52,0,0,1,.77-4.24,24.7,24.7,0,0,1,1.89-3.87c.74-1.24,1.54-2.44,2.39-3.6a36.14,36.14,0,0,0,2.24-3.41,9.72,9.72,0,0,0,.82-1.38,3.56,3.56,0,0,0,.28-1.39,1.62,1.62,0,0,0-.35-1.07,1.36,1.36,0,0,0-1.1-.42,9.38,9.38,0,0,0-4.79,1.27,17.7,17.7,0,0,0-4,3.26,34.27,34.27,0,0,0-3.43,4.32q-1.59,2.36-2.94,4.51-.61,1-1.26,2.22l-1.31,2.57c-.46.88-.94,1.75-1.43,2.61a17.85,17.85,0,0,1-1.56,2.31,8.41,8.41,0,0,1-1.72,1.63,3.25,3.25,0,0,1-1.86.61,3.09,3.09,0,0,1-2.38-.9,3.21,3.21,0,0,1-.83-2.26,6.87,6.87,0,0,1,.35-2.13A19.4,19.4,0,0,1,193.05,56.47Z"/><path id="e" class="cls-1" d="M256.46,31.42c2.44,0,4.25.59,5.45,1.76a6.47,6.47,0,0,1,1.8,4.88,9,9,0,0,1-1,3.86A13.45,13.45,0,0,1,259.41,46a36,36,0,0,1-6.35,4.27,75.77,75.77,0,0,1-9.95,4.37,2.86,2.86,0,0,0,1.36,2,5.62,5.62,0,0,0,3,.72,17.68,17.68,0,0,0,4.33-.59,35.47,35.47,0,0,0,4.57-1.52q2.27-.91,4.41-2c1.44-.71,2.74-1.4,3.9-2s2.12-1.2,2.9-1.67,1.29-.76,1.55-.88a1.92,1.92,0,0,1,.73-.31,4.38,4.38,0,0,1,.59,0,1.52,1.52,0,0,1,.88.24,2.51,2.51,0,0,1,.6.57,2,2,0,0,1,.33.71,3.37,3.37,0,0,1,.08.63,7.27,7.27,0,0,1-.08.95,2.87,2.87,0,0,1-.66,1.25c-.15.15-.64.54-1.48,1.19s-1.91,1.4-3.23,2.28S264.07,58,262.33,59a55.88,55.88,0,0,1-5.54,2.71,43,43,0,0,1-6.08,2,25.1,25.1,0,0,1-6.24.81,10.25,10.25,0,0,1-8.15-3.73,12,12,0,0,1-2.18-4,14.69,14.69,0,0,1-.75-4.7,13.28,13.28,0,0,1,.75-4.15,22,22,0,0,1,2.15-4.55A27.86,27.86,0,0,1,239.74,39a25.89,25.89,0,0,1,4.6-3.85,24.13,24.13,0,0,1,5.6-2.68A20.71,20.71,0,0,1,256.46,31.42Zm-1.58,6.07a2,2,0,0,0-.39-.05h-.4a7.46,7.46,0,0,0-3.12.66,10.52,10.52,0,0,0-2.66,1.74,13.62,13.62,0,0,0-2.15,2.44,28.51,28.51,0,0,0-1.69,2.7,24.19,24.19,0,0,0-1.26,2.57c-.33.82-.59,1.51-.76,2.06q1.53-.78,3.18-1.8c1.1-.67,2.13-1.32,3.1-1.93s1.81-1.17,2.53-1.67,1.22-.84,1.51-1a9.3,9.3,0,0,0,2.73-2.31,3.43,3.43,0,0,0,.74-1.87,1.36,1.36,0,0,0-.41-1.05A1.76,1.76,0,0,0,254.88,37.49Z"/></g></g></g></svg>