<?xml version="1.0" encoding="utf-8"?>
<!-- Generator: Adobe Illustrator 24.1.1, SVG Export Plug-In . SVG Version: 6.00 Build 0)  -->
<svg version="1.1" id="teaser" xmlns="http://www.w3.org/2000/svg" xmlns:xlink="http://www.w3.org/1999/xlink" x="0px" y="0px"
	 viewBox="0 0 1920 1080" style="enable-background:new 0 0 1920 1080;" xml:space="preserve">
<style type="text/css">
	.st0{fill:#333333;}
	.st1{fill:#845349;}
	.st2{fill:#CB5349;}
	.st3{fill:#F8E9A1;}
</style>
<g id="background">
	<rect x="2.11" y="0" class="st0" width="1920" height="1080"/>
</g>
<g id="lightbulb">
	<rect id="string" x="273.73" y="380.02" class="st1" width="1376.75" height="5"/>
	<rect id="string_1_" x="273.73" y="433.02" class="st1" width="1376.75" height="5"/>
	<path id="lightbulbFont_9_" class="st2" d="M381.68,328.31c0-2.2,1.76-4.18,4.18-4.18h20.24c2.2,0,4.18,1.98,4.18,4.18v123.42h56.1
		c2.42,0,4.18,1.98,4.18,4.18v18.04c0,2.2-1.76,4.18-4.18,4.18h-80.52c-2.42,0-4.18-1.98-4.18-4.18V328.31z"/>
	<path id="lightbulbFont_8_" class="st2" d="M492.78,328.31c0-2.2,1.98-4.18,4.18-4.18h20.46c2.2,0,4.18,1.98,4.18,4.18v145.64
		c0,2.2-1.98,4.18-4.18,4.18h-20.46c-2.2,0-4.18-1.98-4.18-4.18V328.31z"/>
	<path id="lightbulbFont_7_" class="st2" d="M629.62,321.93c19.8,0,38.72,7.7,53.68,20.46c1.76,1.76,1.98,4.4,0.22,6.16l-13.64,14.3
		c-1.76,1.76-3.74,1.76-5.72,0c-9.46-8.36-21.12-12.76-33.22-12.76c-27.5,0-49.28,23.54-49.28,51.04c0,27.28,21.78,50.38,49.5,50.38
		c12.32,0,21.78-3.74,26.18-5.5v-18.7h-17.6c-2.42,0-4.18-1.76-4.18-3.96v-17.38c0-2.42,1.76-4.18,4.18-4.18h42.24
		c2.2,0,3.96,1.98,3.96,4.18v56.32c0,1.76-0.88,2.86-1.76,3.52c0,0-22.66,14.3-54.56,14.3c-43.78,0-78.98-34.76-78.98-78.76
		C550.63,357.35,585.83,321.93,629.62,321.93z"/>
	<path id="lightbulbFont_6_" class="st2" d="M718.27,328.31c0-2.2,1.98-4.18,4.18-4.18h20.46c2.42,0,4.18,1.98,4.18,4.18v58.3h71.72
		v-58.3c0-2.2,1.76-4.18,4.18-4.18h20.24c2.2,0,4.18,1.98,4.18,4.18v145.64c0,2.2-1.98,4.18-4.18,4.18h-20.24
		c-2.42,0-4.18-1.98-4.18-4.18v-60.72h-71.72v60.72c0,2.2-1.76,4.18-4.18,4.18h-20.46c-2.2,0-4.18-1.98-4.18-4.18V328.31z"/>
	<path id="lightbulbFont_5_" class="st2" d="M908.13,350.53h-33.66c-2.42,0-4.18-1.98-4.18-4.18v-18.04c0-2.2,1.76-4.18,4.18-4.18
		h96.14c2.42,0,4.18,1.98,4.18,4.18v18.04c0,2.2-1.76,4.18-4.18,4.18h-33.66v123.42c0,2.2-1.98,4.18-4.18,4.18h-20.46
		c-2.2,0-4.18-1.98-4.18-4.18V350.53z"/>
	<path id="lightbulbFont_4_" class="st2" d="M1046.29,328.31c0-2.2,1.76-4.18,4.18-4.18h50.38c26.18,0,46.42,17.6,46.42,40.7
		c0,16.94-13.86,30.14-24.2,34.98c11.66,3.74,28.6,15.62,28.6,35.86c0,24.64-21.12,42.46-47.96,42.46h-53.24
		c-2.42,0-4.18-1.98-4.18-4.18V328.31z M1098.21,388.81c11.22,0,18.92-8.8,18.92-19.8s-7.7-18.7-18.92-18.7h-23.54v38.5H1098.21z
		 M1101.29,452.17c11,0,19.8-8.58,19.8-20.02c0-11-11-19.14-22.44-19.14h-23.98v39.16H1101.29z"/>
	<path id="lightbulbFont_3_" class="st2" d="M1179.83,328.31c0-2.2,1.98-4.18,4.18-4.18h20.9c2.42,0,4.18,1.98,4.18,4.18v89.98
		c0,18.7,12.76,33.44,31.9,33.44c19.14,0,32.12-14.74,32.12-33.22v-90.2c0-2.2,1.76-4.18,4.18-4.18h20.9c2.2,0,4.18,1.98,4.18,4.18
		v91.52c0,33.44-26.62,60.5-61.38,60.5c-34.54,0-61.16-27.06-61.16-60.5V328.31z"/>
	<path id="lightbulbFont_2_" class="st2" d="M1340.21,328.31c0-2.2,1.76-4.18,4.18-4.18h20.24c2.2,0,4.18,1.98,4.18,4.18v123.42
		h56.1c2.42,0,4.18,1.98,4.18,4.18v18.04c0,2.2-1.76,4.18-4.18,4.18h-80.52c-2.42,0-4.18-1.98-4.18-4.18V328.31z"/>
	<path id="lightbulbFont_1_" class="st2" d="M1451.3,328.31c0-2.2,1.76-4.18,4.18-4.18h50.38c26.18,0,46.42,17.6,46.42,40.7
		c0,16.94-13.86,30.14-24.2,34.98c11.66,3.74,28.6,15.62,28.6,35.86c0,24.64-21.12,42.46-47.96,42.46h-53.24
		c-2.42,0-4.18-1.98-4.18-4.18V328.31z M1503.22,388.81c11.22,0,18.92-8.8,18.92-19.8s-7.7-18.7-18.92-18.7h-23.54v38.5H1503.22z
		 M1506.3,452.17c11,0,19.8-8.58,19.8-20.02c0-11-11-19.14-22.44-19.14h-23.98v39.16H1506.3z"/>
	<g id="light">
		<g id="light_90_">
			<circle class="st3" cx="504.22" cy="339.98" r="9.5"/>
		</g>
		<g id="light_89_">
			<circle class="st3" cx="504.22" cy="369.73" r="9.5"/>
		</g>
		<g id="light_88_">
			<circle class="st3" cx="504.22" cy="399.48" r="9.5"/>
		</g>
		<g id="light_87_">
			<circle class="st3" cx="504.22" cy="429.23" r="9.5"/>
		</g>
		<g id="light_86_">
			<circle class="st3" cx="504.22" cy="458.98" r="9.5"/>
		</g>
		<g id="light_85_">
			<circle class="st3" cx="395.23" cy="339.98" r="9.5"/>
		</g>
		<g id="light_84_">
			<circle class="st3" cx="395.23" cy="370.73" r="9.5"/>
		</g>
		<g id="light_83_">
			<circle class="st3" cx="395.23" cy="401.48" r="9.5"/>
		</g>
		<g id="light_82_">
			<circle class="st3" cx="395.23" cy="432.23" r="9.5"/>
		</g>
		<g id="light_81_">
			<circle class="st3" cx="395.23" cy="462.98" r="9.5"/>
		</g>
		<g id="light_80_">
			<circle class="st3" cx="730.71" cy="339.98" r="9.5"/>
		</g>
		<g id="light_79_">
			<circle class="st3" cx="730.71" cy="369.73" r="9.5"/>
		</g>
		<g id="light_78_">
			<circle class="st3" cx="730.71" cy="398" r="9.5"/>
		</g>
		<g id="light_77_">
			<circle class="st3" cx="730.71" cy="429.23" r="9.5"/>
		</g>
		<g id="light_76_">
			<circle class="st3" cx="730.71" cy="458.98" r="9.5"/>
		</g>
		<g id="light_75_">
			<circle class="st3" cx="831.69" cy="339.98" r="9.5"/>
		</g>
		<g id="light_74_">
			<circle class="st3" cx="831.69" cy="369.73" r="9.5"/>
		</g>
		<g id="light_73_">
			<circle class="st3" cx="831.69" cy="398" r="9.5"/>
		</g>
		<g id="light_72_">
			<circle class="st3" cx="831.69" cy="429.23" r="9.5"/>
		</g>
		<g id="light_71_">
			<circle class="st3" cx="831.69" cy="458.98" r="9.5"/>
		</g>
		<g id="light_70_">
			<circle class="st3" cx="921.67" cy="334.98" r="9.5"/>
		</g>
		<g id="light_69_">
			<circle class="st3" cx="921.67" cy="364.73" r="9.5"/>
		</g>
		<g id="light_68_">
			<circle class="st3" cx="921.67" cy="394.48" r="9.5"/>
		</g>
		<g id="light_67_">
			<circle class="st3" cx="921.67" cy="424.23" r="9.5"/>
		</g>
		<g id="light_66_">
			<circle class="st3" cx="921.67" cy="453.98" r="9.5"/>
		</g>
		<g id="light_65_">
			<circle class="st3" cx="1353.41" cy="339.98" r="9.5"/>
		</g>
		<g id="light_63_">
			<circle class="st3" cx="1353.41" cy="369.73" r="9.5"/>
		</g>
		<g id="light_64_">
			<circle class="st3" cx="1353.41" cy="399.48" r="9.5"/>
		</g>
		<g id="light_62_">
			<circle class="st3" cx="1353.41" cy="431.23" r="9.5"/>
		</g>
		<g id="light_61_">
			<circle class="st3" cx="1353.41" cy="461.98" r="9.5"/>
		</g>
		<g id="light_60_">
			<circle class="st3" cx="452.23" cy="462.98" r="9.5"/>
		</g>
		<g id="light_59_">
			<circle class="st3" cx="423.73" cy="462.98" r="9.5"/>
		</g>
		<g id="light_58_">
			<circle class="st3" cx="646.23" cy="411.52" r="9.5"/>
		</g>
		<g id="light_57_">
			<circle class="st3" cx="670.9" cy="411.52" r="9.5"/>
		</g>
		<g id="light_56_">
			<circle class="st3" cx="670.9" cy="437.52" r="9.5"/>
		</g>
		<g id="light_55_">
			<circle class="st3" cx="657.23" cy="458.52" r="9.5"/>
		</g>
		<g id="light_54_">
			<circle class="st3" cx="632.23" cy="462.52" r="9.5"/>
		</g>
		<g id="light_53_">
			<circle class="st3" cx="604.73" cy="456.52" r="9.5"/>
		</g>
		<g id="light_52_">
			<circle class="st3" cx="579.73" cy="438.52" r="9.5"/>
		</g>
		<g id="light_51_">
			<circle class="st3" cx="567.23" cy="411.52" r="9.5"/>
		</g>
		<g id="light_50_">
			<circle class="st3" cx="567.23" cy="380.52" r="9.5"/>
		</g>
		<g id="light_49_">
			<circle class="st3" cx="579.73" cy="353.52" r="9.5"/>
		</g>
		<g id="light_48_">
			<circle class="st3" cx="604.73" cy="337.52" r="9.5"/>
		</g>
		<g id="light_47_">
			<circle class="st3" cx="636.23" cy="334.52" r="9.5"/>
		</g>
		<g id="light_46_">
			<circle class="st3" cx="666.9" cy="343.52" r="9.5"/>
		</g>
		<g id="light_45_">
			<circle class="st3" cx="762.23" cy="398" r="9.5"/>
		</g>
		<g id="light_44_">
			<circle class="st3" cx="796.23" cy="398" r="9.5"/>
		</g>
		<g id="light_43_">
			<circle class="st3" cx="887.23" cy="334.98" r="9.5"/>
		</g>
		<g id="light_42_">
			<circle class="st3" cx="953.23" cy="334.98" r="9.5"/>
		</g>
		<g id="light_41_">
			<circle class="st3" cx="1383.82" cy="461.98" r="9.5"/>
		</g>
		<g id="light_40_">
			<circle class="st3" cx="1413.23" cy="461.98" r="9.5"/>
		</g>
		<g id="light_39_">
			<circle class="st3" cx="1094.23" cy="398.86" r="9.5"/>
		</g>
		<g id="light_38_">
			<circle class="st3" cx="1091.23" cy="336.36" r="9.5"/>
		</g>
		<g id="light_37_">
			<circle class="st3" cx="1091.23" cy="462.36" r="9.5"/>
		</g>
		<g id="light_36_">
			<circle class="st3" cx="1120.23" cy="454.36" r="9.5"/>
		</g>
		<g id="light_35_">
			<circle class="st3" cx="1134.23" cy="433.36" r="9.5"/>
		</g>
		<g id="light_34_">
			<circle class="st3" cx="1129.23" cy="360.36" r="9.5"/>
		</g>
		<g id="light_33_">
			<circle class="st3" cx="1114.23" cy="341.36" r="9.5"/>
		</g>
		<g id="light_32_">
			<circle class="st3" cx="1123.23" cy="384.36" r="9.5"/>
		</g>
		<g id="light_31_">
			<circle class="st3" cx="1124.23" cy="411.36" r="9.5"/>
		</g>
		<g id="light_30_">
			<circle class="st3" cx="1060.54" cy="339.82" r="9.5"/>
		</g>
		<g id="light_29_">
			<circle class="st3" cx="1060.54" cy="369.57" r="9.5"/>
		</g>
		<g id="light_28_">
			<circle class="st3" cx="1060.54" cy="399.32" r="9.5"/>
		</g>
		<g id="light_27_">
			<circle class="st3" cx="1060.54" cy="429.07" r="9.5"/>
		</g>
		<g id="light_26_">
			<circle class="st3" cx="1060.54" cy="458.82" r="9.5"/>
		</g>
		<g id="light_25_">
			<circle class="st3" cx="1497.75" cy="398.86" r="9.5"/>
		</g>
		<g id="light_24_">
			<circle class="st3" cx="1494.75" cy="336.36" r="9.5"/>
		</g>
		<g id="light_23_">
			<circle class="st3" cx="1494.75" cy="462.36" r="9.5"/>
		</g>
		<g id="light_22_">
			<circle class="st3" cx="1523.75" cy="454.36" r="9.5"/>
		</g>
		<g id="light_21_">
			<circle class="st3" cx="1537.75" cy="433.36" r="9.5"/>
		</g>
		<g id="light_20_">
			<circle class="st3" cx="1532.75" cy="360.36" r="9.5"/>
		</g>
		<g id="light_19_">
			<circle class="st3" cx="1517.75" cy="341.36" r="9.5"/>
		</g>
		<g id="light_18_">
			<circle class="st3" cx="1526.75" cy="384.36" r="9.5"/>
		</g>
		<g id="light_17_">
			<circle class="st3" cx="1527.75" cy="411.36" r="9.5"/>
		</g>
		<g id="light_16_">
			<circle class="st3" cx="1464.06" cy="339.82" r="9.5"/>
		</g>
		<g id="light_15_">
			<circle class="st3" cx="1464.06" cy="369.57" r="9.5"/>
		</g>
		<g id="light_14_">
			<circle class="st3" cx="1464.06" cy="399.32" r="9.5"/>
		</g>
		<g id="light_13_">
			<circle class="st3" cx="1464.06" cy="429.07" r="9.5"/>
		</g>
		<g id="light_12_">
			<circle class="st3" cx="1464.06" cy="458.82" r="9.5"/>
		</g>
		<g id="light_11_">
			<circle class="st3" cx="1193.43" cy="336.82" r="9.5"/>
		</g>
		<g id="light_10_">
			<circle class="st3" cx="1193.43" cy="366.57" r="9.5"/>
		</g>
		<g id="light_9_">
			<circle class="st3" cx="1193.43" cy="396.32" r="9.5"/>
		</g>
		<g id="light_8_">
			<circle class="st3" cx="1194.43" cy="428.07" r="9.5"/>
		</g>
		<g id="light_7_">
			<circle class="st3" cx="1286.46" cy="336.82" r="9.5"/>
		</g>
		<g id="light_6_">
			<circle class="st3" cx="1286.46" cy="366.57" r="9.5"/>
		</g>
		<g id="light_5_">
			<circle class="st3" cx="1286.46" cy="396.32" r="9.5"/>
		</g>
		<g id="light_4_">
			<circle class="st3" cx="1286.46" cy="428.07" r="9.5"/>
		</g>
		<g id="light_3_">
			<circle class="st3" cx="1240.45" cy="463.52" r="9.5"/>
		</g>
		<g id="light_2_">
			<circle class="st3" cx="1209.44" cy="454.52" r="9.5"/>
		</g>
		<g id="light_1_">
			<circle class="st3" cx="1270.45" cy="454.52" r="9.5"/>
		</g>
	</g>
</g>
<g id="howThe">
	<path id="h" class="st1" d="M895.17,235.06c-0.15,0-0.27,0.01-0.37,0.02c-0.1,0.01-0.21,0.02-0.33,0.02
		c-1.44,3.22-2.7,6.05-3.8,8.48s-1.94,4.19-2.53,5.27c-0.5,0.91-1.06,1.7-1.69,2.37c-0.63,0.67-1.3,1.24-2,1.69
		c-0.7,0.45-1.41,0.79-2.13,1.01c-0.72,0.22-1.38,0.33-2,0.33c-0.91,0-1.67-0.22-2.29-0.66s-0.92-1.1-0.92-1.98
		c0-0.76,0.23-1.66,0.7-2.68l6.33-13.4c-3.19,0.12-6.26,0.22-9.21,0.31s-5.78,0.16-8.5,0.22c-1.38,2.81-2.86,5.46-4.44,7.93
		c-1.58,2.48-3.25,4.64-5.01,6.48s-3.59,3.3-5.49,4.37c-1.9,1.07-3.88,1.6-5.93,1.6c-1.58,0-3.05-0.41-4.39-1.23
		c-0.41-0.18-0.86-0.51-1.34-0.99c-0.48-0.48-0.93-1.06-1.34-1.74s-0.75-1.41-1.03-2.2s-0.42-1.6-0.42-2.42
		c0-0.59,0.1-1.15,0.31-1.69c0.21-0.54,0.5-1.06,0.88-1.56c0.18-0.21,0.38-0.47,0.62-0.79s0.51-0.64,0.84-0.94
		c0.32-0.31,0.67-0.56,1.03-0.77s0.77-0.31,1.21-0.31c0.18,0,0.35,0.02,0.53,0.07c0.18,0.04,0.34,0.13,0.48,0.24
		c0.29,0.18,0.58,0.57,0.86,1.19s0.59,1.25,0.92,1.91c0.34,0.66,0.71,1.25,1.12,1.78c0.41,0.53,0.89,0.79,1.45,0.79
		c0.79,0,1.59-0.3,2.4-0.9c0.81-0.6,1.63-1.43,2.46-2.5s1.68-2.35,2.53-3.85s1.7-3.12,2.55-4.88c-0.94-0.29-1.6-0.71-1.98-1.25
		c-0.38-0.54-0.57-1.11-0.57-1.69c0-0.35,0.13-0.7,0.4-1.05s0.63-0.67,1.1-0.95c0.47-0.28,1.02-0.52,1.65-0.72
		c0.63-0.21,1.33-0.32,2.09-0.35c1.05-2.58,2.06-5.26,3.03-8.04s1.89-5.51,2.77-8.17s1.68-5.22,2.42-7.67
		c0.73-2.45,1.38-4.64,1.93-6.57s1.01-3.53,1.36-4.79s0.57-2.05,0.66-2.37c0.23-0.91,0.68-1.57,1.34-1.98s1.37-0.62,2.13-0.62
		c1.14,0,2.01,0.37,2.61,1.12c0.6,0.75,0.9,2.1,0.9,4.07c0,0.23,0,0.48,0,0.73s-0.02,0.52-0.04,0.81c-0.06,0.76-0.21,1.79-0.44,3.1
		c-0.23,1.3-0.54,2.81-0.92,4.5c-0.38,1.7-0.85,3.57-1.41,5.6c-0.56,2.04-1.18,4.16-1.87,6.37s-1.45,4.49-2.29,6.83
		s-1.74,4.67-2.7,6.99c0.91,0,1.9,0,2.99,0c1.08,0,2.31,0.01,3.67,0.02c1.36,0.02,2.91,0.04,4.64,0.09c1.73,0.04,3.71,0.1,5.93,0.15
		c0.03,0,0.06,0.01,0.09,0.02c0.03,0.02,0.06,0.02,0.09,0.02c2.58-5.42,5.02-10.52,7.34-15.32c2.31-4.79,4.44-8.98,6.37-12.57
		c1.93-3.59,3.65-6.42,5.14-8.5s2.72-3.12,3.69-3.12c1.03,0,1.79,0.24,2.31,0.72c0.51,0.48,0.77,1.14,0.77,1.96
		c0,0.44-0.05,0.83-0.15,1.17s-0.24,0.71-0.42,1.12c-0.76,1.85-1.73,4.12-2.9,6.81c-1.17,2.7-2.45,5.6-3.82,8.72
		c-1.38,3.12-2.8,6.36-4.28,9.71s-2.91,6.6-4.28,9.73c0.88,0.18,1.6,0.42,2.17,0.73c0.57,0.31,0.86,0.71,0.86,1.21
		c0,0.64-0.34,1.25-1.01,1.82C897.88,234.65,896.75,234.98,895.17,235.06z"/>
	<path id="o" class="st1" d="M921.8,220.91c1.11,0,2.31,0.15,3.58,0.44s2.45,0.79,3.54,1.49s1.98,1.63,2.7,2.79
		c0.72,1.16,1.08,2.59,1.08,4.29c0,0.88-0.12,1.88-0.35,3.01c-0.23,1.13-0.59,2.31-1.05,3.54c0.29,0.35,0.63,0.6,1.01,0.75
		c0.38,0.15,0.79,0.22,1.23,0.22c0.62,0,1.3-0.18,2.04-0.53s1.52-0.81,2.31-1.36s1.58-1.19,2.37-1.89s1.54-1.41,2.24-2.11
		s1.34-1.37,1.91-2s1.05-1.17,1.43-1.6c0.2-0.21,0.45-0.31,0.75-0.31c0.41,0,0.78,0.21,1.1,0.64c0.32,0.43,0.48,1.02,0.48,1.78
		s-0.23,1.64-0.68,2.64s-1.3,2.04-2.53,3.12c-0.7,0.76-1.51,1.64-2.42,2.64s-1.88,1.93-2.9,2.81s-2.09,1.63-3.21,2.24
		c-1.11,0.62-2.23,0.92-3.34,0.92c-0.76,0-1.5-0.12-2.22-0.35s-1.44-0.62-2.17-1.14c-1.05,1.64-2.26,3.13-3.6,4.48
		c-1.35,1.35-2.85,2.5-4.5,3.47s-3.44,1.72-5.36,2.26c-1.92,0.54-3.96,0.81-6.13,0.81c-0.82,0-1.77-0.16-2.86-0.48
		s-2.12-0.86-3.1-1.6c-0.98-0.75-1.81-1.72-2.48-2.92c-0.67-1.2-1.01-2.67-1.01-4.39c0-1.17,0.19-2.58,0.57-4.22
		c0.38-1.64,0.96-3.33,1.74-5.08s1.76-3.47,2.94-5.19c1.19-1.71,2.6-3.25,4.24-4.62c1.64-1.36,3.52-2.46,5.63-3.29
		C916.87,221.33,919.22,220.91,921.8,220.91z M919.51,228.65c-1.38,0-2.7,0.34-3.98,1.03c-1.27,0.69-2.4,1.6-3.38,2.72
		c-0.98,1.13-1.76,2.4-2.35,3.82c-0.59,1.42-0.88,2.88-0.88,4.37c0,0.56,0.04,1.17,0.13,1.82c0.09,0.66,0.27,1.28,0.55,1.85
		c0.28,0.57,0.68,1.05,1.21,1.43s1.23,0.57,2.11,0.57c1.35,0,2.66-0.36,3.93-1.08s2.41-1.66,3.41-2.81c1-1.16,1.79-2.47,2.37-3.93
		c0.59-1.46,0.88-2.94,0.88-4.44c0-0.59-0.04-1.19-0.11-1.82s-0.25-1.21-0.53-1.74s-0.68-0.96-1.21-1.3
		C921.14,228.82,920.42,228.65,919.51,228.65z"/>
	<path id="w" class="st1" d="M942.01,231.37c0.91-2.02,1.66-3.65,2.24-4.9c0.59-1.25,1.12-2.21,1.6-2.9s0.97-1.15,1.45-1.38
		s1.09-0.35,1.82-0.35c1.11,0,2.07,0.36,2.88,1.08c0.81,0.72,1.21,1.63,1.21,2.75c0,0.26-0.04,0.53-0.11,0.79s-0.17,0.53-0.29,0.79
		l-7.47,17.67c-0.12,0.23-0.2,0.49-0.24,0.77c-0.04,0.28-0.07,0.51-0.07,0.68c0,0.38,0.08,0.67,0.24,0.86s0.33,0.29,0.5,0.29
		c0.32,0,0.65-0.07,0.99-0.22s0.73-0.4,1.19-0.77c0.45-0.37,1.01-0.86,1.67-1.49s1.47-1.43,2.44-2.4c0.91-0.97,1.85-2.13,2.81-3.49
		c0.97-1.36,1.91-2.8,2.83-4.31s1.78-3.03,2.57-4.57c0.79-1.54,1.48-2.97,2.07-4.29c0.44-0.88,0.83-1.59,1.19-2.13
		s0.7-0.96,1.03-1.25c0.34-0.29,0.68-0.49,1.03-0.59s0.76-0.15,1.23-0.15c1.79,0,2.68,0.78,2.68,2.33c-0.06,0.23-0.09,0.5-0.11,0.79
		c-0.02,0.29-0.1,0.63-0.24,1.01l-6.86,20.26c0,0.73,0.37,1.1,1.1,1.1c0.53-0.06,1.22-0.33,2.09-0.81c0.86-0.48,1.74-1.1,2.61-1.85
		c0.88-0.75,1.7-1.61,2.46-2.59c0.76-0.98,1.32-2,1.67-3.05c0.64-1.93,1.3-3.88,1.96-5.84s1.36-3.74,2.11-5.34
		c0.75-1.6,1.55-2.91,2.42-3.96c0.86-1.04,1.82-1.6,2.88-1.69c0.94,0,1.71,0.3,2.31,0.9c0.6,0.6,0.9,1.38,0.9,2.35
		c0,1.14-0.15,2.37-0.46,3.69s-0.71,2.64-1.21,3.96s-1.09,2.59-1.78,3.82c-0.69,1.23-1.4,2.34-2.13,3.34
		c0.2,0.62,0.63,0.92,1.27,0.92c1.14,0,2.22-0.09,3.23-0.26s1.99-0.43,2.94-0.77c0.95-0.34,1.9-0.74,2.86-1.21
		c0.95-0.47,1.94-1.01,2.97-1.63c0.47-0.32,0.94-0.48,1.41-0.48c0.59,0,1.11,0.22,1.58,0.66c0.47,0.44,0.7,1.01,0.7,1.71
		c0,0.64-0.29,1.3-0.86,1.98s-1.33,1.33-2.26,1.98s-2,1.25-3.19,1.8s-2.39,1.05-3.6,1.47c-1.22,0.42-2.39,0.76-3.52,1.01
		c-1.13,0.25-2.12,0.37-2.97,0.37c-1.64,0-3.32-0.47-5.05-1.41c-2.05,2.46-4.18,4.34-6.39,5.63c-2.21,1.29-4.46,1.93-6.75,1.93
		c-2.11,0-3.63-0.55-4.55-1.65c-0.92-1.1-1.38-2.7-1.38-4.81c-2.2,2.23-4.26,3.86-6.17,4.9c-1.92,1.04-3.89,1.56-5.91,1.56
		c-1.29,0-2.37-0.15-3.23-0.46c-0.86-0.31-1.56-0.74-2.09-1.3s-0.9-1.21-1.12-1.96c-0.22-0.75-0.33-1.56-0.33-2.44
		c0-1.44,0.21-2.95,0.62-4.55s0.9-3.14,1.47-4.64s1.14-2.88,1.71-4.15C941.2,233.2,941.66,232.16,942.01,231.37z"/>
	<path id="t" class="st1" d="M1024.19,228.43c-1.08,2.11-2.11,4.17-3.08,6.17c-0.97,2.01-1.88,3.86-2.72,5.56
		c-0.35,0.7-0.7,1.52-1.03,2.44c-0.34,0.92-0.5,1.74-0.5,2.44c0,0.41,0.09,0.73,0.29,0.97c0.19,0.23,0.51,0.35,0.95,0.35
		c0.62,0,1.39-0.18,2.33-0.55s1.95-0.85,3.03-1.45c1.08-0.6,2.23-1.29,3.43-2.06c1.2-0.78,2.38-1.58,3.54-2.42
		c1.16-0.83,2.26-1.67,3.32-2.5c1.05-0.84,1.99-1.6,2.81-2.31c0.47-0.32,0.91-0.48,1.32-0.48c0.5,0,0.91,0.22,1.23,0.66
		s0.48,1,0.48,1.67s-0.16,1.36-0.48,2.07s-0.91,1.39-1.76,2.07c-1.9,1.73-3.83,3.37-5.78,4.92c-1.95,1.55-3.88,2.92-5.8,4.11
		c-1.92,1.19-3.82,2.13-5.69,2.83s-3.69,1.05-5.45,1.05c-1.17,0-2.15-0.15-2.94-0.46c-0.79-0.31-1.43-0.73-1.91-1.27
		s-0.83-1.17-1.03-1.89c-0.21-0.72-0.31-1.49-0.31-2.31c0-1.46,0.25-2.99,0.75-4.57s1.05-3,1.67-4.26c0.88-1.82,1.75-3.62,2.62-5.41
		c0.86-1.79,1.71-3.5,2.53-5.14h-1.89c-1.64,0-2.77-0.26-3.38-0.79s-0.92-1.13-0.92-1.8c0-0.29,0.1-0.65,0.29-1.08
		s0.47-0.82,0.83-1.19c0.37-0.37,0.81-0.68,1.34-0.94s1.13-0.4,1.8-0.4h4.75l9.27-18.41c0.59-1.11,1.31-1.91,2.18-2.4
		c0.86-0.48,1.77-0.72,2.7-0.72c0.88,0,1.68,0.23,2.42,0.7s1.1,1.25,1.1,2.33c0,0.56-0.13,1.12-0.37,1.69
		c-0.25,0.57-0.58,1.24-0.99,2c-0.26,0.5-0.59,1.09-0.97,1.78s-0.78,1.42-1.21,2.2c-0.43,0.78-0.87,1.59-1.32,2.44
		c-0.46,0.85-0.9,1.67-1.34,2.46c-1,1.88-2.05,3.85-3.16,5.93h14.33c0.7,0,1.35,0.04,1.93,0.11c0.59,0.07,1.09,0.22,1.52,0.44
		c0.42,0.22,0.75,0.52,0.99,0.9s0.35,0.89,0.35,1.54c0,0.32-0.05,0.64-0.15,0.97c-0.1,0.32-0.29,0.62-0.57,0.88
		c-0.28,0.26-0.66,0.48-1.14,0.66c-0.48,0.18-1.11,0.29-1.87,0.35L1024.19,228.43z"/>
	<path id="h_1_" class="st1" d="M1030.08,245.92c0.7-1.49,1.51-3.16,2.42-4.99c0.91-1.83,1.82-3.65,2.75-5.45
		c0.92-1.8,1.79-3.52,2.62-5.14c0.82-1.63,1.51-3.01,2.06-4.15l14.5-28.52c0.18-0.38,0.45-0.75,0.81-1.1
		c0.37-0.35,0.78-0.67,1.25-0.94s0.97-0.5,1.49-0.66c0.53-0.16,1.05-0.24,1.58-0.24c1.29,0,2.18,0.24,2.68,0.73
		c0.5,0.48,0.75,1.08,0.75,1.78c0,0.64-0.16,1.33-0.48,2.04c-0.32,0.72-0.69,1.38-1.1,2c-1.29,2.2-2.53,4.42-3.71,6.66
		c-1.19,2.24-2.37,4.5-3.56,6.77c-1.19,2.27-2.38,4.53-3.58,6.77c-1.2,2.24-2.46,4.46-3.78,6.66c0.82-0.79,1.69-1.61,2.62-2.46
		c0.92-0.85,1.93-1.63,3.01-2.33s2.27-1.28,3.56-1.74c1.29-0.45,2.72-0.68,4.31-0.68c0.94,0,1.83,0.09,2.68,0.26s1.6,0.46,2.24,0.86
		c0.64,0.4,1.16,0.94,1.54,1.63s0.57,1.53,0.57,2.53c0,1.32-0.2,2.53-0.59,3.63c-0.39,1.1-0.9,2.14-1.52,3.12
		c-0.62,0.98-1.29,1.92-2.02,2.81c-0.73,0.89-1.43,1.8-2.09,2.72c-0.66,0.92-1.23,1.88-1.71,2.88c-0.48,1-0.79,2.08-0.9,3.25
		c0,0.06-0.01,0.12-0.02,0.18c-0.02,0.06-0.02,0.12-0.02,0.18c0,0.59,0.2,0.95,0.59,1.1c0.39,0.15,0.9,0.22,1.52,0.22
		c0.79,0,1.64-0.15,2.55-0.46c0.91-0.31,1.82-0.72,2.75-1.23c0.92-0.51,1.85-1.09,2.77-1.74c0.92-0.64,1.8-1.3,2.64-1.98
		c0.83-0.67,1.6-1.33,2.31-1.96c0.7-0.63,1.3-1.18,1.8-1.65c0.26-0.23,0.54-0.41,0.84-0.53s0.57-0.18,0.83-0.18
		c0.53,0,0.97,0.2,1.34,0.59c0.37,0.4,0.55,0.93,0.55,1.6c0,0.62-0.21,1.32-0.64,2.11c-0.43,0.79-1.15,1.58-2.18,2.37
		c-1.61,1.41-3.25,2.75-4.92,4.04s-3.36,2.43-5.05,3.43s-3.39,1.79-5.07,2.37c-1.69,0.59-3.33,0.88-4.95,0.88
		c-2.08,0-3.75-0.48-5.01-1.43c-1.26-0.95-1.89-2.45-1.89-4.5c0-1.49,0.26-2.91,0.77-4.24c0.51-1.33,1.14-2.62,1.89-3.87
		c0.75-1.25,1.54-2.45,2.39-3.6s1.6-2.29,2.24-3.41c0.35-0.5,0.62-0.96,0.81-1.38c0.19-0.42,0.29-0.89,0.29-1.38
		c0-0.44-0.12-0.8-0.35-1.08c-0.23-0.28-0.6-0.42-1.1-0.42c-1.73,0-3.33,0.42-4.79,1.27s-2.81,1.93-4.04,3.25s-2.37,2.76-3.43,4.33
		c-1.05,1.57-2.04,3.07-2.94,4.5c-0.41,0.64-0.83,1.38-1.25,2.22c-0.43,0.83-0.87,1.69-1.32,2.57c-0.46,0.88-0.93,1.75-1.43,2.62
		s-1.02,1.63-1.56,2.31c-0.54,0.67-1.12,1.22-1.71,1.63c-0.6,0.41-1.22,0.62-1.87,0.62c-1.03,0-1.82-0.3-2.37-0.9
		c-0.56-0.6-0.84-1.35-0.84-2.26c0-0.67,0.12-1.38,0.35-2.13C1029.17,247.92,1029.55,247,1030.08,245.92z"/>
	<path id="e" class="st1" d="M1093.49,220.87c2.43,0,4.25,0.59,5.45,1.76s1.8,2.8,1.8,4.88c0,1.23-0.32,2.52-0.97,3.87
		s-1.76,2.72-3.34,4.11c-1.58,1.39-3.7,2.81-6.35,4.26c-2.65,1.45-5.97,2.91-9.95,4.37c0.15,0.85,0.6,1.52,1.36,2
		c0.76,0.48,1.77,0.73,3.03,0.73c1.35,0,2.79-0.2,4.33-0.59c1.54-0.4,3.06-0.9,4.57-1.52c1.51-0.62,2.98-1.28,4.42-2
		s2.73-1.4,3.89-2.04c1.16-0.64,2.12-1.2,2.9-1.67c0.78-0.47,1.29-0.76,1.56-0.88c0.26-0.18,0.51-0.28,0.73-0.31
		c0.22-0.03,0.42-0.04,0.59-0.04c0.35,0,0.64,0.08,0.88,0.24c0.23,0.16,0.43,0.35,0.59,0.57c0.16,0.22,0.27,0.45,0.33,0.7
		s0.09,0.46,0.09,0.64c0,0.26-0.03,0.58-0.09,0.95s-0.28,0.78-0.66,1.25c-0.15,0.15-0.64,0.54-1.47,1.19
		c-0.84,0.64-1.91,1.41-3.23,2.29s-2.85,1.81-4.59,2.79c-1.74,0.98-3.59,1.88-5.54,2.7c-1.95,0.82-3.98,1.5-6.09,2.04
		c-2.11,0.54-4.19,0.81-6.24,0.81c-1.76,0-3.32-0.34-4.68-1.01c-1.36-0.67-2.52-1.58-3.47-2.72c-0.95-1.14-1.68-2.46-2.18-3.96
		s-0.75-3.06-0.75-4.7c0-1.26,0.25-2.64,0.75-4.15c0.5-1.51,1.21-3.02,2.15-4.55s2.09-3.01,3.45-4.46c1.36-1.45,2.89-2.73,4.59-3.85
		s3.57-2.01,5.6-2.68C1089,221.21,1091.18,220.87,1093.49,220.87z M1091.91,226.93c-0.15-0.03-0.28-0.04-0.4-0.04s-0.25,0-0.39,0
		c-1.11,0-2.15,0.22-3.12,0.66s-1.85,1.02-2.66,1.74c-0.81,0.72-1.52,1.53-2.15,2.44c-0.63,0.91-1.2,1.81-1.69,2.7
		c-0.5,0.89-0.92,1.75-1.25,2.57c-0.34,0.82-0.59,1.51-0.77,2.07c1.03-0.53,2.09-1.13,3.19-1.8c1.1-0.67,2.13-1.32,3.1-1.93
		s1.81-1.17,2.53-1.67c0.72-0.5,1.22-0.83,1.52-1.01c1.32-0.82,2.23-1.59,2.72-2.31s0.75-1.34,0.75-1.87c0-0.44-0.14-0.79-0.42-1.05
		C1092.58,227.15,1092.26,226.99,1091.91,226.93z"/>
</g>
<g id="changed">
	<path id="c" class="st1" d="M862.42,543.03c0,0.91-0.1,1.91-0.31,3.01c-0.21,1.1-0.54,2.13-1.01,3.1c-0.47,0.97-1.07,1.77-1.8,2.42
		c-0.73,0.64-1.64,0.97-2.72,0.97c-0.59,0-0.96-0.09-1.12-0.26c-0.16-0.18-0.24-0.48-0.24-0.92c0-0.26,0.01-0.65,0.02-1.16
		c0.01-0.51,0.02-1,0.02-1.47c0-0.53-0.07-0.97-0.22-1.34c-0.15-0.37-0.51-0.55-1.1-0.55c-0.67,0-1.43,0.26-2.26,0.77
		c-0.83,0.51-1.67,1.18-2.5,2s-1.65,1.75-2.44,2.79s-1.5,2.09-2.13,3.16c-0.63,1.07-1.13,2.1-1.49,3.1c-0.37,1-0.55,1.85-0.55,2.55
		c0,1.03,0.36,1.83,1.08,2.42c0.72,0.59,1.69,0.88,2.92,0.88c1.32,0,2.72-0.22,4.22-0.66s2.98-1,4.46-1.67
		c1.48-0.67,2.91-1.41,4.28-2.2c1.38-0.79,2.63-1.54,3.76-2.26c1.13-0.72,2.07-1.33,2.83-1.85c0.76-0.51,1.26-0.83,1.49-0.94
		c0.47-0.23,0.91-0.35,1.32-0.35c0.35,0,0.65,0.08,0.9,0.24c0.25,0.16,0.45,0.35,0.59,0.57c0.15,0.22,0.25,0.45,0.31,0.7
		c0.06,0.25,0.09,0.46,0.09,0.64c0,0.26-0.03,0.58-0.09,0.95c-0.06,0.37-0.28,0.78-0.66,1.25c-0.15,0.18-0.62,0.62-1.43,1.34
		c-0.81,0.72-1.85,1.56-3.12,2.53s-2.74,2-4.39,3.1c-1.66,1.1-3.43,2.1-5.32,3.01s-3.85,1.66-5.87,2.26c-2.02,0.6-4.01,0.9-5.98,0.9
		c-1.49,0-2.82-0.23-3.98-0.7c-1.16-0.47-2.13-1.11-2.92-1.91s-1.39-1.75-1.8-2.83c-0.41-1.08-0.62-2.23-0.62-3.43
		c0-1.32,0.31-2.83,0.92-4.55c0.62-1.71,1.46-3.46,2.55-5.25c1.08-1.79,2.36-3.54,3.82-5.27c1.46-1.73,3.05-3.27,4.77-4.61
		s3.5-2.43,5.36-3.25c1.86-0.82,3.74-1.23,5.65-1.23c0.64,0,1.25,0.07,1.82,0.22s1.07,0.37,1.49,0.68c0.42,0.31,0.76,0.72,1.01,1.25
		C862.3,541.66,862.42,542.29,862.42,543.03z"/>
	<path id="h_2_" class="st1" d="M861.77,563.99c0.7-1.49,1.51-3.16,2.42-4.99c0.91-1.83,1.82-3.65,2.75-5.45
		c0.92-1.8,1.79-3.52,2.61-5.14c0.82-1.63,1.51-3.01,2.07-4.15l14.5-28.52c0.18-0.38,0.45-0.75,0.81-1.1
		c0.37-0.35,0.78-0.67,1.25-0.94c0.47-0.28,0.97-0.5,1.49-0.66c0.53-0.16,1.05-0.24,1.58-0.24c1.29,0,2.18,0.24,2.68,0.73
		c0.5,0.48,0.75,1.08,0.75,1.78c0,0.64-0.16,1.33-0.48,2.04c-0.32,0.72-0.69,1.38-1.1,2c-1.29,2.2-2.53,4.42-3.71,6.66
		c-1.19,2.24-2.37,4.5-3.56,6.77s-2.38,4.53-3.58,6.77c-1.2,2.24-2.46,4.46-3.78,6.66c0.82-0.79,1.69-1.61,2.61-2.46
		s1.93-1.63,3.01-2.33c1.08-0.7,2.27-1.28,3.56-1.74c1.29-0.45,2.72-0.68,4.31-0.68c0.94,0,1.83,0.09,2.68,0.26
		c0.85,0.18,1.6,0.46,2.24,0.86c0.64,0.4,1.16,0.94,1.54,1.63c0.38,0.69,0.57,1.53,0.57,2.53c0,1.32-0.2,2.53-0.59,3.63
		c-0.4,1.1-0.9,2.14-1.52,3.12c-0.62,0.98-1.29,1.92-2.02,2.81c-0.73,0.89-1.43,1.8-2.09,2.72c-0.66,0.92-1.23,1.88-1.71,2.88
		s-0.78,2.08-0.9,3.25c0,0.06-0.01,0.12-0.02,0.18c-0.02,0.06-0.02,0.12-0.02,0.18c0,0.59,0.2,0.95,0.59,1.1s0.9,0.22,1.52,0.22
		c0.79,0,1.64-0.15,2.55-0.46c0.91-0.31,1.82-0.72,2.75-1.23s1.85-1.09,2.77-1.74s1.8-1.3,2.64-1.98s1.6-1.33,2.31-1.96
		c0.7-0.63,1.3-1.18,1.8-1.65c0.26-0.23,0.54-0.41,0.83-0.53c0.29-0.12,0.57-0.18,0.83-0.18c0.53,0,0.97,0.2,1.34,0.59
		c0.37,0.4,0.55,0.93,0.55,1.6c0,0.62-0.21,1.32-0.64,2.11c-0.42,0.79-1.15,1.58-2.18,2.37c-1.61,1.41-3.25,2.75-4.92,4.04
		s-3.35,2.43-5.05,3.43c-1.7,1-3.39,1.79-5.08,2.37c-1.69,0.59-3.33,0.88-4.94,0.88c-2.08,0-3.75-0.48-5.01-1.43
		c-1.26-0.95-1.89-2.45-1.89-4.5c0-1.49,0.26-2.91,0.77-4.24c0.51-1.33,1.14-2.62,1.89-3.87s1.54-2.45,2.4-3.6
		c0.85-1.16,1.6-2.29,2.24-3.41c0.35-0.5,0.62-0.96,0.81-1.38c0.19-0.42,0.29-0.89,0.29-1.38c0-0.44-0.12-0.8-0.35-1.08
		c-0.23-0.28-0.6-0.42-1.1-0.42c-1.73,0-3.33,0.42-4.79,1.27c-1.47,0.85-2.81,1.93-4.04,3.25s-2.37,2.76-3.43,4.33
		c-1.05,1.57-2.04,3.07-2.94,4.5c-0.41,0.64-0.83,1.38-1.25,2.22c-0.42,0.83-0.86,1.69-1.32,2.57c-0.45,0.88-0.93,1.75-1.43,2.62
		c-0.5,0.86-1.02,1.63-1.56,2.31c-0.54,0.67-1.11,1.22-1.71,1.63c-0.6,0.41-1.22,0.62-1.87,0.62c-1.03,0-1.82-0.3-2.37-0.9
		c-0.56-0.6-0.83-1.35-0.83-2.26c0-0.67,0.12-1.38,0.35-2.13C860.86,565.99,861.24,565.07,861.77,563.99z"/>
	<path id="a" class="st1" d="M953.26,558.28c-0.53,0.5-1.23,1.19-2.11,2.07s-1.88,1.83-3.01,2.86c-1.13,1.03-2.33,2.06-3.6,3.1
		c-1.27,1.04-2.58,1.99-3.91,2.83c-1.33,0.85-2.64,1.55-3.93,2.09c-1.29,0.54-2.5,0.81-3.65,0.81c-1.03,0-1.9-0.22-2.64-0.66
		c-0.73-0.44-1.34-1.01-1.82-1.71s-0.84-1.5-1.08-2.4c-0.23-0.89-0.35-1.81-0.35-2.75c0-0.62,0.04-1.22,0.13-1.82
		c0.09-0.6,0.23-1.16,0.44-1.69c-0.91,1.23-1.94,2.5-3.1,3.8c-1.16,1.3-2.4,2.49-3.74,3.56c-1.33,1.07-2.72,1.95-4.17,2.64
		c-1.45,0.69-2.92,1.03-4.42,1.03c-0.76,0-1.65-0.15-2.66-0.46c-1.01-0.31-1.97-0.81-2.88-1.52c-0.91-0.7-1.67-1.61-2.29-2.72
		s-0.92-2.48-0.92-4.09c0-1.2,0.18-2.64,0.55-4.31c0.37-1.67,0.92-3.41,1.67-5.21c0.75-1.8,1.7-3.58,2.86-5.34
		c1.16-1.76,2.53-3.33,4.11-4.72s3.38-2.52,5.41-3.38c2.02-0.86,4.28-1.3,6.77-1.3c1.29,0,2.42,0.16,3.38,0.48s1.79,0.67,2.46,1.05
		c0.76,0.47,1.44,0.98,2.02,1.54c0.5-0.26,1.01-0.51,1.54-0.75c0.44-0.21,0.9-0.39,1.38-0.55s0.9-0.24,1.25-0.24
		c1.11,0,2.02,0.31,2.72,0.92s1.05,1.29,1.05,2.02c0,0.21-0.02,0.37-0.04,0.48c-0.15,0.56-0.37,1.26-0.68,2.11s-0.65,1.79-1.03,2.83
		c-0.38,1.04-0.77,2.13-1.16,3.25c-0.4,1.13-0.75,2.23-1.08,3.32c-0.32,1.08-0.59,2.1-0.79,3.05c-0.21,0.95-0.31,1.76-0.31,2.44
		c0,0.88,0.15,1.6,0.44,2.17c0.29,0.57,0.79,0.86,1.49,0.86c0.44,0,0.96-0.14,1.56-0.42c0.6-0.28,1.25-0.65,1.96-1.12
		s1.43-1,2.18-1.6c0.75-0.6,1.47-1.21,2.18-1.82c1.64-1.46,3.38-3.13,5.23-5.01c0.47-0.38,0.92-0.57,1.36-0.57
		c0.59,0,1.08,0.29,1.47,0.86c0.4,0.57,0.59,1.21,0.59,1.91C954.09,557.03,953.82,557.72,953.26,558.28z M922.81,546.94
		c-1.38,0-2.71,0.35-4,1.05c-1.29,0.7-2.43,1.63-3.43,2.77c-1,1.14-1.79,2.42-2.37,3.84c-0.59,1.42-0.88,2.85-0.88,4.29
		c0,0.59,0.04,1.19,0.11,1.82c0.07,0.63,0.24,1.21,0.51,1.74s0.64,0.97,1.12,1.32s1.14,0.53,1.96,0.53c0.64,0,1.4-0.29,2.26-0.86
		c0.86-0.57,1.76-1.3,2.68-2.2s1.82-1.88,2.7-2.95c0.88-1.07,1.67-2.12,2.37-3.14s1.27-1.95,1.71-2.77s0.66-1.42,0.66-1.8
		c0-0.56-0.19-1.06-0.57-1.52c-0.38-0.45-0.85-0.84-1.41-1.16c-0.56-0.32-1.15-0.56-1.78-0.72
		C923.82,547.02,923.27,546.94,922.81,546.94z"/>
	<path id="n" class="st1" d="M955.72,544.26c0.59-1.26,1.32-2.2,2.2-2.81c0.88-0.62,1.74-0.92,2.59-0.92c0.7,0,1.33,0.26,1.89,0.77
		s0.83,1.27,0.83,2.26c0,0.38-0.04,0.79-0.13,1.23s-0.25,0.91-0.48,1.41c0.64-0.82,1.57-1.66,2.77-2.53s2.53-1.64,3.98-2.33
		c1.45-0.69,2.94-1.25,4.48-1.69s3-0.66,4.37-0.66c1.55,0,2.85,0.37,3.89,1.12c1.04,0.75,1.56,2.01,1.56,3.8
		c0,1.05-0.16,2.15-0.48,3.3s-0.74,2.29-1.25,3.43c-0.51,1.14-1.08,2.26-1.71,3.36c-0.63,1.1-1.25,2.13-1.87,3.1
		s-1.18,1.85-1.69,2.66c-0.51,0.81-0.92,1.47-1.21,2c-0.38,0.47-0.57,1.01-0.57,1.63c0,0.23,0.07,0.44,0.22,0.62s0.38,0.26,0.7,0.26
		c0.21,0,0.44-0.02,0.7-0.07c0.26-0.04,0.59-0.2,0.97-0.46c1.58-0.59,3.2-1.32,4.86-2.2c1.65-0.88,3.24-1.81,4.77-2.79
		c1.52-0.98,2.92-1.96,4.2-2.94s2.34-1.87,3.19-2.66c0.23-0.21,0.47-0.35,0.7-0.44s0.45-0.13,0.66-0.13c0.5,0,0.89,0.19,1.17,0.57
		c0.28,0.38,0.42,0.86,0.42,1.45c0,0.91-0.29,1.92-0.86,3.03s-1.47,2.15-2.7,3.12c-1.67,1.2-3.2,2.3-4.59,3.3
		c-1.39,1-2.81,1.93-4.26,2.79c-1.45,0.87-3,1.67-4.66,2.42c-1.66,0.75-3.6,1.44-5.82,2.09c-0.76,0.23-1.46,0.41-2.09,0.53
		c-0.63,0.12-1.21,0.18-1.74,0.18c-1.55,0-2.69-0.43-3.41-1.3c-0.72-0.86-1.08-2.07-1.08-3.63c0-0.21,0.01-0.4,0.02-0.59
		c0.01-0.19,0.04-0.4,0.07-0.64c0.06-0.91,0.3-1.9,0.73-2.99c0.42-1.08,0.94-2.2,1.54-3.34c0.6-1.14,1.24-2.28,1.91-3.41
		s1.3-2.2,1.87-3.21c0.57-1.01,1.05-1.91,1.43-2.7s0.57-1.44,0.57-1.93c0-0.44-0.13-0.81-0.37-1.12c-0.25-0.31-0.62-0.46-1.12-0.46
		c-1.88,0-3.65,0.56-5.34,1.67c-1.69,1.11-3.26,2.48-4.72,4.11c-1.46,1.63-2.81,3.35-4.04,5.16c-1.23,1.82-2.31,3.44-3.25,4.88
		c-0.59,0.97-1.12,2-1.6,3.1c-0.48,1.1-0.99,2.12-1.52,3.08s-1.12,1.74-1.78,2.37c-0.66,0.63-1.49,0.94-2.48,0.94
		c-1.03,0-1.83-0.32-2.42-0.97c-0.59-0.64-0.88-1.44-0.88-2.37c0-0.5,0.2-1.3,0.62-2.42c0.41-1.11,0.94-2.4,1.58-3.87
		c0.64-1.46,1.37-3.04,2.18-4.72c0.81-1.68,1.61-3.35,2.42-5.01c0.81-1.65,1.57-3.21,2.31-4.68
		C954.65,546.53,955.25,545.28,955.72,544.26z"/>
	<path id="g" class="st1" d="M1010.87,538.98c1.29,0,2.42,0.16,3.38,0.48s1.79,0.67,2.46,1.05c0.76,0.47,1.44,0.98,2.02,1.54
		c0.41-0.26,0.85-0.51,1.32-0.75c0.41-0.21,0.86-0.39,1.36-0.55s1-0.24,1.49-0.24c1.29,0,2.29,0.26,2.99,0.79s1.05,1.16,1.05,1.89
		c0,0.38-0.1,0.76-0.31,1.14l-10.28,19.47l0.83-0.75c3.46-2.02,6.3-3.61,8.53-4.77c2.23-1.16,4-2.01,5.32-2.57s2.26-0.9,2.83-1.03
		c0.57-0.13,0.93-0.2,1.08-0.2c0.67,0,1.19,0.26,1.56,0.77c0.37,0.51,0.55,1.15,0.55,1.91c0,0.85-0.24,1.71-0.72,2.59
		c-0.48,0.88-1.22,1.51-2.22,1.89c-1.32,0.67-2.86,1.4-4.62,2.17c-1.76,0.78-3.59,1.63-5.49,2.57s-3.82,1.99-5.73,3.14
		c-1.92,1.16-3.71,2.44-5.38,3.85l-8.53,15.42c-0.7,1.67-1.34,3.03-1.91,4.09s-1.14,1.89-1.69,2.5s-1.13,1.04-1.71,1.27
		s-1.26,0.35-2.02,0.35c-1.14,0-2.04-0.4-2.7-1.19s-0.99-1.74-0.99-2.86c0-1.17,0.28-2.53,0.83-4.09s1.34-3.23,2.35-5.03
		c1.01-1.8,2.23-3.69,3.67-5.67c1.44-1.98,3.03-3.99,4.79-6.04l5.45-6.94c-1.11,1.03-2.21,1.9-3.3,2.64s-2.12,1.33-3.12,1.78
		c-1,0.46-1.93,0.78-2.79,0.99c-0.86,0.21-1.62,0.31-2.26,0.31c-1.17,0-2.26-0.27-3.25-0.81s-1.85-1.3-2.57-2.26
		c-0.72-0.97-1.28-2.11-1.69-3.43s-0.62-2.75-0.62-4.31c0-3.22,0.62-6.14,1.87-8.75c1.25-2.61,2.84-4.83,4.79-6.66
		c1.95-1.83,4.1-3.25,6.46-4.24C1006.31,539.48,1008.62,538.98,1010.87,538.98z M1009.2,546.72c-1.38,0-2.71,0.34-4,1.03
		c-1.29,0.69-2.43,1.6-3.43,2.72c-1,1.13-1.79,2.42-2.37,3.89s-0.88,2.97-0.88,4.53c0,0.47,0.04,0.97,0.11,1.52
		c0.07,0.54,0.23,1.05,0.48,1.52c0.25,0.47,0.62,0.86,1.1,1.17c0.48,0.31,1.15,0.46,2,0.46c0.62,0,1.34-0.27,2.18-0.81
		s1.7-1.23,2.59-2.07c0.89-0.83,1.76-1.76,2.61-2.77c0.85-1.01,1.62-2,2.31-2.97c0.69-0.97,1.24-1.84,1.65-2.62
		c0.41-0.78,0.62-1.35,0.62-1.74c0-0.64-0.18-1.21-0.53-1.69c-0.35-0.48-0.78-0.89-1.3-1.21c-0.51-0.32-1.05-0.56-1.63-0.73
		C1010.15,546.8,1009.64,546.72,1009.2,546.72z"/>
	<path id="e_1_" class="st1" d="M1051.7,538.94c2.43,0,4.25,0.59,5.45,1.76s1.8,2.8,1.8,4.88c0,1.23-0.32,2.52-0.97,3.87
		s-1.76,2.72-3.34,4.11c-1.58,1.39-3.7,2.81-6.35,4.26c-2.65,1.45-5.97,2.91-9.95,4.37c0.15,0.85,0.6,1.52,1.36,2
		c0.76,0.48,1.77,0.73,3.03,0.73c1.35,0,2.79-0.2,4.33-0.59c1.54-0.4,3.06-0.9,4.57-1.52s2.98-1.28,4.42-2s2.73-1.4,3.89-2.04
		c1.16-0.64,2.12-1.2,2.9-1.67c0.78-0.47,1.3-0.76,1.56-0.88c0.26-0.18,0.5-0.28,0.73-0.31c0.22-0.03,0.42-0.04,0.59-0.04
		c0.35,0,0.64,0.08,0.88,0.24c0.23,0.16,0.43,0.35,0.59,0.57c0.16,0.22,0.27,0.45,0.33,0.7s0.09,0.46,0.09,0.64
		c0,0.26-0.03,0.58-0.09,0.95s-0.28,0.78-0.66,1.25c-0.15,0.15-0.64,0.54-1.47,1.19c-0.84,0.64-1.91,1.41-3.23,2.29
		s-2.85,1.81-4.59,2.79c-1.74,0.98-3.59,1.88-5.54,2.7c-1.95,0.82-3.98,1.5-6.09,2.04c-2.11,0.54-4.19,0.81-6.24,0.81
		c-1.76,0-3.32-0.34-4.68-1.01c-1.36-0.67-2.52-1.58-3.47-2.72c-0.95-1.14-1.68-2.46-2.18-3.96s-0.75-3.06-0.75-4.7
		c0-1.26,0.25-2.64,0.75-4.15c0.5-1.51,1.22-3.02,2.15-4.55s2.09-3.01,3.45-4.46c1.36-1.45,2.89-2.73,4.59-3.85s3.57-2.01,5.6-2.68
		C1047.21,539.28,1049.38,538.94,1051.7,538.94z M1050.12,545c-0.15-0.03-0.28-0.04-0.4-0.04s-0.25,0-0.4,0
		c-1.11,0-2.15,0.22-3.12,0.66s-1.85,1.02-2.66,1.74s-1.52,1.53-2.15,2.44c-0.63,0.91-1.19,1.81-1.69,2.7
		c-0.5,0.89-0.92,1.75-1.25,2.57s-0.59,1.51-0.77,2.07c1.03-0.53,2.09-1.13,3.19-1.8c1.1-0.67,2.13-1.32,3.1-1.93
		s1.81-1.17,2.53-1.67c0.72-0.5,1.22-0.83,1.52-1.01c1.32-0.82,2.23-1.59,2.72-2.31s0.75-1.34,0.75-1.87c0-0.44-0.14-0.79-0.42-1.05
		C1050.78,545.22,1050.47,545.06,1050.12,545z"/>
	<path id="d" class="st1" d="M1089.67,562.01c-0.03,0.06-0.04,0.13-0.04,0.22s-0.01,0.16-0.04,0.22c0,0.53,0.13,1.08,0.4,1.65
		c0.26,0.57,0.69,0.86,1.27,0.86c0.23,0,0.41-0.03,0.53-0.09c1.67-0.5,3.36-1.29,5.08-2.37c1.71-1.08,3.36-2.27,4.94-3.56
		s3.04-2.61,4.37-3.96c1.33-1.35,2.44-2.55,3.32-3.6c0.41-0.5,0.86-0.75,1.36-0.75c0.44,0,0.83,0.21,1.16,0.62s0.51,0.97,0.51,1.67
		c0,0.56-0.15,1.22-0.46,1.98c-0.31,0.76-0.81,1.58-1.52,2.46c-1.73,1.9-3.5,3.74-5.32,5.49s-3.65,3.32-5.49,4.68
		c-1.85,1.36-3.68,2.45-5.51,3.27c-1.83,0.82-3.63,1.23-5.38,1.23c-2.14,0-3.82-0.61-5.05-1.82c-1.23-1.22-1.85-3.04-1.85-5.47
		c0-0.15,0-0.3,0-0.46c0-0.16,0.01-0.31,0.04-0.46c-0.67,1.23-1.54,2.35-2.59,3.36c-1.05,1.01-2.21,1.88-3.47,2.59
		s-2.56,1.27-3.91,1.67c-1.35,0.39-2.65,0.59-3.91,0.59c-1.08,0-2.08-0.15-2.99-0.44s-1.69-0.76-2.35-1.41
		c-0.66-0.64-1.17-1.46-1.54-2.46s-0.55-2.2-0.55-3.6c0-2.46,0.38-4.8,1.14-7.01s1.77-4.25,3.03-6.11c1.26-1.86,2.7-3.53,4.33-5.01
		c1.63-1.48,3.31-2.74,5.05-3.78c1.74-1.04,3.48-1.84,5.21-2.39s3.31-0.83,4.75-0.83c1.67,0,3.11,0.28,4.31,0.83
		c0.59,0.29,1.13,0.69,1.63,1.19c0.12-0.26,0.23-0.51,0.35-0.75c0.29-0.7,0.56-1.31,0.79-1.82c0.23-0.51,0.4-0.89,0.48-1.12
		c0.09-0.26,0.34-0.88,0.75-1.85s0.89-2.1,1.43-3.41s1.13-2.7,1.76-4.2s1.21-2.9,1.74-4.22s0.98-2.45,1.36-3.41
		c0.38-0.95,0.62-1.56,0.7-1.82c0.21-0.73,0.48-1.44,0.83-2.13c0.35-0.69,0.77-1.29,1.25-1.8c0.48-0.51,1.05-0.92,1.69-1.23
		c0.64-0.31,1.38-0.46,2.2-0.46c1.11,0,2.04,0.24,2.77,0.73c0.73,0.48,1.1,1.41,1.1,2.79c0,0.56-0.07,1.13-0.22,1.71
		s-0.32,1.16-0.51,1.71s-0.39,1.11-0.62,1.65c-0.22,0.54-0.42,1.05-0.59,1.52c-1.46,2.93-3,6.12-4.61,9.56
		c-1.61,3.44-3.21,6.91-4.79,10.39s-3.09,6.88-4.53,10.2S1090.75,559.34,1089.67,562.01z M1088.35,544.83
		c-1.76,0.06-3.6,0.44-5.54,1.14c-2.23,0.76-4.26,1.9-6.11,3.41s-3.41,3.36-4.68,5.56c-1.27,2.2-2,4.72-2.17,7.56
		c0,1.17,0.5,1.76,1.49,1.76c1.23,0,2.4-0.26,3.52-0.77c1.11-0.51,2.17-1.2,3.19-2.06c1.01-0.86,1.96-1.85,2.83-2.97
		s1.69-2.27,2.44-3.47c0.75-1.2,1.42-2.4,2.02-3.58c0.6-1.19,1.12-2.29,1.56-3.32c0.15-0.32,0.35-0.78,0.62-1.36
		C1087.75,546.16,1088.03,545.53,1088.35,544.83z"/>
</g>
<g id="theWorld">
	<path id="world" class="st3" d="M1427.62,720.03c1.28-1.16,2.48-2.2,3.63-3.29c6.58-6.17,13.13-12.39,19.74-18.53
		c7.19-6.69,14.46-13.3,21.65-19.99c4.06-3.78,7.99-7.71,12.11-11.42c1.85-1.67,3.89-3.24,6.08-4.42
		c7.31-3.94,14.51-3.08,21.46,1.05c1.29,0.77,2.49,1.74,3.62,2.73c2.78,2.44,3.27,5.52,2.24,8.94c-0.9,2.97-2.67,5.41-4.75,7.66
		c-5.65,6.1-12.3,10.99-18.91,15.96c-13.47,10.13-26.56,20.75-39.26,31.82c-9.42,8.21-18.75,16.54-27.9,25.04
		c-7.76,7.21-15.2,14.76-22.81,22.12c-2.45,2.37-2.49,5.94-1.61,8.45c0.61,1.73,2.09,2.56,3.78,2.74c4.61,0.47,9.23,0.41,13.84-0.15
		c17.77-2.12,34.76-7.13,51.32-13.73c1.44-0.58,2.84-1.27,4.31-1.78c4.82-1.7,7.6,1.75,7.43,5.12c-0.11,2.24-0.94,4.1-2.32,5.76
		c-2.91,3.51-6.67,5.8-10.86,7.43c-11.66,4.54-23.38,8.92-35.47,12.18c-7.12,1.92-14.31,3.41-21.68,4.11
		c-7.42,0.7-14.72,0.52-21.82-2c-4.87-1.73-9.22-4.24-12.23-8.61c-2.61-3.78-3.6-7.99-2.85-12.5c0.51-3.08,1.34-6.11,2.02-9.12
		c-0.26,0.18-0.67,0.45-1.06,0.75c-6.24,4.78-13.38,7.48-21,9.07c-4.9,1.02-9.87,1.44-14.86,1.16c-7.79-0.44-15.26-2.07-21.57-7.06
		c-3.92-3.09-5.99-7.23-6.69-12.16c-0.57-4.04,0.1-7.93,1.09-11.81c0.09-0.34,0.16-0.68,0.31-1.31c-1.16,0.44-2.1,0.79-3.04,1.15
		c-8.46,3.23-17.02,6.13-25.88,8.05c-5.14,1.12-10.32,1.91-15.6,2.12c-6.46,0.26-12.73-0.48-18.71-2.96
		c-5.02-2.09-8.64-5.58-9.77-11.12c-0.78-3.79-0.29-7.54,0.78-11.21c0.74-2.55,1.67-5.04,2.58-7.74c-0.87,0.27-1.69,0.51-2.5,0.76
		c-9.53,3.01-19.04,6.08-28.59,9c-6.28,1.92-12.69,3.4-19.22,4.18c-5.91,0.7-11.62-0.12-16.88-3.06
		c-6.46-3.62-9.25-11.35-6.03-19.12c2.47-5.96,6.26-11,10.52-15.75c5.25-5.85,11.48-10.63,17.24-15.93c3.11-2.85,5.99-5.96,8.81-9.1
		c0.8-0.89,1.19-2.25,1.47-3.47c0.4-1.71-0.22-2.46-1.97-2.38c-2.78,0.13-5.57,0.3-8.32,0.72c-5.25,0.8-10.31,2.34-15.19,4.46
		c-3.46,1.5-6.03,4-8.21,6.97c-5.53,7.54-11.1,15.04-16.5,22.66c-3.81,5.37-7.25,11.01-11.09,16.37
		c-4.87,6.8-11.62,10.66-19.92,11.68c-1.4,0.17-2.88,0.16-4.25-0.11c-3.87-0.74-5.56-3.61-4.9-7.54c0.64-3.81,2.73-6.82,4.82-9.9
		c4.23-6.26,8.34-12.59,12.5-18.89c0.08-0.12,0.11-0.27,0.29-0.71c-1.62,0.91-2.97,1.71-4.35,2.44c-3.61,1.88-7.28,3.66-11.31,4.45
		c-6.59,1.29-12.56-0.3-18-4.09c-1.93-1.35-1.91-1.36-3.44,0.38c-7.08,8.08-15.27,14.74-25,19.4c-7.46,3.58-15.27,6.01-23.51,6.89
		c-3.48,0.37-6.99,0.68-10.48,0.65c-8.11-0.07-15.49-2.4-21.69-7.81c-4.9-4.29-8.13-9.58-9.12-16.11c-0.02-0.11-0.08-0.22-0.16-0.45
		c-2.28,0.68-4.55,1.38-6.83,2.02c-4.84,1.35-9.74,2.47-14.76,2.67c-5.47,0.22-10.68-1.11-15.58-3.51
		c-1.11-0.55-1.65-0.28-2.35,0.54c-4.79,5.56-10.06,10.6-16.18,14.72c-5.73,3.85-11.91,6.66-18.78,7.67
		c-3.88,0.57-7.8,0.71-11.67-0.18c-5.16-1.18-8.49-4.5-10.1-9.42c-0.77-2.36-1.04-4.88-1.54-7.33c-0.04-0.18-0.07-0.37-0.15-0.87
		c-1.22,1.28-2.27,2.39-3.33,3.48c-7.11,7.28-14.65,13.95-24.6,17.16c-4.61,1.49-9.35,2.07-14.16,1.76
		c-4.47-0.29-8.63-1.55-11.86-4.95c-2.35-2.47-3.5-5.51-4.15-8.75c-1.14-5.65-0.81-11.32,0.06-16.99
		c1.83-11.89,5.75-23.16,9.94-34.36c2.64-7.06,5.38-14.08,8.19-21.07c0.81-2.02,1.99-3.91,3.11-5.79c1.81-3.05,4.45-4.87,8.02-5.46
		c3.95-0.65,7.69-0.33,11.18,1.78c4.7,2.85,6.27,7.61,4.4,12.81c-6.61,18.37-13.16,36.77-19.74,55.15
		c-0.63,1.77-0.82,3.57-0.36,5.41c0.44,1.75,1.76,2.49,3.53,2.05c2.56-0.63,4.4-2.35,6.23-4.08c11.45-10.79,20.38-23.47,28.05-37.13
		c5.04-8.99,9.45-18.28,13.78-27.62c1.33-2.87,3.15-5.56,5.04-8.1c2.76-3.69,6.8-4.29,11.08-3.86c1.05,0.1,2.13,0.38,3.1,0.79
		c3.07,1.3,4.04,3.57,3.5,7.13c-0.89,5.83-3.33,11.18-5.07,16.74c-5.03,16.08-10.17,32.12-15.28,48.18
		c-0.39,1.22-0.06,2.21,0.76,3.07c1.07,1.12,2.42,0.94,3.7,0.58c3.24-0.9,6.01-2.74,8.72-4.64c5.54-3.9,10.27-8.61,14.08-14.23
		c2.36-3.49,3.45-7.5,4.84-11.4c2.83-7.96,5.58-15.95,8.67-23.81c2.4-6.11,5.59-11.84,9.97-16.82c2.65-3.01,5.79-5.28,9.89-5.41
		c4.91-0.16,10.24,2.93,10.4,9.11c0.17,6.56-1.68,12.76-3.83,18.86c-3.22,9.11-7.85,17.45-13.71,25.11
		c-0.82,1.07-0.6,1.74,0.15,2.58c0.87,0.96,1.99,1.34,3.21,1.34c7.59-0.03,14.99-1.19,22.13-3.81c0.4-0.15,0.83-0.63,0.96-1.04
		c3.63-11.44,9.49-21.62,17.48-30.53c9.59-10.69,21.47-17.6,35.56-20.49c3.49-0.72,7.09-0.96,10.66-1.22
		c8.27-0.6,16.31,0.62,24,3.67c7.05,2.79,12.76,7.27,16.13,14.26c1.66,3.44,2.11,7.1,1.85,10.93c-0.47,6.96-3.02,13.24-6.12,19.35
		c-0.53,1.05-0.31,1.68,0.46,2.36c2.73,2.43,6.01,2.94,9.42,2.36c5.87-0.99,11.18-3.59,16.14-6.73c6.3-3.99,12.38-8.34,18.58-12.51
		c0.87-0.59,0.82-1.08,0.38-1.95c-2.23-4.4-1.91-8.68,1.13-12.54c2.02-2.57,5.02-3.63,8.18-4.03c7.93-1.01,15.36,0.75,22.4,4.38
		c2,1.03,3.79,2.4,5.07,4.3c1.17,1.74,1.52,3.64,0.04,5.5c-0.72,0.9-1.25,1.96-1.87,2.94c0.09,0.1,0.18,0.2,0.27,0.3
		c0.43-0.12,0.88-0.21,1.3-0.35c7.32-2.55,14.83-4.33,22.48-5.52c5.81-0.91,11.67-1.36,17.54-0.96c4.52,0.31,8.96,1.12,12.63,4.14
		c2.04,1.67,3.15,3.85,3.18,6.44c0.08,7.47-2.7,13.59-8.59,18.35c-7.53,6.1-15.63,11.35-23.8,16.52
		c-6.07,3.84-12.07,7.81-18.06,11.78c-1.16,0.77-2.16,1.76-3.23,2.66c-0.24,0.2-0.55,0.45-0.6,0.72c-0.16,0.78-0.36,1.62-0.19,2.36
		c0.05,0.23,1.3,0.38,1.93,0.23c5.75-1.29,11.5-2.59,17.22-4c15.11-3.73,30.21-7.52,45.32-11.26c0.95-0.23,1.58-0.73,2.21-1.46
		c8.9-10.36,17.76-20.75,26.78-31c6.73-7.64,13.64-15.12,20.54-22.6c4.76-5.17,9.61-10.27,14.49-15.33
		c8.21-8.52,16.49-16.97,24.72-25.47c3.14-3.24,6.82-5.06,11.41-5.26c5.57-0.24,10.53,1.01,14.88,4.63
		c3.66,3.05,4.07,7.43,1.55,11.12c-1.57,2.3-3.77,4.21-5.84,6.13c-5.11,4.71-10.41,9.21-15.45,13.99
		c-7.98,7.56-15.92,15.16-23.66,22.96c-8.07,8.14-16.03,16.41-23.78,24.86c-10.31,11.24-20.41,22.67-30.51,34.1
		c-2.77,3.14-5.3,6.51-6.84,10.48c-0.32,0.81-0.55,1.67-0.73,2.52c-0.44,2.17,0.47,3.9,2.71,4.32c2.21,0.42,4.55,0.69,6.76,0.43
		c16.67-1.97,32.26-7.93,47.98-13.34c0.47-0.16,0.95-0.47,1.28-0.84c12.51-13.83,28.42-21.33,46.39-25.01
		c7.03-1.44,14.16-1.84,21.31-1.42c8.79,0.52,17.15,2.62,24.59,7.62c2.76,1.85,5.1,4.09,6.72,7.03
		C1427.14,719.4,1427.33,719.61,1427.62,720.03z M1087.7,673.25c-0.1-1.19-0.17-2.38-0.29-3.57c-0.46-4.54-3.66-8.36-8.09-9.51
		c-5.7-1.47-11.24-0.64-16.6,1.52c-13.07,5.27-24.41,19.75-23.25,35.25c0.19,2.57,0.48,5.09,1.57,7.43
		c1.53,3.27,3.91,5.58,7.58,6.36c4.27,0.91,8.41,0.35,12.44-1.07c6.63-2.34,12.16-6.33,16.74-11.61
		C1083.97,690.95,1087.63,682.82,1087.7,673.25z M1417.73,728.64c-0.43-0.17-0.89-0.38-1.37-0.53c-5.41-1.63-10.97-2.37-16.58-2.61
		c-5.59-0.24-11.16,0.18-16.63,1.42c-14.04,3.2-25.79,10.05-34.28,21.91c-2.43,3.39-4.32,7.09-5.47,11.12
		c-0.74,2.6,0.34,4.52,2.88,5.48c4.07,1.53,8.32,1.82,12.58,1.35c6.29-0.69,12.18-2.77,17.8-5.62c8.52-4.33,16.27-9.82,23.51-16.01
		c4.79-4.1,9.35-8.46,13.98-12.75C1415.39,731.25,1416.5,729.94,1417.73,728.64z"/>
	<path id="the" class="st3" d="M719.83,733.81c1.46,3.11,4.05,4.62,7.28,5.21c4.22,0.76,8.24-0.28,12.2-1.53
		c7.63-2.4,14.6-6.21,21.35-10.42c11.37-7.08,22.03-15.16,32.51-23.48c1.78-1.41,3.59-2.82,5.48-4.07c1.99-1.31,4.21-1.71,6.45-0.66
		c2.44,1.15,3.45,3.25,3.74,5.85c0.35,3.18-0.94,5.62-3.11,7.8c-12.14,12.17-25.19,23.24-39.6,32.63
		c-9.11,5.94-18.62,11.17-29.04,14.51c-4.94,1.58-9.95,2.84-15.21,2.78c-7.09-0.08-13.52-2.23-19.15-6.48
		c-2.43-1.84-4.49-4.17-6.71-6.29c-0.25-0.24-0.47-0.52-0.74-0.82c-2.24,2.6-4.39,5.17-6.62,7.66
		c-6.28,7.01-12.99,13.56-20.85,18.83c-5.84,3.91-12.17,6.66-19.17,7.65c-3.05,0.43-6.12,0.32-9.12-0.48
		c-3.99-1.07-6.96-3.47-8.92-7.1c-2.61-4.82-3.66-10.06-3.5-15.45c0.2-6.31,1.49-12.49,3.5-18.48c1.73-5.13,3.65-10.2,5.38-15.33
		c1.07-3.17,2.13-6.36,2.82-9.62c0.34-1.59,0.11-3.43-0.33-5.03c-0.64-2.36-2.71-3.33-5.1-2.71c-7.14,1.86-12.77,5.98-17.46,11.57
		c-5.24,6.24-8.95,13.36-11.49,21c-2.76,8.3-5.16,16.75-7.31,25.23c-1.28,5.03-1.75,10.27-2.64,15.4
		c-1.02,5.89-2.04,11.79-4.76,17.21c-1.89,3.78-4.54,6.58-8.94,7.41c-4.56,0.85-8.78-1.44-10.4-5.83c-0.84-2.27-1.29-4.6-1.23-7.02
		c0.02-0.7,0-1.4,0-2.11c-0.1-0.04-0.2-0.08-0.3-0.11c-0.25,0.32-0.51,0.63-0.75,0.96c-5.38,7.71-11.1,15.14-17.86,21.72
		c-5.87,5.71-12.36,10.47-20.23,13.09c-3.87,1.29-7.81,1.7-11.76,0.48c-4.74-1.45-7.57-5.03-9.64-9.28
		c-2.2-4.52-3.47-9.33-3.77-14.35c-0.25-4.14-0.5-8.29-0.41-12.42c0.09-4.33,0.56-8.65,0.91-12.98c0.44-5.47,0.92-10.94,1.38-16.41
		c0.21-2.49,0.43-4.98,0.67-7.69c-0.62,0.22-1.12,0.38-1.61,0.56c-3.46,1.31-6.88,2.79-10.4,3.9c-2.82,0.89-5.7,0.72-8.24-1.09
		c-1.41-1.01-2.21-2.39-2.23-4.16c-0.09-6.34,3.06-10.73,8.54-13.4c4.65-2.26,9.49-4.16,14.27-6.15c0.85-0.35,1.27-0.82,1.38-1.69
		c0.48-3.87,0.98-7.73,1.49-11.6c0.57-4.38,1.14-8.76,1.76-13.13c0.75-5.31,1.54-10.62,2.34-15.93c0.82-5.43,1.65-10.85,2.52-16.27
		c0.39-2.43,0.74-4.88,1.34-7.27c1.95-7.84,9.57-12.86,16.01-13.65c1.91-0.24,3.92-0.2,5.8,0.14c3.07,0.54,5.4,3.74,5.66,7.06
		c0.26,3.22-0.46,6.32-1.08,9.42c-2.52,12.64-5.09,25.27-7.6,37.92c-0.85,4.29-1.56,8.61-2.32,12.91c-0.05,0.26-0.01,0.54-0.01,0.98
		c2.42-0.93,4.7-1.84,7.01-2.69c12.87-4.72,25.74-9.44,38.63-14.12c0.74-0.27,1.07-0.65,1.22-1.39c3.68-17.77,7.29-35.56,11.1-53.3
		c2.14-9.96,4.59-19.85,6.96-29.76c0.96-4,3.63-6.86,6.7-9.37c4.58-3.74,9.85-5.67,15.78-5.56c3.71,0.07,6.45,2.99,6.65,6.69
		c0.19,3.43-0.77,6.61-1.75,9.82c-2.73,8.95-5.66,17.84-8.07,26.87c-3.29,12.31-6.16,24.72-9.23,37.09
		c-2.29,9.23-4.61,18.45-6.91,27.68c-0.06,0.26-0.1,0.52,0.05,0.88c0.99-1.61,2.01-3.22,2.98-4.84c3.58-5.98,7.6-11.63,12.66-16.48
		c7.3-6.99,15.9-11.37,25.85-13.12c3.75-0.66,7.51-0.99,11.25-0.12c5.99,1.4,9.25,5.37,10.58,11.23c1.61,7.1,0.68,13.99-1.82,20.66
		c-1.97,5.26-4.38,10.35-6.61,15.51c-2.14,4.95-3.97,10-4.7,15.37c-0.43,3.17-0.31,6.38,0.53,9.47c0.77,2.85,2.24,2.94,5.35,2.42
		c5.5-0.91,9.94-4,14.11-7.48c5.17-4.32,9.67-9.28,13.95-14.46c0.32-0.39,0.51-1.1,0.41-1.59c-1.42-7.08-0.69-14.05,1.13-20.94
		c3.07-11.59,8.7-21.84,16.59-30.82c9.61-10.93,21.34-18.66,35.35-22.78c4.21-1.24,8.47-2.16,12.88-2.44
		c3.89-0.25,7.65,0.09,11.21,1.69c5.63,2.53,8.62,7.17,9.85,13.03c1.5,7.1-0.28,13.6-3.88,19.7c-3.51,5.94-8.22,10.88-13.22,15.57
		c-9.81,9.19-20.76,16.85-31.98,24.17c-1.87,1.22-3.74,2.46-5.6,3.69C720.03,733.55,719.99,733.63,719.83,733.81z M578.13,726
		c-0.79,0.26-1.39,0.44-1.98,0.66c-6.01,2.24-12.04,4.44-18.02,6.75c-8.26,3.18-16.48,6.45-24.72,9.67
		c-0.66,0.26-0.99,0.6-1.07,1.36c-0.44,3.99-0.98,7.97-1.43,11.97c-0.5,4.39-0.96,8.78-1.4,13.17c-0.36,3.64-0.61,7.3-1.03,10.94
		c-0.49,4.36-0.93,8.73-0.38,13.1c0.22,1.76,0.66,3.53,1.28,5.18c0.92,2.45,2.85,3.15,5.2,2.02c1.14-0.55,2.35-1.12,3.27-1.97
		c3.06-2.8,6.21-5.54,8.95-8.63c9.11-10.31,17.02-21.55,24.74-32.93c1.55-2.29,2.36-4.67,2.76-7.36c0.92-6.25,2.01-12.48,3.02-18.72
		C577.59,729.52,577.84,727.84,578.13,726z M714.22,719.04c0.11,0.04,0.22,0.09,0.33,0.13c0.18-0.13,0.38-0.25,0.55-0.4
		c4.33-3.84,8.71-7.62,12.96-11.54c6.04-5.58,12.02-11.23,17.97-16.91c2.42-2.31,4.28-5.03,5.23-8.32c1.31-4.54-1.59-7.13-5.22-6.74
		c-2.65,0.28-5.35,0.98-7.81,2.01c-6.59,2.73-11.35,7.65-14.9,13.7c-3.96,6.76-6.5,14.09-8.05,21.75
		C714.85,714.82,714.57,716.93,714.22,719.04z"/>
</g>
</svg>
