<svg xmlns="http://www.w3.org/2000/svg" viewBox="0 0 1376.75 158.4"><defs><style>.cls-1{fill:#845349;}.cls-2{fill:#cb5349;}.cls-3{fill:#f8e9a1;}</style></defs><title>Asset 6</title><g id="Layer_2" data-name="Layer 2"><g id="teaser"><g id="lightbulb"><rect id="string" class="cls-1" y="58.1" width="1376.75" height="5"/><rect id="string-2" data-name="string" class="cls-1" y="111.1" width="1376.75" height="5"/><path id="lightbulbFont" class="cls-2" d="M108,6.38a4.18,4.18,0,0,1,4.18-4.18h20.24a4.33,4.33,0,0,1,4.18,4.18V129.8h56.1a4.18,4.18,0,0,1,4.18,4.18v18a4.18,4.18,0,0,1-4.18,4.18H112.13A4.18,4.18,0,0,1,108,152Z"/><path id="lightbulbFont-2" data-name="lightbulbFont" class="cls-2" d="M219,6.38a4.33,4.33,0,0,1,4.18-4.18h20.46a4.33,4.33,0,0,1,4.18,4.18V152a4.33,4.33,0,0,1-4.18,4.18H223.22A4.33,4.33,0,0,1,219,152Z"/><path id="lightbulbFont-3" data-name="lightbulbFont" class="cls-2" d="M355.88,0c19.8,0,38.72,7.7,53.68,20.46a4.26,4.26,0,0,1,.22,6.16l-13.64,14.3c-1.76,1.76-3.74,1.76-5.72,0A49.87,49.87,0,0,0,357.2,28.16c-27.5,0-49.28,23.54-49.28,51,0,27.28,21.78,50.38,49.5,50.38a68.82,68.82,0,0,0,26.18-5.5v-18.7H366a4,4,0,0,1-4.18-4V84A4,4,0,0,1,366,79.86h42.24a4.14,4.14,0,0,1,4,4.18v56.32a4.23,4.23,0,0,1-1.76,3.52s-22.66,14.3-54.56,14.3A79.09,79.09,0,0,1,355.88,0Z"/><path id="lightbulbFont-4" data-name="lightbulbFont" class="cls-2" d="M444.54,6.38a4.33,4.33,0,0,1,4.18-4.18h20.46a4.18,4.18,0,0,1,4.18,4.18v58.3h71.72V6.38a4.18,4.18,0,0,1,4.18-4.18H569.5a4.33,4.33,0,0,1,4.18,4.18V152a4.33,4.33,0,0,1-4.18,4.18H549.26a4.18,4.18,0,0,1-4.18-4.18V91.3H473.36V152a4.18,4.18,0,0,1-4.18,4.18H448.72a4.33,4.33,0,0,1-4.18-4.18Z"/><path id="lightbulbFont-5" data-name="lightbulbFont" class="cls-2" d="M634.4,28.6H600.74a4.18,4.18,0,0,1-4.18-4.18v-18a4.18,4.18,0,0,1,4.18-4.18h96.14a4.18,4.18,0,0,1,4.18,4.18v18a4.18,4.18,0,0,1-4.18,4.18H663.22V152A4.33,4.33,0,0,1,659,156.2H638.58A4.33,4.33,0,0,1,634.4,152Z"/><path id="lightbulbFont-6" data-name="lightbulbFont" class="cls-2" d="M772.56,6.38a4.18,4.18,0,0,1,4.18-4.18h50.38c26.18,0,46.42,17.6,46.42,40.7,0,16.94-13.86,30.14-24.2,35,11.66,3.74,28.6,15.62,28.6,35.86,0,24.64-21.12,42.46-48,42.46H776.74a4.18,4.18,0,0,1-4.18-4.18Zm51.92,60.5c11.22,0,18.92-8.8,18.92-19.8s-7.7-18.7-18.92-18.7H800.94v38.5Zm3.08,63.36a19.63,19.63,0,0,0,19.8-20c0-11-11-19.14-22.44-19.14h-24v39.16Z"/><path id="lightbulbFont-7" data-name="lightbulbFont" class="cls-2" d="M906.09,6.38a4.33,4.33,0,0,1,4.18-4.18h20.9a4.18,4.18,0,0,1,4.18,4.18v90c0,18.7,12.76,33.44,31.9,33.44s32.12-14.74,32.12-33.22V6.38a4.18,4.18,0,0,1,4.18-4.18h20.9a4.33,4.33,0,0,1,4.18,4.18V97.9c0,33.44-26.62,60.5-61.38,60.5-34.54,0-61.16-27.06-61.16-60.5Z"/><path id="lightbulbFont-8" data-name="lightbulbFont" class="cls-2" d="M1066.47,6.38a4.18,4.18,0,0,1,4.18-4.18h20.24a4.33,4.33,0,0,1,4.18,4.18V129.8h56.1a4.18,4.18,0,0,1,4.18,4.18v18a4.18,4.18,0,0,1-4.18,4.18h-80.52a4.18,4.18,0,0,1-4.18-4.18Z"/><path id="lightbulbFont-9" data-name="lightbulbFont" class="cls-2" d="M1177.57,6.38a4.18,4.18,0,0,1,4.18-4.18h50.38c26.18,0,46.42,17.6,46.42,40.7,0,16.94-13.86,30.14-24.2,35C1266,81.62,1283,93.5,1283,113.74c0,24.64-21.12,42.46-48,42.46h-53.24a4.18,4.18,0,0,1-4.18-4.18Zm51.92,60.5c11.22,0,18.92-8.8,18.92-19.8s-7.7-18.7-18.92-18.7H1206v38.5Zm3.08,63.36a19.63,19.63,0,0,0,19.8-20c0-11-11-19.14-22.44-19.14h-24v39.16Z"/><g id="light"><g id="light-2" data-name="light"><circle class="cls-3" cx="230.49" cy="18.05" r="9.5"/></g><g id="light-3" data-name="light"><circle class="cls-3" cx="230.49" cy="47.8" r="9.5"/></g><g id="light-4" data-name="light"><circle class="cls-3" cx="230.49" cy="77.55" r="9.5"/></g><g id="light-5" data-name="light"><circle class="cls-3" cx="230.49" cy="107.3" r="9.5"/></g><g id="light-6" data-name="light"><circle class="cls-3" cx="230.49" cy="137.05" r="9.5"/></g><g id="light-7" data-name="light"><circle class="cls-3" cx="121.5" cy="18.05" r="9.5"/></g><g id="light-8" data-name="light"><circle class="cls-3" cx="121.5" cy="48.8" r="9.5"/></g><g id="light-9" data-name="light"><circle class="cls-3" cx="121.5" cy="79.55" r="9.5"/></g><g id="light-10" data-name="light"><circle class="cls-3" cx="121.5" cy="110.3" r="9.5"/></g><g id="light-11" data-name="light"><circle class="cls-3" cx="121.5" cy="141.05" r="9.5"/></g><g id="light-12" data-name="light"><circle class="cls-3" cx="456.98" cy="18.05" r="9.5"/></g><g id="light-13" data-name="light"><circle class="cls-3" cx="456.98" cy="47.8" r="9.5"/></g><g id="light-14" data-name="light"><circle class="cls-3" cx="456.98" cy="76.07" r="9.5"/></g><g id="light-15" data-name="light"><circle class="cls-3" cx="456.98" cy="107.3" r="9.5"/></g><g id="light-16" data-name="light"><circle class="cls-3" cx="456.98" cy="137.05" r="9.5"/></g><g id="light-17" data-name="light"><circle class="cls-3" cx="557.96" cy="18.05" r="9.5"/></g><g id="light-18" data-name="light"><circle class="cls-3" cx="557.96" cy="47.8" r="9.5"/></g><g id="light-19" data-name="light"><circle class="cls-3" cx="557.96" cy="76.07" r="9.5"/></g><g id="light-20" data-name="light"><circle class="cls-3" cx="557.96" cy="107.3" r="9.5"/></g><g id="light-21" data-name="light"><circle class="cls-3" cx="557.96" cy="137.05" r="9.5"/></g><g id="light-22" data-name="light"><circle class="cls-3" cx="647.94" cy="13.05" r="9.5"/></g><g id="light-23" data-name="light"><circle class="cls-3" cx="647.94" cy="42.8" r="9.5"/></g><g id="light-24" data-name="light"><circle class="cls-3" cx="647.94" cy="72.55" r="9.5"/></g><g id="light-25" data-name="light"><circle class="cls-3" cx="647.94" cy="102.3" r="9.5"/></g><g id="light-26" data-name="light"><circle class="cls-3" cx="647.94" cy="132.05" r="9.5"/></g><g id="light-27" data-name="light"><circle class="cls-3" cx="1079.68" cy="18.05" r="9.5"/></g><g id="light-28" data-name="light"><circle class="cls-3" cx="1079.68" cy="47.8" r="9.5"/></g><g id="light-29" data-name="light"><circle class="cls-3" cx="1079.68" cy="77.55" r="9.5"/></g><g id="light-30" data-name="light"><circle class="cls-3" cx="1079.68" cy="109.3" r="9.5"/></g><g id="light-31" data-name="light"><circle class="cls-3" cx="1079.68" cy="140.05" r="9.5"/></g><g id="light-32" data-name="light"><circle class="cls-3" cx="178.5" cy="141.05" r="9.5"/></g><g id="light-33" data-name="light"><circle class="cls-3" cx="150" cy="141.05" r="9.5"/></g><g id="light-34" data-name="light"><circle class="cls-3" cx="372.5" cy="89.6" r="9.5"/></g><g id="light-35" data-name="light"><circle class="cls-3" cx="397.17" cy="89.6" r="9.5"/></g><g id="light-36" data-name="light"><circle class="cls-3" cx="397.17" cy="115.6" r="9.5"/></g><g id="light-37" data-name="light"><circle class="cls-3" cx="383.5" cy="136.6" r="9.5"/></g><g id="light-38" data-name="light"><circle class="cls-3" cx="358.5" cy="140.6" r="9.5"/></g><g id="light-39" data-name="light"><circle class="cls-3" cx="331" cy="134.6" r="9.5"/></g><g id="light-40" data-name="light"><circle class="cls-3" cx="306" cy="116.6" r="9.5"/></g><g id="light-41" data-name="light"><circle class="cls-3" cx="293.5" cy="89.6" r="9.5"/></g><g id="light-42" data-name="light"><circle class="cls-3" cx="293.5" cy="58.6" r="9.5"/></g><g id="light-43" data-name="light"><circle class="cls-3" cx="306" cy="31.6" r="9.5"/></g><g id="light-44" data-name="light"><circle class="cls-3" cx="331" cy="15.6" r="9.5"/></g><g id="light-45" data-name="light"><circle class="cls-3" cx="362.5" cy="12.6" r="9.5"/></g><g id="light-46" data-name="light"><circle class="cls-3" cx="393.17" cy="21.6" r="9.5"/></g><g id="light-47" data-name="light"><circle class="cls-3" cx="488.5" cy="76.07" r="9.5"/></g><g id="light-48" data-name="light"><circle class="cls-3" cx="522.5" cy="76.07" r="9.5"/></g><g id="light-49" data-name="light"><circle class="cls-3" cx="613.5" cy="13.05" r="9.5"/></g><g id="light-50" data-name="light"><circle class="cls-3" cx="679.5" cy="13.05" r="9.5"/></g><g id="light-51" data-name="light"><circle class="cls-3" cx="1110.09" cy="140.05" r="9.5"/></g><g id="light-52" data-name="light"><circle class="cls-3" cx="1139.5" cy="140.05" r="9.5"/></g><g id="light-53" data-name="light"><circle class="cls-3" cx="820.5" cy="76.94" r="9.5"/></g><g id="light-54" data-name="light"><circle class="cls-3" cx="817.5" cy="14.44" r="9.5"/></g><g id="light-55" data-name="light"><circle class="cls-3" cx="817.5" cy="140.44" r="9.5"/></g><g id="light-56" data-name="light"><circle class="cls-3" cx="846.5" cy="132.44" r="9.5"/></g><g id="light-57" data-name="light"><circle class="cls-3" cx="860.5" cy="111.44" r="9.5"/></g><g id="light-58" data-name="light"><circle class="cls-3" cx="855.5" cy="38.44" r="9.5"/></g><g id="light-59" data-name="light"><circle class="cls-3" cx="840.5" cy="19.44" r="9.5"/></g><g id="light-60" data-name="light"><circle class="cls-3" cx="849.5" cy="62.44" r="9.5"/></g><g id="light-61" data-name="light"><circle class="cls-3" cx="850.5" cy="89.44" r="9.5"/></g><g id="light-62" data-name="light"><circle class="cls-3" cx="786.81" cy="17.89" r="9.5"/></g><g id="light-63" data-name="light"><circle class="cls-3" cx="786.81" cy="47.64" r="9.5"/></g><g id="light-64" data-name="light"><circle class="cls-3" cx="786.81" cy="77.39" r="9.5"/></g><g id="light-65" data-name="light"><circle class="cls-3" cx="786.81" cy="107.14" r="9.5"/></g><g id="light-66" data-name="light"><circle class="cls-3" cx="786.81" cy="136.89" r="9.5"/></g><g id="light-67" data-name="light"><circle class="cls-3" cx="1224.02" cy="76.94" r="9.5"/></g><g id="light-68" data-name="light"><circle class="cls-3" cx="1221.02" cy="14.44" r="9.5"/></g><g id="light-69" data-name="light"><circle class="cls-3" cx="1221.02" cy="140.44" r="9.5"/></g><g id="light-70" data-name="light"><circle class="cls-3" cx="1250.02" cy="132.44" r="9.5"/></g><g id="light-71" data-name="light"><circle class="cls-3" cx="1264.02" cy="111.44" r="9.5"/></g><g id="light-72" data-name="light"><circle class="cls-3" cx="1259.02" cy="38.44" r="9.5"/></g><g id="light-73" data-name="light"><circle class="cls-3" cx="1244.02" cy="19.44" r="9.5"/></g><g id="light-74" data-name="light"><circle class="cls-3" cx="1253.02" cy="62.44" r="9.5"/></g><g id="light-75" data-name="light"><circle class="cls-3" cx="1254.02" cy="89.44" r="9.5"/></g><g id="light-76" data-name="light"><circle class="cls-3" cx="1190.33" cy="17.89" r="9.5"/></g><g id="light-77" data-name="light"><circle class="cls-3" cx="1190.33" cy="47.64" r="9.5"/></g><g id="light-78" data-name="light"><circle class="cls-3" cx="1190.33" cy="77.39" r="9.5"/></g><g id="light-79" data-name="light"><circle class="cls-3" cx="1190.33" cy="107.14" r="9.5"/></g><g id="light-80" data-name="light"><circle class="cls-3" cx="1190.33" cy="136.89" r="9.5"/></g><g id="light-81" data-name="light"><circle class="cls-3" cx="919.7" cy="14.89" r="9.5"/></g><g id="light-82" data-name="light"><circle class="cls-3" cx="919.7" cy="44.64" r="9.5"/></g><g id="light-83" data-name="light"><circle class="cls-3" cx="919.7" cy="74.39" r="9.5"/></g><g id="light-84" data-name="light"><circle class="cls-3" cx="920.7" cy="106.14" r="9.5"/></g><g id="light-85" data-name="light"><circle class="cls-3" cx="1012.72" cy="14.89" r="9.5"/></g><g id="light-86" data-name="light"><circle class="cls-3" cx="1012.72" cy="44.64" r="9.5"/></g><g id="light-87" data-name="light"><circle class="cls-3" cx="1012.72" cy="74.39" r="9.5"/></g><g id="light-88" data-name="light"><circle class="cls-3" cx="1012.72" cy="106.14" r="9.5"/></g><g id="light-89" data-name="light"><circle class="cls-3" cx="966.71" cy="141.6" r="9.5"/></g><g id="light-90" data-name="light"><circle class="cls-3" cx="935.71" cy="132.6" r="9.5"/></g><g id="light-91" data-name="light"><circle class="cls-3" cx="996.72" cy="132.6" r="9.5"/></g></g></g></g></g></svg>