<svg xmlns="http://www.w3.org/2000/svg" viewBox="0 0 1866.93 760.08"><defs><style>.cls-1{fill:#f8e9a1;}</style></defs><title>Asset 2</title><g id="Layer_2" data-name="Layer 2"><g id="background"><g id="star"><circle class="cls-1" cx="1417.92" cy="295.04" r="9.5"/></g><g id="star-2" data-name="star"><circle class="cls-1" cx="1699.92" cy="641.04" r="9.5"/></g><g id="star-3" data-name="star"><circle class="cls-1" cx="1479.92" cy="739.04" r="9.5"/></g><g id="star-4" data-name="star"><circle class="cls-1" cx="1761.92" cy="267.04" r="9.5"/></g><g id="star-5" data-name="star"><circle class="cls-1" cx="1547.92" cy="499.04" r="9.5"/></g><g id="star-6" data-name="star"><circle class="cls-1" cx="1096.92" cy="241.04" r="9.5"/></g><g id="star-7" data-name="star"><circle class="cls-1" cx="333.92" cy="157.04" r="9.5"/></g><g id="star-8" data-name="star"><circle class="cls-1" cx="161.38" cy="290.85" r="9.5"/></g><g id="star-9" data-name="star"><circle class="cls-1" cx="443.38" cy="636.85" r="9.5"/></g><g id="star-10" data-name="star"><circle class="cls-1" cx="424.38" cy="319.85" r="9.5"/></g><g id="star-11" data-name="star"><circle class="cls-1" cx="178.92" cy="568.04" r="9.5"/></g><g id="star-12" data-name="star"><circle class="cls-1" cx="1538.89" cy="301.58" r="9.5"/></g><g id="star-13" data-name="star"><circle class="cls-1" cx="1381.58" cy="376.07" r="8.04"/></g><g id="star-14" data-name="star"><circle class="cls-1" cx="1620.38" cy="669.05" r="8.04"/></g><g id="star-15" data-name="star"><circle class="cls-1" cx="1434.08" cy="752.04" r="8.04"/></g><g id="star-16" data-name="star"><circle class="cls-1" cx="1671.29" cy="416.62" r="8.04"/></g><g id="star-17" data-name="star"><circle class="cls-1" cx="1354.08" cy="585.72" r="8.04"/></g><g id="star-18" data-name="star"><circle class="cls-1" cx="463.67" cy="259.21" r="8.04"/></g><g id="star-19" data-name="star"><circle class="cls-1" cx="317.56" cy="372.52" r="8.04"/></g><g id="star-20" data-name="star"><circle class="cls-1" cx="556.35" cy="665.51" r="8.04"/></g><g id="star-21" data-name="star"><circle class="cls-1" cx="370.06" cy="748.49" r="8.04"/></g><g id="star-22" data-name="star"><circle class="cls-1" cx="540.27" cy="397.07" r="8.04"/></g><g id="star-23" data-name="star"><circle class="cls-1" cx="370.06" cy="529.17" r="8.04"/></g><g id="star-24" data-name="star"><circle class="cls-1" cx="1416.2" cy="167.21" r="8.04"/></g><g id="star-25" data-name="star"><circle class="cls-1" cx="685.92" cy="222.04" r="9.5"/></g><g id="star-26" data-name="star"><circle class="cls-1" cx="1288.92" cy="683.04" r="9.5"/></g><g id="star-27" data-name="star"><circle class="cls-1" cx="890.85" cy="221.19" r="9.5"/></g><g id="star-28" data-name="star"><circle class="cls-1" cx="1241.31" cy="140.53" r="9.5"/></g><g id="star-29" data-name="star"><circle class="cls-1" cx="970.78" cy="140.87" r="9.5"/></g><g id="star-30" data-name="star"><circle class="cls-1" cx="1774.89" cy="28.89" r="9.5"/></g><g id="star-31" data-name="star"><circle class="cls-1" cx="139.89" cy="465.89" r="9.5"/></g><g id="star-32" data-name="star"><circle class="cls-1" cx="1783.43" cy="558.09" r="9.5"/></g><g id="star-33" data-name="star"><circle class="cls-1" cx="120.89" cy="148.89" r="9.5"/></g><g id="star-34" data-name="star"><circle class="cls-1" cx="1792.43" cy="306.09" r="9.5"/></g><g id="star-35" data-name="star"><circle class="cls-1" cx="160.18" cy="88.25" r="8.04"/></g><g id="star-36" data-name="star"><circle class="cls-1" cx="14.07" cy="201.56" r="8.04"/></g><g id="star-37" data-name="star"><circle class="cls-1" cx="252.86" cy="494.55" r="8.04"/></g><g id="star-38" data-name="star"><circle class="cls-1" cx="66.57" cy="577.53" r="8.04"/></g><g id="star-39" data-name="star"><circle class="cls-1" cx="236.77" cy="226.12" r="8.04"/></g><g id="star-40" data-name="star"><circle class="cls-1" cx="66.57" cy="358.22" r="8.04"/></g><g id="star-41" data-name="star"><circle class="cls-1" cx="382.43" cy="51.09" r="9.5"/></g><g id="star-42" data-name="star"><circle class="cls-1" cx="373.43" cy="639.09" r="9.5"/></g><g id="star-43" data-name="star"><circle class="cls-1" cx="691.43" cy="725.09" r="9.5"/></g><g id="star-44" data-name="star"><circle class="cls-1" cx="1857.43" cy="675.09" r="9.5"/></g><g id="star-45" data-name="star"><circle class="cls-1" cx="1635.89" cy="163.89" r="9.5"/></g><g id="star-46" data-name="star"><circle class="cls-1" cx="522.57" cy="85.53" r="8.04"/></g><g id="star-47" data-name="star"><circle class="cls-1" cx="1562.57" cy="56.22" r="8.04"/></g><g id="star-48" data-name="star"><circle class="cls-1" cx="829.43" cy="147.09" r="9.5"/></g><g id="star-49" data-name="star"><circle class="cls-1" cx="114.86" cy="27.78" r="9.5"/></g><g id="star-50" data-name="star"><circle class="cls-1" cx="1229.37" cy="9.5" r="9.5"/></g><g id="star-51" data-name="star"><circle class="cls-1" cx="1072.07" cy="83.99" r="8.04"/></g><g id="star-52" data-name="star"><circle class="cls-1" cx="1361.77" cy="124.55" r="8.04"/></g><g id="star-53" data-name="star"><circle class="cls-1" cx="800.25" cy="38.26" r="8.04"/></g><g id="star-54" data-name="star"><circle class="cls-1" cx="8.04" cy="80.44" r="8.04"/></g><g id="star-55" data-name="star"><circle class="cls-1" cx="230.75" cy="105" r="8.04"/></g><g id="star-56" data-name="star"><circle class="cls-1" cx="461.73" cy="19.14" r="9.5"/></g><g id="star-57" data-name="star"><circle class="cls-1" cx="1482.91" cy="14.01" r="9.5"/></g><g id="star-58" data-name="star"><circle class="cls-1" cx="536.91" cy="22.01" r="9.5"/></g><g id="star-59" data-name="star"><circle class="cls-1" cx="666.66" cy="124.18" r="8.04"/></g><g id="star-60" data-name="star"><circle class="cls-1" cx="888.91" cy="87.01" r="9.5"/></g></g></g></svg>