<svg xmlns="http://www.w3.org/2000/svg" viewBox="0 0 1920 1080"><g id="ba12e874-90de-4e2b-a2f9-35589160782f" data-name="Layer 2"><g id="e4b37d06-5f64-4d44-ad70-fc9378de8591" data-name="main_background"><g id="f4f250ec-4ec4-468e-8af1-11f656a1870e" data-name="rectangle"><rect width="1920" height="1080" fill="aqua"/></g><polygon id="e6c6ca3d-8461-42b6-95e7-70c23f5274e2" data-name="star3" points="196 71.86 224.55 129.71 288.38 138.98 242.19 184.01 253.09 247.58 196 217.57 138.91 247.58 149.81 184.01 103.62 138.98 167.45 129.71 196 71.86" fill="#fcee21"/><polygon id="efac6098-7401-481f-ae86-b2fa40ddc307" data-name="star2" points="502 669.87 530.55 727.71 594.38 736.98 548.19 782.01 559.1 845.58 502 815.57 444.9 845.58 455.81 782.01 409.62 736.98 473.45 727.71 502 669.87" fill="#fcee21"/><polygon id="a5b01b4a-6e67-420d-9031-1c17abebb457" data-name="star1" points="1676 413.87 1704.55 471.71 1768.38 480.98 1722.19 526.01 1733.1 589.58 1676 559.57 1618.9 589.58 1629.81 526.01 1583.62 480.98 1647.45 471.71 1676 413.87" fill="#fcee21"/></g></g></svg>