<svg xmlns="http://www.w3.org/2000/svg" viewBox="0 0 612.59 617.04"><defs><style>.cls-1{fill:#f8e9a1;}.cls-2{fill:#243047;}.cls-3{fill:#24525e;}.cls-15,.cls-4,.cls-5{fill:#666;}.cls-4,.cls-5{stroke:#666;}.cls-10,.cls-11,.cls-4,.cls-5,.cls-6,.cls-8{stroke-linejoin:round;}.cls-11,.cls-4,.cls-8{stroke-width:2px;}.cls-6{fill:#b3b3b3;stroke:#b3b3b3;}.cls-10,.cls-11,.cls-12,.cls-7{fill:#1a1a1a;}.cls-8{fill:#006837;stroke:#006837;}.cls-9{fill:#f8e9e6;}.cls-10,.cls-11,.cls-12{stroke:#1a1a1a;}.cls-12{stroke-miterlimit:10;}.cls-13{fill:#f8e9be;}.cls-14{fill:#999;}</style></defs><title>Asset 3</title><g id="Layer_2" data-name="Layer 2"><g id="city"><g id="star"><circle class="cls-1" cx="482.48" cy="130.74" r="8.04"/></g><g id="star-2" data-name="star"><circle class="cls-1" cx="143.96" cy="111.62" r="9.5"/></g><g id="star-3" data-name="star"><circle class="cls-1" cx="219.14" cy="114.49" r="9.5"/></g><g id="star-4" data-name="star"><circle class="cls-1" cx="46.6" cy="248.3" r="9.5"/></g><g id="star-5" data-name="star"><circle class="cls-1" cx="309.6" cy="277.3" r="9.5"/></g><g id="star-6" data-name="star"><circle class="cls-1" cx="348.89" cy="216.66" r="8.04"/></g><g id="star-7" data-name="star"><circle class="cls-1" cx="202.78" cy="329.96" r="8.04"/></g><g id="star-8" data-name="star"><circle class="cls-1" cx="425.49" cy="354.52" r="8.04"/></g><g id="star-9" data-name="star"><circle class="cls-1" cx="255.28" cy="486.62" r="8.04"/></g><g id="star-10" data-name="star"><circle class="cls-1" cx="571.14" cy="179.49" r="9.5"/></g><path id="earthWater" class="cls-2" d="M552.38,465.25c-1.33-1.79-3.13-3.24-4.39-5.07-.86-1.25-1-2.94-1.72-4.34a10.4,10.4,0,0,0-2.15-3.31c-1.82-1.63-2.33-3.2-1.61-5.47.46-1.45.54-3,.88-4.49.22-.93.61-1.81.91-2.72.08-.26.22-.6.12-.8-1.6-3.22-2.13-7.06-5.32-9.38l-.51-.36c-1,.91-1.93,1.89-3,2.74-1.22,1-1.66.77-2.28-.69a15,15,0,0,1-1.24-7.06,2.36,2.36,0,0,0-.55-1.78c-2.24-1.73-4-4.16-6.8-5.11-1-.32-1.9-.67-2.85-1-2.22-.78-3.67-.23-5.39,1.39-2.92,2.74-6.09,5.22-9,7.93s-5.59,5.41-8.31,8.19a1.92,1.92,0,0,0-.19,1.61c1.4,4.31.21,7.91-3,10.91a33.6,33.6,0,0,1-4.15,3.28c-1.25.83-2.16.37-2.73-1.07-.71-1.78-1.61-3.5-2.4-5.25-.31-.7-.6-1.41-.86-2.13-.91-2.48-1.79-5-2.71-7.46-1.95-5.24-4.32-10.42-1.8-16.61a20.17,20.17,0,0,1-2.41.73,33.14,33.14,0,0,1-5,.53c-1,0-1.35-.78-.88-1.8.39-.85.65-1.76,1-2.64a16.49,16.49,0,0,0-3.37-.85c-2.65-.09-2.77-.08-3.69-2.64-1.1-3.09-1.81-3.44-5-2.8a21.94,21.94,0,0,1-10.35.13,19.37,19.37,0,0,0-5.28-.36,2.51,2.51,0,0,1-2.88-2c-.57-1.95-1.33-2.42-3.09-1.44-3.62,2-6.54,0-9.45-1.5-.85-.45-1.16-1.91-1.72-2.91a7.52,7.52,0,0,0-1.43-2.39c-1.26-1-2.23-2.37-4.34-2.24s-2.75,1.27-3.88,2.79c2.33.21,2.91,1.95,3.69,3.6a6.17,6.17,0,0,0,1.71,1.66c.9.75,1.86,1.42,2.73,2.21a1.22,1.22,0,0,1,.36,1.08c-.85,1.93.23,3,1.66,3.93.64.42,1.26.86,1.66,1.14a6.93,6.93,0,0,1,2.2-.65,5.24,5.24,0,0,0,4.76-2.21c1-1.24,2.17-2.36,3.27-3.53l.55.3a8.4,8.4,0,0,1,.18,1.64,3,3,0,0,0,2,3.21c1.58.79,3.08,1.73,4.62,2.61s1.81,1.92.4,3.05c-1.69,1.37-2.13,3.15-2.53,5.09a3.91,3.91,0,0,1-1.27,1.89c-2.29,2-4.63,3.94-7,5.86a5.33,5.33,0,0,1-1.89,1.1c-1.64.43-3.14.58-4.61,2a21.59,21.59,0,0,1-7.17,4.16,110.36,110.36,0,0,1-11.53,3.34,7.45,7.45,0,0,1-3-.15,2.14,2.14,0,0,1-1.91-2.72,12.16,12.16,0,0,0-2.8-10.82c-1.44-1.75-2.31-3.85-4.32-5.27-1.27-.9-1.89-2.78-2.7-4.28-1.09-2-2.07-4.07-3.11-6.1-.13-.26-.42-.46-.51-.72-1.11-3.2-3.06-5.93-4.8-8.77a2.27,2.27,0,0,1,.11-2.09,4.85,4.85,0,0,0,.92-3.64c-.12-2.25-.27-4.5-.19-6.74a5.14,5.14,0,0,1,1-2.7,3,3,0,0,0,.58-2.89c-.35-1.33-.08-2.83-.08-4.79a36.44,36.44,0,0,0-3.82-.14c-1.87.09-3.72.36-5.58.53-.53,0-1.13-.15-1.59,0-2.82,1.12-5.18,0-7.71-1.13-2-.94-3.59-2.1-4.25-4.2-.72-2.3-1.26-4.65-1.83-6.81a27.78,27.78,0,0,0-5.83,1c-.66.25-.92,2.08-1,3.22a6,6,0,0,0,.8,2.49c1.1,2.48-.61,4-1.95,5.59-.14.17-1.24,0-1.31-.27-1-3.21-3.51-5.38-5.44-8a11.18,11.18,0,0,1-1.46-2.57c-2,1.32-3.67.23-5.12,0-.36,1.56-.68,3-1,4.49a3,3,0,0,1-1.76,2.4c-.62.27-.93,1.38-1.25,2.16a16.29,16.29,0,0,0-.56,2.43,12.75,12.75,0,0,1-1.34-1.26,5,5,0,0,0-3.66-2.23c-.5-.05-1.38-.94-1.3-1.24.18-.67.77-1.59,1.34-1.72a13.91,13.91,0,0,1,3.34.08c1.16,0,2.31,0,3.43,0-.49-5-3.82-7.18-7.67-8.8a7.63,7.63,0,0,1-4.71-4.7c-1-3-4.41-3.69-7-1.9a14.56,14.56,0,0,1-4.4,2c-.81.22-1.83-.42-2.78-.58a8,8,0,0,0-2.61-.2A1.89,1.89,0,0,0,313,360.6c.13,1.52-.75,2.39-1.92,3.14a34.94,34.94,0,0,0-3.48,2.43,3.38,3.38,0,0,0-1.42,3.68,4.06,4.06,0,0,1-1.85,4.63,20.41,20.41,0,0,1-3.59,2.27,8.35,8.35,0,0,1-4.06.57c-1.4-.2-2.28,0-2.85,1.28a6,6,0,0,1-.56.91c-1.45,2.07-1.17,2.72,1.39,3.2a21.13,21.13,0,0,0,3.68.56,5.25,5.25,0,0,0,2.75-.74c3.54-2.37,7.13-4.26,11.62-4.24,3.95,0,7.91-.55,11.86-.83,1-.08,2-.1,3-.08,1.25,0,1.69.7,1.71,2a29,29,0,0,0,.59,3.41c.2,1.6.31,3.22.47,4.87a20,20,0,0,0,2.35,1.45,5.48,5.48,0,0,0,2.12.45c1.24,0,2.49-.19,3.72-.12,2,.11,3.57.8,4.05,3,.1.44.59,1.13.91,1.14,2.59.08,4.18,1.77,5.81,3.41a1.28,1.28,0,0,0,.38.2,19.15,19.15,0,0,0,2.42-2.07,2.81,2.81,0,0,0,.61-2c-.34-2.22.12-2.89,2.3-3.23a9.15,9.15,0,0,1,6.79,1.22,14,14,0,0,0,3.48,1.16,50.77,50.77,0,0,0,5.05,1.57c1.32.28,2.91.64,4.05.16,3.52-1.47,6.92-.87,10.41-.12s5,4.42,2.39,8c-.32.43-1.1.51-1.44.66,1.58,4.06,3.17,8.17,4.79,12.28a4.92,4.92,0,0,0,.81,1.56c2.47,2.71,3.21,6.16,4.58,9.4s2.28,7.18,5.86,9.4c2.06,1.28,3.64,3.35,5.41,5.1a2.73,2.73,0,0,1,.69,1.2c.65,2.64,1.82,3.85,4.51,3.69a68.55,68.55,0,0,0,8.75-1.26c2.07-.38,4.1-1,6.22-1.54-1,7.64-3.45,14.49-8.83,20-2.55,2.61-5.38,5-8,7.53-1.66,1.64-3.15,3.45-4.65,5.24-1.74,2.09-3.37,4.27-5.11,6.36a3.21,3.21,0,0,0-.81,2.87c.44,2.8.51,5.66.89,8.47s.87,5.77,1.48,8.62c1.14,5.29-.75,9.4-4.81,12.66-2.12,1.71-4.4,3.21-6.51,4.93a34.1,34.1,0,0,0-3.09,3.23c2.67,2.47,1.66,5,1.12,7.85-.63,3.23-3.08,4.21-5.64,5.66,2.55,2.38,1.17,4.12-.43,6.08-2.3,2.82-4.15,6-6.51,8.79-3.89,4.55-9.07,6.66-15,7.14-3.19.26-6.36.67-9.53,1a3.87,3.87,0,0,1-4-2.11,4.36,4.36,0,0,1-.74-2.33c.17-4.21-2.27-7.34-4.18-10.73-2.65-4.7-4.72-9.57-5.25-15.1a15.31,15.31,0,0,0-2.66-7c-3.89-5.56-3.32-11.23-1.16-17.07a16.92,16.92,0,0,1,1.89-3.4,3.87,3.87,0,0,0,.44-3.5c-.58-2.14-.81-4.38-1.26-6.56a19.3,19.3,0,0,0-1-3.7c-.24-.57-1-.93-1.37-1.23a13.94,13.94,0,0,0-1.09-3.06,61.62,61.62,0,0,0-4.24-5.68c-2.11-2.52-2.65-5-1.17-8.17.79-1.69.85-3.76,1.09-5.67.15-1.27-.62-2-1.89-2.09-1.77-.18-3.53-.46-5.3-.51a4,4,0,0,1-3-1.55,15.65,15.65,0,0,0-3.44-2.71c-1.57-.94-3.11-.61-4.88,0-5.45,2-10.79,4.53-16.92,3.69-2.62-.37-5.32-.13-8-.4a5.56,5.56,0,0,1-3.14-1.35c-2.71-2.65-5.33-5.4-7.78-8.28-1.47-1.74-2.52-3.84-3.85-5.72a14.62,14.62,0,0,0-2.06-2.18A11.19,11.19,0,0,1,264.4,431c1-3.3,1-6.67-1.41-9.6a2.62,2.62,0,0,1-.09-3.5c2.62-4.07,5-8.27,7.43-12.48a7.88,7.88,0,0,1,4.64-4c2-.68,3.8-2.23,5.85-3.5-2.24-3.21-.36-5.67.93-8.13.35-.68,1.35-1,2-1.54a12.52,12.52,0,0,0,2.75-2.32c1.31-1.92,2-4.38,4.84-5-.26-.41-.37-.59-.47-.77-2.69-4.44-1.46-3.49-6.11-3.94-1.27-.12-1.81-.58-2-1.75a9.75,9.75,0,0,0-.38-2.09,3.48,3.48,0,0,1,1-4,4,4,0,0,0,.93-2.85c-.16-2.09-.69-4.16-1-6.26-.07-.49.06-1.4.32-1.48a12.77,12.77,0,0,1,4.33-1.05c3.7.14,7.38.64,11.07.9,1.38.1,2.68-1.74,2.7-3.74a17,17,0,0,0-.27-3.71c-.37-1.67-1.14-3-3.14-3.38a7.73,7.73,0,0,1-3.23-1.36,4.1,4.1,0,0,1-1.3-2.34c-.24-1.24.6-1.88,1.72-1.33,2.29,1.13,4,.58,6-.92,1.28-1,3.18-1.1,4.8-1.6,1.18-.37,2.12-.79,2.35-2.19H145.27a2.51,2.51,0,0,0-1,.79,7.65,7.65,0,0,1-4.21,3c-2.86.79-4.18,3-4.33,6.06a12.62,12.62,0,0,1,6.71-5.14c2.65-.8,5.22-2.19,8.32-.52-1.77,1.93-3.38,3.6-5.95,3.79-2.29.17-2.88.86-2.4,3.06a27.59,27.59,0,0,0,1.19,3.88c.84,2.19-.17,3.55-2.5,3.91a18.83,18.83,0,0,0-5.11,1.74c-.46.21-.67,1.26-.73,1.95a9.41,9.41,0,0,0,.37,1.89c.26,2.11-.15,2.37-2.21,2.53a13.61,13.61,0,0,0-4,1.22,4.55,4.55,0,0,0-2.6,3c-.69,1.93-2.23,3.59-3.6,5.19-.55.64-1.67,1-1.87-.59a2.12,2.12,0,0,0-.76-1.37,5.72,5.72,0,0,0-.41,1.34,5.93,5.93,0,0,1-.2,2.15,11.36,11.36,0,0,1,1.74,2.09c1.32,2.67,1.27,2.7-1.14,4.36-.15.1-.28.21-.42.32-2.73,2.24-5.42,4.52-8.19,6.7-3,2.4-3.64,5.5-1.86,9a24.53,24.53,0,0,1,2.14,5.76,7.44,7.44,0,0,1-.51,3.93c-.58,1.54-2,1.66-2.83.29-1.65-2.71-3.56-5.3-3.92-8.64-.22-2.12-2-3.18-4.13-2.77a3.1,3.1,0,0,1-2.09-.42c-2.55-1.75-7.6-1.48-9.64.71-1.87,2-4.07.94-6,.43-3-.8-5.57-.54-8,1.49a5.24,5.24,0,0,1-1.5.91c-3,1.15-3.32,1.51-2.82,4.68a5.41,5.41,0,0,1-.67,4,4.73,4.73,0,0,0-.54,2.9c.39,3.38-.22,7,2.64,9.79A3.6,3.6,0,0,1,73.1,422c.39,1.09,1.26,1.37,2.19,1.93,3,1.77,5.64,0,8.4-.22a3,3,0,0,0,2.47-3.09c.07-2.14,1.14-3.06,3.13-3.29,1.64-.19,3.27-.6,4.91-.68s2.17.56,1.61,2.18-1.14,3.45-1.78,5a24.64,24.64,0,0,0-1.71,5.75,7,7,0,0,1-1,1.82c1.39,0,2.55,0,3.71,0,2.81,0,5.73-.65,8.26,1.15a2.32,2.32,0,0,1,.95,1.61,17.82,17.82,0,0,1-.55,4.18c-.84,3.2-.82,5.91,2.24,8.2,2.86,2.14,2.6,2.1,6.09.92a7.65,7.65,0,0,1,8.19,2.12,28,28,0,0,0,2.47-4.15c.86-2.26,2.71-2.68,4.68-3.15a7.81,7.81,0,0,0,2.38-.87,7.83,7.83,0,0,1,5.39-1.37c-2.76,2.28-4.07,4.58-2.66,7.47l.75.14a4.48,4.48,0,0,0,.19-1.67c-.63-2.45.6-4.42,3.06-4.48a4.59,4.59,0,0,1,4,1.44c.55.65,1.73.77,2.64,1.11.15.06.36-.05.52,0,1.54.34,3.11,1.1,4.6.95s2.77-1.31,4.22-1.81a7.83,7.83,0,0,1,2.57.08l-.37,2a14.52,14.52,0,0,0,1.72.44c2.49.3,2.62.5,1.75,2.46a37.35,37.35,0,0,1,3.85,1.35c1.34.63,2.82,1.31,2.11,3.18a31.23,31.23,0,0,0,4.09,2.38,5,5,0,0,0,2.9.14,7,7,0,0,1,6.26,1.53c1.41,1.12,3.24,1.91,4.2,3.31,1.25,1.81.4,4.78,3,6-.47,2.66,1.07,3.63,3.34,4.15.46.1.79.8,1.24,1.29,3.23-.44,6,1.27,8.71,2.83,1.69,1-.11,1.59-.79,2.41.42,0,.75.05.85-.06,1.67-1.91,3.48-1.67,5.6-.71a9.69,9.69,0,0,0,3.83.47,5.86,5.86,0,0,1,4.8,2.24,7.79,7.79,0,0,0,5.34,3.13,3.56,3.56,0,0,1,3.42,3.83,32.13,32.13,0,0,1-.38,5.46,5.74,5.74,0,0,1-3.15,4.09,4.92,4.92,0,0,0-2.73,3.49c-.28,1.27-.75,2.51-2.41,2.7-.26,0-.57.8-.61,1.25-.23,2.89-.33,5.79-.59,8.68a13.11,13.11,0,0,1-.81,2.84c-.15.45-.63.85-.62,1.26.13,3.17-2,5.37-3.44,7.81a6.66,6.66,0,0,1-5.33,3.31,6.35,6.35,0,0,0-4.29,1.76c-.44.42-1.33.37-2,.51-.49.1-1.09,0-1.45.27a27.5,27.5,0,0,0-3.85,3.1,4.75,4.75,0,0,0-1.24,2.7,42.81,42.81,0,0,0,.22,4.78,2.2,2.2,0,0,1-1.36,2.21,9,9,0,0,0-2.44,2.66,6.91,6.91,0,0,1-2.52,1.94c-1.28.71-2,2.41-3,3.72a47.57,47.57,0,0,1-3.83,5.42c-2.52,2.67-4.81,2.85-8.13,1.17a3.89,3.89,0,0,0-1.8-.39c1.65.73,2.42,1.83,2,3.6,0,.18.15.43.26.63,1.78,3.26.37,6-3.19,7.14a23.09,23.09,0,0,1-8,1.13c-.35,0-1,.41-1,.7-.17,1.14-.13,2.31-.26,3.45a279.42,279.42,0,0,0,393.49-97.52c-1.62-2.1-3.11-4.31-4.59-6.51-.72-1.07-1.08-2.38-1.85-3.4a48.06,48.06,0,0,0-4.11-4.69c-.77-.78-2-1.15-2.65-2-.4-.53-.11-1.6-.13-2.42a10.22,10.22,0,0,1,1.93.12,23.37,23.37,0,0,1,3.17,1,4.64,4.64,0,0,1,1.58,1c1.12,1.13,2.05,2.47,3.25,3.5a40.54,40.54,0,0,0,3.91,2.64,24.74,24.74,0,0,1,2.4,1.77c.45.39.92.77,1.39,1.14l.72-1.39A4.25,4.25,0,0,1,552.38,465.25ZM426.14,508.72a9,9,0,0,0-1.12,1.46c-.28.7-.14,1.62-.52,2.22-3,4.73-2.87,10.27-4.13,15.45-.1.4-.18.8-.29,1.2-.75,2.63-2.25,4-4.38,3.86-3.05-.13-5.17-1.76-5.63-4.39-.2-1.1-.3-2.22-.45-3.33-.33-2.16.82-3.77,2-5.33.92-1.21,1.38-2.33.6-3.87a46,46,0,0,1-1.67-4.52c-.75-2,.06-3.2,2.17-3.39a32.66,32.66,0,0,0,4.18-.62,4.08,4.08,0,0,0,3.35-3.12c.5-1.55,2.08-2.78,3.28-4,.14-.16,1.21.14,1.34.45a57,57,0,0,1,2.27,6.3C427.27,507.47,426.53,508.17,426.14,508.72Zm76.15-54.42c-.47,1.92-2.08,1.44-3.28,1.7-.19,0-.82-1.29-1-2.05a19.74,19.74,0,0,1-.33-2.87c.08-.93.15-1.75.2-2.58.08-1.29.67-1.52,1.74-.89C502.17,449.12,503,451.38,502.29,454.3Z"/><path id="earthWater-2" data-name="earthWater" class="cls-2" d="M351.05,362.3c.27-1.38-.73-2-1.78-2.22-2.71-.61-4.49-2.38-6.28-4.35a32,32,0,0,0-4.8-3.91c-.89-.65-1.6-.09-1.62.8a6.2,6.2,0,0,0,.52,3.42c2.59,3.82,5.29,7.62,10,9.24.61.21,1.25.36,1.85.61.79.34,1.56.74,2.62,1.26A8.89,8.89,0,0,1,351.05,362.3Z"/><path id="earthWater-3" data-name="earthWater" class="cls-2" d="M132.3,546.69a19.17,19.17,0,0,1,1.68-9.4,11.45,11.45,0,0,0,.76-4.67c.13-3.83-.09-7.63,1.29-11.39.55-1.52,0-3.68-.62-5.31-.46-1.19-1.8-2.15-2.94-2.95-3.51-2.45-7.14-4.73-10.64-7.2a5.46,5.46,0,0,1-1.27-2.2c-.59-1.31-1.1-2.67-1.68-4a23.6,23.6,0,0,0-1.16-2.37c-2-3.48-4-7-6-10.41-.91-1.55-1.91-3-2.83-4.58a1.45,1.45,0,0,1-.18-1,5.65,5.65,0,0,1,3.46-4.17c.59-.24,1-.93,1.5-1.41l-.38-.43c-.68.31-1.35.66-2,.92-1,.38-1.64.05-1.66-1.07,0-1.62-.29-3.13,1.45-4.38,1.52-1.09,3.16-2.7,3.62-4.39s1.59-2.3,2.48-3.41,1.13-2.94,1.25-4.48a11.1,11.1,0,0,0-.47-4.56,14.8,14.8,0,0,0-2.65-4.45c-.39-.46-1.67-.3-2.51-.19-.19,0-.35,1-.37,1.52-.05,1.41-.85,1.73-2,1.41a4.35,4.35,0,0,1-1.57-.81c-1.09-.91-2.13-1.22-3.48.43-1.35-1.55-2.35-3.46-3.92-4.29-2-1.07-3.51-2.06-4.18-4.42-.43-1.51-1.69-2.82-2.7-4.12A3.14,3.14,0,0,0,93,438c-1.57-.47-3.17-.83-4.76-1.24-.17-.05-.34-.2-.5-.18-3.65.46-5.55-2.24-7.77-4.31a4.56,4.56,0,0,0-5.21-.93,6.64,6.64,0,0,1-3.62,0,36.14,36.14,0,0,1-7.43-2.28c-4.14-2-8.72-3.26-12.07-6.75a3.57,3.57,0,0,1-1.12-3.93,3.52,3.52,0,0,0-.56-2.88c-2.52-2.87-5.24-5.56-7.89-8.32-.28-.3-.73-.58-.79-.92-.62-3.23-3.51-4.54-5.44-6.67A12,12,0,0,1,33,395a5.26,5.26,0,0,0-1.55-2.71q.73,3.69,1.56,7.33a22,22,0,0,1,1.63,2.11c1.53,2.32,2.64,4.92,4,7.36.27.49.88.78,1.25,1.24a7.92,7.92,0,0,1,1.33,2c.11.27-.37,1-.74,1.17a1.7,1.7,0,0,1-1.37-.38c-1.18-.94-2.36-1.9-3.49-2.91A279.46,279.46,0,0,0,131,555.91,29.5,29.5,0,0,0,132.3,546.69Z"/><path id="earthLand" class="cls-3" d="M584.73,337.15H308.79c-.23,1.4-1.17,1.82-2.35,2.19-1.62.5-3.52.63-4.8,1.6-2,1.5-3.72,2.05-6,.92-1.12-.55-2,.09-1.72,1.33a4.1,4.1,0,0,0,1.3,2.34,7.73,7.73,0,0,0,3.23,1.36c2,.34,2.77,1.71,3.14,3.38a17,17,0,0,1,.27,3.71c0,2-1.32,3.84-2.7,3.74-3.69-.26-7.37-.76-11.07-.9a12.77,12.77,0,0,0-4.33,1.05c-.26.08-.39,1-.32,1.48.3,2.1.83,4.17,1,6.26a4,4,0,0,1-.93,2.85,3.48,3.48,0,0,0-1,4,9.75,9.75,0,0,1,.38,2.09c.15,1.17.69,1.63,2,1.75,4.65.45,3.42-.5,6.11,3.94.1.18.21.36.47.77-2.89.61-3.53,3.07-4.84,5a12.52,12.52,0,0,1-2.75,2.32c-.68.53-1.68.86-2,1.54-1.29,2.46-3.17,4.92-.93,8.13-2.05,1.27-3.8,2.82-5.85,3.5a7.88,7.88,0,0,0-4.64,4c-2.39,4.21-4.81,8.41-7.43,12.48a2.62,2.62,0,0,0,.09,3.5c2.36,2.93,2.45,6.3,1.41,9.6a11.19,11.19,0,0,0,2.66,11.43,14.62,14.62,0,0,1,2.06,2.18c1.33,1.88,2.38,4,3.85,5.72,2.45,2.88,5.07,5.63,7.78,8.28a5.56,5.56,0,0,0,3.14,1.35c2.64.27,5.34,0,8,.4,6.13.84,11.47-1.73,16.92-3.69,1.77-.64,3.31-1,4.88,0a15.65,15.65,0,0,1,3.44,2.71,4,4,0,0,0,3,1.55c1.77.05,3.53.33,5.3.51,1.27.12,2,.82,1.89,2.09-.24,1.91-.3,4-1.09,5.67-1.48,3.13-.94,5.65,1.17,8.17a61.62,61.62,0,0,1,4.24,5.68,13.94,13.94,0,0,1,1.09,3.06c.36.3,1.13.66,1.37,1.23a19.3,19.3,0,0,1,1,3.7c.45,2.18.68,4.42,1.26,6.56a3.87,3.87,0,0,1-.44,3.5,16.92,16.92,0,0,0-1.89,3.4c-2.16,5.84-2.73,11.51,1.16,17.07a15.31,15.31,0,0,1,2.66,7c.53,5.53,2.6,10.4,5.25,15.1,1.91,3.39,4.35,6.52,4.18,10.73a4.36,4.36,0,0,0,.74,2.33,3.87,3.87,0,0,0,4,2.11c3.17-.36,6.34-.77,9.53-1,5.91-.48,11.09-2.59,15-7.14,2.36-2.76,4.21-6,6.51-8.79,1.6-2,3-3.7.43-6.08,2.56-1.45,5-2.43,5.64-5.66.54-2.81,1.55-5.38-1.12-7.85a34.1,34.1,0,0,1,3.09-3.23c2.11-1.72,4.39-3.22,6.51-4.93,4.06-3.26,5.95-7.37,4.81-12.66-.61-2.85-1.09-5.73-1.48-8.62s-.45-5.67-.89-8.47a3.21,3.21,0,0,1,.81-2.87c1.74-2.09,3.37-4.27,5.11-6.36,1.5-1.79,3-3.6,4.65-5.24,2.59-2.57,5.42-4.92,8-7.53,5.38-5.5,7.85-12.35,8.83-20-2.12.54-4.15,1.16-6.22,1.54a68.55,68.55,0,0,1-8.75,1.26c-2.69.16-3.86-1.05-4.51-3.69a2.73,2.73,0,0,0-.69-1.2c-1.77-1.75-3.35-3.82-5.41-5.1-3.58-2.22-4.48-6.14-5.86-9.4s-2.11-6.69-4.58-9.4a4.92,4.92,0,0,1-.81-1.56c-1.62-4.11-3.21-8.22-4.79-12.28.34-.15,1.12-.23,1.44-.66,2.61-3.57,1-7.26-2.39-8s-6.89-1.35-10.41.12c-1.14.48-2.73.12-4.05-.16a50.77,50.77,0,0,1-5.05-1.57,14,14,0,0,1-3.48-1.16,9.15,9.15,0,0,0-6.79-1.22c-2.18.34-2.64,1-2.3,3.23a2.81,2.81,0,0,1-.61,2,19.15,19.15,0,0,1-2.42,2.07,1.28,1.28,0,0,1-.38-.2c-1.63-1.64-3.22-3.33-5.81-3.41-.32,0-.81-.7-.91-1.14-.48-2.22-2.08-2.91-4.05-3-1.23-.07-2.48.15-3.72.12a5.48,5.48,0,0,1-2.12-.45,20,20,0,0,1-2.35-1.45c-.16-1.65-.27-3.27-.47-4.87a29,29,0,0,1-.59-3.41c0-1.26-.46-1.93-1.71-2-1,0-2,0-3,.08-3.95.28-7.91.85-11.86.83-4.49,0-8.08,1.87-11.62,4.24a5.25,5.25,0,0,1-2.75.74,21.13,21.13,0,0,1-3.68-.56c-2.56-.48-2.84-1.13-1.39-3.2a6,6,0,0,0,.56-.91c.57-1.3,1.45-1.48,2.85-1.28a8.35,8.35,0,0,0,4.06-.57,20.41,20.41,0,0,0,3.59-2.27,4.06,4.06,0,0,0,1.85-4.63,3.38,3.38,0,0,1,1.42-3.68,34.94,34.94,0,0,1,3.48-2.43c1.17-.75,2.05-1.62,1.92-3.14a1.89,1.89,0,0,1,1.52-2.26,8,8,0,0,1,2.61.2c.95.16,2,.8,2.78.58a14.56,14.56,0,0,0,4.4-2c2.58-1.79,6-1.06,7,1.9a7.63,7.63,0,0,0,4.71,4.7c3.85,1.62,7.18,3.77,7.67,8.8-1.12,0-2.27,0-3.43,0a13.91,13.91,0,0,0-3.34-.08c-.57.13-1.16,1-1.34,1.72-.08.3.8,1.19,1.3,1.24a5,5,0,0,1,3.66,2.23,12.75,12.75,0,0,0,1.34,1.26,16.29,16.29,0,0,1,.56-2.43c.32-.78.63-1.89,1.25-2.16a3,3,0,0,0,1.76-2.4c.36-1.46.68-2.93,1-4.49,1.45.2,3.11,1.29,5.12,0l-.08-.2c-1.06-.52-1.83-.92-2.62-1.26-.6-.25-1.24-.4-1.85-.61-4.66-1.62-7.36-5.42-10-9.24a6.2,6.2,0,0,1-.52-3.42c0-.89.73-1.45,1.62-.8a32,32,0,0,1,4.8,3.91c1.79,2,3.57,3.74,6.28,4.35,1.05.23,2.05.84,1.78,2.22a8.89,8.89,0,0,0,.46,4.85l.22.11-.14.09a11.18,11.18,0,0,0,1.46,2.57c1.93,2.59,4.4,4.76,5.44,8,.07.23,1.17.44,1.31.27,1.34-1.6,3.05-3.11,1.95-5.59a6,6,0,0,1-.8-2.49c.07-1.14.33-3,1-3.22a27.78,27.78,0,0,1,5.83-1c.57,2.16,1.11,4.51,1.83,6.81.66,2.1,2.23,3.26,4.25,4.2,2.53,1.17,4.89,2.25,7.71,1.13.46-.19,1.06,0,1.59,0,1.86-.17,3.71-.44,5.58-.53a36.44,36.44,0,0,1,3.82.14c0,2-.27,3.46.08,4.79a3,3,0,0,1-.58,2.89,5.14,5.14,0,0,0-1,2.7c-.08,2.24.07,4.49.19,6.74a4.85,4.85,0,0,1-.92,3.64,2.27,2.27,0,0,0-.11,2.09c1.74,2.84,3.69,5.57,4.8,8.77.09.26.38.46.51.72,1,2,2,4.09,3.11,6.1.81,1.5,1.43,3.38,2.7,4.28,2,1.42,2.88,3.52,4.32,5.27a12.16,12.16,0,0,1,2.8,10.82,2.14,2.14,0,0,0,1.91,2.72,7.45,7.45,0,0,0,3,.15,110.36,110.36,0,0,0,11.53-3.34,21.59,21.59,0,0,0,7.17-4.16c1.47-1.38,3-1.53,4.61-2a5.33,5.33,0,0,0,1.89-1.1c2.36-1.92,4.7-3.86,7-5.86a3.91,3.91,0,0,0,1.27-1.89c.4-1.94.84-3.72,2.53-5.09,1.41-1.13,1.15-2.16-.4-3.05s-3-1.82-4.62-2.61a3,3,0,0,1-2-3.21,8.4,8.4,0,0,0-.18-1.64l-.55-.3c-1.1,1.17-2.26,2.29-3.27,3.53a5.24,5.24,0,0,1-4.76,2.21,6.93,6.93,0,0,0-2.2.65c-.4-.28-1-.72-1.66-1.14-1.43-.94-2.51-2-1.66-3.93a1.22,1.22,0,0,0-.36-1.08c-.87-.79-1.83-1.46-2.73-2.21a6.17,6.17,0,0,1-1.71-1.66c-.78-1.65-1.36-3.39-3.69-3.6,1.13-1.52,1.88-2.67,3.88-2.79s3.08,1.25,4.34,2.24a7.52,7.52,0,0,1,1.43,2.39c.56,1,.87,2.46,1.72,2.91,2.91,1.54,5.83,3.51,9.45,1.5,1.76-1,2.52-.51,3.09,1.44a2.51,2.51,0,0,0,2.88,2,19.37,19.37,0,0,1,5.28.36,21.94,21.94,0,0,0,10.35-.13c3.2-.64,3.91-.29,5,2.8.92,2.56,1,2.55,3.69,2.64a16.49,16.49,0,0,1,3.37.85c-.32.88-.58,1.79-1,2.64-.47,1-.08,1.79.88,1.8a33.14,33.14,0,0,0,5-.53,20.17,20.17,0,0,0,2.41-.73c-2.52,6.19-.15,11.37,1.8,16.61.92,2.48,1.8,5,2.71,7.46.26.72.55,1.43.86,2.13.79,1.75,1.69,3.47,2.4,5.25.57,1.44,1.48,1.9,2.73,1.07a33.6,33.6,0,0,0,4.15-3.28c3.22-3,4.41-6.6,3-10.91a1.92,1.92,0,0,1,.19-1.61c2.72-2.78,5.45-5.55,8.31-8.19s6.11-5.19,9-7.93c1.72-1.62,3.17-2.17,5.39-1.39,1,.33,1.9.68,2.85,1,2.82.95,4.56,3.38,6.8,5.11a2.36,2.36,0,0,1,.55,1.78,15,15,0,0,0,1.24,7.06c.62,1.46,1.06,1.7,2.28.69,1-.85,2-1.83,3-2.74l.51.36c3.19,2.32,3.72,6.16,5.32,9.38.1.2,0,.54-.12.8-.3.91-.69,1.79-.91,2.72-.34,1.48-.42,3-.88,4.49-.72,2.27-.21,3.84,1.61,5.47a10.4,10.4,0,0,1,2.15,3.31c.67,1.4.86,3.09,1.72,4.34,1.26,1.83,3.06,3.28,4.39,5.07a4.25,4.25,0,0,0,1.06,1.06c.68-1.3,1.34-2.6,2-3.91q3.75-7.51,7-15.27,3.06-7.17,5.73-14.55,2.76-7.66,5.09-15.52a279.48,279.48,0,0,0,11.42-79.31Z"/><path id="earthLand-2" data-name="earthLand" class="cls-3" d="M217.48,481.84a7.79,7.79,0,0,1-5.34-3.13,5.86,5.86,0,0,0-4.8-2.24,9.69,9.69,0,0,1-3.83-.47c-2.12-1-3.93-1.2-5.6.71-.1.11-.43,0-.85.06.68-.82,2.48-1.44.79-2.41-2.72-1.56-5.48-3.27-8.71-2.83-.45-.49-.78-1.19-1.24-1.29-2.27-.52-3.81-1.49-3.34-4.15-2.62-1.22-1.77-4.19-3-6-1-1.4-2.79-2.19-4.2-3.31a7,7,0,0,0-6.26-1.53,5,5,0,0,1-2.9-.14,31.23,31.23,0,0,1-4.09-2.38c.71-1.87-.77-2.55-2.11-3.18a37.35,37.35,0,0,0-3.85-1.35c.87-2,.74-2.16-1.75-2.46a14.52,14.52,0,0,1-1.72-.44l.37-2a7.83,7.83,0,0,0-2.57-.08c-1.45.5-2.77,1.67-4.22,1.81s-3.06-.61-4.6-.95c-.16,0-.37.07-.52,0-.91-.34-2.09-.46-2.64-1.11a4.59,4.59,0,0,0-4-1.44c-2.46.06-3.69,2-3.06,4.48a4.48,4.48,0,0,1-.19,1.67l-.75-.14c-1.41-2.89-.1-5.19,2.66-7.47a7.83,7.83,0,0,0-5.39,1.37,7.81,7.81,0,0,1-2.38.87c-2,.47-3.82.89-4.68,3.15a28,28,0,0,1-2.47,4.15,7.65,7.65,0,0,0-8.19-2.12c-3.49,1.18-3.23,1.22-6.09-.92-3.06-2.29-3.08-5-2.24-8.2a17.82,17.82,0,0,0,.55-4.18,2.32,2.32,0,0,0-.95-1.61c-2.53-1.8-5.45-1.19-8.26-1.15-1.16,0-2.32,0-3.71,0a7,7,0,0,0,1-1.82A24.64,24.64,0,0,1,94,423.85c.64-1.56,1.19-3.33,1.78-5s.15-2.27-1.61-2.18-3.27.49-4.91.68c-2,.23-3.06,1.15-3.13,3.29a3,3,0,0,1-2.47,3.09c-2.76.23-5.44,2-8.4.22-.93-.56-1.8-.84-2.19-1.93a3.6,3.6,0,0,0-.79-1.37c-2.86-2.74-2.25-6.41-2.64-9.79a4.73,4.73,0,0,1,.54-2.9,5.41,5.41,0,0,0,.67-4c-.5-3.17-.2-3.53,2.82-4.68a5.24,5.24,0,0,0,1.5-.91c2.38-2,4.94-2.29,8-1.49,1.89.51,4.09,1.58,6-.43,2-2.19,7.09-2.46,9.64-.71a3.1,3.1,0,0,0,2.09.42c2.08-.41,3.91.65,4.13,2.77.36,3.34,2.27,5.93,3.92,8.64.84,1.37,2.25,1.25,2.83-.29a7.44,7.44,0,0,0,.51-3.93,24.53,24.53,0,0,0-2.14-5.76c-1.78-3.52-1.18-6.62,1.86-9,2.77-2.18,5.46-4.46,8.19-6.7.14-.11.27-.22.42-.32,2.41-1.66,2.46-1.69,1.14-4.36a11.36,11.36,0,0,0-1.74-2.09,5.93,5.93,0,0,0,.2-2.15,5.72,5.72,0,0,1,.41-1.34,2.12,2.12,0,0,1,.76,1.37c.2,1.55,1.32,1.23,1.87.59,1.37-1.6,2.91-3.26,3.6-5.19a4.55,4.55,0,0,1,2.6-3,13.61,13.61,0,0,1,4-1.22c2.06-.16,2.47-.42,2.21-2.53a9.41,9.41,0,0,1-.37-1.89c.06-.69.27-1.74.73-1.95a18.83,18.83,0,0,1,5.11-1.74c2.33-.36,3.34-1.72,2.5-3.91a27.59,27.59,0,0,1-1.19-3.88c-.48-2.2.11-2.89,2.4-3.06,2.57-.19,4.18-1.86,5.95-3.79-3.1-1.67-5.67-.28-8.32.52A12.62,12.62,0,0,0,135.7,347c.15-3,1.47-5.27,4.33-6.06a7.65,7.65,0,0,0,4.21-3,2.51,2.51,0,0,1,1-.79H26.15c0,.2,0,.4,0,.6a280.83,280.83,0,0,0,5.33,54.54A5.26,5.26,0,0,1,33,395a12,12,0,0,0,2.79,4.6c1.93,2.13,4.82,3.44,5.44,6.67.06.34.51.62.79.92,2.65,2.76,5.37,5.45,7.89,8.32a3.52,3.52,0,0,1,.56,2.88,3.57,3.57,0,0,0,1.12,3.93c3.35,3.49,7.93,4.75,12.07,6.75a36.14,36.14,0,0,0,7.43,2.28,6.64,6.64,0,0,0,3.62,0,4.56,4.56,0,0,1,5.21.93c2.22,2.07,4.12,4.77,7.77,4.31.16,0,.33.13.5.18,1.59.41,3.19.77,4.76,1.24a3.14,3.14,0,0,1,1.59.92c1,1.3,2.27,2.61,2.7,4.12.67,2.36,2.16,3.35,4.18,4.42,1.57.83,2.57,2.74,3.92,4.29,1.35-1.65,2.39-1.34,3.48-.43a4.35,4.35,0,0,0,1.57.81c1.17.32,2,0,2-1.41,0-.54.18-1.5.37-1.52.84-.11,2.12-.27,2.51.19a14.8,14.8,0,0,1,2.65,4.45,11.1,11.1,0,0,1,.47,4.56c-.12,1.54-.34,3.37-1.25,4.48s-2,1.7-2.48,3.41-2.1,3.3-3.62,4.39c-1.74,1.25-1.49,2.76-1.45,4.38,0,1.12.66,1.45,1.66,1.07.69-.26,1.36-.61,2-.92l.38.43c-.49.48-.91,1.17-1.5,1.41a5.65,5.65,0,0,0-3.46,4.17,1.45,1.45,0,0,0,.18,1c.92,1.54,1.92,3,2.83,4.58,2,3.45,4,6.93,6,10.41a23.6,23.6,0,0,1,1.16,2.37c.58,1.32,1.09,2.68,1.68,4a5.46,5.46,0,0,0,1.27,2.2c3.5,2.47,7.13,4.75,10.64,7.2,1.14.8,2.48,1.76,2.94,2.95.64,1.63,1.17,3.79.62,5.31-1.38,3.76-1.16,7.56-1.29,11.39a11.45,11.45,0,0,1-.76,4.67,19.17,19.17,0,0,0-1.68,9.4,29.5,29.5,0,0,1-1.26,9.22,280.71,280.71,0,0,0,23.89,17.15c.13-1.14.09-2.31.26-3.45,0-.29.69-.71,1-.7a23.09,23.09,0,0,0,8-1.13c3.56-1.13,5-3.88,3.19-7.14-.11-.2-.3-.45-.26-.63.4-1.77-.37-2.87-2-3.6a3.89,3.89,0,0,1,1.8.39c3.32,1.68,5.61,1.5,8.13-1.17a47.57,47.57,0,0,0,3.83-5.42c.93-1.31,1.69-3,3-3.72a6.91,6.91,0,0,0,2.52-1.94,9,9,0,0,1,2.44-2.66,2.2,2.2,0,0,0,1.36-2.21,42.81,42.81,0,0,1-.22-4.78,4.75,4.75,0,0,1,1.24-2.7,27.5,27.5,0,0,1,3.85-3.1c.36-.26,1-.17,1.45-.27.69-.14,1.58-.09,2-.51a6.35,6.35,0,0,1,4.29-1.76,6.66,6.66,0,0,0,5.33-3.31c1.39-2.44,3.57-4.64,3.44-7.81,0-.41.47-.81.62-1.26a13.11,13.11,0,0,0,.81-2.84c.26-2.89.36-5.79.59-8.68,0-.45.35-1.22.61-1.25,1.66-.19,2.13-1.43,2.41-2.7a4.92,4.92,0,0,1,2.73-3.49,5.74,5.74,0,0,0,3.15-4.09,32.13,32.13,0,0,0,.38-5.46A3.56,3.56,0,0,0,217.48,481.84Z"/><path id="earthLand-3" data-name="earthLand" class="cls-3" d="M499.61,447.61c-1.07-.63-1.66-.4-1.74.89-.05.83-.12,1.65-.2,2.58A19.74,19.74,0,0,0,498,454c.19.76.82,2.09,1,2.05,1.2-.26,2.81.22,3.28-1.7C503,451.38,502.17,449.12,499.61,447.61Z"/><path id="earthLand-4" data-name="earthLand" class="cls-3" d="M40.5,413.5c.37-.14.85-.9.74-1.17a7.92,7.92,0,0,0-1.33-2c-.37-.46-1-.75-1.25-1.24-1.36-2.44-2.47-5-4-7.36A22,22,0,0,0,33,399.62q1.2,5.34,2.61,10.59c1.13,1,2.31,2,3.49,2.91A1.7,1.7,0,0,0,40.5,413.5Z"/><path id="earthLand-5" data-name="earthLand" class="cls-3" d="M424.88,500.74c-.13-.31-1.2-.61-1.34-.45-1.2,1.27-2.78,2.5-3.28,4a4.08,4.08,0,0,1-3.35,3.12,32.66,32.66,0,0,1-4.18.62c-2.11.19-2.92,1.44-2.17,3.39a46,46,0,0,0,1.67,4.52c.78,1.54.32,2.66-.6,3.87-1.19,1.56-2.34,3.17-2,5.33.15,1.11.25,2.23.45,3.33.46,2.63,2.58,4.26,5.63,4.39,2.13.09,3.63-1.23,4.38-3.86.11-.4.19-.8.29-1.2,1.26-5.18,1.11-10.72,4.13-15.45.38-.6.24-1.52.52-2.22a9,9,0,0,1,1.12-1.46c.39-.55,1.13-1.25,1-1.68A57,57,0,0,0,424.88,500.74Z"/><path id="earthLand-6" data-name="earthLand" class="cls-3" d="M548.93,464.79a40.54,40.54,0,0,1-3.91-2.64c-1.2-1-2.13-2.37-3.25-3.5a4.64,4.64,0,0,0-1.58-1,23.37,23.37,0,0,0-3.17-1,10.22,10.22,0,0,0-1.93-.12c0,.82-.27,1.89.13,2.42.65.84,1.88,1.21,2.65,2a48.06,48.06,0,0,1,4.11,4.69c.77,1,1.13,2.33,1.85,3.4,1.48,2.2,3,4.41,4.59,6.51q2.21-3.89,4.3-7.84c-.47-.37-.94-.75-1.39-1.14A24.74,24.74,0,0,0,548.93,464.79Z"/><rect id="house" class="cls-4" x="353.45" y="114.98" width="76" height="221"/><polygon id="house-2" data-name="house" class="cls-4" points="187.38 275.01 176.34 263.98 111.34 263.98 100.34 274.98 105.86 274.98 105.86 335.98 181.86 335.98 181.86 275.01 187.38 275.01"/><polygon id="house-3" data-name="house" class="cls-4" points="268.52 188.98 251.99 153.43 237.22 188.98 231.42 188.98 231.42 335.98 274.42 335.98 274.42 188.98 268.52 188.98"/><g id="floods"><rect id="floodsBack" class="cls-4" x="1" y="142.98" width="18.18" height="8.08"/><rect id="floodsBack-2" data-name="floodsBack" class="cls-4" x="22.61" y="142.98" width="18.18" height="8.08"/><rect id="floodsBack-3" data-name="floodsBack" class="cls-4" x="44.21" y="142.98" width="18.18" height="8.08"/><rect id="floodsBack-4" data-name="floodsBack" class="cls-4" x="65.82" y="142.98" width="18.18" height="8.08"/><rect id="floodsBack-5" data-name="floodsBack" class="cls-4" x="1" y="154.69" width="18.18" height="8.08"/><rect id="floodsBack-6" data-name="floodsBack" class="cls-4" x="22.61" y="154.69" width="18.18" height="8.08"/><rect id="floodsBack-7" data-name="floodsBack" class="cls-4" x="44.21" y="154.69" width="18.18" height="8.08"/><rect id="floodsBack-8" data-name="floodsBack" class="cls-4" x="65.82" y="154.69" width="18.18" height="8.08"/><rect id="floodsBack-9" data-name="floodsBack" class="cls-4" x="1" y="166.41" width="18.18" height="8.08"/><rect id="floodsBack-10" data-name="floodsBack" class="cls-4" x="22.61" y="166.41" width="18.18" height="8.08"/><rect id="floodsBack-11" data-name="floodsBack" class="cls-4" x="44.21" y="166.41" width="18.18" height="8.08"/><rect id="floodsBack-12" data-name="floodsBack" class="cls-4" x="65.82" y="166.41" width="18.18" height="8.08"/><rect id="floodsBack-13" data-name="floodsBack" class="cls-4" x="1" y="178.13" width="18.18" height="8.08"/><rect id="floodsBack-14" data-name="floodsBack" class="cls-4" x="22.61" y="178.13" width="18.18" height="8.08"/><rect id="floodsBack-15" data-name="floodsBack" class="cls-4" x="44.21" y="178.13" width="18.18" height="8.08"/><rect id="floodsBack-16" data-name="floodsBack" class="cls-4" x="65.82" y="178.13" width="18.18" height="8.08"/><rect id="floodsBack-17" data-name="floodsBack" class="cls-4" x="39.5" y="186.06" width="6" height="149.91"/><rect id="floodLight" class="cls-1" x="1.77" y="142.95" width="18" height="8"/><rect id="floodLight-2" data-name="floodLight" class="cls-1" x="23.11" y="142.95" width="18" height="8"/><rect id="floodLight-3" data-name="floodLight" class="cls-1" x="44.44" y="142.95" width="18" height="8"/><rect id="floodLight-4" data-name="floodLight" class="cls-1" x="65.77" y="142.95" width="18" height="8"/><rect id="floodLight-5" data-name="floodLight" class="cls-1" x="1.77" y="154.67" width="18" height="8"/><rect id="floodLight-6" data-name="floodLight" class="cls-1" x="23.11" y="154.67" width="18" height="8"/><rect id="floodLight-7" data-name="floodLight" class="cls-1" x="44.44" y="154.67" width="18" height="8"/><rect id="floodLight-8" data-name="floodLight" class="cls-1" x="65.77" y="154.67" width="18" height="8"/><rect id="floodLight-9" data-name="floodLight" class="cls-1" x="1.77" y="166.39" width="18" height="8"/><rect id="floodLight-10" data-name="floodLight" class="cls-1" x="23.11" y="166.39" width="18" height="8"/><rect id="floodLight-11" data-name="floodLight" class="cls-1" x="44.44" y="166.39" width="18" height="8"/><rect id="floodLight-12" data-name="floodLight" class="cls-1" x="65.77" y="166.39" width="18" height="8"/><rect id="floodLight-13" data-name="floodLight" class="cls-1" x="1.77" y="178.12" width="18" height="8"/><rect id="floodLight-14" data-name="floodLight" class="cls-1" x="23.11" y="178.12" width="18" height="8"/><rect id="floodLight-15" data-name="floodLight" class="cls-1" x="44.44" y="178.12" width="18" height="8"/><rect id="floodLight-16" data-name="floodLight" class="cls-1" x="65.77" y="178.12" width="18" height="8"/></g><g id="windmill"><path id="windmillBack" class="cls-5" d="M569,68a9,9,0,1,0-13,8V336h8V76A9,9,0,0,0,569,68Z"/><ellipse id="rotor" class="cls-6" cx="532.59" cy="94.04" rx="34.95" ry="4.55" transform="translate(89.49 404.14) rotate(-45)"/><ellipse id="rotor-2" data-name="rotor" class="cls-6" cx="560.02" cy="35.45" rx="4.55" ry="34.95"/><ellipse id="rotor-3" data-name="rotor" class="cls-6" cx="587.16" cy="94.45" rx="4.55" ry="34.95" transform="translate(105.19 442.85) rotate(-45)"/><circle id="windmillFront" class="cls-7" cx="560.02" cy="67.98" r="6"/></g><path id="tree" class="cls-8" d="M99.18,270.68h-.3c-.06-.26-.12-.52-.2-.77a12.5,12.5,0,0,0-7-22.88h0a12.49,12.49,0,0,0-23-2.46,12.5,12.5,0,1,0-11.66,22.1c0,.07,0,.14,0,.2a9.49,9.49,0,1,0,12.08,14.6,19.12,19.12,0,0,0,3,1V336h9V284.75a12.12,12.12,0,0,0,4,1.19A14,14,0,0,0,96,298.39V336h6.32V298.39a14,14,0,0,0-3.16-27.71Z"/><g id="floods-2" data-name="floods"><rect id="floodsBack-18" data-name="floodsBack" class="cls-4" x="450.5" y="122.13" width="13.55" height="6.02"/><rect id="floodsBack-19" data-name="floodsBack" class="cls-4" x="466.6" y="122.13" width="13.55" height="6.02"/><rect id="floodsBack-20" data-name="floodsBack" class="cls-4" x="482.7" y="122.13" width="13.55" height="6.02"/><rect id="floodsBack-21" data-name="floodsBack" class="cls-4" x="498.81" y="122.13" width="13.55" height="6.02"/><rect id="floodsBack-22" data-name="floodsBack" class="cls-4" x="450.5" y="130.86" width="13.55" height="6.02"/><rect id="floodsBack-23" data-name="floodsBack" class="cls-4" x="466.6" y="130.86" width="13.55" height="6.02"/><rect id="floodsBack-24" data-name="floodsBack" class="cls-4" x="482.7" y="130.86" width="13.55" height="6.02"/><rect id="floodsBack-25" data-name="floodsBack" class="cls-4" x="498.81" y="130.86" width="13.55" height="6.02"/><rect id="floodsBack-26" data-name="floodsBack" class="cls-4" x="450.5" y="139.6" width="13.55" height="6.02"/><rect id="floodsBack-27" data-name="floodsBack" class="cls-4" x="466.6" y="139.6" width="13.55" height="6.02"/><rect id="floodsBack-28" data-name="floodsBack" class="cls-4" x="482.7" y="139.6" width="13.55" height="6.02"/><rect id="floodsBack-29" data-name="floodsBack" class="cls-4" x="498.81" y="139.6" width="13.55" height="6.02"/><rect id="floodsBack-30" data-name="floodsBack" class="cls-4" x="450.5" y="148.33" width="13.55" height="6.02"/><rect id="floodsBack-31" data-name="floodsBack" class="cls-4" x="466.6" y="148.33" width="13.55" height="6.02"/><rect id="floodsBack-32" data-name="floodsBack" class="cls-4" x="482.7" y="148.33" width="13.55" height="6.02"/><rect id="floodsBack-33" data-name="floodsBack" class="cls-4" x="498.81" y="148.33" width="13.55" height="6.02"/><rect id="floodsBack-34" data-name="floodsBack" class="cls-4" x="479.19" y="154.24" width="4.47" height="181.73"/><rect id="floodLight-17" data-name="floodLight" class="cls-1" x="451.07" y="122.11" width="13.42" height="5.96"/><rect id="floodLight-18" data-name="floodLight" class="cls-1" x="466.97" y="122.11" width="13.42" height="5.96"/><rect id="floodLight-19" data-name="floodLight" class="cls-1" x="482.87" y="122.11" width="13.42" height="5.96"/><rect id="floodLight-20" data-name="floodLight" class="cls-1" x="498.78" y="122.11" width="13.42" height="5.96"/><rect id="floodLight-21" data-name="floodLight" class="cls-1" x="451.07" y="130.84" width="13.42" height="5.96"/><rect id="floodLight-22" data-name="floodLight" class="cls-1" x="466.97" y="130.84" width="13.42" height="5.96"/><rect id="floodLight-23" data-name="floodLight" class="cls-1" x="482.87" y="130.84" width="13.42" height="5.96"/><rect id="floodLight-24" data-name="floodLight" class="cls-1" x="498.78" y="130.84" width="13.42" height="5.96"/><rect id="floodLight-25" data-name="floodLight" class="cls-1" x="451.07" y="139.58" width="13.42" height="5.96"/><rect id="floodLight-26" data-name="floodLight" class="cls-1" x="466.97" y="139.58" width="13.42" height="5.96"/><rect id="floodLight-27" data-name="floodLight" class="cls-1" x="482.87" y="139.58" width="13.42" height="5.96"/><rect id="floodLight-28" data-name="floodLight" class="cls-1" x="498.78" y="139.58" width="13.42" height="5.96"/><rect id="floodLight-29" data-name="floodLight" class="cls-1" x="451.07" y="148.32" width="13.42" height="5.96"/><rect id="floodLight-30" data-name="floodLight" class="cls-1" x="466.97" y="148.32" width="13.42" height="5.96"/><rect id="floodLight-31" data-name="floodLight" class="cls-1" x="482.87" y="148.32" width="13.42" height="5.96"/><rect id="floodLight-32" data-name="floodLight" class="cls-1" x="498.78" y="148.32" width="13.42" height="5.96"/></g><rect id="light" class="cls-9" x="118.1" y="281.95" width="11.14" height="11.14"/><rect id="light-2" data-name="light" class="cls-9" x="138.29" y="281.95" width="11.14" height="11.14"/><rect id="light-3" data-name="light" class="cls-9" x="158.48" y="281.95" width="11.14" height="11.14"/><path id="light-4" data-name="light" class="cls-9" d="M151.48,306.31a7.65,7.65,0,0,0-15.24,0h0V337h15.32V306.31Z"/><g id="lightMiddle"><rect id="light-5" data-name="light" class="cls-9" x="365.69" y="131.97" width="11.14" height="11.14"/><rect id="light-6" data-name="light" class="cls-9" x="385.88" y="131.97" width="11.14" height="11.14"/><rect id="light-7" data-name="light" class="cls-9" x="406.07" y="131.97" width="11.14" height="11.14"/><rect id="light-8" data-name="light" class="cls-9" x="365.69" y="153.97" width="11.14" height="11.14"/><rect id="light-9" data-name="light" class="cls-9" x="385.88" y="153.97" width="11.14" height="11.14"/><rect id="light-10" data-name="light" class="cls-9" x="406.07" y="153.97" width="11.14" height="11.14"/><rect id="light-11" data-name="light" class="cls-9" x="365.69" y="175.97" width="11.14" height="11.14"/><rect id="light-12" data-name="light" class="cls-9" x="385.88" y="175.97" width="11.14" height="11.14"/><rect id="light-13" data-name="light" class="cls-9" x="406.07" y="175.97" width="11.14" height="11.14"/><rect id="light-14" data-name="light" class="cls-9" x="365.69" y="199.97" width="11.14" height="11.14"/><rect id="light-15" data-name="light" class="cls-9" x="385.88" y="199.97" width="11.14" height="11.14"/><rect id="light-16" data-name="light" class="cls-9" x="406.07" y="199.97" width="11.14" height="11.14"/><rect id="light-17" data-name="light" class="cls-9" x="365.69" y="221.97" width="11.14" height="11.14"/><rect id="light-18" data-name="light" class="cls-9" x="385.88" y="221.97" width="11.14" height="11.14"/><rect id="light-19" data-name="light" class="cls-9" x="406.07" y="221.97" width="11.14" height="11.14"/><rect id="light-20" data-name="light" class="cls-9" x="365.69" y="243.97" width="11.14" height="11.14"/><rect id="light-21" data-name="light" class="cls-9" x="385.88" y="243.97" width="11.14" height="11.14"/><rect id="light-22" data-name="light" class="cls-9" x="406.07" y="243.97" width="11.14" height="11.14"/><rect id="light-23" data-name="light" class="cls-9" x="365.69" y="269.97" width="11.14" height="11.14"/><rect id="light-24" data-name="light" class="cls-9" x="385.88" y="269.97" width="11.14" height="11.14"/><rect id="light-25" data-name="light" class="cls-9" x="406.07" y="269.97" width="11.14" height="11.14"/><rect id="light-26" data-name="light" class="cls-9" x="365.69" y="313.97" width="11.14" height="11.14"/><rect id="light-27" data-name="light" class="cls-9" x="385.88" y="313.97" width="11.14" height="11.14"/><rect id="light-28" data-name="light" class="cls-9" x="406.07" y="313.97" width="11.14" height="11.14"/><rect id="light-29" data-name="light" class="cls-9" x="365.69" y="291.97" width="11.14" height="11.14"/><rect id="light-30" data-name="light" class="cls-9" x="385.88" y="291.97" width="11.14" height="11.14"/><rect id="light-31" data-name="light" class="cls-9" x="406.07" y="291.97" width="11.14" height="11.14"/></g><g id="lightLeft"><rect id="light-32" data-name="light" class="cls-1" x="235.76" y="197.95" width="12.12" height="8.27"/><rect id="light-33" data-name="light" class="cls-1" x="250.14" y="197.95" width="5.55" height="8.27"/><rect id="light-34" data-name="light" class="cls-1" x="257.97" y="197.95" width="12.12" height="8.27"/><rect id="light-35" data-name="light" class="cls-1" x="235.76" y="215.91" width="12.12" height="8.27"/><rect id="light-36" data-name="light" class="cls-1" x="250.14" y="215.91" width="5.55" height="8.27"/><rect id="light-37" data-name="light" class="cls-1" x="257.97" y="215.91" width="12.12" height="8.27"/><rect id="light-38" data-name="light" class="cls-1" x="235.76" y="233.87" width="12.12" height="8.27"/><rect id="light-39" data-name="light" class="cls-1" x="250.14" y="233.87" width="5.55" height="8.27"/><rect id="light-40" data-name="light" class="cls-1" x="257.97" y="233.87" width="12.12" height="8.27"/><rect id="light-41" data-name="light" class="cls-1" x="235.76" y="251.83" width="12.12" height="8.27"/><rect id="light-42" data-name="light" class="cls-1" x="250.14" y="251.83" width="5.55" height="8.27"/><rect id="light-43" data-name="light" class="cls-1" x="257.97" y="251.83" width="12.12" height="8.27"/><rect id="light-44" data-name="light" class="cls-1" x="235.76" y="269.79" width="12.12" height="8.27"/><rect id="light-45" data-name="light" class="cls-1" x="250.14" y="269.79" width="5.55" height="8.27"/><rect id="light-46" data-name="light" class="cls-1" x="257.97" y="269.79" width="12.12" height="8.27"/><rect id="light-47" data-name="light" class="cls-1" x="235.76" y="287.75" width="12.12" height="8.27"/><rect id="light-48" data-name="light" class="cls-1" x="250.14" y="287.75" width="5.55" height="8.27"/><rect id="light-49" data-name="light" class="cls-1" x="257.97" y="287.75" width="12.12" height="8.27"/><rect id="light-50" data-name="light" class="cls-1" x="235.76" y="305.72" width="12.12" height="8.27"/><rect id="light-51" data-name="light" class="cls-1" x="250.14" y="305.72" width="5.55" height="8.27"/><rect id="light-52" data-name="light" class="cls-1" x="257.97" y="305.72" width="12.12" height="8.27"/><rect id="light-53" data-name="light" class="cls-1" x="235.76" y="323.68" width="12.12" height="8.27"/><rect id="light-54" data-name="light" class="cls-1" x="250.14" y="323.68" width="5.55" height="8.27"/><rect id="light-55" data-name="light" class="cls-1" x="257.97" y="323.68" width="12.12" height="8.27"/></g><g id="houseBack"><g id="floods-3" data-name="floods"><rect id="floodsBack-35" data-name="floodsBack" class="cls-10" x="261.56" y="128.18" width="12.98" height="5.77"/><rect id="floodsBack-36" data-name="floodsBack" class="cls-10" x="276.98" y="128.18" width="12.98" height="5.77"/><rect id="floodsBack-37" data-name="floodsBack" class="cls-10" x="292.41" y="128.18" width="12.98" height="5.77"/><rect id="floodsBack-38" data-name="floodsBack" class="cls-10" x="307.83" y="128.18" width="12.98" height="5.77"/><rect id="floodsBack-39" data-name="floodsBack" class="cls-10" x="261.56" y="136.54" width="12.98" height="5.77"/><rect id="floodsBack-40" data-name="floodsBack" class="cls-10" x="276.98" y="136.54" width="12.98" height="5.77"/><rect id="floodsBack-41" data-name="floodsBack" class="cls-10" x="292.41" y="136.54" width="12.98" height="5.77"/><rect id="floodsBack-42" data-name="floodsBack" class="cls-10" x="307.83" y="136.54" width="12.98" height="5.77"/><rect id="floodsBack-43" data-name="floodsBack" class="cls-10" x="261.56" y="144.91" width="12.98" height="5.77"/><rect id="floodsBack-44" data-name="floodsBack" class="cls-10" x="276.98" y="144.91" width="12.98" height="5.77"/><rect id="floodsBack-45" data-name="floodsBack" class="cls-10" x="292.41" y="144.91" width="12.98" height="5.77"/><rect id="floodsBack-46" data-name="floodsBack" class="cls-10" x="307.83" y="144.91" width="12.98" height="5.77"/><rect id="floodsBack-47" data-name="floodsBack" class="cls-10" x="261.56" y="153.28" width="12.98" height="5.77"/><rect id="floodsBack-48" data-name="floodsBack" class="cls-10" x="276.98" y="153.28" width="12.98" height="5.77"/><rect id="floodsBack-49" data-name="floodsBack" class="cls-10" x="292.41" y="153.28" width="12.98" height="5.77"/><rect id="floodsBack-50" data-name="floodsBack" class="cls-10" x="307.83" y="153.28" width="12.98" height="5.77"/><rect id="floodsBack-51" data-name="floodsBack" class="cls-10" x="289.04" y="158.94" width="4.28" height="177.03"/><rect id="floodLight-33" data-name="floodLight" class="cls-1" x="262.1" y="128.15" width="12.79" height="5.71"/><rect id="floodLight-34" data-name="floodLight" class="cls-1" x="277.26" y="128.15" width="12.79" height="5.71"/><rect id="floodLight-35" data-name="floodLight" class="cls-1" x="292.42" y="128.15" width="12.79" height="5.71"/><rect id="floodLight-36" data-name="floodLight" class="cls-1" x="307.57" y="128.15" width="12.79" height="5.71"/><rect id="floodLight-37" data-name="floodLight" class="cls-1" x="262.1" y="136.51" width="12.79" height="5.71"/><rect id="floodLight-38" data-name="floodLight" class="cls-1" x="277.26" y="136.51" width="12.79" height="5.71"/><rect id="floodLight-39" data-name="floodLight" class="cls-1" x="292.42" y="136.51" width="12.79" height="5.71"/><rect id="floodLight-40" data-name="floodLight" class="cls-1" x="307.57" y="136.51" width="12.79" height="5.71"/><rect id="floodLight-41" data-name="floodLight" class="cls-1" x="262.1" y="144.88" width="12.79" height="5.71"/><rect id="floodLight-42" data-name="floodLight" class="cls-1" x="277.26" y="144.88" width="12.79" height="5.71"/><rect id="floodLight-43" data-name="floodLight" class="cls-1" x="292.42" y="144.88" width="12.79" height="5.71"/><rect id="floodLight-44" data-name="floodLight" class="cls-1" x="307.57" y="144.88" width="12.79" height="5.71"/><rect id="floodLight-45" data-name="floodLight" class="cls-1" x="262.1" y="153.24" width="12.79" height="5.71"/><rect id="floodLight-46" data-name="floodLight" class="cls-1" x="277.26" y="153.24" width="12.79" height="5.71"/><rect id="floodLight-47" data-name="floodLight" class="cls-1" x="292.42" y="153.24" width="12.79" height="5.71"/><rect id="floodLight-48" data-name="floodLight" class="cls-1" x="307.57" y="153.24" width="12.79" height="5.71"/></g><path id="house-4" data-name="house" class="cls-11" d="M382.55,211a59.51,59.51,0,0,0-115.43,0h-5.28V336h126V211Z"/><polygon id="house-5" data-name="house" class="cls-11" points="364.85 114.98 364.85 102.98 322.85 102.98 322.85 114.98 311.85 114.98 311.85 335.98 375.85 335.98 375.85 114.98 364.85 114.98"/><path id="house-6" data-name="house" class="cls-12" d="M244.66,83a26.49,26.49,0,0,0-52.75,0h-3.12v52h4.5V336h50V135h4.5V83Z"/><polygon id="house-7" data-name="house" class="cls-11" points="177.91 179.98 177.91 173.98 174.91 173.98 174.91 165.98 170.41 165.98 170.41 157.98 151.41 157.98 151.41 165.98 146.91 165.98 146.91 173.98 143.91 173.98 143.91 179.98 135.91 179.98 135.91 335.98 185.91 335.98 185.91 179.98 177.91 179.98"/><polygon id="house-8" data-name="house" class="cls-11" points="464.65 184.56 445.81 147.95 428.98 184.56 422.37 184.56 422.37 335.98 471.37 335.98 471.37 184.56 464.65 184.56"/><g id="lightMiddle-2" data-name="lightMiddle"><rect id="light-56" data-name="light" class="cls-1" x="319.1" y="122.95" width="49.5" height="10.28"/><rect id="light-57" data-name="light" class="cls-1" x="319.1" y="139.18" width="49.5" height="5.41"/><rect id="light-58" data-name="light" class="cls-1" x="319.1" y="150.55" width="49.5" height="10.28"/><rect id="light-59" data-name="light" class="cls-1" x="319.1" y="177.75" width="49.5" height="10.28"/><rect id="light-60" data-name="light" class="cls-1" x="319.1" y="193.99" width="49.5" height="5.41"/><rect id="light-61" data-name="light" class="cls-1" x="319.1" y="205.36" width="49.5" height="10.28"/><rect id="light-62" data-name="light" class="cls-1" x="319.1" y="232.56" width="49.5" height="10.28"/><rect id="light-63" data-name="light" class="cls-1" x="319.1" y="248.8" width="49.5" height="5.41"/><rect id="light-64" data-name="light" class="cls-1" x="319.1" y="260.16" width="49.5" height="10.28"/><rect id="light-65" data-name="light" class="cls-1" x="319.1" y="287.36" width="49.5" height="10.28"/><rect id="light-66" data-name="light" class="cls-1" x="319.1" y="303.6" width="49.5" height="5.41"/><rect id="light-67" data-name="light" class="cls-1" x="319.1" y="314.97" width="49.5" height="10.28"/></g><g id="lightRight"><rect id="light-68" data-name="light" class="cls-1" x="429.37" y="190.95" width="35" height="6"/><rect id="light-69" data-name="light" class="cls-1" x="429.37" y="202.45" width="35" height="6"/><rect id="light-70" data-name="light" class="cls-1" x="429.37" y="213.95" width="35" height="6"/><rect id="light-71" data-name="light" class="cls-1" x="429.37" y="225.45" width="35" height="6"/><rect id="light-72" data-name="light" class="cls-1" x="429.37" y="236.95" width="35" height="6"/><rect id="light-73" data-name="light" class="cls-1" x="429.37" y="248.45" width="35" height="6"/><rect id="light-74" data-name="light" class="cls-1" x="429.37" y="259.95" width="35" height="6"/><rect id="light-75" data-name="light" class="cls-1" x="429.37" y="328.95" width="35" height="6"/><rect id="light-76" data-name="light" class="cls-1" x="429.37" y="317.45" width="35" height="6"/><rect id="light-77" data-name="light" class="cls-1" x="429.37" y="305.95" width="35" height="6"/><rect id="light-78" data-name="light" class="cls-1" x="429.37" y="294.45" width="35" height="6"/><rect id="light-79" data-name="light" class="cls-1" x="429.37" y="282.95" width="35" height="6"/><rect id="light-80" data-name="light" class="cls-1" x="429.37" y="271.45" width="35" height="6"/></g><circle id="watchLight" class="cls-13" cx="218.29" cy="107.45" r="22.5"/><circle id="light-81" data-name="light" class="cls-1" cx="144.41" cy="190.95" r="6"/><circle id="light-82" data-name="light" class="cls-1" cx="160.91" cy="190.95" r="6"/><circle id="light-83" data-name="light" class="cls-1" cx="177.41" cy="190.95" r="6"/><rect id="clock" class="cls-7" x="217.36" y="92.95" width="0.98" height="13.84"/><polygon id="clock-2" data-name="clock" class="cls-7" points="229.36 116.33 228.67 116.95 217.62 107.16 218.31 106.55 229.36 116.33"/><path id="windmill-2" data-name="windmill" class="cls-10" d="M555.22,174a110.83,110.83,0,0,0-14.75-12.79,5.87,5.87,0,0,0,.62-2.61,6,6,0,0,0-3.79-5.54,135.06,135.06,0,0,0,.84-16c0-12.78-1.35-23.13-3-23.13s-3,10.35-3,23.13a137.51,137.51,0,0,0,.83,16,5.91,5.91,0,0,0-3.3,7.85c-3.5,2.3-9,7-14.8,12.81-9,9-15.41,17.31-14.23,18.49S510.07,187,519.1,178a114.66,114.66,0,0,0,12.63-14.5,5.73,5.73,0,0,0,.75.45V336h5.3V164a4.85,4.85,0,0,0,.49-.29A111.1,111.1,0,0,0,551,178.27c9,9,17.31,15.41,18.49,14.23S564.25,183.05,555.22,174Z"/><path id="tree-2" data-name="tree" class="cls-8" d="M502.58,271.28h-.29c-.06-.26-.13-.52-.2-.77,6.49-4.36,8.67-14.64-1.22-23.11l-5.75.23a12.5,12.5,0,0,0-23-2.46c-4.14-2.28-9.71-2.29-15,1.72a1.07,1.07,0,0,0-.26.26c-6.11,8.23-2.74,17,3.84,20.21-4.12,2.91-5.85,9-1.52,14.71,5,3.81,10.24,3,13.45,0a19.12,19.12,0,0,0,3,1v53.52h9V285.35a12.56,12.56,0,0,0,4,1.19A14.05,14.05,0,0,0,499.42,299v37.58h6.32V299a14,14,0,0,0-3.16-27.71Z"/></g><g id="houseFront"><rect id="house-9" data-name="house" class="cls-14" x="324.03" y="263.95" width="66" height="73"/><rect id="house-10" data-name="house" class="cls-15" x="362.36" y="309.95" width="20" height="27"/><circle id="light-84" data-name="light" class="cls-1" cx="339.03" cy="281.95" r="7"/><circle id="light-85" data-name="light" class="cls-1" cx="357.03" cy="281.95" r="7"/><circle id="light-86" data-name="light" class="cls-1" cx="375.03" cy="281.95" r="7"/><rect id="light-87" data-name="light" class="cls-1" x="335.03" y="293.95" width="44" height="10"/></g></g></g></svg>