<svg xmlns="http://www.w3.org/2000/svg" viewBox="0 0 1926 1080">
  <g id="background">
    <g id="darkBg">
      <rect width="1926" height="1080" fill="#333"/>
    </g>
    <g id="star">
      <circle cx="1453.95" cy="304.5" r="9.5" fill="#f8e9a1"/>
    </g>
    <g id="star-2" data-name="star">
      <circle cx="1735.95" cy="650.5" r="9.5" fill="#f8e9a1"/>
    </g>
    <g id="star-3" data-name="star">
      <circle cx="1515.95" cy="748.5" r="9.5" fill="#f8e9a1"/>
    </g>
    <g id="star-4" data-name="star">
      <circle cx="1797.95" cy="276.5" r="9.5" fill="#f8e9a1"/>
    </g>
    <g id="star-5" data-name="star">
      <circle cx="1583.95" cy="508.5" r="9.5" fill="#f8e9a1"/>
    </g>
    <g id="star-6" data-name="star">
      <circle cx="1697.95" cy="929.5" r="9.5" fill="#f8e9a1"/>
    </g>
    <g id="star-7" data-name="star">
      <circle cx="1132.95" cy="250.5" r="9.5" fill="#f8e9a1"/>
    </g>
    <g id="star-8" data-name="star">
      <circle cx="369.95" cy="166.5" r="9.5" fill="#f8e9a1"/>
    </g>
    <g id="star-9" data-name="star">
      <circle cx="197.4" cy="300.31" r="9.5" fill="#f8e9a1"/>
    </g>
    <g id="star-10" data-name="star">
      <circle cx="479.4" cy="646.31" r="9.5" fill="#f8e9a1"/>
    </g>
    <g id="star-11" data-name="star">
      <circle cx="205.95" cy="829.5" r="9.5" fill="#f8e9a1"/>
    </g>
    <g id="star-12" data-name="star">
      <circle cx="460.4" cy="329.31" r="9.5" fill="#f8e9a1"/>
    </g>
    <g id="star-13" data-name="star">
      <circle cx="214.95" cy="577.5" r="9.5" fill="#f8e9a1"/>
    </g>
    <g id="star-14" data-name="star">
      <circle cx="441.4" cy="925.31" r="9.5" fill="#f8e9a1"/>
    </g>
    <g id="star-15" data-name="star">
      <circle cx="1574.91" cy="311.03" r="9.5" fill="#f8e9a1"/>
    </g>
    <g id="star-16" data-name="star">
      <circle cx="1417.61" cy="385.52" r="8.04" fill="#f8e9a1"/>
    </g>
    <g id="star-17" data-name="star">
      <circle cx="1656.4" cy="678.51" r="8.04" fill="#f8e9a1"/>
    </g>
    <g id="star-18" data-name="star">
      <circle cx="1470.11" cy="761.5" r="8.04" fill="#f8e9a1"/>
    </g>
    <g id="star-19" data-name="star">
      <circle cx="1707.31" cy="426.08" r="8.04" fill="#f8e9a1"/>
    </g>
    <g id="star-20" data-name="star">
      <circle cx="1390.11" cy="595.18" r="8.04" fill="#f8e9a1"/>
    </g>
    <g id="star-21" data-name="star">
      <circle cx="1275.35" cy="847.02" r="8.04" fill="#f8e9a1"/>
    </g>
    <g id="star-22" data-name="star">
      <circle cx="1624.22" cy="914.76" r="8.04" fill="#f8e9a1"/>
    </g>
    <g id="star-23" data-name="star">
      <circle cx="1145.79" cy="339.8" r="8.04" fill="#f8e9a1"/>
    </g>
    <g id="star-24" data-name="star">
      <circle cx="499.69" cy="268.67" r="8.04" fill="#f8e9a1"/>
    </g>
    <g id="star-25" data-name="star">
      <circle cx="353.59" cy="381.97" r="8.04" fill="#f8e9a1"/>
    </g>
    <g id="star-26" data-name="star">
      <circle cx="592.38" cy="674.96" r="8.04" fill="#f8e9a1"/>
    </g>
    <g id="star-27" data-name="star">
      <circle cx="406.09" cy="757.95" r="8.04" fill="#f8e9a1"/>
    </g>
    <g id="star-28" data-name="star">
      <circle cx="576.29" cy="406.53" r="8.04" fill="#f8e9a1"/>
    </g>
    <g id="star-29" data-name="star">
      <circle cx="406.09" cy="538.63" r="8.04" fill="#f8e9a1"/>
    </g>
    <g id="star-30" data-name="star">
      <circle cx="560.2" cy="911.21" r="8.04" fill="#f8e9a1"/>
    </g>
    <g id="star-31" data-name="star">
      <circle cx="1452.22" cy="176.67" r="8.04" fill="#f8e9a1"/>
    </g>
    <g id="star-32" data-name="star">
      <circle cx="721.95" cy="231.5" r="9.5" fill="#f8e9a1"/>
    </g>
    <g id="star-33" data-name="star">
      <circle cx="712.95" cy="819.5" r="9.5" fill="#f8e9a1"/>
    </g>
    <g id="star-34" data-name="star">
      <circle cx="1324.95" cy="692.5" r="9.5" fill="#f8e9a1"/>
    </g>
    <g id="star-35" data-name="star">
      <circle cx="926.87" cy="230.65" r="9.5" fill="#f8e9a1"/>
    </g>
    <g id="star-36" data-name="star">
      <circle cx="1277.34" cy="149.99" r="9.5" fill="#f8e9a1"/>
    </g>
    <g id="star-37" data-name="star">
      <circle cx="1006.81" cy="150.33" r="9.5" fill="#f8e9a1"/>
    </g>
    <g id="star-38" data-name="star">
      <circle cx="807.28" cy="320.67" r="9.5" fill="#f8e9a1"/>
    </g>
    <g id="star-39" data-name="star">
      <circle cx="786.74" cy="920.01" r="9.5" fill="#f8e9a1"/>
    </g>
    <g id="star-40" data-name="star">
      <circle cx="1137.21" cy="940.35" r="9.5" fill="#f8e9a1"/>
    </g>
    <g id="star-41" data-name="star">
      <circle cx="316.46" cy="1025.54" r="9.5" fill="#f8e9a1"/>
    </g>
    <g id="star-42" data-name="star">
      <circle cx="1810.91" cy="38.35" r="9.5" fill="#f8e9a1"/>
    </g>
    <g id="star-43" data-name="star">
      <circle cx="175.91" cy="475.35" r="9.5" fill="#f8e9a1"/>
    </g>
    <g id="star-44" data-name="star">
      <circle cx="1819.46" cy="567.54" r="9.5" fill="#f8e9a1"/>
    </g>
    <g id="star-45" data-name="star">
      <circle cx="156.91" cy="158.35" r="9.5" fill="#f8e9a1"/>
    </g>
    <g id="star-46" data-name="star">
      <circle cx="1828.46" cy="315.54" r="9.5" fill="#f8e9a1"/>
    </g>
    <g id="star-47" data-name="star">
      <circle cx="196.2" cy="97.71" r="8.04" fill="#f8e9a1"/>
    </g>
    <g id="star-48" data-name="star">
      <circle cx="50.1" cy="211.02" r="8.04" fill="#f8e9a1"/>
    </g>
    <g id="star-49" data-name="star">
      <circle cx="288.89" cy="504" r="8.04" fill="#f8e9a1"/>
    </g>
    <g id="star-50" data-name="star">
      <circle cx="102.6" cy="586.99" r="8.04" fill="#f8e9a1"/>
    </g>
    <g id="star-51" data-name="star">
      <circle cx="272.8" cy="235.57" r="8.04" fill="#f8e9a1"/>
    </g>
    <g id="star-52" data-name="star">
      <circle cx="102.6" cy="367.67" r="8.04" fill="#f8e9a1"/>
    </g>
    <g id="star-53" data-name="star">
      <circle cx="418.46" cy="60.54" r="9.5" fill="#f8e9a1"/>
    </g>
    <g id="star-54" data-name="star">
      <circle cx="409.46" cy="648.54" r="9.5" fill="#f8e9a1"/>
    </g>
    <g id="star-55" data-name="star">
      <circle cx="882.46" cy="323.54" r="9.5" fill="#f8e9a1"/>
    </g>
    <g id="star-56" data-name="star">
      <circle cx="709.91" cy="457.35" r="9.5" fill="#f8e9a1"/>
    </g>
    <g id="star-57" data-name="star">
      <circle cx="991.91" cy="803.35" r="9.5" fill="#f8e9a1"/>
    </g>
    <g id="star-58" data-name="star">
      <circle cx="718.46" cy="986.54" r="9.5" fill="#f8e9a1"/>
    </g>
    <g id="star-59" data-name="star">
      <circle cx="972.91" cy="486.35" r="9.5" fill="#f8e9a1"/>
    </g>
    <g id="star-60" data-name="star">
      <circle cx="727.46" cy="734.54" r="9.5" fill="#f8e9a1"/>
    </g>
    <g id="star-61" data-name="star">
      <circle cx="1012.2" cy="425.71" r="8.04" fill="#f8e9a1"/>
    </g>
    <g id="star-62" data-name="star">
      <circle cx="866.1" cy="539.02" r="8.04" fill="#f8e9a1"/>
    </g>
    <g id="star-63" data-name="star">
      <circle cx="1104.89" cy="832" r="8.04" fill="#f8e9a1"/>
    </g>
    <g id="star-64" data-name="star">
      <circle cx="918.6" cy="914.99" r="8.04" fill="#f8e9a1"/>
    </g>
    <g id="star-65" data-name="star">
      <circle cx="1088.8" cy="563.57" r="8.04" fill="#f8e9a1"/>
    </g>
    <g id="star-66" data-name="star">
      <circle cx="918.6" cy="695.67" r="8.04" fill="#f8e9a1"/>
    </g>
    <g id="star-67" data-name="star">
      <circle cx="1234.46" cy="388.54" r="9.5" fill="#f8e9a1"/>
    </g>
    <g id="star-68" data-name="star">
      <circle cx="1225.46" cy="976.54" r="9.5" fill="#f8e9a1"/>
    </g>
    <g id="star-69" data-name="star">
      <circle cx="1893.46" cy="684.54" r="9.5" fill="#f8e9a1"/>
    </g>
    <g id="star-70" data-name="star">
      <circle cx="1720.91" cy="818.35" r="9.5" fill="#f8e9a1"/>
    </g>
    <g id="star-71" data-name="star">
      <circle cx="1671.91" cy="173.35" r="9.5" fill="#f8e9a1"/>
    </g>
    <g id="star-72" data-name="star">
      <circle cx="1729.46" cy="1007.54" r="9.5" fill="#f8e9a1"/>
    </g>
    <g id="star-73" data-name="star">
      <circle cx="66.91" cy="938.35" r="9.5" fill="#f8e9a1"/>
    </g>
    <g id="star-74" data-name="star">
      <circle cx="1418.46" cy="905.54" r="9.5" fill="#f8e9a1"/>
    </g>
    <g id="star-75" data-name="star">
      <circle cx="106.2" cy="877.71" r="8.04" fill="#f8e9a1"/>
    </g>
    <g id="star-76" data-name="star">
      <circle cx="1877.1" cy="900.02" r="8.04" fill="#f8e9a1"/>
    </g>
    <g id="star-77" data-name="star">
      <circle cx="994.89" cy="1042" r="8.04" fill="#f8e9a1"/>
    </g>
    <g id="star-78" data-name="star">
      <circle cx="558.6" cy="94.99" r="8.04" fill="#f8e9a1"/>
    </g>
    <g id="star-79" data-name="star">
      <circle cx="182.8" cy="1015.57" r="8.04" fill="#f8e9a1"/>
    </g>
    <g id="star-80" data-name="star">
      <circle cx="1598.6" cy="65.67" r="8.04" fill="#f8e9a1"/>
    </g>
    <g id="star-81" data-name="star">
      <circle cx="328.46" cy="840.54" r="9.5" fill="#f8e9a1"/>
    </g>
    <g id="star-82" data-name="star">
      <circle cx="865.46" cy="156.54" r="9.5" fill="#f8e9a1"/>
    </g>
    <g id="star-83" data-name="star">
      <circle cx="150.89" cy="37.23" r="9.5" fill="#f8e9a1"/>
    </g>
    <g id="star-84" data-name="star">
      <circle cx="1265.4" cy="18.96" r="9.5" fill="#f8e9a1"/>
    </g>
    <g id="star-85" data-name="star">
      <circle cx="1108.09" cy="93.45" r="8.04" fill="#f8e9a1"/>
    </g>
    <g id="star-86" data-name="star">
      <circle cx="1397.8" cy="134" r="8.04" fill="#f8e9a1"/>
    </g>
    <g id="star-87" data-name="star">
      <circle cx="836.27" cy="47.72" r="8.04" fill="#f8e9a1"/>
    </g>
    <g id="star-88" data-name="star">
      <circle cx="44.07" cy="89.9" r="8.04" fill="#f8e9a1"/>
    </g>
    <g id="star-89" data-name="star">
      <circle cx="266.77" cy="114.46" r="8.04" fill="#f8e9a1"/>
    </g>
    <g id="star-90" data-name="star">
      <circle cx="497.76" cy="28.59" r="9.5" fill="#f8e9a1"/>
    </g>
    <g id="star-91" data-name="star">
      <circle cx="1518.94" cy="23.47" r="9.5" fill="#f8e9a1"/>
    </g>
    <g id="star-92" data-name="star">
      <circle cx="572.94" cy="31.47" r="9.5" fill="#f8e9a1"/>
    </g>
    <g id="star-93" data-name="star">
      <circle cx="702.69" cy="133.63" r="8.04" fill="#f8e9a1"/>
    </g>
    <g id="star-94" data-name="star">
      <circle cx="924.94" cy="96.47" r="9.5" fill="#f8e9a1"/>
    </g>
  </g>
  <g id="earth">
    <path id="earthWater" d="M1209,674.31c-1.33-1.79-3.13-3.24-4.39-5.07-.86-1.25-1.05-3-1.72-4.35a10.46,10.46,0,0,0-2.15-3.3c-1.82-1.63-2.33-3.21-1.61-5.48.46-1.44.54-3,.88-4.49.22-.93.62-1.81.91-2.72.09-.25.22-.6.12-.79-1.6-3.23-2.13-7.07-5.32-9.39l-.51-.36c-1,.92-1.93,1.89-3,2.75-1.22,1-1.66.76-2.28-.7a15,15,0,0,1-1.24-7,2.37,2.37,0,0,0-.55-1.79c-2.24-1.73-4-4.15-6.8-5.11-1-.32-1.9-.66-2.85-1-2.22-.78-3.67-.22-5.39,1.39-2.92,2.74-6.08,5.22-9,7.94s-5.59,5.4-8.31,8.19a1.9,1.9,0,0,0-.19,1.6c1.4,4.32.22,7.92-3,10.91a32.68,32.68,0,0,1-4.15,3.28c-1.25.83-2.16.37-2.73-1.06-.71-1.79-1.6-3.5-2.4-5.26-.31-.69-.59-1.41-.86-2.12-.91-2.49-1.79-5-2.71-7.46-2-5.24-4.32-10.42-1.8-16.61a19.82,19.82,0,0,1-2.41.72,33.14,33.14,0,0,1-5,.53c-1,0-1.35-.77-.88-1.8.39-.85.65-1.75,1-2.63a16.1,16.1,0,0,0-3.38-.85c-2.65-.1-2.77-.09-3.68-2.65-1.11-3.08-1.82-3.44-5-2.79a22.21,22.21,0,0,1-10.35.13,19.37,19.37,0,0,0-5.28-.37,2.5,2.5,0,0,1-2.88-2c-.56-1.95-1.33-2.41-3.09-1.43-3.62,2-6.54,0-9.45-1.5-.85-.45-1.16-1.92-1.72-2.92a7.81,7.81,0,0,0-1.42-2.39c-1.27-1-2.24-2.37-4.35-2.24s-2.75,1.27-3.88,2.79c2.33.22,2.91,2,3.69,3.6a6,6,0,0,0,1.71,1.66c.9.75,1.87,1.43,2.73,2.21a1.23,1.23,0,0,1,.36,1.08c-.85,1.94.24,3,1.66,3.93l1.66,1.14a7.27,7.27,0,0,1,2.2-.65,5.24,5.24,0,0,0,4.76-2.21c1-1.24,2.17-2.35,3.27-3.52l.55.29A7.77,7.77,0,0,1,1099,616a3,3,0,0,0,2,3.22c1.58.78,3.08,1.72,4.62,2.6s1.81,1.93.4,3.06c-1.69,1.36-2.13,3.14-2.53,5.08a3.89,3.89,0,0,1-1.27,1.9c-2.29,2-4.63,3.93-7,5.85a5.35,5.35,0,0,1-1.89,1.11c-1.64.42-3.14.58-4.61,2a21.76,21.76,0,0,1-7.17,4.16,112.8,112.8,0,0,1-11.53,3.33,7.27,7.27,0,0,1-3-.15,2.14,2.14,0,0,1-1.91-2.71,12.18,12.18,0,0,0-2.8-10.83c-1.44-1.74-2.31-3.85-4.32-5.27-1.27-.9-1.89-2.78-2.7-4.27-1.09-2-2.07-4.08-3.11-6.11-.13-.26-.42-.45-.51-.72-1.11-3.2-3.06-5.92-4.8-8.77a2.27,2.27,0,0,1,.11-2.09,4.85,4.85,0,0,0,.92-3.64c-.12-2.24-.26-4.49-.19-6.73a5.26,5.26,0,0,1,1-2.71,3,3,0,0,0,.58-2.89c-.35-1.33-.08-2.82-.08-4.79-1,0-2.43-.2-3.82-.14-1.87.09-3.72.37-5.58.54-.53.05-1.13-.15-1.59,0-2.82,1.12-5.18.05-7.71-1.13-2-.94-3.59-2.1-4.25-4.2-.72-2.29-1.26-4.64-1.83-6.8a27.89,27.89,0,0,0-5.83,1c-.66.24-.92,2.08-1,3.21a6.09,6.09,0,0,0,.8,2.5c1.1,2.48-.61,4-1.95,5.59a1.56,1.56,0,0,1-1.31-.28c-1-3.21-3.51-5.38-5.44-8a11.56,11.56,0,0,1-1.46-2.57c-2,1.32-3.67.23-5.12,0-.36,1.56-.68,3-1,4.5a3,3,0,0,1-1.76,2.39c-.62.28-.93,1.38-1.25,2.17a16.11,16.11,0,0,0-.56,2.42,11.77,11.77,0,0,1-1.34-1.26,5,5,0,0,0-3.66-2.23c-.5,0-1.38-.94-1.3-1.23.18-.68.77-1.6,1.34-1.73a15.12,15.12,0,0,1,3.35.08c1.15,0,2.3,0,3.42,0-.49-5-3.82-7.18-7.67-8.8a7.65,7.65,0,0,1-4.71-4.7c-1-3-4.41-3.7-7-1.91a14.32,14.32,0,0,1-4.4,2c-.81.22-1.83-.42-2.78-.57a7.44,7.44,0,0,0-2.6-.2,1.89,1.89,0,0,0-1.53,2.26c.13,1.51-.75,2.39-1.91,3.13a32.54,32.54,0,0,0-3.49,2.44,3.36,3.36,0,0,0-1.42,3.67,4.08,4.08,0,0,1-1.85,4.64,21.64,21.64,0,0,1-3.59,2.27,8.46,8.46,0,0,1-4.06.56c-1.4-.2-2.28,0-2.85,1.29a6.43,6.43,0,0,1-.56.9c-1.45,2.07-1.17,2.72,1.39,3.2a20.22,20.22,0,0,0,3.68.56,5.25,5.25,0,0,0,2.75-.74c3.54-2.36,7.13-4.26,11.62-4.24,3.95,0,7.91-.54,11.86-.83,1-.07,2-.1,3-.07,1.25,0,1.7.69,1.71,2a29.69,29.69,0,0,0,.59,3.41c.2,1.6.31,3.21.47,4.87a20.81,20.81,0,0,0,2.35,1.44,5.32,5.32,0,0,0,2.13.45c1.23,0,2.48-.18,3.71-.12,2,.11,3.57.8,4.05,3,.1.45.59,1.14.91,1.15,2.59.07,4.18,1.76,5.81,3.4a1.08,1.08,0,0,0,.38.2,18.37,18.37,0,0,0,2.42-2.07,2.79,2.79,0,0,0,.61-1.95c-.34-2.22.12-2.89,2.3-3.22a9.19,9.19,0,0,1,6.79,1.21,14.4,14.4,0,0,0,3.48,1.17c1.68.54,3.33,1.2,5.05,1.57,1.32.28,2.91.63,4,.16,3.52-1.47,6.92-.87,10.41-.13s5,4.42,2.39,8c-.32.43-1.1.52-1.44.66,1.58,4.06,3.17,8.18,4.79,12.28a5.09,5.09,0,0,0,.81,1.57c2.47,2.71,3.21,6.16,4.58,9.4s2.28,7.17,5.86,9.39c2.06,1.29,3.64,3.35,5.41,5.1a2.74,2.74,0,0,1,.69,1.2c.65,2.64,1.82,3.85,4.51,3.7a72.31,72.31,0,0,0,8.75-1.26c2.07-.38,4.1-1,6.22-1.54-1,7.63-3.44,14.48-8.83,20-2.55,2.61-5.38,4.95-8,7.52-1.66,1.65-3.15,3.45-4.65,5.25-1.74,2.09-3.37,4.27-5.11,6.35a3.23,3.23,0,0,0-.81,2.88c.44,2.79.51,5.65.89,8.46s.87,5.77,1.49,8.62c1.13,5.3-.76,9.4-4.81,12.66-2.13,1.71-4.41,3.21-6.52,4.93a35.35,35.35,0,0,0-3.09,3.23c2.67,2.48,1.66,5,1.12,7.85-.63,3.24-3.08,4.21-5.64,5.67,2.55,2.38,1.17,4.11-.43,6.07-2.3,2.83-4.15,6-6.51,8.8-3.89,4.55-9.06,6.65-15,7.13-3.18.26-6.35.67-9.53,1a3.88,3.88,0,0,1-4-2.1,4.51,4.51,0,0,1-.74-2.34c.18-4.21-2.27-7.34-4.18-10.72-2.65-4.71-4.71-9.58-5.24-15.1a15.44,15.44,0,0,0-2.67-7c-3.89-5.56-3.32-11.23-1.16-17.07a16.84,16.84,0,0,1,1.89-3.39,3.86,3.86,0,0,0,.44-3.51c-.58-2.14-.81-4.37-1.26-6.56a19.51,19.51,0,0,0-1-3.7c-.24-.57-1-.92-1.37-1.23a13,13,0,0,0-1.09-3.06,63,63,0,0,0-4.24-5.68c-2.11-2.52-2.65-5-1.17-8.17.79-1.69.85-3.75,1.09-5.67.15-1.26-.62-2-1.89-2.09-1.77-.17-3.53-.45-5.3-.51a4,4,0,0,1-3-1.55,15.9,15.9,0,0,0-3.44-2.7c-1.57-1-3.11-.62-4.88,0-5.45,2-10.79,4.54-16.92,3.69-2.62-.36-5.32-.12-8-.39a5.64,5.64,0,0,1-3.14-1.36c-2.7-2.65-5.33-5.39-7.78-8.28-1.47-1.74-2.52-3.84-3.85-5.71a14.69,14.69,0,0,0-2.06-2.19A11.19,11.19,0,0,1,921,640.08c1-3.29,1-6.66-1.41-9.6a2.6,2.6,0,0,1-.09-3.49c2.62-4.07,5.05-8.27,7.43-12.49a7.91,7.91,0,0,1,4.64-4c2-.67,3.81-2.23,5.85-3.49-2.24-3.22-.36-5.67.93-8.14.35-.68,1.36-1,2-1.54a12,12,0,0,0,2.75-2.32c1.31-1.92,2-4.38,4.84-5-.26-.41-.37-.58-.47-.76-2.69-4.44-1.46-3.5-6.11-4-1.27-.12-1.81-.57-1.95-1.75a11.31,11.31,0,0,0-.38-2.09,3.46,3.46,0,0,1,1-4,4,4,0,0,0,.93-2.84c-.16-2.1-.69-4.17-1-6.26-.07-.49.06-1.4.32-1.49a12.52,12.52,0,0,1,4.33-1c3.7.13,7.38.63,11.07.9,1.38.09,2.68-1.75,2.7-3.75a17,17,0,0,0-.27-3.71c-.37-1.67-1.14-3-3.14-3.38a7.65,7.65,0,0,1-3.23-1.36,4,4,0,0,1-1.3-2.33c-.24-1.24.6-1.89,1.72-1.34,2.29,1.13,4,.58,6-.92,1.28-1,3.18-1.1,4.8-1.6,1.19-.36,2.12-.78,2.35-2.18H801.92a2.37,2.37,0,0,0-1,.78,7.65,7.65,0,0,1-4.21,3c-2.86.79-4.17,3-4.33,6.07a12.62,12.62,0,0,1,6.71-5.14c2.65-.81,5.22-2.2,8.32-.53-1.77,1.93-3.38,3.61-6,3.8-2.29.17-2.88.85-2.4,3.06a27.87,27.87,0,0,0,1.19,3.87c.84,2.19-.17,3.56-2.5,3.91a19.66,19.66,0,0,0-5.11,1.74c-.46.22-.67,1.26-.73,2a9.5,9.5,0,0,0,.37,1.9c.27,2.11-.15,2.37-2.21,2.52a13.64,13.64,0,0,0-4,1.23,4.53,4.53,0,0,0-2.6,3c-.69,1.92-2.23,3.58-3.6,5.19-.55.64-1.67,1-1.87-.6a2.19,2.19,0,0,0-.75-1.37,5.26,5.26,0,0,0-.42,1.35,6,6,0,0,1-.2,2.15,11.31,11.31,0,0,1,1.74,2.08c1.32,2.68,1.27,2.7-1.14,4.36-.15.1-.28.22-.42.33-2.73,2.24-5.42,4.52-8.19,6.7-3,2.4-3.64,5.5-1.86,9a24.61,24.61,0,0,1,2.14,5.77,7.46,7.46,0,0,1-.51,3.93c-.58,1.53-2,1.65-2.83.28-1.65-2.71-3.56-5.3-3.92-8.63-.22-2.13-2-3.18-4.13-2.78a3,3,0,0,1-2.09-.42c-2.55-1.75-7.6-1.47-9.64.71-1.87,2-4.07.94-6,.44-3-.81-5.57-.54-7.95,1.48a5.27,5.27,0,0,1-1.5.92c-3,1.15-3.32,1.5-2.82,4.68a5.39,5.39,0,0,1-.67,4,4.76,4.76,0,0,0-.54,2.91c.39,3.37-.22,7.05,2.64,9.78a3.67,3.67,0,0,1,.79,1.37c.39,1.09,1.26,1.37,2.19,1.93,3,1.77,5.64,0,8.4-.22a3,3,0,0,0,2.47-3.09c.07-2.13,1.15-3,3.13-3.28,1.65-.19,3.27-.61,4.91-.69s2.17.56,1.61,2.19-1.14,3.44-1.78,5a24.84,24.84,0,0,0-1.71,5.75,6.93,6.93,0,0,1-1,1.81h3.71c2.82,0,5.73-.65,8.26,1.15a2.28,2.28,0,0,1,1,1.6,18,18,0,0,1-.55,4.19c-.84,3.2-.82,5.9,2.25,8.19,2.86,2.14,2.59,2.11,6.08.93a7.61,7.61,0,0,1,8.19,2.12,27.53,27.53,0,0,0,2.47-4.16c.86-2.26,2.71-2.68,4.68-3.15a8,8,0,0,0,2.38-.86,7.78,7.78,0,0,1,5.39-1.37c-2.76,2.27-4.07,4.58-2.66,7.46l.75.14a4.69,4.69,0,0,0,.2-1.67c-.64-2.44.59-4.42,3.05-4.47a4.55,4.55,0,0,1,4,1.43c.55.65,1.73.78,2.64,1.11.15.06.36-.05.53,0,1.53.35,3.1,1.1,4.59,1s2.77-1.32,4.22-1.81a8.08,8.08,0,0,1,2.57.07c-.14.78-.24,1.32-.37,2a11.46,11.46,0,0,0,1.72.44c2.5.31,2.62.5,1.75,2.46a39.88,39.88,0,0,1,3.85,1.35c1.34.63,2.82,1.32,2.11,3.19a33.65,33.65,0,0,0,4.09,2.38,5.1,5.1,0,0,0,2.9.14,6.93,6.93,0,0,1,6.26,1.53c1.41,1.11,3.24,1.91,4.2,3.31,1.25,1.81.4,4.77,3,6-.47,2.66,1.07,3.64,3.34,4.15.46.11.79.81,1.24,1.3,3.23-.45,6,1.26,8.71,2.82,1.69,1-.1,1.59-.79,2.41.43,0,.75.06.85-.06,1.67-1.9,3.48-1.67,5.6-.71a9.69,9.69,0,0,0,3.83.47,5.89,5.89,0,0,1,4.8,2.24,7.75,7.75,0,0,0,5.34,3.13,3.56,3.56,0,0,1,3.42,3.84,31,31,0,0,1-.38,5.45,5.74,5.74,0,0,1-3.15,4.09,4.93,4.93,0,0,0-2.73,3.49c-.28,1.28-.74,2.51-2.41,2.7-.25,0-.57.81-.61,1.26-.22,2.89-.33,5.79-.59,8.67a12.8,12.8,0,0,1-.81,2.85c-.15.44-.63.85-.62,1.26.13,3.16-2,5.37-3.44,7.8a6.66,6.66,0,0,1-5.33,3.32,6.3,6.3,0,0,0-4.29,1.75c-.44.42-1.33.37-2,.51-.49.1-1.09,0-1.45.27a27.56,27.56,0,0,0-3.85,3.11,4.71,4.71,0,0,0-1.23,2.69,40.42,40.42,0,0,0,.21,4.78,2.2,2.2,0,0,1-1.36,2.21,9,9,0,0,0-2.44,2.67,7,7,0,0,1-2.52,1.94c-1.28.7-2,2.4-3,3.71a48.59,48.59,0,0,1-3.83,5.43c-2.52,2.66-4.81,2.84-8.13,1.17a3.89,3.89,0,0,0-1.8-.4c1.65.73,2.42,1.83,2,3.6,0,.18.15.43.26.64,1.78,3.26.37,6-3.19,7.13a23.06,23.06,0,0,1-8,1.13c-.35,0-1,.41-1,.7-.16,1.14-.13,2.31-.26,3.45a279.4,279.4,0,0,0,393.49-97.52c-1.62-2.09-3.11-4.3-4.59-6.51-.71-1.06-1.08-2.38-1.85-3.39a47,47,0,0,0-4.11-4.7c-.77-.78-2-1.15-2.65-2-.4-.53-.11-1.59-.13-2.42a10.22,10.22,0,0,1,1.93.12,24.86,24.86,0,0,1,3.17,1,4.7,4.7,0,0,1,1.58,1c1.12,1.14,2,2.47,3.25,3.5a42.54,42.54,0,0,0,3.91,2.65,26.17,26.17,0,0,1,2.41,1.77c.44.39.91.76,1.38,1.14l.72-1.4A4.2,4.2,0,0,1,1209,674.31Zm-126.24,43.46a9.07,9.07,0,0,0-1.12,1.47c-.28.69-.14,1.61-.52,2.22-3,4.72-2.87,10.27-4.13,15.44-.1.4-.18.81-.29,1.2-.75,2.64-2.25,4-4.38,3.86-3-.12-5.17-1.76-5.63-4.39-.19-1.1-.3-2.22-.45-3.33-.33-2.16.82-3.77,2-5.33.92-1.2,1.39-2.32.6-3.86a46.17,46.17,0,0,1-1.67-4.53c-.75-1.95.06-3.19,2.17-3.38a34.71,34.71,0,0,0,4.19-.63,4.08,4.08,0,0,0,3.34-3.12c.5-1.55,2.08-2.77,3.28-4,.14-.15,1.21.15,1.34.45a57,57,0,0,1,2.27,6.3C1083.91,716.52,1083.17,717.22,1082.78,717.77Zm76.15-54.41c-.47,1.91-2.08,1.43-3.28,1.69-.19,0-.82-1.29-1-2a18.41,18.41,0,0,1-.32-2.86c.07-.94.14-1.76.19-2.58.08-1.29.67-1.52,1.74-.9C1158.81,658.17,1159.65,660.43,1158.93,663.36Z" transform="translate(6.67 0)" fill="#243047"/>
    <path id="earthWater-2" data-name="earthWater" d="M1007.69,571.36c.27-1.39-.73-2-1.78-2.23-2.71-.61-4.49-2.37-6.28-4.35a31.93,31.93,0,0,0-4.8-3.9c-.88-.66-1.6-.1-1.62.79a6.24,6.24,0,0,0,.52,3.43c2.59,3.82,5.29,7.61,9.95,9.23.62.22,1.26.36,1.85.62.79.34,1.56.74,2.63,1.26A8.8,8.8,0,0,1,1007.69,571.36Z" transform="translate(6.67 0)" fill="#243047"/>
    <path id="earthWater-3" data-name="earthWater" d="M788.94,755.74a19.31,19.31,0,0,1,1.68-9.4,11.42,11.42,0,0,0,.76-4.67c.13-3.83-.08-7.62,1.29-11.39.56-1.52,0-3.67-.61-5.3-.47-1.2-1.81-2.16-2.94-3-3.52-2.45-7.15-4.73-10.65-7.19a5.5,5.5,0,0,1-1.27-2.21c-.59-1.31-1.1-2.66-1.68-4a23.76,23.76,0,0,0-1.16-2.38q-3-5.22-6-10.41c-.91-1.55-1.91-3-2.83-4.58a1.44,1.44,0,0,1-.18-1,5.65,5.65,0,0,1,3.46-4.17c.59-.24,1-.92,1.51-1.4l-.39-.44c-.68.32-1.35.67-2,.93-1,.37-1.64.05-1.66-1.08,0-1.62-.29-3.12,1.45-4.38,1.52-1.09,3.16-2.7,3.62-4.38s1.59-2.31,2.48-3.42,1.13-2.93,1.25-4.48a11.12,11.12,0,0,0-.47-4.56,14.75,14.75,0,0,0-2.65-4.44c-.39-.47-1.67-.3-2.51-.2-.19,0-.35,1-.37,1.52-.05,1.42-.85,1.74-2,1.41a4.18,4.18,0,0,1-1.57-.8c-1.09-.92-2.13-1.22-3.48.42-1.35-1.55-2.35-3.45-3.92-4.29-2-1.07-3.51-2-4.18-4.42-.43-1.51-1.69-2.81-2.7-4.12a3.29,3.29,0,0,0-1.59-.92c-1.57-.46-3.17-.83-4.76-1.24-.17,0-.34-.2-.5-.18-3.65.46-5.55-2.24-7.77-4.31a4.57,4.57,0,0,0-5.21-.93,6.6,6.6,0,0,1-3.61,0,37.3,37.3,0,0,1-7.44-2.28c-4.14-2-8.72-3.26-12.06-6.75a3.6,3.6,0,0,1-1.13-3.94,3.49,3.49,0,0,0-.56-2.88c-2.51-2.87-5.24-5.56-7.88-8.32-.29-.3-.74-.57-.8-.92-.62-3.23-3.51-4.54-5.44-6.67a12,12,0,0,1-2.79-4.6,5.23,5.23,0,0,0-1.55-2.7q.74,3.67,1.56,7.33a20.68,20.68,0,0,1,1.63,2.1c1.53,2.33,2.64,4.92,4,7.36.27.49.88.79,1.25,1.24a8.1,8.1,0,0,1,1.33,2c.11.28-.37,1-.74,1.17a1.73,1.73,0,0,1-1.37-.37c-1.18-.95-2.36-1.91-3.49-2.92A279.42,279.42,0,0,0,787.68,765,29.45,29.45,0,0,0,788.94,755.74Z" transform="translate(6.67 0)" fill="#243047"/>
    <path id="earthLand" d="M1241.37,546.21H965.43c-.23,1.4-1.16,1.82-2.35,2.18-1.62.5-3.52.64-4.8,1.6-2,1.5-3.72,2-6,.92-1.12-.55-2,.1-1.72,1.34a4,4,0,0,0,1.3,2.33,7.65,7.65,0,0,0,3.23,1.36c2,.35,2.77,1.71,3.14,3.38a17,17,0,0,1,.27,3.71c0,2-1.32,3.84-2.7,3.75-3.69-.27-7.37-.77-11.07-.9a12.52,12.52,0,0,0-4.33,1c-.26.09-.39,1-.32,1.49.3,2.09.83,4.16,1,6.26a4,4,0,0,1-.93,2.84,3.46,3.46,0,0,0-1,4,11.31,11.31,0,0,1,.38,2.09c.14,1.18.68,1.63,1.95,1.75,4.65.45,3.42-.49,6.11,4,.1.18.21.35.47.76-2.89.61-3.53,3.07-4.84,5a12,12,0,0,1-2.75,2.32c-.67.53-1.68.86-2,1.54-1.29,2.47-3.17,4.92-.93,8.14-2,1.26-3.8,2.82-5.85,3.49a7.91,7.91,0,0,0-4.64,4c-2.38,4.22-4.81,8.42-7.43,12.49a2.6,2.6,0,0,0,.09,3.49c2.36,2.94,2.45,6.31,1.41,9.6a11.19,11.19,0,0,0,2.66,11.43,14.69,14.69,0,0,1,2.06,2.19c1.33,1.87,2.38,4,3.85,5.71,2.45,2.89,5.08,5.63,7.78,8.28a5.64,5.64,0,0,0,3.14,1.36c2.64.27,5.34,0,8,.39,6.13.85,11.47-1.72,16.92-3.69,1.77-.64,3.31-1,4.88,0a15.9,15.9,0,0,1,3.44,2.7,4,4,0,0,0,3,1.55c1.77.06,3.53.34,5.3.51,1.27.13,2,.83,1.89,2.09-.24,1.92-.3,4-1.09,5.67-1.48,3.13-.94,5.65,1.17,8.17a63,63,0,0,1,4.24,5.68,13,13,0,0,1,1.09,3.06c.36.31,1.13.66,1.37,1.23a19.51,19.51,0,0,1,1,3.7c.45,2.19.68,4.42,1.26,6.56a3.86,3.86,0,0,1-.44,3.51,16.84,16.84,0,0,0-1.89,3.39c-2.16,5.84-2.73,11.51,1.16,17.07a15.44,15.44,0,0,1,2.67,7c.53,5.52,2.59,10.39,5.24,15.1,1.91,3.38,4.36,6.51,4.18,10.72a4.51,4.51,0,0,0,.74,2.34,3.88,3.88,0,0,0,4,2.1c3.18-.36,6.35-.77,9.53-1,5.92-.48,11.09-2.58,15-7.13,2.36-2.77,4.21-6,6.51-8.8,1.6-2,3-3.69.43-6.07,2.56-1.46,5-2.43,5.64-5.67.54-2.81,1.55-5.37-1.12-7.85a35.35,35.35,0,0,1,3.09-3.23c2.11-1.72,4.39-3.22,6.52-4.93,4-3.26,5.94-7.36,4.81-12.66-.62-2.85-1.1-5.73-1.49-8.62s-.45-5.67-.89-8.46a3.23,3.23,0,0,1,.81-2.88c1.74-2.08,3.37-4.26,5.11-6.35,1.5-1.8,3-3.6,4.65-5.25,2.59-2.57,5.42-4.91,8-7.52,5.39-5.51,7.85-12.36,8.83-20-2.12.53-4.15,1.16-6.22,1.54a72.31,72.31,0,0,1-8.75,1.26c-2.69.15-3.86-1.06-4.51-3.7a2.74,2.74,0,0,0-.69-1.2c-1.77-1.75-3.35-3.81-5.41-5.1-3.58-2.22-4.48-6.13-5.86-9.39s-2.11-6.69-4.58-9.4a5.09,5.09,0,0,1-.81-1.57c-1.62-4.1-3.21-8.22-4.79-12.28.34-.14,1.12-.23,1.44-.66,2.61-3.57,1-7.26-2.39-8s-6.89-1.34-10.41.13c-1.14.47-2.73.12-4-.16-1.72-.37-3.37-1-5.05-1.57a14.4,14.4,0,0,1-3.48-1.17,9.19,9.19,0,0,0-6.79-1.21c-2.18.33-2.64,1-2.3,3.22a2.79,2.79,0,0,1-.61,1.95,18.37,18.37,0,0,1-2.42,2.07,1.08,1.08,0,0,1-.38-.2c-1.63-1.64-3.22-3.33-5.81-3.4-.32,0-.81-.7-.91-1.15-.48-2.22-2.08-2.91-4.05-3-1.23-.06-2.48.15-3.71.12a5.32,5.32,0,0,1-2.13-.45,20.81,20.81,0,0,1-2.35-1.44c-.16-1.66-.27-3.27-.47-4.87a29.69,29.69,0,0,1-.59-3.41c0-1.27-.46-1.93-1.71-2-1,0-2,0-3,.07-4,.29-7.91.85-11.86.83-4.49,0-8.08,1.88-11.62,4.24a5.25,5.25,0,0,1-2.75.74,20.22,20.22,0,0,1-3.68-.56c-2.56-.48-2.84-1.13-1.39-3.2a6.43,6.43,0,0,0,.56-.9c.57-1.31,1.45-1.49,2.85-1.29a8.46,8.46,0,0,0,4.06-.56,21.64,21.64,0,0,0,3.59-2.27,4.08,4.08,0,0,0,1.85-4.64,3.36,3.36,0,0,1,1.42-3.67,32.54,32.54,0,0,1,3.49-2.44c1.16-.74,2-1.62,1.91-3.13a1.89,1.89,0,0,1,1.53-2.26,7.44,7.44,0,0,1,2.6.2c1,.15,2,.79,2.78.57a14.32,14.32,0,0,0,4.4-2c2.58-1.79,6-1,7,1.91a7.65,7.65,0,0,0,4.71,4.7c3.85,1.62,7.18,3.77,7.67,8.8-1.12,0-2.27,0-3.42,0a15.12,15.12,0,0,0-3.35-.08c-.57.13-1.16,1-1.34,1.73-.08.29.8,1.19,1.3,1.23a5,5,0,0,1,3.66,2.23,11.77,11.77,0,0,0,1.34,1.26,16.11,16.11,0,0,1,.56-2.42c.32-.79.63-1.89,1.25-2.17a3,3,0,0,0,1.76-2.39c.36-1.47.68-2.94,1-4.5,1.45.2,3.11,1.29,5.12,0a1.46,1.46,0,0,1-.07-.19c-1.07-.52-1.84-.92-2.63-1.26-.59-.26-1.23-.4-1.85-.62-4.66-1.62-7.36-5.41-9.95-9.23a6.24,6.24,0,0,1-.52-3.43c0-.89.74-1.45,1.62-.79a31.93,31.93,0,0,1,4.8,3.9c1.79,2,3.57,3.74,6.28,4.35,1.05.24,2.05.84,1.78,2.23a8.8,8.8,0,0,0,.47,4.85l.21.1a.67.67,0,0,1-.14.09,11.56,11.56,0,0,0,1.46,2.57c1.93,2.59,4.4,4.76,5.44,8a1.56,1.56,0,0,0,1.31.28c1.34-1.61,3-3.11,1.95-5.59a6.09,6.09,0,0,1-.8-2.5c.07-1.13.33-3,1-3.21a27.89,27.89,0,0,1,5.83-1c.57,2.16,1.11,4.51,1.83,6.8.66,2.1,2.23,3.26,4.25,4.2,2.53,1.18,4.89,2.25,7.71,1.13.46-.18,1.06,0,1.59,0,1.86-.17,3.71-.45,5.58-.54,1.39-.06,2.79.1,3.82.14,0,2-.27,3.46.08,4.79a3,3,0,0,1-.58,2.89,5.26,5.26,0,0,0-1,2.71c-.07,2.24.07,4.49.19,6.73a4.85,4.85,0,0,1-.92,3.64,2.27,2.27,0,0,0-.11,2.09c1.74,2.85,3.69,5.57,4.8,8.77.09.27.38.46.51.72,1,2,2,4.1,3.11,6.11.81,1.49,1.43,3.37,2.7,4.27,2,1.42,2.88,3.53,4.32,5.27a12.18,12.18,0,0,1,2.8,10.83,2.14,2.14,0,0,0,1.91,2.71,7.27,7.27,0,0,0,3,.15A112.8,112.8,0,0,0,1081.5,645a21.76,21.76,0,0,0,7.17-4.16c1.47-1.38,3-1.54,4.61-2a5.35,5.35,0,0,0,1.89-1.11c2.36-1.92,4.7-3.85,7-5.85a3.89,3.89,0,0,0,1.27-1.9c.4-1.94.84-3.72,2.53-5.08,1.41-1.13,1.15-2.17-.4-3.06s-3-1.82-4.62-2.6a3,3,0,0,1-2-3.22,7.77,7.77,0,0,0-.18-1.64l-.55-.29c-1.1,1.17-2.26,2.28-3.27,3.52a5.24,5.24,0,0,1-4.76,2.21,7.27,7.27,0,0,0-2.2.65l-1.66-1.14c-1.42-.94-2.51-2-1.66-3.93a1.23,1.23,0,0,0-.36-1.08c-.86-.78-1.83-1.46-2.73-2.21a6,6,0,0,1-1.71-1.66c-.78-1.65-1.36-3.38-3.69-3.6,1.13-1.52,1.88-2.67,3.88-2.79s3.08,1.26,4.35,2.24a7.81,7.81,0,0,1,1.42,2.39c.56,1,.87,2.47,1.72,2.92,2.91,1.54,5.83,3.5,9.45,1.5,1.76-1,2.53-.52,3.09,1.43a2.5,2.5,0,0,0,2.88,2,19.37,19.37,0,0,1,5.28.37,22.21,22.21,0,0,0,10.35-.13c3.2-.65,3.91-.29,5,2.79.91,2.56,1,2.55,3.68,2.65a16.1,16.1,0,0,1,3.38.85c-.33.88-.59,1.78-1,2.63-.47,1-.08,1.8.88,1.8a33.14,33.14,0,0,0,5-.53,19.82,19.82,0,0,0,2.41-.72c-2.52,6.19-.15,11.37,1.8,16.61.92,2.48,1.8,5,2.71,7.46.27.71.55,1.43.86,2.12.8,1.76,1.69,3.47,2.4,5.26.57,1.43,1.48,1.89,2.73,1.06a32.68,32.68,0,0,0,4.15-3.28c3.23-3,4.41-6.59,3-10.91a1.9,1.9,0,0,1,.19-1.6c2.72-2.79,5.45-5.56,8.31-8.19s6.11-5.2,9-7.94c1.72-1.61,3.17-2.17,5.39-1.39,1,.34,1.9.68,2.85,1,2.83,1,4.56,3.38,6.8,5.11a2.37,2.37,0,0,1,.55,1.79,15,15,0,0,0,1.24,7c.62,1.46,1.06,1.7,2.28.7,1-.86,2-1.83,3-2.75l.51.36c3.19,2.32,3.72,6.16,5.32,9.39.1.19,0,.54-.12.79-.29.91-.69,1.79-.91,2.72-.34,1.49-.42,3-.88,4.49-.72,2.27-.21,3.85,1.61,5.48a10.46,10.46,0,0,1,2.15,3.3c.67,1.4.86,3.1,1.72,4.35,1.26,1.83,3.06,3.28,4.39,5.07a4.2,4.2,0,0,0,1.06,1.05c.68-1.3,1.34-2.6,2-3.91q3.75-7.5,7.05-15.26,3.06-7.19,5.73-14.56,2.76-7.67,5.09-15.52a279.43,279.43,0,0,0,11.42-79.31Z" transform="translate(6.67 0)" fill="#24525e"/>
    <path id="earthLand-2" data-name="earthLand" d="M874.12,690.89a7.75,7.75,0,0,1-5.34-3.13,5.89,5.89,0,0,0-4.8-2.24,9.69,9.69,0,0,1-3.83-.47c-2.12-1-3.93-1.19-5.6.71-.1.12-.42,0-.85.06.69-.82,2.48-1.44.79-2.41-2.72-1.56-5.48-3.27-8.71-2.82-.45-.49-.78-1.19-1.24-1.3-2.27-.51-3.81-1.49-3.34-4.15-2.62-1.22-1.77-4.18-3-6-1-1.4-2.79-2.2-4.2-3.31a6.93,6.93,0,0,0-6.26-1.53,5.1,5.1,0,0,1-2.9-.14,33.65,33.65,0,0,1-4.09-2.38c.71-1.87-.77-2.56-2.11-3.19a39.88,39.88,0,0,0-3.85-1.35c.87-2,.75-2.15-1.75-2.46a11.46,11.46,0,0,1-1.72-.44c.13-.71.23-1.25.37-2a8.08,8.08,0,0,0-2.57-.07c-1.45.49-2.77,1.66-4.22,1.81s-3.06-.61-4.59-1c-.17,0-.38.07-.53,0-.91-.33-2.09-.46-2.64-1.11a4.55,4.55,0,0,0-4-1.43c-2.46,0-3.69,2-3.05,4.47a4.69,4.69,0,0,1-.2,1.67l-.75-.14c-1.41-2.88-.1-5.19,2.66-7.46a7.78,7.78,0,0,0-5.39,1.37,8,8,0,0,1-2.38.86c-2,.47-3.82.89-4.68,3.15a27.53,27.53,0,0,1-2.47,4.16,7.61,7.61,0,0,0-8.19-2.12c-3.49,1.18-3.22,1.21-6.08-.93-3.07-2.29-3.09-5-2.25-8.19a18,18,0,0,0,.55-4.19,2.28,2.28,0,0,0-1-1.6c-2.53-1.8-5.44-1.19-8.26-1.15H748a6.93,6.93,0,0,0,1-1.81,24.84,24.84,0,0,1,1.71-5.75c.64-1.57,1.2-3.33,1.78-5s.15-2.28-1.61-2.19-3.26.5-4.91.69c-2,.23-3.06,1.15-3.13,3.28a3,3,0,0,1-2.47,3.09c-2.76.23-5.43,2-8.4.22-.93-.56-1.8-.84-2.19-1.93a3.67,3.67,0,0,0-.79-1.37c-2.86-2.73-2.25-6.41-2.64-9.78a4.76,4.76,0,0,1,.54-2.91,5.39,5.39,0,0,0,.67-4c-.5-3.18-.2-3.53,2.82-4.68a5.27,5.27,0,0,0,1.5-.92c2.38-2,4.94-2.29,7.95-1.48,1.89.5,4.09,1.58,6-.44,2-2.18,7.09-2.46,9.64-.71a3,3,0,0,0,2.09.42c2.09-.4,3.91.65,4.13,2.78.36,3.33,2.27,5.92,3.92,8.63.84,1.37,2.25,1.25,2.83-.28a7.46,7.46,0,0,0,.51-3.93,24.61,24.61,0,0,0-2.14-5.77c-1.78-3.51-1.18-6.61,1.86-9,2.77-2.18,5.46-4.46,8.19-6.7.14-.11.27-.23.42-.33,2.41-1.66,2.46-1.68,1.14-4.36a11.31,11.31,0,0,0-1.74-2.08,6,6,0,0,0,.2-2.15,5.26,5.26,0,0,1,.42-1.35A2.19,2.19,0,0,1,778,582c.2,1.56,1.32,1.24,1.87.6,1.37-1.61,2.91-3.27,3.6-5.19a4.53,4.53,0,0,1,2.6-3,13.64,13.64,0,0,1,4-1.23c2.06-.15,2.48-.41,2.21-2.52a9.5,9.5,0,0,1-.37-1.9c.06-.69.27-1.73.73-2a19.66,19.66,0,0,1,5.11-1.74c2.33-.35,3.34-1.72,2.5-3.91a27.87,27.87,0,0,1-1.19-3.87c-.48-2.21.11-2.89,2.4-3.06,2.57-.19,4.18-1.87,6-3.8-3.1-1.67-5.67-.28-8.32.53a12.62,12.62,0,0,0-6.71,5.14c.16-3.05,1.47-5.28,4.33-6.07a7.65,7.65,0,0,0,4.21-3,2.37,2.37,0,0,1,1-.78H682.79c0,.2,0,.39,0,.59a280.86,280.86,0,0,0,5.33,54.55,5.23,5.23,0,0,1,1.55,2.7,12,12,0,0,0,2.79,4.6c1.93,2.13,4.82,3.44,5.44,6.67.06.35.51.62.8.92,2.64,2.76,5.37,5.45,7.88,8.32a3.49,3.49,0,0,1,.56,2.88,3.6,3.6,0,0,0,1.13,3.94c3.34,3.49,7.92,4.75,12.06,6.75a37.3,37.3,0,0,0,7.44,2.28,6.6,6.6,0,0,0,3.61,0,4.57,4.57,0,0,1,5.21.93c2.22,2.07,4.12,4.77,7.77,4.31.16,0,.33.14.5.18,1.59.41,3.19.78,4.76,1.24a3.29,3.29,0,0,1,1.59.92c1,1.31,2.27,2.61,2.7,4.12.67,2.37,2.16,3.35,4.18,4.42,1.57.84,2.57,2.74,3.92,4.29,1.35-1.64,2.39-1.34,3.48-.42a4.18,4.18,0,0,0,1.57.8c1.17.33,2,0,2-1.41,0-.53.18-1.5.37-1.52.84-.1,2.12-.27,2.51.2a14.75,14.75,0,0,1,2.65,4.44,11.12,11.12,0,0,1,.47,4.56c-.12,1.55-.34,3.37-1.25,4.48s-2,1.7-2.48,3.42-2.1,3.29-3.62,4.38c-1.74,1.26-1.49,2.76-1.45,4.38,0,1.13.66,1.45,1.66,1.08.69-.26,1.36-.61,2-.93l.39.44c-.5.48-.92,1.16-1.51,1.4a5.65,5.65,0,0,0-3.46,4.17,1.44,1.44,0,0,0,.18,1c.92,1.54,1.92,3,2.83,4.58q3,5.19,6,10.41a23.76,23.76,0,0,1,1.16,2.38c.58,1.32,1.09,2.67,1.68,4a5.5,5.5,0,0,0,1.27,2.21c3.5,2.46,7.13,4.74,10.65,7.19,1.13.8,2.47,1.76,2.94,3,.63,1.63,1.17,3.78.61,5.3-1.37,3.77-1.16,7.56-1.29,11.39a11.42,11.42,0,0,1-.76,4.67,19.31,19.31,0,0,0-1.68,9.4,29.45,29.45,0,0,1-1.26,9.22,280.71,280.71,0,0,0,23.89,17.15c.13-1.14.1-2.31.26-3.45,0-.29.69-.71,1-.7a23.06,23.06,0,0,0,8-1.13c3.56-1.13,5-3.87,3.19-7.13-.11-.21-.3-.46-.26-.64.4-1.77-.37-2.87-2-3.6a3.89,3.89,0,0,1,1.8.4c3.32,1.67,5.61,1.49,8.13-1.17a48.59,48.59,0,0,0,3.83-5.43c.94-1.31,1.69-3,3-3.71a7,7,0,0,0,2.52-1.94,9,9,0,0,1,2.44-2.67,2.2,2.2,0,0,0,1.36-2.21,40.42,40.42,0,0,1-.21-4.78,4.71,4.71,0,0,1,1.23-2.69,27.56,27.56,0,0,1,3.85-3.11c.36-.26,1-.17,1.45-.27.69-.14,1.58-.09,2-.51a6.3,6.3,0,0,1,4.29-1.75,6.66,6.66,0,0,0,5.33-3.32c1.39-2.43,3.57-4.64,3.44-7.8,0-.41.47-.82.62-1.26a12.8,12.8,0,0,0,.81-2.85c.26-2.88.37-5.78.59-8.67,0-.45.36-1.23.61-1.26,1.67-.19,2.13-1.42,2.41-2.7a4.93,4.93,0,0,1,2.73-3.49,5.74,5.74,0,0,0,3.15-4.09,31,31,0,0,0,.38-5.45A3.56,3.56,0,0,0,874.12,690.89Z" transform="translate(6.67 0)" fill="#24525e"/>
    <path id="earthLand-3" data-name="earthLand" d="M1156.25,656.66c-1.07-.62-1.66-.39-1.74.9,0,.82-.12,1.64-.19,2.58a18.41,18.41,0,0,0,.32,2.86c.19.76.82,2.09,1,2,1.2-.26,2.81.22,3.28-1.69C1159.65,660.43,1158.81,658.17,1156.25,656.66Z" transform="translate(6.67 0)" fill="#24525e"/>
    <path id="earthLand-4" data-name="earthLand" d="M697.14,622.55c.37-.14.85-.89.74-1.17a8.1,8.1,0,0,0-1.33-2c-.37-.45-1-.75-1.25-1.24-1.36-2.44-2.47-5-4-7.36a20.68,20.68,0,0,0-1.63-2.1q1.2,5.33,2.61,10.58c1.13,1,2.31,2,3.49,2.92A1.73,1.73,0,0,0,697.14,622.55Z" transform="translate(6.67 0)" fill="#24525e"/>
    <path id="earthLand-5" data-name="earthLand" d="M1081.52,709.79c-.13-.3-1.2-.6-1.34-.45-1.2,1.28-2.78,2.5-3.28,4a4.08,4.08,0,0,1-3.34,3.12,34.71,34.71,0,0,1-4.19.63c-2.11.19-2.92,1.43-2.17,3.38a46.17,46.17,0,0,0,1.67,4.53c.79,1.54.32,2.66-.6,3.86-1.19,1.56-2.34,3.17-2,5.33.15,1.11.26,2.23.45,3.33.46,2.63,2.58,4.27,5.63,4.39,2.13.1,3.63-1.22,4.38-3.86.11-.39.19-.8.29-1.2,1.26-5.17,1.11-10.72,4.13-15.44.38-.61.24-1.53.52-2.22a9.07,9.07,0,0,1,1.12-1.47c.39-.55,1.13-1.25,1-1.68A57,57,0,0,0,1081.52,709.79Z" transform="translate(6.67 0)" fill="#24525e"/>
    <path id="earthLand-6" data-name="earthLand" d="M1205.57,673.85a42.54,42.54,0,0,1-3.91-2.65c-1.2-1-2.13-2.36-3.25-3.5a4.7,4.7,0,0,0-1.58-1,24.86,24.86,0,0,0-3.17-1,10.22,10.22,0,0,0-1.93-.12c0,.83-.27,1.89.13,2.42.65.84,1.88,1.21,2.65,2a47,47,0,0,1,4.11,4.7c.77,1,1.14,2.33,1.85,3.39,1.48,2.21,3,4.42,4.59,6.51q2.2-3.87,4.3-7.83c-.47-.38-.94-.75-1.38-1.14A26.17,26.17,0,0,0,1205.57,673.85Z" transform="translate(6.67 0)" fill="#24525e"/>
  </g>
  <g id="city">
    <g id="houseBack">
      <g id="floods">
        <rect id="floodsBack" x="924.87" y="337.23" width="12.98" height="5.77" fill="#1a1a1a" stroke="#1a1a1a" stroke-linejoin="round"/>
        <rect id="floodsBack-2" data-name="floodsBack" x="940.3" y="337.23" width="12.98" height="5.77" fill="#1a1a1a" stroke="#1a1a1a" stroke-linejoin="round"/>
        <rect id="floodsBack-3" data-name="floodsBack" x="955.72" y="337.23" width="12.98" height="5.77" fill="#1a1a1a" stroke="#1a1a1a" stroke-linejoin="round"/>
        <rect id="floodsBack-4" data-name="floodsBack" x="971.15" y="337.23" width="12.98" height="5.77" fill="#1a1a1a" stroke="#1a1a1a" stroke-linejoin="round"/>
        <rect id="floodsBack-5" data-name="floodsBack" x="924.87" y="345.6" width="12.98" height="5.77" fill="#1a1a1a" stroke="#1a1a1a" stroke-linejoin="round"/>
        <rect id="floodsBack-6" data-name="floodsBack" x="940.3" y="345.6" width="12.98" height="5.77" fill="#1a1a1a" stroke="#1a1a1a" stroke-linejoin="round"/>
        <rect id="floodsBack-7" data-name="floodsBack" x="955.72" y="345.6" width="12.98" height="5.77" fill="#1a1a1a" stroke="#1a1a1a" stroke-linejoin="round"/>
        <rect id="floodsBack-8" data-name="floodsBack" x="971.15" y="345.6" width="12.98" height="5.77" fill="#1a1a1a" stroke="#1a1a1a" stroke-linejoin="round"/>
        <rect id="floodsBack-9" data-name="floodsBack" x="924.87" y="353.96" width="12.98" height="5.77" fill="#1a1a1a" stroke="#1a1a1a" stroke-linejoin="round"/>
        <rect id="floodsBack-10" data-name="floodsBack" x="940.3" y="353.96" width="12.98" height="5.77" fill="#1a1a1a" stroke="#1a1a1a" stroke-linejoin="round"/>
        <rect id="floodsBack-11" data-name="floodsBack" x="955.72" y="353.96" width="12.98" height="5.77" fill="#1a1a1a" stroke="#1a1a1a" stroke-linejoin="round"/>
        <rect id="floodsBack-12" data-name="floodsBack" x="971.15" y="353.96" width="12.98" height="5.77" fill="#1a1a1a" stroke="#1a1a1a" stroke-linejoin="round"/>
        <rect id="floodsBack-13" data-name="floodsBack" x="924.87" y="362.33" width="12.98" height="5.77" fill="#1a1a1a" stroke="#1a1a1a" stroke-linejoin="round"/>
        <rect id="floodsBack-14" data-name="floodsBack" x="940.3" y="362.33" width="12.98" height="5.77" fill="#1a1a1a" stroke="#1a1a1a" stroke-linejoin="round"/>
        <rect id="floodsBack-15" data-name="floodsBack" x="955.72" y="362.33" width="12.98" height="5.77" fill="#1a1a1a" stroke="#1a1a1a" stroke-linejoin="round"/>
        <rect id="floodsBack-16" data-name="floodsBack" x="971.15" y="362.33" width="12.98" height="5.77" fill="#1a1a1a" stroke="#1a1a1a" stroke-linejoin="round"/>
        <rect id="floodsBack-17" data-name="floodsBack" x="952.36" y="368" width="4.28" height="177.03" fill="#1a1a1a" stroke="#1a1a1a" stroke-linejoin="round"/>
        <rect id="floodLight" x="925.42" y="337.2" width="12.79" height="5.71" fill="#f8e9a1"/>
        <rect id="floodLight-2" data-name="floodLight" x="940.57" y="337.2" width="12.79" height="5.71" fill="#f8e9a1"/>
        <rect id="floodLight-3" data-name="floodLight" x="955.73" y="337.2" width="12.79" height="5.71" fill="#f8e9a1"/>
        <rect id="floodLight-4" data-name="floodLight" x="970.89" y="337.2" width="12.79" height="5.71" fill="#f8e9a1"/>
        <rect id="floodLight-5" data-name="floodLight" x="925.42" y="345.57" width="12.79" height="5.71" fill="#f8e9a1"/>
        <rect id="floodLight-6" data-name="floodLight" x="940.57" y="345.57" width="12.79" height="5.71" fill="#f8e9a1"/>
        <rect id="floodLight-7" data-name="floodLight" x="955.73" y="345.57" width="12.79" height="5.71" fill="#f8e9a1"/>
        <rect id="floodLight-8" data-name="floodLight" x="970.89" y="345.57" width="12.79" height="5.71" fill="#f8e9a1"/>
        <rect id="floodLight-9" data-name="floodLight" x="925.42" y="353.93" width="12.79" height="5.71" fill="#f8e9a1"/>
        <rect id="floodLight-10" data-name="floodLight" x="940.57" y="353.93" width="12.79" height="5.71" fill="#f8e9a1"/>
        <rect id="floodLight-11" data-name="floodLight" x="955.73" y="353.93" width="12.79" height="5.71" fill="#f8e9a1"/>
        <rect id="floodLight-12" data-name="floodLight" x="970.89" y="353.93" width="12.79" height="5.71" fill="#f8e9a1"/>
        <rect id="floodLight-13" data-name="floodLight" x="925.42" y="362.29" width="12.79" height="5.71" fill="#f8e9a1"/>
        <rect id="floodLight-14" data-name="floodLight" x="940.57" y="362.29" width="12.79" height="5.71" fill="#f8e9a1"/>
        <rect id="floodLight-15" data-name="floodLight" x="955.73" y="362.29" width="12.79" height="5.71" fill="#f8e9a1"/>
        <rect id="floodLight-16" data-name="floodLight" x="970.89" y="362.29" width="12.79" height="5.71" fill="#f8e9a1"/>
      </g>
      <path id="house" d="M1039.19,420a59.5,59.5,0,0,0-115.42,0h-5.29V545h126V420Z" transform="translate(6.67 0)" fill="#1a1a1a" stroke="#1a1a1a" stroke-linejoin="round" stroke-width="2"/>
      <polygon id="house-2" data-name="house" points="1028.16 324.03 1028.16 312.03 986.16 312.03 986.16 324.03 975.16 324.03 975.16 545.03 1039.16 545.03 1039.16 324.03 1028.16 324.03" fill="#1a1a1a" stroke="#1a1a1a" stroke-linejoin="round" stroke-width="2"/>
      <path id="house-3" data-name="house" d="M901.31,292a26.5,26.5,0,0,0-52.76,0h-3.12v52h4.5V545h50V344h4.5V292Z" transform="translate(6.67 0)" fill="#1a1a1a" stroke="#1a1a1a" stroke-miterlimit="10"/>
      <polygon id="house-4" data-name="house" points="841.23 389.03 841.23 383.03 838.23 383.03 838.23 375.03 833.73 375.03 833.73 367.03 814.73 367.03 814.73 375.03 810.23 375.03 810.23 383.03 807.23 383.03 807.23 389.03 799.23 389.03 799.23 545.03 849.23 545.03 849.23 389.03 841.23 389.03" fill="#1a1a1a" stroke="#1a1a1a" stroke-linejoin="round" stroke-width="2"/>
      <polygon id="house-5" data-name="house" points="1127.96 393.61 1109.13 357 1092.29 393.61 1085.68 393.61 1085.68 545.03 1134.68 545.03 1134.68 393.61 1127.96 393.61" fill="#1a1a1a" stroke="#1a1a1a" stroke-linejoin="round" stroke-width="2"/>
      <g id="lightMiddle">
        <rect id="light" x="982.41" y="332" width="49.5" height="10.28" fill="#f8e9a1"/>
        <rect id="light-2" data-name="light" x="982.41" y="348.24" width="49.5" height="5.41" fill="#f8e9a1"/>
        <rect id="light-3" data-name="light" x="982.41" y="359.61" width="49.5" height="10.28" fill="#f8e9a1"/>
        <rect id="light-4" data-name="light" x="982.41" y="386.81" width="49.5" height="10.28" fill="#f8e9a1"/>
        <rect id="light-5" data-name="light" x="982.41" y="403.04" width="49.5" height="5.41" fill="#f8e9a1"/>
        <rect id="light-6" data-name="light" x="982.41" y="414.41" width="49.5" height="10.28" fill="#f8e9a1"/>
        <rect id="light-7" data-name="light" x="982.41" y="441.61" width="49.5" height="10.28" fill="#f8e9a1"/>
        <rect id="light-8" data-name="light" x="982.41" y="457.85" width="49.5" height="5.41" fill="#f8e9a1"/>
        <rect id="light-9" data-name="light" x="982.41" y="469.22" width="49.5" height="10.28" fill="#f8e9a1"/>
        <rect id="light-10" data-name="light" x="982.41" y="496.42" width="49.5" height="10.28" fill="#f8e9a1"/>
        <rect id="light-11" data-name="light" x="982.41" y="512.66" width="49.5" height="5.41" fill="#f8e9a1"/>
        <rect id="light-12" data-name="light" x="982.41" y="524.02" width="49.5" height="10.28" fill="#f8e9a1"/>
      </g>
      <g id="lightRight">
        <rect id="light-13" data-name="light" x="1092.68" y="400" width="35" height="6" fill="#f8e9a1"/>
        <rect id="light-14" data-name="light" x="1092.68" y="411.5" width="35" height="6" fill="#f8e9a1"/>
        <rect id="light-15" data-name="light" x="1092.68" y="423" width="35" height="6" fill="#f8e9a1"/>
        <rect id="light-16" data-name="light" x="1092.68" y="434.5" width="35" height="6" fill="#f8e9a1"/>
        <rect id="light-17" data-name="light" x="1092.68" y="446" width="35" height="6" fill="#f8e9a1"/>
        <rect id="light-18" data-name="light" x="1092.68" y="457.5" width="35" height="6" fill="#f8e9a1"/>
        <rect id="light-19" data-name="light" x="1092.68" y="469" width="35" height="6" fill="#f8e9a1"/>
        <rect id="light-20" data-name="light" x="1092.68" y="538" width="35" height="6" fill="#f8e9a1"/>
        <rect id="light-21" data-name="light" x="1092.68" y="526.5" width="35" height="6" fill="#f8e9a1"/>
        <rect id="light-22" data-name="light" x="1092.68" y="515" width="35" height="6" fill="#f8e9a1"/>
        <rect id="light-23" data-name="light" x="1092.68" y="503.5" width="35" height="6" fill="#f8e9a1"/>
        <rect id="light-24" data-name="light" x="1092.68" y="492" width="35" height="6" fill="#f8e9a1"/>
        <rect id="light-25" data-name="light" x="1092.68" y="480.5" width="35" height="6" fill="#f8e9a1"/>
      </g>
      <circle id="watchLight" cx="881.6" cy="316.5" r="22.5" fill="#f8e9be"/>
      <circle id="light-26" data-name="light" cx="807.72" cy="400" r="6" fill="#f8e9a1"/>
      <circle id="light-27" data-name="light" cx="824.22" cy="400" r="6" fill="#f8e9a1"/>
      <circle id="light-28" data-name="light" cx="840.72" cy="400" r="6" fill="#f8e9a1"/>
      <rect id="clock" x="880.67" y="302" width="0.98" height="13.84" fill="#1a1a1a"/>
      <polygon id="clock-2" data-name="clock" points="892.67 325.39 891.98 326 880.93 316.22 881.62 315.61 892.67 325.39" fill="#1a1a1a"/>
      <path id="windmill" d="M1211.86,383.07a109.86,109.86,0,0,0-14.75-12.78,5.91,5.91,0,0,0-3.17-8.15,135.36,135.36,0,0,0,.84-16c0-12.77-1.35-23.13-3-23.13s-3,10.36-3,23.13a135.36,135.36,0,0,0,.84,16,5.9,5.9,0,0,0-3.31,7.84,109.58,109.58,0,0,0-14.8,12.82c-9,9-15.41,17.31-14.23,18.48s9.45-5.19,18.48-14.23a112.47,112.47,0,0,0,12.63-14.5,7.17,7.17,0,0,0,.75.46V545h5.3V373c.17-.09.33-.19.49-.29a113.21,113.21,0,0,0,12.69,14.61c9,9,17.31,15.4,18.49,14.23S1220.89,392.1,1211.86,383.07Z" transform="translate(6.67 0)" fill="#1a1a1a" stroke="#1a1a1a" stroke-linejoin="round"/>
      <path id="tree" d="M1159.22,480.33h-.29c-.06-.26-.12-.51-.2-.77,6.49-4.36,8.67-14.64-1.22-23.11l-5.75.23a12.49,12.49,0,0,0-23-2.46c-4.15-2.28-9.71-2.28-15,1.73a1.24,1.24,0,0,0-.26.25c-6.11,8.24-2.74,17,3.84,20.22-4.12,2.9-5.85,9-1.52,14.7,5,3.82,10.24,3,13.45,0a19.12,19.12,0,0,0,3,1v53.53h9V494.4a12.06,12.06,0,0,0,4,1.19A14,14,0,0,0,1156.06,508v37.59h6.32V508a14,14,0,0,0-3.16-27.71Z" transform="translate(6.67 0)" fill="#006837" stroke="#006837" stroke-linejoin="round" stroke-width="2"/>
    </g>
    <g id="houseMiddle">
      <rect id="house-6" data-name="house" x="1016.77" y="324.03" width="76" height="221" fill="#666" stroke="#666" stroke-linejoin="round" stroke-width="2"/>
      <polygon id="house-7" data-name="house" points="850.69 484.07 839.66 473.03 774.66 473.03 763.66 484.03 769.17 484.03 769.17 545.03 845.17 545.03 845.17 484.06 850.69 484.07" fill="#666" stroke="#666" stroke-linejoin="round" stroke-width="2"/>
      <polygon id="house-8" data-name="house" points="931.84 398.03 915.31 362.49 900.53 398.03 894.73 398.03 894.73 545.03 937.73 545.03 937.73 398.03 931.84 398.03" fill="#666" stroke="#666" stroke-linejoin="round" stroke-width="2"/>
      <g id="floods-2" data-name="floods">
        <rect id="floodsBack-18" data-name="floodsBack" x="664.31" y="352.03" width="18.18" height="8.08" fill="#666" stroke="#666" stroke-linejoin="round" stroke-width="2"/>
        <rect id="floodsBack-19" data-name="floodsBack" x="685.92" y="352.03" width="18.18" height="8.08" fill="#666" stroke="#666" stroke-linejoin="round" stroke-width="2"/>
        <rect id="floodsBack-20" data-name="floodsBack" x="707.53" y="352.03" width="18.18" height="8.08" fill="#666" stroke="#666" stroke-linejoin="round" stroke-width="2"/>
        <rect id="floodsBack-21" data-name="floodsBack" x="729.13" y="352.03" width="18.18" height="8.08" fill="#666" stroke="#666" stroke-linejoin="round" stroke-width="2"/>
        <rect id="floodsBack-22" data-name="floodsBack" x="664.31" y="363.75" width="18.18" height="8.08" fill="#666" stroke="#666" stroke-linejoin="round" stroke-width="2"/>
        <rect id="floodsBack-23" data-name="floodsBack" x="685.92" y="363.75" width="18.18" height="8.08" fill="#666" stroke="#666" stroke-linejoin="round" stroke-width="2"/>
        <rect id="floodsBack-24" data-name="floodsBack" x="707.53" y="363.75" width="18.18" height="8.08" fill="#666" stroke="#666" stroke-linejoin="round" stroke-width="2"/>
        <rect id="floodsBack-25" data-name="floodsBack" x="729.13" y="363.75" width="18.18" height="8.08" fill="#666" stroke="#666" stroke-linejoin="round" stroke-width="2"/>
        <rect id="floodsBack-26" data-name="floodsBack" x="664.31" y="375.47" width="18.18" height="8.08" fill="#666" stroke="#666" stroke-linejoin="round" stroke-width="2"/>
        <rect id="floodsBack-27" data-name="floodsBack" x="685.92" y="375.47" width="18.18" height="8.08" fill="#666" stroke="#666" stroke-linejoin="round" stroke-width="2"/>
        <rect id="floodsBack-28" data-name="floodsBack" x="707.53" y="375.47" width="18.18" height="8.08" fill="#666" stroke="#666" stroke-linejoin="round" stroke-width="2"/>
        <rect id="floodsBack-29" data-name="floodsBack" x="729.13" y="375.47" width="18.18" height="8.08" fill="#666" stroke="#666" stroke-linejoin="round" stroke-width="2"/>
        <rect id="floodsBack-30" data-name="floodsBack" x="664.31" y="387.18" width="18.18" height="8.08" fill="#666" stroke="#666" stroke-linejoin="round" stroke-width="2"/>
        <rect id="floodsBack-31" data-name="floodsBack" x="685.92" y="387.18" width="18.18" height="8.08" fill="#666" stroke="#666" stroke-linejoin="round" stroke-width="2"/>
        <rect id="floodsBack-32" data-name="floodsBack" x="707.53" y="387.18" width="18.18" height="8.08" fill="#666" stroke="#666" stroke-linejoin="round" stroke-width="2"/>
        <rect id="floodsBack-33" data-name="floodsBack" x="729.13" y="387.18" width="18.18" height="8.08" fill="#666" stroke="#666" stroke-linejoin="round" stroke-width="2"/>
        <rect id="floodsBack-34" data-name="floodsBack" x="702.81" y="395.12" width="6" height="149.91" fill="#666" stroke="#666" stroke-linejoin="round" stroke-width="2"/>
        <rect id="floodLight-17" data-name="floodLight" x="665.09" y="352" width="18" height="8" fill="#f8e9a1"/>
        <rect id="floodLight-18" data-name="floodLight" x="686.42" y="352" width="18" height="8" fill="#f8e9a1"/>
        <rect id="floodLight-19" data-name="floodLight" x="707.75" y="352" width="18" height="8" fill="#f8e9a1"/>
        <rect id="floodLight-20" data-name="floodLight" x="729.09" y="352" width="18" height="8" fill="#f8e9a1"/>
        <rect id="floodLight-21" data-name="floodLight" x="665.09" y="363.72" width="18" height="8" fill="#f8e9a1"/>
        <rect id="floodLight-22" data-name="floodLight" x="686.42" y="363.72" width="18" height="8" fill="#f8e9a1"/>
        <rect id="floodLight-23" data-name="floodLight" x="707.75" y="363.72" width="18" height="8" fill="#f8e9a1"/>
        <rect id="floodLight-24" data-name="floodLight" x="729.09" y="363.72" width="18" height="8" fill="#f8e9a1"/>
        <rect id="floodLight-25" data-name="floodLight" x="665.09" y="375.45" width="18" height="8" fill="#f8e9a1"/>
        <rect id="floodLight-26" data-name="floodLight" x="686.42" y="375.45" width="18" height="8" fill="#f8e9a1"/>
        <rect id="floodLight-27" data-name="floodLight" x="707.75" y="375.45" width="18" height="8" fill="#f8e9a1"/>
        <rect id="floodLight-28" data-name="floodLight" x="729.09" y="375.45" width="18" height="8" fill="#f8e9a1"/>
        <rect id="floodLight-29" data-name="floodLight" x="665.09" y="387.17" width="18" height="8" fill="#f8e9a1"/>
        <rect id="floodLight-30" data-name="floodLight" x="686.42" y="387.17" width="18" height="8" fill="#f8e9a1"/>
        <rect id="floodLight-31" data-name="floodLight" x="707.75" y="387.17" width="18" height="8" fill="#f8e9a1"/>
        <rect id="floodLight-32" data-name="floodLight" x="729.09" y="387.17" width="18" height="8" fill="#f8e9a1"/>
      </g>
      <g id="windmill-2" data-name="windmill">
        <path id="windmillBack" d="M1225.66,277a9,9,0,1,0-13,8.05V545h8V285.08A9,9,0,0,0,1225.66,277Z" transform="translate(6.67 0)" fill="#666" stroke="#666" stroke-linejoin="round"/>
        <ellipse id="rotor" cx="1189.23" cy="303.1" rx="34.95" ry="4.55" transform="translate(140.67 929.69) rotate(-45)" fill="#b3b3b3" stroke="#b3b3b3" stroke-linejoin="round"/>
        <ellipse id="rotor-2" data-name="rotor" cx="1223.33" cy="244.51" rx="4.55" ry="34.95" fill="#b3b3b3" stroke="#b3b3b3" stroke-linejoin="round"/>
        <ellipse id="rotor-3" data-name="rotor" cx="1243.8" cy="303.51" rx="4.55" ry="34.95" transform="translate(156.36 968.4) rotate(-45)" fill="#b3b3b3" stroke="#b3b3b3" stroke-linejoin="round"/>
        <circle id="windmillFront" cx="1223.33" cy="277.03" r="6" fill="#1a1a1a"/>
      </g>
      <path id="tree-2" data-name="tree" d="M755.82,479.73l-.3,0c-.06-.26-.12-.52-.2-.77a12.5,12.5,0,0,0-7-22.88h0a12.49,12.49,0,0,0-23-2.46,12.35,12.35,0,0,0-6-1.54,12.49,12.49,0,0,0-5.65,23.64c0,.06,0,.13,0,.2a9.49,9.49,0,1,0,12.08,14.6,20.18,20.18,0,0,0,3,1V545h9V493.81a12.35,12.35,0,0,0,4,1.18,14,14,0,0,0,10.83,12.46V545H759V507.45a14,14,0,0,0-3.16-27.72Z" transform="translate(6.67 0)" fill="#006837" stroke="#006837" stroke-linejoin="round" stroke-width="2"/>
      <g id="floods-3" data-name="floods">
        <rect id="floodsBack-35" data-name="floodsBack" x="1113.81" y="331.18" width="13.55" height="6.02" fill="#666" stroke="#666" stroke-linejoin="round" stroke-width="2"/>
        <rect id="floodsBack-36" data-name="floodsBack" x="1129.92" y="331.18" width="13.55" height="6.02" fill="#666" stroke="#666" stroke-linejoin="round" stroke-width="2"/>
        <rect id="floodsBack-37" data-name="floodsBack" x="1146.02" y="331.18" width="13.55" height="6.02" fill="#666" stroke="#666" stroke-linejoin="round" stroke-width="2"/>
        <rect id="floodsBack-38" data-name="floodsBack" x="1162.12" y="331.18" width="13.55" height="6.02" fill="#666" stroke="#666" stroke-linejoin="round" stroke-width="2"/>
        <rect id="floodsBack-39" data-name="floodsBack" x="1113.81" y="339.92" width="13.55" height="6.02" fill="#666" stroke="#666" stroke-linejoin="round" stroke-width="2"/>
        <rect id="floodsBack-40" data-name="floodsBack" x="1129.92" y="339.92" width="13.55" height="6.02" fill="#666" stroke="#666" stroke-linejoin="round" stroke-width="2"/>
        <rect id="floodsBack-41" data-name="floodsBack" x="1146.02" y="339.92" width="13.55" height="6.02" fill="#666" stroke="#666" stroke-linejoin="round" stroke-width="2"/>
        <rect id="floodsBack-42" data-name="floodsBack" x="1162.12" y="339.92" width="13.55" height="6.02" fill="#666" stroke="#666" stroke-linejoin="round" stroke-width="2"/>
        <rect id="floodsBack-43" data-name="floodsBack" x="1113.81" y="348.65" width="13.55" height="6.02" fill="#666" stroke="#666" stroke-linejoin="round" stroke-width="2"/>
        <rect id="floodsBack-44" data-name="floodsBack" x="1129.92" y="348.65" width="13.55" height="6.02" fill="#666" stroke="#666" stroke-linejoin="round" stroke-width="2"/>
        <rect id="floodsBack-45" data-name="floodsBack" x="1146.02" y="348.65" width="13.55" height="6.02" fill="#666" stroke="#666" stroke-linejoin="round" stroke-width="2"/>
        <rect id="floodsBack-46" data-name="floodsBack" x="1162.12" y="348.65" width="13.55" height="6.02" fill="#666" stroke="#666" stroke-linejoin="round" stroke-width="2"/>
        <rect id="floodsBack-47" data-name="floodsBack" x="1113.81" y="357.38" width="13.55" height="6.02" fill="#666" stroke="#666" stroke-linejoin="round" stroke-width="2"/>
        <rect id="floodsBack-48" data-name="floodsBack" x="1129.92" y="357.38" width="13.55" height="6.02" fill="#666" stroke="#666" stroke-linejoin="round" stroke-width="2"/>
        <rect id="floodsBack-49" data-name="floodsBack" x="1146.02" y="357.38" width="13.55" height="6.02" fill="#666" stroke="#666" stroke-linejoin="round" stroke-width="2"/>
        <rect id="floodsBack-50" data-name="floodsBack" x="1162.12" y="357.38" width="13.55" height="6.02" fill="#666" stroke="#666" stroke-linejoin="round" stroke-width="2"/>
        <rect id="floodsBack-51" data-name="floodsBack" x="1142.51" y="363.3" width="4.47" height="181.73" fill="#666" stroke="#666" stroke-linejoin="round" stroke-width="2"/>
        <rect id="floodLight-33" data-name="floodLight" x="1114.39" y="331.16" width="13.42" height="5.96" fill="#f8e9a1"/>
        <rect id="floodLight-34" data-name="floodLight" x="1130.29" y="331.16" width="13.42" height="5.96" fill="#f8e9a1"/>
        <rect id="floodLight-35" data-name="floodLight" x="1146.19" y="331.16" width="13.42" height="5.96" fill="#f8e9a1"/>
        <rect id="floodLight-36" data-name="floodLight" x="1162.09" y="331.16" width="13.42" height="5.96" fill="#f8e9a1"/>
        <rect id="floodLight-37" data-name="floodLight" x="1114.39" y="339.9" width="13.42" height="5.96" fill="#f8e9a1"/>
        <rect id="floodLight-38" data-name="floodLight" x="1130.29" y="339.9" width="13.42" height="5.96" fill="#f8e9a1"/>
        <rect id="floodLight-39" data-name="floodLight" x="1146.19" y="339.9" width="13.42" height="5.96" fill="#f8e9a1"/>
        <rect id="floodLight-40" data-name="floodLight" x="1162.09" y="339.9" width="13.42" height="5.96" fill="#f8e9a1"/>
        <rect id="floodLight-41" data-name="floodLight" x="1114.39" y="348.64" width="13.42" height="5.96" fill="#f8e9a1"/>
        <rect id="floodLight-42" data-name="floodLight" x="1130.29" y="348.64" width="13.42" height="5.96" fill="#f8e9a1"/>
        <rect id="floodLight-43" data-name="floodLight" x="1146.19" y="348.64" width="13.42" height="5.96" fill="#f8e9a1"/>
        <rect id="floodLight-44" data-name="floodLight" x="1162.09" y="348.64" width="13.42" height="5.96" fill="#f8e9a1"/>
        <rect id="floodLight-45" data-name="floodLight" x="1114.39" y="357.37" width="13.42" height="5.96" fill="#f8e9a1"/>
        <rect id="floodLight-46" data-name="floodLight" x="1130.29" y="357.37" width="13.42" height="5.96" fill="#f8e9a1"/>
        <rect id="floodLight-47" data-name="floodLight" x="1146.19" y="357.37" width="13.42" height="5.96" fill="#f8e9a1"/>
        <rect id="floodLight-48" data-name="floodLight" x="1162.09" y="357.37" width="13.42" height="5.96" fill="#f8e9a1"/>
      </g>
      <rect id="light-29" data-name="light" x="781.42" y="491" width="11.14" height="11.14" fill="#f8e9e6"/>
      <rect id="light-30" data-name="light" x="801.61" y="491" width="11.14" height="11.14" fill="#f8e9e6"/>
      <rect id="light-31" data-name="light" x="821.8" y="491" width="11.14" height="11.14" fill="#f8e9e6"/>
      <path id="light-32" data-name="light" d="M808.13,515.37a7.66,7.66,0,0,0-15.25,0h0V546h15.32V515.37Z" transform="translate(6.67 0)" fill="#f8e9e6"/>
      <g id="lightMiddle-2" data-name="lightMiddle">
        <rect id="light-33" data-name="light" x="1029.01" y="341.03" width="11.14" height="11.14" fill="#f8e9e6"/>
        <rect id="light-34" data-name="light" x="1049.2" y="341.03" width="11.14" height="11.14" fill="#f8e9e6"/>
        <rect id="light-35" data-name="light" x="1069.39" y="341.03" width="11.14" height="11.14" fill="#f8e9e6"/>
        <rect id="light-36" data-name="light" x="1029.01" y="363.03" width="11.14" height="11.14" fill="#f8e9e6"/>
        <rect id="light-37" data-name="light" x="1049.2" y="363.03" width="11.14" height="11.14" fill="#f8e9e6"/>
        <rect id="light-38" data-name="light" x="1069.39" y="363.03" width="11.14" height="11.14" fill="#f8e9e6"/>
        <rect id="light-39" data-name="light" x="1029.01" y="385.03" width="11.14" height="11.14" fill="#f8e9e6"/>
        <rect id="light-40" data-name="light" x="1049.2" y="385.03" width="11.14" height="11.14" fill="#f8e9e6"/>
        <rect id="light-41" data-name="light" x="1069.39" y="385.03" width="11.14" height="11.14" fill="#f8e9e6"/>
        <rect id="light-42" data-name="light" x="1029.01" y="409.03" width="11.14" height="11.14" fill="#f8e9e6"/>
        <rect id="light-43" data-name="light" x="1049.2" y="409.03" width="11.14" height="11.14" fill="#f8e9e6"/>
        <rect id="light-44" data-name="light" x="1069.39" y="409.03" width="11.14" height="11.14" fill="#f8e9e6"/>
        <rect id="light-45" data-name="light" x="1029.01" y="431.03" width="11.14" height="11.14" fill="#f8e9e6"/>
        <rect id="light-46" data-name="light" x="1049.2" y="431.03" width="11.14" height="11.14" fill="#f8e9e6"/>
        <rect id="light-47" data-name="light" x="1069.39" y="431.03" width="11.14" height="11.14" fill="#f8e9e6"/>
        <rect id="light-48" data-name="light" x="1029.01" y="453.03" width="11.14" height="11.14" fill="#f8e9e6"/>
        <rect id="light-49" data-name="light" x="1049.2" y="453.03" width="11.14" height="11.14" fill="#f8e9e6"/>
        <rect id="light-50" data-name="light" x="1069.39" y="453.03" width="11.14" height="11.14" fill="#f8e9e6"/>
        <rect id="light-51" data-name="light" x="1029.01" y="479.03" width="11.14" height="11.14" fill="#f8e9e6"/>
        <rect id="light-52" data-name="light" x="1049.2" y="479.03" width="11.14" height="11.14" fill="#f8e9e6"/>
        <rect id="light-53" data-name="light" x="1069.39" y="479.03" width="11.14" height="11.14" fill="#f8e9e6"/>
        <rect id="light-54" data-name="light" x="1029.01" y="523.03" width="11.14" height="11.14" fill="#f8e9e6"/>
        <rect id="light-55" data-name="light" x="1049.2" y="523.03" width="11.14" height="11.14" fill="#f8e9e6"/>
        <rect id="light-56" data-name="light" x="1069.39" y="523.03" width="11.14" height="11.14" fill="#f8e9e6"/>
        <rect id="light-57" data-name="light" x="1029.01" y="501.03" width="11.14" height="11.14" fill="#f8e9e6"/>
        <rect id="light-58" data-name="light" x="1049.2" y="501.03" width="11.14" height="11.14" fill="#f8e9e6"/>
        <rect id="light-59" data-name="light" x="1069.39" y="501.03" width="11.14" height="11.14" fill="#f8e9e6"/>
      </g>
      <g id="lightLeft">
        <rect id="light-60" data-name="light" x="899.07" y="407" width="12.12" height="8.27" fill="#f8e9a1"/>
        <rect id="light-61" data-name="light" x="913.46" y="407" width="5.55" height="8.27" fill="#f8e9a1"/>
        <rect id="light-62" data-name="light" x="921.28" y="407" width="12.12" height="8.27" fill="#f8e9a1"/>
        <rect id="light-63" data-name="light" x="899.07" y="424.96" width="12.12" height="8.27" fill="#f8e9a1"/>
        <rect id="light-64" data-name="light" x="913.46" y="424.96" width="5.55" height="8.27" fill="#f8e9a1"/>
        <rect id="light-65" data-name="light" x="921.28" y="424.96" width="12.12" height="8.27" fill="#f8e9a1"/>
        <rect id="light-66" data-name="light" x="899.07" y="442.92" width="12.12" height="8.27" fill="#f8e9a1"/>
        <rect id="light-67" data-name="light" x="913.46" y="442.92" width="5.55" height="8.27" fill="#f8e9a1"/>
        <rect id="light-68" data-name="light" x="921.28" y="442.92" width="12.12" height="8.27" fill="#f8e9a1"/>
        <rect id="light-69" data-name="light" x="899.07" y="460.88" width="12.12" height="8.27" fill="#f8e9a1"/>
        <rect id="light-70" data-name="light" x="913.46" y="460.88" width="5.55" height="8.27" fill="#f8e9a1"/>
        <rect id="light-71" data-name="light" x="921.28" y="460.88" width="12.12" height="8.27" fill="#f8e9a1"/>
        <rect id="light-72" data-name="light" x="899.07" y="478.85" width="12.12" height="8.27" fill="#f8e9a1"/>
        <rect id="light-73" data-name="light" x="913.46" y="478.85" width="5.55" height="8.27" fill="#f8e9a1"/>
        <rect id="light-74" data-name="light" x="921.28" y="478.85" width="12.12" height="8.27" fill="#f8e9a1"/>
        <rect id="light-75" data-name="light" x="899.07" y="496.81" width="12.12" height="8.27" fill="#f8e9a1"/>
        <rect id="light-76" data-name="light" x="913.46" y="496.81" width="5.55" height="8.27" fill="#f8e9a1"/>
        <rect id="light-77" data-name="light" x="921.28" y="496.81" width="12.12" height="8.27" fill="#f8e9a1"/>
        <rect id="light-78" data-name="light" x="899.07" y="514.77" width="12.12" height="8.27" fill="#f8e9a1"/>
        <rect id="light-79" data-name="light" x="913.46" y="514.77" width="5.55" height="8.27" fill="#f8e9a1"/>
        <rect id="light-80" data-name="light" x="921.28" y="514.77" width="12.12" height="8.27" fill="#f8e9a1"/>
        <rect id="light-81" data-name="light" x="899.07" y="532.73" width="12.12" height="8.27" fill="#f8e9a1"/>
        <rect id="light-82" data-name="light" x="913.46" y="532.73" width="5.55" height="8.27" fill="#f8e9a1"/>
        <rect id="light-83" data-name="light" x="921.28" y="532.73" width="12.12" height="8.27" fill="#f8e9a1"/>
      </g>
    </g>
    <g id="houseFront">
      <rect id="house-9" data-name="house" x="987.34" y="473" width="66" height="73" fill="#999"/>
      <rect id="house-10" data-name="house" x="1025.67" y="519" width="20" height="27" fill="#666"/>
      <circle id="light-84" data-name="light" cx="1002.34" cy="491" r="7" fill="#f8e9a1"/>
      <circle id="light-85" data-name="light" cx="1020.34" cy="491" r="7" fill="#f8e9a1"/>
      <circle id="light-86" data-name="light" cx="1038.34" cy="491" r="7" fill="#f8e9a1"/>
      <rect id="light-87" data-name="light" x="998.34" y="503" width="44" height="10" fill="#f8e9a1"/>
    </g>
  </g>
</svg>
