<?xml version="1.0" encoding="utf-8"?>
<!-- Generator: Adobe Illustrator 24.1.1, SVG Export Plug-In . SVG Version: 6.00 Build 0)  -->
<svg version="1.1" xmlns="http://www.w3.org/2000/svg" xmlns:xlink="http://www.w3.org/1999/xlink" x="0px" y="0px"
	 viewBox="0 0 1920 1080" style="enable-background:new 0 0 1920 1080;" xml:space="preserve">
<style type="text/css">
	.st0{fill:#333333;}
	.st1{fill:#F8E9A1;}
	.st2{fill:#243047;}
	.st3{fill:#24525E;}
	.st4{fill:#1A1A1A;stroke:#1A1A1A;stroke-linejoin:round;stroke-miterlimit:10;}
	.st5{fill:#1A1A1A;stroke:#1A1A1A;stroke-width:2;stroke-linejoin:round;stroke-miterlimit:10;}
	.st6{fill:#1A1A1A;stroke:#1A1A1A;stroke-miterlimit:10;}
	.st7{fill:#F8E9BE;}
	.st8{fill:#1A1A1A;}
	.st9{fill:#006837;stroke:#006837;stroke-width:2;stroke-linejoin:round;stroke-miterlimit:10;}
	.st10{fill:#666666;stroke:#666666;stroke-width:2;stroke-linejoin:round;stroke-miterlimit:10;}
	.st11{fill:#666666;stroke:#666666;stroke-linejoin:round;stroke-miterlimit:10;}
	.st12{fill:#B3B3B3;stroke:#B3B3B3;stroke-linejoin:round;stroke-miterlimit:10;}
	.st13{fill:#F8E9E6;}
	.st14{fill:#999999;}
	.st15{fill:#666666;}
</style>
<g id="background">
	<g id="darkBg">
		<rect x="-6.67" y="0" class="st0" width="1926" height="1080"/>
	</g>
	<g id="star_93_">
		<circle class="st1" cx="1447.27" cy="304.5" r="9.5"/>
	</g>
	<g id="star_92_">
		<circle class="st1" cx="1729.27" cy="650.5" r="9.5"/>
	</g>
	<g id="star_91_">
		<circle class="st1" cx="1509.27" cy="748.5" r="9.5"/>
	</g>
	<g id="star_90_">
		<circle class="st1" cx="1791.27" cy="276.5" r="9.5"/>
	</g>
	<g id="star_89_">
		<circle class="st1" cx="1577.27" cy="508.5" r="9.5"/>
	</g>
	<g id="star_88_">
		<circle class="st1" cx="1691.27" cy="929.5" r="9.5"/>
	</g>
	<g id="star_87_">
		<circle class="st1" cx="1126.27" cy="250.5" r="9.5"/>
	</g>
	<g id="star_86_">
		<circle class="st1" cx="363.27" cy="166.5" r="9.5"/>
	</g>
	<g id="star_85_">
		<circle class="st1" cx="190.73" cy="300.31" r="9.5"/>
	</g>
	<g id="star_84_">
		<circle class="st1" cx="472.73" cy="646.31" r="9.5"/>
	</g>
	<g id="star_83_">
		<circle class="st1" cx="199.27" cy="829.5" r="9.5"/>
	</g>
	<g id="star_82_">
		<circle class="st1" cx="453.73" cy="329.31" r="9.5"/>
	</g>
	<g id="star_81_">
		<circle class="st1" cx="208.27" cy="577.5" r="9.5"/>
	</g>
	<g id="star_80_">
		<circle class="st1" cx="434.73" cy="925.31" r="9.5"/>
	</g>
	<g id="star_79_">
		<circle class="st1" cx="1568.24" cy="311.03" r="9.5"/>
	</g>
	<g id="star_78_">
		<circle class="st1" cx="1410.93" cy="385.52" r="8.04"/>
	</g>
	<g id="star_77_">
		<circle class="st1" cx="1649.73" cy="678.51" r="8.04"/>
	</g>
	<g id="star_76_">
		<circle class="st1" cx="1463.44" cy="761.5" r="8.04"/>
	</g>
	<g id="star_75_">
		<circle class="st1" cx="1700.64" cy="426.08" r="8.04"/>
	</g>
	<g id="star_74_">
		<circle class="st1" cx="1383.44" cy="595.18" r="8.04"/>
	</g>
	<g id="star_73_">
		<circle class="st1" cx="1268.67" cy="847.02" r="8.04"/>
	</g>
	<g id="star_72_">
		<circle class="st1" cx="1617.55" cy="914.76" r="8.04"/>
	</g>
	<g id="star_71_">
		<circle class="st1" cx="1139.12" cy="339.8" r="8.04"/>
	</g>
	<g id="star_70_">
		<circle class="st1" cx="493.02" cy="268.67" r="8.04"/>
	</g>
	<g id="star_69_">
		<circle class="st1" cx="346.91" cy="381.97" r="8.04"/>
	</g>
	<g id="star_68_">
		<circle class="st1" cx="585.71" cy="674.96" r="8.04"/>
	</g>
	<g id="star_67_">
		<circle class="st1" cx="399.41" cy="757.95" r="8.04"/>
	</g>
	<g id="star_66_">
		<circle class="st1" cx="569.62" cy="406.53" r="8.04"/>
	</g>
	<g id="star_65_">
		<circle class="st1" cx="399.41" cy="538.63" r="8.04"/>
	</g>
	<g id="star_64_">
		<circle class="st1" cx="553.53" cy="911.21" r="8.04"/>
	</g>
	<g id="star_63_">
		<circle class="st1" cx="1445.55" cy="176.67" r="8.04"/>
	</g>
	<g id="star_62_">
		<circle class="st1" cx="715.27" cy="231.5" r="9.5"/>
	</g>
	<g id="star_61_">
		<circle class="st1" cx="706.27" cy="819.5" r="9.5"/>
	</g>
	<g id="star_60_">
		<circle class="st1" cx="1318.27" cy="692.5" r="9.5"/>
	</g>
	<g id="star_59_">
		<circle class="st1" cx="920.2" cy="230.65" r="9.5"/>
	</g>
	<g id="star_58_">
		<circle class="st1" cx="1270.67" cy="149.99" r="9.5"/>
	</g>
	<g id="star_57_">
		<circle class="st1" cx="1000.13" cy="150.33" r="9.5"/>
	</g>
	<g id="star_56_">
		<circle class="st1" cx="800.6" cy="320.67" r="9.5"/>
	</g>
	<g id="star_55_">
		<circle class="st1" cx="780.07" cy="920.01" r="9.5"/>
	</g>
	<g id="star_54_">
		<circle class="st1" cx="1130.54" cy="940.35" r="9.5"/>
	</g>
	<g id="star_53_">
		<circle class="st1" cx="309.78" cy="1025.54" r="9.5"/>
	</g>
	<g id="star_52_">
		<circle class="st1" cx="1804.24" cy="38.35" r="9.5"/>
	</g>
	<g id="star_51_">
		<circle class="st1" cx="169.24" cy="475.35" r="9.5"/>
	</g>
	<g id="star_50_">
		<circle class="st1" cx="1812.78" cy="567.54" r="9.5"/>
	</g>
	<g id="star_49_">
		<circle class="st1" cx="150.24" cy="158.35" r="9.5"/>
	</g>
	<g id="star_48_">
		<circle class="st1" cx="1821.78" cy="315.54" r="9.5"/>
	</g>
	<g id="star_47_">
		<circle class="st1" cx="189.53" cy="97.71" r="8.04"/>
	</g>
	<g id="star_46_">
		<circle class="st1" cx="43.42" cy="211.02" r="8.04"/>
	</g>
	<g id="star_45_">
		<circle class="st1" cx="282.22" cy="504" r="8.04"/>
	</g>
	<g id="star_44_">
		<circle class="st1" cx="95.92" cy="586.99" r="8.04"/>
	</g>
	<g id="star_43_">
		<circle class="st1" cx="266.13" cy="235.57" r="8.04"/>
	</g>
	<g id="star_42_">
		<circle class="st1" cx="95.92" cy="367.67" r="8.04"/>
	</g>
	<g id="star_41_">
		<circle class="st1" cx="411.78" cy="60.54" r="9.5"/>
	</g>
	<g id="star_40_">
		<circle class="st1" cx="402.78" cy="648.54" r="9.5"/>
	</g>
	<g id="star_39_">
		<circle class="st1" cx="875.78" cy="323.54" r="9.5"/>
	</g>
	<g id="star_38_">
		<circle class="st1" cx="703.24" cy="457.35" r="9.5"/>
	</g>
	<g id="star_37_">
		<circle class="st1" cx="985.24" cy="803.35" r="9.5"/>
	</g>
	<g id="star_36_">
		<circle class="st1" cx="711.78" cy="986.54" r="9.5"/>
	</g>
	<g id="star_35_">
		<circle class="st1" cx="966.24" cy="486.35" r="9.5"/>
	</g>
	<g id="star_34_">
		<circle class="st1" cx="720.78" cy="734.54" r="9.5"/>
	</g>
	<g id="star_33_">
		<circle class="st1" cx="1005.53" cy="425.71" r="8.04"/>
	</g>
	<g id="star_32_">
		<circle class="st1" cx="859.42" cy="539.02" r="8.04"/>
	</g>
	<g id="star_31_">
		<circle class="st1" cx="1098.22" cy="832" r="8.04"/>
	</g>
	<g id="star_30_">
		<circle class="st1" cx="911.92" cy="914.99" r="8.04"/>
	</g>
	<g id="star_29_">
		<circle class="st1" cx="1082.13" cy="563.57" r="8.04"/>
	</g>
	<g id="star_28_">
		<circle class="st1" cx="911.92" cy="695.67" r="8.04"/>
	</g>
	<g id="star_27_">
		<circle class="st1" cx="1227.78" cy="388.54" r="9.5"/>
	</g>
	<g id="star_26_">
		<circle class="st1" cx="1218.78" cy="976.54" r="9.5"/>
	</g>
	<g id="star_25_">
		<circle class="st1" cx="1886.78" cy="684.54" r="9.5"/>
	</g>
	<g id="star_24_">
		<circle class="st1" cx="1714.24" cy="818.35" r="9.5"/>
	</g>
	<g id="star_23_">
		<circle class="st1" cx="1665.24" cy="173.35" r="9.5"/>
	</g>
	<g id="star_22_">
		<circle class="st1" cx="1722.78" cy="1007.54" r="9.5"/>
	</g>
	<g id="star_21_">
		<circle class="st1" cx="60.24" cy="938.35" r="9.5"/>
	</g>
	<g id="star_20_">
		<circle class="st1" cx="1411.78" cy="905.54" r="9.5"/>
	</g>
	<g id="star_19_">
		<circle class="st1" cx="99.53" cy="877.71" r="8.04"/>
	</g>
	<g id="star_18_">
		<circle class="st1" cx="1870.42" cy="900.02" r="8.04"/>
	</g>
	<g id="star_17_">
		<circle class="st1" cx="988.22" cy="1042" r="8.04"/>
	</g>
	<g id="star_16_">
		<circle class="st1" cx="551.92" cy="94.99" r="8.04"/>
	</g>
	<g id="star_15_">
		<circle class="st1" cx="176.13" cy="1015.57" r="8.04"/>
	</g>
	<g id="star_14_">
		<circle class="st1" cx="1591.92" cy="65.67" r="8.04"/>
	</g>
	<g id="star_13_">
		<circle class="st1" cx="321.78" cy="840.54" r="9.5"/>
	</g>
	<g id="star_12_">
		<circle class="st1" cx="858.78" cy="156.54" r="9.5"/>
	</g>
	<g id="star_11_">
		<circle class="st1" cx="144.21" cy="37.23" r="9.5"/>
	</g>
	<g id="star_10_">
		<circle class="st1" cx="1258.72" cy="18.96" r="9.5"/>
	</g>
	<g id="star_9_">
		<circle class="st1" cx="1101.42" cy="93.45" r="8.04"/>
	</g>
	<g id="star_8_">
		<circle class="st1" cx="1391.12" cy="134" r="8.04"/>
	</g>
	<g id="star_7_">
		<circle class="st1" cx="829.6" cy="47.72" r="8.04"/>
	</g>
	<g id="star_6_">
		<circle class="st1" cx="37.4" cy="89.9" r="8.04"/>
	</g>
	<g id="star_5_">
		<circle class="st1" cx="260.1" cy="114.46" r="8.04"/>
	</g>
	<g id="star_4_">
		<circle class="st1" cx="491.09" cy="28.59" r="9.5"/>
	</g>
	<g id="star_3_">
		<circle class="st1" cx="1512.27" cy="23.47" r="9.5"/>
	</g>
	<g id="star_2_">
		<circle class="st1" cx="566.27" cy="31.47" r="9.5"/>
	</g>
	<g id="star_1_">
		<circle class="st1" cx="696.01" cy="133.63" r="8.04"/>
	</g>
	<g id="star">
		<circle class="st1" cx="918.27" cy="96.47" r="9.5"/>
	</g>
</g>
<g id="earth">
	<path id="earthWater_2_" class="st2" d="M1209.02,674.31c-1.33-1.79-3.13-3.24-4.39-5.07c-0.86-1.25-1.04-2.94-1.71-4.35
		c-0.57-1.18-1.21-2.45-2.16-3.3c-1.81-1.63-2.33-3.2-1.61-5.47c0.46-1.44,0.54-3.01,0.88-4.49c0.21-0.93,0.61-1.81,0.91-2.72
		c0.08-0.26,0.22-0.6,0.12-0.8c-1.6-3.22-2.13-7.06-5.32-9.38c-0.14-0.1-0.29-0.2-0.51-0.36c-0.98,0.92-1.93,1.89-2.97,2.75
		c-1.22,1-1.66,0.77-2.28-0.69c-0.96-2.27-1.43-4.59-1.25-7.06c0.04-0.59-0.14-1.47-0.55-1.78c-2.24-1.73-3.97-4.16-6.8-5.11
		c-0.95-0.32-1.9-0.67-2.85-1c-2.23-0.78-3.68-0.23-5.4,1.39c-2.92,2.74-6.08,5.22-9.03,7.94c-2.86,2.64-5.59,5.41-8.31,8.19
		c-0.3,0.31-0.34,1.13-0.19,1.6c1.4,4.32,0.21,7.92-3.01,10.91c-1.29,1.2-2.69,2.3-4.16,3.28c-1.25,0.83-2.16,0.37-2.73-1.07
		c-0.71-1.79-1.6-3.5-2.4-5.26c-0.31-0.7-0.6-1.41-0.86-2.12c-0.91-2.48-1.79-4.98-2.71-7.46c-1.95-5.24-4.32-10.42-1.79-16.61
		c-1.06,0.33-1.72,0.62-2.41,0.72c-1.64,0.24-3.3,0.54-4.95,0.53c-0.96,0-1.35-0.77-0.88-1.8c0.39-0.85,0.66-1.75,0.98-2.63
		c-1.12-0.3-2.24-0.81-3.37-0.85c-2.65-0.1-2.77-0.09-3.69-2.64c-1.1-3.09-1.82-3.44-5.01-2.8c-3.43,0.69-6.85,1.07-10.35,0.13
		c-1.67-0.45-3.52-0.4-5.28-0.36c-1.54,0.03-2.43-0.47-2.88-1.99c-0.57-1.95-1.34-2.41-3.1-1.44c-3.62,2.01-6.53,0.04-9.45-1.5
		c-0.85-0.45-1.16-1.92-1.72-2.92c-0.46-0.81-0.74-1.86-1.42-2.39c-1.27-0.99-2.23-2.37-4.34-2.24c-2,0.12-2.75,1.27-3.88,2.79
		c2.33,0.21,2.91,1.95,3.69,3.6c0.32,0.67,1.1,1.15,1.71,1.66c0.9,0.75,1.86,1.43,2.73,2.21c0.25,0.23,0.48,0.81,0.36,1.08
		c-0.85,1.94,0.23,2.99,1.66,3.93c0.64,0.42,1.26,0.87,1.66,1.14c0.85-0.27,1.54-0.7,2.2-0.65c2.05,0.16,3.51-0.67,4.76-2.21
		c1.01-1.24,2.17-2.36,3.26-3.53c0.18,0.1,0.37,0.2,0.55,0.3c0.07,0.55,0.23,1.11,0.18,1.64c-0.14,1.59,0.59,2.53,1.97,3.21
		c1.58,0.78,3.09,1.73,4.62,2.61c1.55,0.89,1.81,1.92,0.4,3.05c-1.7,1.37-2.13,3.14-2.54,5.09c-0.14,0.69-0.71,1.4-1.27,1.89
		c-2.29,2-4.63,3.94-6.98,5.86c-0.56,0.46-1.21,0.92-1.9,1.1c-1.64,0.43-3.13,0.58-4.61,1.96c-1.97,1.85-4.6,3.19-7.17,4.16
		c-3.74,1.4-7.66,2.34-11.53,3.33c-0.92,0.24-1.99,0.02-2.96-0.15c-1.48-0.25-2.19-1.33-1.9-2.72c0.85-4.1-0.14-7.6-2.8-10.82
		c-1.44-1.74-2.31-3.85-4.32-5.27c-1.27-0.9-1.89-2.78-2.7-4.28c-1.09-2.01-2.07-4.07-3.11-6.1c-0.13-0.26-0.42-0.45-0.51-0.72
		c-1.1-3.2-3.05-5.92-4.8-8.77c-0.31-0.51-0.26-1.63,0.11-2.09c0.91-1.13,1-2.31,0.92-3.64c-0.12-2.24-0.27-4.5-0.19-6.74
		c0.03-0.92,0.44-1.95,0.99-2.7c0.68-0.95,0.89-1.68,0.58-2.89c-0.35-1.33-0.08-2.82-0.08-4.79c-1.03-0.04-2.43-0.2-3.82-0.14
		c-1.86,0.09-3.72,0.36-5.58,0.53c-0.53,0.05-1.13-0.15-1.59,0.03c-2.82,1.12-5.18,0.04-7.71-1.13c-2.02-0.94-3.59-2.1-4.25-4.2
		c-0.72-2.29-1.26-4.64-1.83-6.8c-1.88,0.27-3.98,0.3-5.83,0.99c-0.66,0.25-0.92,2.08-0.99,3.21c-0.05,0.81,0.45,1.69,0.8,2.49
		c1.1,2.48-0.62,3.99-1.95,5.59c-0.14,0.17-1.24-0.05-1.31-0.27c-1.05-3.21-3.51-5.38-5.44-7.97c-0.58-0.78-1.08-1.64-1.46-2.57
		c-2.01,1.32-3.67,0.23-5.12,0.03c-0.36,1.56-0.68,3.03-1.05,4.49c-0.25,1.02-0.59,1.87-1.76,2.39c-0.62,0.28-0.93,1.38-1.25,2.17
		c-0.26,0.62-0.31,1.33-0.55,2.43c-0.65-0.6-1.06-0.89-1.34-1.26c-0.93-1.24-2.03-2.07-3.66-2.23c-0.5-0.05-1.38-0.94-1.3-1.24
		c0.18-0.67,0.77-1.59,1.34-1.72c1.06-0.23,2.22,0.05,3.34,0.08c1.15,0.03,2.31,0.01,3.43,0.01c-0.49-5.03-3.83-7.18-7.67-8.8
		c-2.24-0.94-3.87-2.28-4.71-4.7c-1.02-2.96-4.42-3.69-6.99-1.9c-1.31,0.91-2.86,1.61-4.4,2.03c-0.81,0.22-1.83-0.42-2.77-0.57
		c-0.86-0.14-1.78-0.35-2.61-0.2c-1.12,0.21-1.63,1.09-1.53,2.26c0.13,1.52-0.74,2.39-1.91,3.13c-1.19,0.76-2.4,1.53-3.48,2.44
		c-1.1,0.92-1.84,1.96-1.42,3.67c0.44,1.81-0.12,3.53-1.85,4.63c-1.2,0.77-2.29,1.77-3.59,2.27c-1.25,0.48-2.75,0.75-4.06,0.57
		c-1.41-0.2-2.28-0.02-2.86,1.28c-0.14,0.32-0.36,0.62-0.56,0.91c-1.44,2.07-1.17,2.72,1.4,3.2c1.22,0.23,2.45,0.56,3.67,0.56
		c0.93,0,2-0.24,2.75-0.74c3.54-2.36,7.13-4.26,11.62-4.24c3.95,0.02,7.91-0.55,11.86-0.83c1-0.07,2.01-0.1,3.01-0.07
		c1.25,0.03,1.69,0.69,1.71,1.96c0.01,1.14,0.44,2.27,0.59,3.41c0.2,1.6,0.32,3.21,0.47,4.87c0.68,0.43,1.47,1.04,2.35,1.45
		c0.64,0.3,1.41,0.43,2.12,0.45c1.24,0.03,2.48-0.19,3.71-0.12c1.97,0.11,3.57,0.8,4.05,3.02c0.1,0.45,0.59,1.14,0.91,1.15
		c2.59,0.08,4.17,1.76,5.81,3.41c0.12,0.12,0.31,0.16,0.37,0.2c0.85-0.7,1.76-1.28,2.43-2.07c0.41-0.49,0.7-1.33,0.61-1.95
		c-0.34-2.22,0.12-2.89,2.3-3.22c2.42-0.37,4.65-0.19,6.79,1.22c0.99,0.65,2.32,0.79,3.49,1.17c1.68,0.54,3.33,1.21,5.04,1.57
		c1.32,0.28,2.91,0.64,4.05,0.16c3.52-1.47,6.92-0.87,10.41-0.13c3.42,0.73,5,4.42,2.38,7.99c-0.31,0.43-1.1,0.51-1.43,0.66
		c1.58,4.06,3.17,8.18,4.78,12.29c0.21,0.55,0.43,1.14,0.82,1.56c2.46,2.71,3.21,6.16,4.58,9.4c1.37,3.26,2.28,7.17,5.86,9.4
		c2.06,1.28,3.64,3.35,5.41,5.1c0.32,0.32,0.58,0.77,0.69,1.2c0.65,2.64,1.82,3.85,4.51,3.7c2.93-0.17,5.86-0.73,8.76-1.26
		c2.07-0.38,4.1-1.01,6.22-1.54c-0.98,7.63-3.45,14.48-8.83,19.99c-2.55,2.61-5.38,4.95-7.97,7.53c-1.66,1.64-3.15,3.45-4.65,5.25
		c-1.74,2.09-3.37,4.27-5.11,6.35c-0.73,0.87-1,1.66-0.81,2.87c0.44,2.8,0.52,5.66,0.9,8.47c0.39,2.89,0.87,5.77,1.48,8.62
		c1.13,5.29-0.75,9.4-4.81,12.66c-2.12,1.71-4.41,3.2-6.52,4.92c-1.12,0.92-2.03,2.1-3.09,3.23c2.67,2.48,1.66,5.04,1.12,7.85
		c-0.62,3.24-3.08,4.21-5.64,5.67c2.55,2.38,1.17,4.11-0.43,6.07c-2.3,2.82-4.15,6.03-6.51,8.79c-3.89,4.55-9.07,6.65-14.98,7.14
		c-3.18,0.26-6.35,0.67-9.52,1.03c-1.82,0.21-3.1-0.65-3.97-2.1c-0.41-0.69-0.77-1.56-0.74-2.34c0.18-4.21-2.27-7.34-4.17-10.72
		c-2.65-4.71-4.72-9.58-5.25-15.1c-0.23-2.41-1.26-5.01-2.66-7.01c-3.89-5.56-3.32-11.23-1.16-17.07c0.44-1.2,1.16-2.33,1.89-3.4
		c0.77-1.13,0.8-2.18,0.44-3.5c-0.58-2.14-0.81-4.38-1.26-6.56c-0.26-1.25-0.53-2.53-1.03-3.7c-0.24-0.57-1.01-0.93-1.37-1.23
		c-0.37-1.07-0.53-2.2-1.09-3.05c-1.3-1.97-2.72-3.87-4.24-5.68c-2.11-2.52-2.65-5.04-1.18-8.17c0.8-1.69,0.86-3.75,1.09-5.67
		c0.16-1.26-0.61-1.97-1.89-2.09c-1.77-0.17-3.53-0.45-5.3-0.51c-1.32-0.04-2.14-0.62-3-1.55c-0.98-1.06-2.19-1.96-3.44-2.71
		c-1.57-0.94-3.12-0.61-4.88,0.02c-5.45,1.97-10.79,4.54-16.92,3.69c-2.62-0.36-5.33-0.12-7.97-0.4c-1.09-0.11-2.37-0.6-3.14-1.35
		c-2.71-2.65-5.33-5.39-7.78-8.28c-1.48-1.74-2.52-3.84-3.85-5.71c-0.57-0.81-1.33-1.51-2.07-2.19c-3.03-2.81-3.91-7.46-2.66-11.43
		c1.04-3.29,0.95-6.66-1.41-9.6c-0.88-1.1-1-2.1-0.1-3.5c2.62-4.07,5.05-8.27,7.44-12.48c1.1-1.93,2.39-3.25,4.64-4
		c2.05-0.68,3.8-2.23,5.85-3.5c-2.24-3.21-0.36-5.67,0.93-8.13c0.36-0.68,1.36-1.01,2.03-1.54c0.95-0.74,2.1-1.36,2.75-2.32
		c1.31-1.92,1.95-4.38,4.84-4.99c-0.26-0.41-0.37-0.58-0.47-0.76c-2.68-4.44-1.46-3.49-6.1-3.94c-1.27-0.12-1.81-0.58-1.96-1.75
		c-0.09-0.7-0.15-1.43-0.38-2.09c-0.54-1.58-0.17-2.75,1.04-3.96c0.64-0.64,1-1.9,0.93-2.84c-0.15-2.1-0.69-4.17-0.99-6.26
		c-0.07-0.49,0.06-1.4,0.32-1.49c1.41-0.48,2.9-1.1,4.33-1.05c3.7,0.13,7.38,0.64,11.07,0.9c1.37,0.1,2.67-1.75,2.69-3.74
		c0.01-1.24,0-2.51-0.27-3.71c-0.37-1.67-1.14-3.04-3.14-3.38c-1.13-0.19-2.31-0.68-3.22-1.36c-0.66-0.49-1.14-1.49-1.3-2.33
		c-0.24-1.24,0.59-1.89,1.72-1.34c2.29,1.13,4.03,0.58,6.01-0.92c1.27-0.96,3.17-1.1,4.8-1.6c1.18-0.37,2.12-0.78,2.35-2.18H954.6
		h-6.37H816.72h-11.7h-3.1c-0.39,0.13-0.8,0.47-1.04,0.78c-1.1,1.45-2.34,2.5-4.2,3.02c-2.86,0.79-4.18,3.02-4.33,6.07
		c1.71-2.44,3.84-4.26,6.71-5.14c2.65-0.81,5.22-2.2,8.32-0.52c-1.78,1.93-3.38,3.6-5.95,3.8c-2.29,0.17-2.88,0.85-2.4,3.06
		c0.29,1.32,0.71,2.61,1.19,3.87c0.84,2.19-0.17,3.56-2.5,3.91c-1.76,0.27-3.48,0.99-5.11,1.74c-0.46,0.21-0.67,1.26-0.73,1.95
		c-0.06,0.61,0.29,1.26,0.37,1.9c0.27,2.11-0.14,2.37-2.2,2.53c-1.36,0.1-2.7,0.69-3.99,1.22c-1.33,0.55-2.05,1.5-2.6,3.02
		c-0.69,1.92-2.23,3.59-3.61,5.19c-0.55,0.64-1.66,0.96-1.86-0.6c-0.05-0.4-0.19-0.8-0.76-1.37c-0.15,0.45-0.39,0.89-0.41,1.34
		c-0.03,0.7,0.1,1.4-0.2,2.15c0.59,0.69,1.35,1.3,1.74,2.09c1.32,2.67,1.27,2.7-1.14,4.36c-0.15,0.1-0.28,0.21-0.42,0.32
		c-2.73,2.24-5.42,4.52-8.19,6.7c-3.04,2.4-3.64,5.5-1.86,9.02c0.92,1.82,1.71,3.78,2.14,5.76c0.26,1.23-0.05,2.71-0.51,3.93
		c-0.58,1.53-1.99,1.66-2.83,0.29c-1.65-2.71-3.56-5.3-3.92-8.63c-0.23-2.12-2.05-3.18-4.13-2.78c-0.66,0.13-1.55-0.04-2.09-0.42
		c-2.54-1.75-7.59-1.47-9.63,0.71c-1.88,2.01-4.07,0.94-5.97,0.43c-3.01-0.8-5.57-0.54-7.95,1.48c-0.44,0.38-0.96,0.71-1.5,0.92
		c-3.02,1.15-3.33,1.51-2.82,4.68c0.23,1.47,0.14,2.7-0.67,4.01c-0.49,0.79-0.66,1.96-0.54,2.91c0.4,3.38-0.22,7.05,2.64,9.79
		c0.37,0.35,0.62,0.88,0.8,1.37c0.39,1.09,1.26,1.37,2.19,1.93c2.96,1.77,5.64,0.02,8.4-0.22c1.54-0.13,2.41-1.57,2.46-3.09
		c0.07-2.14,1.15-3.06,3.14-3.29c1.64-0.19,3.26-0.61,4.91-0.69c1.76-0.09,2.17,0.57,1.61,2.19c-0.58,1.68-1.14,3.45-1.78,5.01
		c-0.77,1.91-1.42,3.73-1.71,5.75c-0.08,0.53-0.54,1.01-1,1.81c1.4,0,2.55,0.01,3.71,0c2.82-0.04,5.73-0.65,8.26,1.15
		c0.48,0.34,0.96,1.07,0.95,1.61c-0.03,1.4-0.19,2.83-0.55,4.19c-0.84,3.2-0.82,5.9,2.24,8.19c2.86,2.14,2.59,2.11,6.08,0.93
		c2.83-0.96,5.71-0.36,8.2,2.12c0.88-1.45,1.91-2.71,2.46-4.15c0.86-2.26,2.72-2.68,4.68-3.15c0.82-0.2,1.69-0.42,2.39-0.87
		c1.47-0.94,2.96-1.58,5.38-1.37c-2.76,2.28-4.07,4.58-2.66,7.46c0.25,0.05,0.5,0.09,0.76,0.14c0.07-0.56,0.32-1.16,0.19-1.67
		c-0.64-2.45,0.59-4.42,3.06-4.48c1.45-0.03,2.88,0.1,4.01,1.44c0.55,0.65,1.73,0.77,2.64,1.11c0.15,0.06,0.36-0.05,0.53-0.01
		c1.54,0.35,3.11,1.1,4.59,0.96c1.45-0.14,2.77-1.31,4.22-1.81c0.71-0.24,1.59,0.03,2.57,0.08c-0.14,0.77-0.23,1.31-0.36,2.03
		c0.62,0.16,1.16,0.37,1.72,0.44c2.49,0.3,2.61,0.5,1.75,2.46c1.28,0.44,2.62,0.77,3.85,1.35c1.33,0.63,2.82,1.31,2.1,3.18
		c1.44,0.87,2.69,1.8,4.09,2.38c0.85,0.35,1.98,0.36,2.9,0.14c2.4-0.57,4.4,0.06,6.27,1.53c1.41,1.11,3.23,1.91,4.2,3.31
		c1.25,1.81,0.4,4.77,3.02,5.99c-0.47,2.66,1.07,3.64,3.33,4.15c0.46,0.1,0.79,0.8,1.24,1.29c3.24-0.45,6,1.27,8.71,2.83
		c1.69,0.97-0.11,1.59-0.79,2.41c0.43-0.02,0.75,0.06,0.85-0.06c1.67-1.91,3.48-1.67,5.6-0.71c1.12,0.51,2.54,0.46,3.83,0.47
		c1.98,0.02,3.57,0.72,4.8,2.24c1.39,1.71,3.06,2.88,5.34,3.13c2.16,0.24,3.41,1.64,3.41,3.83c0,1.82-0.06,3.67-0.38,5.46
		c-0.33,1.82-1.48,3.22-3.14,4.09c-1.46,0.76-2.36,1.85-2.73,3.49c-0.28,1.27-0.75,2.51-2.41,2.7c-0.26,0.03-0.58,0.8-0.61,1.26
		c-0.23,2.89-0.33,5.79-0.59,8.68c-0.09,0.97-0.5,1.91-0.82,2.84c-0.15,0.44-0.63,0.85-0.61,1.26c0.12,3.16-2.05,5.37-3.44,7.81
		c-1.03,1.8-3.04,3.19-5.34,3.31c-1.71,0.09-3.05,0.58-4.29,1.76c-0.44,0.42-1.33,0.37-2.02,0.51c-0.49,0.1-1.09,0.01-1.45,0.27
		c-1.34,0.96-2.71,1.92-3.85,3.1c-0.66,0.68-1.16,1.76-1.24,2.7c-0.13,1.58,0.16,3.18,0.21,4.78c0.03,1-0.33,1.64-1.36,2.21
		c-1,0.55-1.72,1.7-2.44,2.67c-0.68,0.92-1.51,1.39-2.52,1.94c-1.28,0.71-2.04,2.4-2.97,3.71c-1.29,1.81-2.33,3.83-3.83,5.43
		c-2.52,2.67-4.81,2.84-8.14,1.17c-0.51-0.26-1.09-0.4-1.79-0.39c1.65,0.73,2.42,1.83,2.02,3.6c-0.04,0.18,0.15,0.43,0.26,0.64
		c1.77,3.26,0.36,6.01-3.2,7.13c-2.66,0.84-5.26,1.24-8.01,1.13c-0.35-0.01-1,0.41-1.04,0.7c-0.16,1.14-0.13,2.31-0.26,3.45
		c43.44,27.84,95.09,43.98,150.51,43.98c104.14,0,194.96-57,242.99-141.5c-1.62-2.1-3.11-4.31-4.59-6.51
		c-0.72-1.07-1.08-2.38-1.85-3.39c-1.26-1.65-2.65-3.22-4.11-4.69c-0.77-0.78-2-1.15-2.65-1.99c-0.41-0.53-0.11-1.59-0.13-2.42
		c0.64,0.03,1.31-0.03,1.93,0.12c1.08,0.26,2.14,0.61,3.17,1.01c0.57,0.22,1.15,0.56,1.58,0.99c1.12,1.13,2.05,2.47,3.25,3.5
		c1.18,1.02,2.61,1.76,3.91,2.64c0.82,0.56,1.66,1.12,2.41,1.77c0.45,0.39,0.91,0.76,1.38,1.14c0.24-0.46,0.48-0.93,0.73-1.4
		C1209.71,675.12,1209.36,674.77,1209.02,674.31z M1082.78,717.77c-0.35,0.5-0.89,0.92-1.12,1.46c-0.29,0.7-0.14,1.62-0.53,2.22
		c-3.02,4.72-2.87,10.27-4.13,15.45c-0.1,0.4-0.18,0.81-0.3,1.2c-0.75,2.63-2.24,3.95-4.38,3.86c-3.04-0.13-5.16-1.76-5.63-4.39
		c-0.19-1.1-0.3-2.22-0.45-3.33c-0.33-2.16,0.82-3.77,2.01-5.33c0.92-1.2,1.38-2.33,0.6-3.87c-0.73-1.42-1.09-3.03-1.67-4.53
		c-0.75-1.95,0.06-3.19,2.17-3.38c1.4-0.13,2.81-0.33,4.18-0.63c1.69-0.37,2.74-1.22,3.35-3.12c0.49-1.55,2.07-2.77,3.27-4.05
		c0.15-0.16,1.22,0.15,1.34,0.45c0.86,2.06,1.66,4.16,2.27,6.3C1083.91,716.52,1083.17,717.22,1082.78,717.77z M1158.93,663.36
		c-0.47,1.91-2.08,1.43-3.28,1.69c-0.19,0.04-0.82-1.29-1.01-2.05c-0.24-0.96-0.23-1.98-0.32-2.87c0.07-0.93,0.14-1.76,0.19-2.58
		c0.08-1.29,0.67-1.52,1.74-0.89C1158.81,658.17,1159.65,660.43,1158.93,663.36z"/>
	<path id="earthWater_1_" class="st2" d="M1007.69,571.36c0.27-1.38-0.73-1.99-1.78-2.22c-2.71-0.61-4.5-2.37-6.29-4.35
		c-1.37-1.51-3.14-2.68-4.8-3.91c-0.88-0.66-1.6-0.1-1.62,0.8c-0.03,1.15-0.07,2.55,0.52,3.42c2.59,3.82,5.29,7.62,9.95,9.24
		c0.61,0.21,1.25,0.36,1.85,0.61c0.79,0.34,1.56,0.74,2.62,1.26C1007.59,574.72,1007.36,573.07,1007.69,571.36z"/>
	<path id="earthWater" class="st2" d="M788.94,755.74c-0.09-3.03,0.14-6.39,1.68-9.4c0.68-1.34,0.7-3.09,0.75-4.67
		c0.13-3.83-0.08-7.63,1.29-11.39c0.55-1.52,0.02-3.67-0.61-5.31c-0.47-1.19-1.8-2.16-2.94-2.95c-3.51-2.45-7.15-4.73-10.65-7.2
		c-0.63-0.44-0.91-1.43-1.26-2.21c-0.6-1.31-1.11-2.66-1.68-3.98c-0.35-0.81-0.72-1.61-1.15-2.38c-1.97-3.48-3.95-6.95-5.97-10.41
		c-0.9-1.55-1.91-3.04-2.83-4.58c-0.17-0.28-0.25-0.71-0.17-1.01c0.5-1.92,1.51-3.39,3.46-4.17c0.59-0.24,1.01-0.92,1.51-1.41
		c-0.13-0.14-0.26-0.29-0.39-0.43c-0.68,0.31-1.34,0.66-2.04,0.92c-1,0.38-1.63,0.05-1.66-1.08c-0.04-1.62-0.28-3.12,1.46-4.38
		c1.52-1.09,3.15-2.7,3.61-4.39c0.47-1.72,1.59-2.31,2.49-3.41c0.9-1.11,1.12-2.94,1.25-4.48c0.12-1.51,0.03-3.15-0.47-4.56
		c-0.57-1.61-1.55-3.13-2.65-4.44c-0.39-0.47-1.67-0.3-2.51-0.2c-0.19,0.02-0.35,0.99-0.37,1.52c-0.05,1.41-0.85,1.73-2.02,1.41
		c-0.56-0.15-1.13-0.44-1.57-0.81c-1.09-0.92-2.13-1.22-3.48,0.43c-1.36-1.55-2.35-3.46-3.92-4.29c-2.02-1.07-3.51-2.06-4.18-4.42
		c-0.43-1.51-1.7-2.82-2.7-4.12c-0.35-0.45-1.01-0.74-1.59-0.92c-1.57-0.47-3.17-0.83-4.76-1.24c-0.17-0.04-0.34-0.2-0.49-0.18
		c-3.65,0.46-5.55-2.24-7.78-4.31c-1.56-1.45-3.18-1.68-5.21-0.93c-1.07,0.4-2.46,0.3-3.61,0.02c-2.52-0.6-5.13-1.16-7.44-2.28
		c-4.14-2-8.72-3.26-12.06-6.75c-1.15-1.2-1.62-2.25-1.12-3.93c0.25-0.85,0.01-2.23-0.56-2.88c-2.52-2.87-5.24-5.56-7.89-8.33
		c-0.28-0.3-0.73-0.57-0.8-0.92c-0.62-3.23-3.51-4.54-5.44-6.67c-1.19-1.32-2.32-2.93-2.79-4.6c-0.34-1.2-0.82-2.1-1.54-2.7
		c0.49,2.45,1,4.9,1.55,7.33c0.59,0.67,1.15,1.36,1.63,2.1c1.53,2.33,2.64,4.92,4,7.36c0.27,0.49,0.88,0.79,1.25,1.24
		c0.51,0.62,1.05,1.27,1.33,2c0.11,0.28-0.37,1.03-0.74,1.17c-0.36,0.14-1.02-0.09-1.37-0.37c-1.19-0.94-2.37-1.9-3.49-2.92
		c15.62,58.29,49.61,109.05,95.4,145.7C788.54,762.03,789.03,759,788.94,755.74z"/>
	<path id="earthLand_5_" class="st3" d="M1241.37,546.21H965.43c-0.23,1.4-1.17,1.82-2.35,2.18c-1.62,0.5-3.52,0.64-4.8,1.6
		c-1.98,1.5-3.72,2.05-6.01,0.92c-1.12-0.55-1.96,0.09-1.72,1.34c0.16,0.85,0.64,1.84,1.3,2.33c0.91,0.68,2.09,1.17,3.22,1.36
		c2.01,0.34,2.78,1.71,3.14,3.38c0.26,1.2,0.28,2.47,0.27,3.71c-0.02,2-1.32,3.84-2.69,3.74c-3.69-0.26-7.38-0.77-11.07-0.9
		c-1.44-0.05-2.92,0.57-4.33,1.05c-0.25,0.09-0.39,0.99-0.32,1.49c0.3,2.09,0.84,4.16,0.99,6.26c0.07,0.94-0.29,2.2-0.93,2.84
		c-1.2,1.21-1.58,2.38-1.04,3.96c0.23,0.66,0.29,1.39,0.38,2.09c0.15,1.17,0.69,1.63,1.96,1.75c4.64,0.45,3.42-0.5,6.1,3.94
		c0.11,0.18,0.22,0.35,0.47,0.76c-2.89,0.61-3.53,3.07-4.84,4.99c-0.65,0.95-1.8,1.58-2.75,2.32c-0.68,0.53-1.68,0.86-2.03,1.54
		c-1.29,2.47-3.17,4.92-0.93,8.13c-2.04,1.27-3.8,2.82-5.85,3.5c-2.25,0.75-3.54,2.06-4.64,4c-2.39,4.21-4.81,8.42-7.44,12.48
		c-0.9,1.39-0.79,2.4,0.1,3.5c2.36,2.94,2.45,6.3,1.41,9.6c-1.25,3.96-0.37,8.62,2.66,11.43c0.74,0.68,1.49,1.38,2.07,2.19
		c1.33,1.88,2.37,3.97,3.85,5.71c2.45,2.89,5.07,5.63,7.78,8.28c0.77,0.75,2.04,1.24,3.14,1.35c2.64,0.27,5.34,0.03,7.97,0.4
		c6.12,0.85,11.47-1.72,16.92-3.69c1.76-0.64,3.31-0.97,4.88-0.02c1.24,0.75,2.45,1.65,3.44,2.71c0.87,0.93,1.68,1.51,3,1.55
		c1.77,0.05,3.53,0.33,5.3,0.51c1.27,0.13,2.04,0.83,1.89,2.09c-0.24,1.91-0.3,3.98-1.09,5.67c-1.47,3.13-0.93,5.65,1.18,8.17
		c1.52,1.81,2.94,3.71,4.24,5.68c0.57,0.86,0.73,1.98,1.09,3.05c0.36,0.31,1.12,0.66,1.37,1.23c0.5,1.17,0.77,2.45,1.03,3.7
		c0.45,2.18,0.68,4.42,1.26,6.56c0.36,1.32,0.33,2.37-0.44,3.5c-0.72,1.07-1.44,2.19-1.89,3.4c-2.16,5.84-2.73,11.51,1.16,17.07
		c1.4,2,2.43,4.59,2.66,7.01c0.53,5.52,2.6,10.4,5.25,15.1c1.91,3.38,4.35,6.51,4.17,10.72c-0.03,0.77,0.33,1.65,0.74,2.34
		c0.87,1.46,2.16,2.31,3.97,2.1c3.17-0.36,6.34-0.77,9.52-1.03c5.92-0.48,11.1-2.58,14.98-7.14c2.36-2.77,4.21-5.97,6.51-8.79
		c1.6-1.96,2.98-3.69,0.43-6.07c2.57-1.46,5.02-2.43,5.64-5.67c0.54-2.81,1.56-5.37-1.12-7.85c1.06-1.13,1.96-2.32,3.09-3.23
		c2.11-1.72,4.4-3.22,6.52-4.92c4.06-3.26,5.94-7.37,4.81-12.66c-0.61-2.85-1.09-5.73-1.48-8.62c-0.38-2.81-0.45-5.67-0.9-8.47
		c-0.19-1.21,0.08-2,0.81-2.87c1.74-2.09,3.37-4.26,5.11-6.35c1.5-1.79,2.99-3.6,4.65-5.25c2.59-2.57,5.42-4.92,7.97-7.53
		c5.38-5.5,7.85-12.36,8.83-19.99c-2.12,0.54-4.15,1.16-6.22,1.54c-2.9,0.53-5.82,1.09-8.76,1.26c-2.69,0.15-3.86-1.06-4.51-3.7
		c-0.11-0.43-0.37-0.88-0.69-1.2c-1.76-1.75-3.34-3.81-5.41-5.1c-3.58-2.22-4.48-6.14-5.86-9.4c-1.37-3.24-2.11-6.69-4.58-9.4
		c-0.38-0.42-0.6-1.02-0.82-1.56c-1.61-4.11-3.21-8.23-4.78-12.29c0.34-0.14,1.12-0.23,1.43-0.66c2.62-3.57,1.04-7.26-2.38-7.99
		c-3.49-0.75-6.89-1.35-10.41,0.13c-1.14,0.48-2.73,0.12-4.05-0.16c-1.71-0.36-3.36-1.03-5.04-1.57c-1.17-0.37-2.5-0.52-3.49-1.17
		c-2.14-1.4-4.37-1.59-6.79-1.22c-2.18,0.33-2.64,1.01-2.3,3.22c0.09,0.62-0.2,1.46-0.61,1.95c-0.66,0.79-1.57,1.36-2.43,2.07
		c-0.07-0.03-0.26-0.08-0.37-0.2c-1.64-1.64-3.22-3.33-5.81-3.41c-0.33-0.01-0.82-0.7-0.91-1.15c-0.48-2.22-2.08-2.91-4.05-3.02
		c-1.23-0.07-2.48,0.15-3.71,0.12c-0.72-0.02-1.48-0.15-2.12-0.45c-0.88-0.41-1.68-1.02-2.35-1.45c-0.16-1.66-0.27-3.27-0.47-4.87
		c-0.15-1.14-0.57-2.27-0.59-3.41c-0.01-1.27-0.46-1.93-1.71-1.96c-1-0.02-2.01,0-3.01,0.07c-3.95,0.29-7.91,0.85-11.86,0.83
		c-4.49-0.02-8.08,1.87-11.62,4.24c-0.76,0.51-1.83,0.74-2.75,0.74c-1.22,0-2.45-0.34-3.67-0.56c-2.56-0.48-2.84-1.13-1.4-3.2
		c0.2-0.29,0.42-0.58,0.56-0.91c0.58-1.3,1.45-1.48,2.86-1.28c1.31,0.19,2.81-0.08,4.06-0.57c1.3-0.5,2.39-1.51,3.59-2.27
		c1.73-1.11,2.28-2.82,1.85-4.63c-0.41-1.71,0.32-2.75,1.42-3.67c1.08-0.9,2.29-1.67,3.48-2.44c1.17-0.75,2.04-1.62,1.91-3.13
		c-0.1-1.17,0.41-2.05,1.53-2.26c0.83-0.15,1.75,0.05,2.61,0.2c0.94,0.16,1.96,0.79,2.77,0.57c1.54-0.42,3.09-1.11,4.4-2.03
		c2.58-1.79,5.97-1.06,6.99,1.9c0.83,2.42,2.47,3.76,4.71,4.7c3.85,1.62,7.18,3.77,7.67,8.8c-1.12,0-2.27,0.02-3.43-0.01
		c-1.12-0.03-2.29-0.31-3.34-0.08c-0.57,0.13-1.16,1.05-1.34,1.72c-0.08,0.29,0.8,1.19,1.3,1.24c1.64,0.16,2.73,0.99,3.66,2.23
		c0.28,0.38,0.69,0.66,1.34,1.26c0.24-1.1,0.3-1.8,0.55-2.43c0.32-0.79,0.63-1.89,1.25-2.17c1.17-0.52,1.5-1.37,1.76-2.39
		c0.36-1.46,0.69-2.94,1.05-4.49c1.45,0.2,3.11,1.29,5.12-0.03c-0.03-0.07-0.05-0.13-0.07-0.2c-1.06-0.52-1.83-0.92-2.62-1.26
		c-0.6-0.25-1.24-0.4-1.85-0.61c-4.66-1.62-7.36-5.42-9.95-9.24c-0.59-0.87-0.55-2.27-0.52-3.42c0.02-0.89,0.74-1.45,1.62-0.8
		c1.66,1.23,3.43,2.4,4.8,3.91c1.79,1.97,3.57,3.74,6.29,4.35c1.05,0.24,2.05,0.84,1.78,2.22c-0.33,1.71-0.1,3.36,0.46,4.85
		c0.07,0.04,0.14,0.07,0.22,0.11c-0.05,0.03-0.1,0.06-0.14,0.09c0.38,0.93,0.88,1.8,1.46,2.57c1.93,2.59,4.4,4.76,5.44,7.97
		c0.07,0.23,1.17,0.45,1.31,0.27c1.33-1.6,3.05-3.11,1.95-5.59c-0.36-0.8-0.86-1.68-0.8-2.49c0.07-1.13,0.33-2.97,0.99-3.21
		c1.85-0.69,3.95-0.72,5.83-0.99c0.57,2.16,1.11,4.51,1.83,6.8c0.66,2.1,2.23,3.26,4.25,4.2c2.53,1.17,4.89,2.25,7.71,1.13
		c0.46-0.18,1.06,0.01,1.59-0.03c1.86-0.17,3.72-0.44,5.58-0.53c1.39-0.07,2.8,0.09,3.82,0.14c0,1.97-0.27,3.46,0.08,4.79
		c0.32,1.21,0.1,1.94-0.58,2.89c-0.55,0.76-0.96,1.78-0.99,2.7c-0.08,2.24,0.07,4.49,0.19,6.74c0.07,1.33-0.02,2.51-0.92,3.64
		c-0.37,0.46-0.42,1.58-0.11,2.09c1.74,2.85,3.69,5.57,4.8,8.77c0.09,0.27,0.38,0.46,0.51,0.72c1.04,2.03,2.02,4.1,3.11,6.1
		c0.81,1.5,1.43,3.37,2.7,4.28c2.01,1.42,2.88,3.53,4.32,5.27c2.67,3.23,3.65,6.72,2.8,10.82c-0.29,1.39,0.42,2.46,1.9,2.72
		c0.97,0.17,2.05,0.38,2.96,0.15c3.88-1,7.8-1.93,11.53-3.33c2.57-0.97,5.2-2.31,7.17-4.16c1.47-1.38,2.97-1.53,4.61-1.96
		c0.68-0.18,1.33-0.64,1.9-1.1c2.35-1.92,4.7-3.86,6.98-5.86c0.56-0.49,1.13-1.2,1.27-1.89c0.4-1.94,0.84-3.72,2.54-5.09
		c1.4-1.13,1.15-2.16-0.4-3.05c-1.54-0.88-3.04-1.82-4.62-2.61c-1.38-0.69-2.11-1.62-1.97-3.21c0.05-0.54-0.11-1.09-0.18-1.64
		c-0.18-0.1-0.37-0.2-0.55-0.3c-1.09,1.17-2.25,2.29-3.26,3.53c-1.25,1.54-2.71,2.37-4.76,2.21c-0.66-0.05-1.35,0.38-2.2,0.65
		c-0.4-0.27-1.02-0.72-1.66-1.14c-1.42-0.94-2.51-1.99-1.66-3.93c0.12-0.27-0.11-0.85-0.36-1.08c-0.87-0.78-1.83-1.46-2.73-2.21
		c-0.61-0.51-1.39-0.99-1.71-1.66c-0.78-1.65-1.36-3.38-3.69-3.6c1.13-1.52,1.88-2.67,3.88-2.79c2.11-0.13,3.08,1.26,4.34,2.24
		c0.68,0.53,0.96,1.57,1.42,2.39c0.56,1,0.87,2.47,1.72,2.92c2.91,1.54,5.83,3.5,9.45,1.5c1.76-0.98,2.53-0.51,3.1,1.44
		c0.44,1.52,1.34,2.02,2.88,1.99c1.76-0.03,3.6-0.09,5.28,0.36c3.51,0.94,6.92,0.56,10.35-0.13c3.19-0.65,3.91-0.29,5.01,2.8
		c0.91,2.56,1.03,2.55,3.69,2.64c1.13,0.04,2.25,0.55,3.37,0.85c-0.32,0.88-0.59,1.78-0.98,2.63c-0.47,1.03-0.08,1.8,0.88,1.8
		c1.65,0.01,3.31-0.29,4.95-0.53c0.69-0.1,1.35-0.4,2.41-0.72c-2.53,6.19-0.15,11.37,1.79,16.61c0.92,2.48,1.8,4.98,2.71,7.46
		c0.26,0.72,0.54,1.43,0.86,2.12c0.79,1.75,1.69,3.47,2.4,5.26c0.57,1.43,1.48,1.9,2.73,1.07c1.46-0.98,2.87-2.08,4.16-3.28
		c3.22-3,4.41-6.59,3.01-10.91c-0.16-0.48-0.12-1.29,0.19-1.6c2.72-2.78,5.46-5.55,8.31-8.19c2.94-2.72,6.11-5.19,9.03-7.94
		c1.72-1.61,3.17-2.17,5.4-1.39c0.95,0.33,1.89,0.68,2.85,1c2.82,0.95,4.56,3.38,6.8,5.11c0.41,0.32,0.59,1.19,0.55,1.78
		c-0.18,2.47,0.28,4.79,1.25,7.06c0.62,1.46,1.06,1.7,2.28,0.69c1.04-0.86,1.98-1.83,2.97-2.75c0.22,0.16,0.37,0.26,0.51,0.36
		c3.19,2.32,3.72,6.16,5.32,9.38c0.1,0.2-0.04,0.54-0.12,0.8c-0.3,0.91-0.7,1.79-0.91,2.72c-0.34,1.49-0.42,3.05-0.88,4.49
		c-0.72,2.27-0.21,3.84,1.61,5.47c0.95,0.85,1.59,2.12,2.16,3.3c0.67,1.41,0.85,3.1,1.71,4.35c1.26,1.83,3.06,3.28,4.39,5.07
		c0.34,0.46,0.69,0.81,1.06,1.05c0.67-1.3,1.34-2.6,2-3.91c2.5-5,4.85-10.09,7.05-15.26c2.04-4.79,3.95-9.64,5.72-14.56
		c1.84-5.11,3.54-10.28,5.09-15.52c7.43-25.14,11.42-51.76,11.42-79.31C1241.37,546.6,1241.37,546.41,1241.37,546.21z"/>
	<path id="earthLand_4_" class="st3" d="M874.12,690.89c-2.29-0.25-3.95-1.41-5.34-3.13c-1.23-1.52-2.82-2.23-4.8-2.24
		c-1.29-0.01-2.71,0.04-3.83-0.47c-2.12-0.96-3.93-1.2-5.6,0.71c-0.1,0.12-0.43,0.04-0.85,0.06c0.69-0.82,2.48-1.44,0.79-2.41
		c-2.72-1.56-5.48-3.27-8.71-2.83c-0.45-0.49-0.78-1.19-1.24-1.29c-2.27-0.51-3.81-1.49-3.33-4.15c-2.62-1.22-1.78-4.18-3.02-5.99
		c-0.96-1.4-2.79-2.2-4.2-3.31c-1.86-1.47-3.87-2.1-6.27-1.53c-0.92,0.22-2.05,0.21-2.9-0.14c-1.4-0.58-2.65-1.52-4.09-2.38
		c0.71-1.87-0.77-2.55-2.1-3.18c-1.23-0.58-2.57-0.91-3.85-1.35c0.86-1.96,0.74-2.15-1.75-2.46c-0.56-0.07-1.1-0.28-1.72-0.44
		c0.13-0.72,0.22-1.26,0.36-2.03c-0.97-0.05-1.86-0.32-2.57-0.08c-1.45,0.5-2.77,1.67-4.22,1.81c-1.48,0.15-3.06-0.61-4.59-0.96
		c-0.17-0.04-0.37,0.07-0.53,0.01c-0.91-0.34-2.09-0.46-2.64-1.11c-1.13-1.34-2.56-1.47-4.01-1.44c-2.46,0.06-3.69,2.03-3.06,4.48
		c0.13,0.51-0.12,1.11-0.19,1.67c-0.25-0.05-0.5-0.09-0.76-0.14c-1.41-2.88-0.1-5.19,2.66-7.46c-2.43-0.21-3.92,0.43-5.38,1.37
		c-0.7,0.45-1.57,0.67-2.39,0.87c-1.96,0.47-3.82,0.89-4.68,3.15c-0.55,1.44-1.58,2.7-2.46,4.15c-2.48-2.47-5.37-3.07-8.2-2.12
		c-3.49,1.18-3.22,1.21-6.08-0.93c-3.06-2.29-3.08-5-2.24-8.19c0.36-1.35,0.52-2.79,0.55-4.19c0.01-0.54-0.47-1.27-0.95-1.61
		c-2.53-1.8-5.45-1.19-8.26-1.15c-1.16,0.02-2.31,0-3.71,0c0.46-0.8,0.92-1.28,1-1.81c0.29-2.02,0.94-3.84,1.71-5.75
		c0.64-1.57,1.19-3.33,1.78-5.01c0.56-1.62,0.15-2.27-1.61-2.19c-1.64,0.08-3.27,0.5-4.91,0.69c-1.99,0.23-3.06,1.15-3.14,3.29
		c-0.05,1.52-0.93,2.96-2.46,3.09c-2.76,0.23-5.44,1.99-8.4,0.22c-0.93-0.56-1.8-0.84-2.19-1.93c-0.17-0.49-0.43-1.02-0.8-1.37
		c-2.86-2.73-2.24-6.41-2.64-9.79c-0.11-0.95,0.06-2.12,0.54-2.91c0.81-1.31,0.91-2.54,0.67-4.01c-0.51-3.17-0.2-3.53,2.82-4.68
		c0.54-0.21,1.06-0.54,1.5-0.92c2.38-2.02,4.94-2.29,7.95-1.48c1.89,0.51,4.09,1.58,5.97-0.43c2.04-2.19,7.09-2.46,9.63-0.71
		c0.55,0.38,1.44,0.55,2.09,0.42c2.09-0.4,3.91,0.66,4.13,2.78c0.35,3.33,2.27,5.93,3.92,8.63c0.84,1.37,2.25,1.25,2.83-0.29
		c0.46-1.22,0.77-2.7,0.51-3.93c-0.43-1.99-1.22-3.94-2.14-5.76c-1.78-3.52-1.18-6.62,1.86-9.02c2.77-2.18,5.46-4.46,8.19-6.7
		c0.14-0.11,0.28-0.22,0.42-0.32c2.41-1.66,2.46-1.69,1.14-4.36c-0.39-0.79-1.15-1.4-1.74-2.09c0.3-0.75,0.17-1.45,0.2-2.15
		c0.02-0.45,0.27-0.9,0.41-1.34c0.57,0.57,0.71,0.96,0.76,1.37c0.2,1.56,1.31,1.24,1.86,0.6c1.37-1.61,2.91-3.27,3.61-5.19
		c0.55-1.52,1.27-2.47,2.6-3.02c1.28-0.53,2.63-1.12,3.99-1.22c2.06-0.16,2.47-0.42,2.2-2.53c-0.08-0.64-0.43-1.28-0.37-1.9
		c0.06-0.69,0.27-1.73,0.73-1.95c1.63-0.76,3.35-1.48,5.11-1.74c2.33-0.35,3.34-1.72,2.5-3.91c-0.48-1.26-0.9-2.56-1.19-3.87
		c-0.48-2.21,0.11-2.89,2.4-3.06c2.58-0.19,4.18-1.86,5.95-3.8c-3.1-1.67-5.67-0.28-8.32,0.52c-2.87,0.88-5,2.7-6.71,5.14
		c0.15-3.04,1.47-5.28,4.33-6.07c1.87-0.52,3.1-1.57,4.2-3.02c0.24-0.32,0.65-0.65,1.04-0.78H682.79c0,0.2,0,0.39,0,0.59
		c0,18.67,1.84,36.91,5.33,54.55c0.72,0.6,1.21,1.5,1.54,2.7c0.47,1.67,1.6,3.29,2.79,4.6c1.93,2.13,4.82,3.44,5.44,6.67
		c0.07,0.34,0.52,0.62,0.8,0.92c2.65,2.76,5.37,5.45,7.89,8.33c0.57,0.65,0.81,2.03,0.56,2.88c-0.5,1.68-0.03,2.74,1.12,3.93
		c3.35,3.49,7.92,4.75,12.06,6.75c2.31,1.12,4.91,1.68,7.44,2.28c1.15,0.27,2.54,0.37,3.61-0.02c2.03-0.75,3.65-0.52,5.21,0.93
		c2.23,2.07,4.13,4.77,7.78,4.31c0.15-0.02,0.32,0.14,0.49,0.18c1.59,0.41,3.19,0.77,4.76,1.24c0.58,0.17,1.24,0.46,1.59,0.92
		c1.01,1.31,2.28,2.61,2.7,4.12c0.67,2.36,2.16,3.35,4.18,4.42c1.57,0.83,2.56,2.74,3.92,4.29c1.35-1.65,2.38-1.35,3.48-0.43
		c0.44,0.37,1.01,0.65,1.57,0.81c1.18,0.33,1.97,0.01,2.02-1.41c0.02-0.54,0.18-1.5,0.37-1.52c0.84-0.1,2.12-0.27,2.51,0.2
		c1.1,1.31,2.08,2.84,2.65,4.44c0.5,1.41,0.6,3.05,0.47,4.56c-0.13,1.55-0.35,3.37-1.25,4.48c-0.9,1.11-2.02,1.7-2.49,3.41
		c-0.46,1.69-2.1,3.3-3.61,4.39c-1.74,1.25-1.5,2.76-1.46,4.38c0.03,1.13,0.66,1.45,1.66,1.08c0.7-0.26,1.36-0.61,2.04-0.92
		c0.13,0.14,0.26,0.29,0.39,0.43c-0.5,0.48-0.91,1.17-1.51,1.41c-1.95,0.78-2.96,2.25-3.46,4.17c-0.08,0.31,0.01,0.73,0.17,1.01
		c0.92,1.54,1.93,3.03,2.83,4.58c2.01,3.45,3.99,6.93,5.97,10.41c0.43,0.76,0.8,1.57,1.15,2.38c0.58,1.32,1.09,2.67,1.68,3.98
		c0.35,0.78,0.63,1.76,1.26,2.21c3.5,2.47,7.14,4.74,10.65,7.2c1.14,0.8,2.47,1.76,2.94,2.95c0.64,1.63,1.17,3.79,0.61,5.31
		c-1.38,3.76-1.16,7.56-1.29,11.39c-0.06,1.57-0.07,3.33-0.75,4.67c-1.54,3.01-1.77,6.37-1.68,9.4c0.09,3.26-0.4,6.29-1.26,9.22
		c7.64,6.12,15.62,11.85,23.89,17.15c0.13-1.14,0.1-2.31,0.26-3.45c0.04-0.29,0.69-0.71,1.04-0.7c2.75,0.11,5.35-0.29,8.01-1.13
		c3.56-1.13,4.97-3.87,3.2-7.13c-0.11-0.2-0.3-0.45-0.26-0.64c0.4-1.77-0.37-2.86-2.02-3.6c0.71,0,1.28,0.13,1.79,0.39
		c3.33,1.67,5.62,1.5,8.14-1.17c1.51-1.59,2.54-3.62,3.83-5.43c0.93-1.31,1.69-3.01,2.97-3.71c1-0.55,1.84-1.03,2.52-1.94
		c0.72-0.97,1.44-2.11,2.44-2.67c1.03-0.57,1.39-1.21,1.36-2.21c-0.05-1.6-0.34-3.2-0.21-4.78c0.08-0.94,0.58-2.01,1.24-2.7
		c1.14-1.18,2.51-2.14,3.85-3.1c0.36-0.26,0.96-0.17,1.45-0.27c0.69-0.14,1.58-0.09,2.02-0.51c1.24-1.17,2.58-1.66,4.29-1.76
		c2.29-0.13,4.31-1.51,5.34-3.31c1.39-2.44,3.56-4.64,3.44-7.81c-0.02-0.41,0.46-0.82,0.61-1.26c0.32-0.94,0.73-1.88,0.82-2.84
		c0.26-2.89,0.36-5.79,0.59-8.68c0.04-0.45,0.35-1.23,0.61-1.26c1.66-0.19,2.13-1.43,2.41-2.7c0.36-1.64,1.27-2.73,2.73-3.49
		c1.66-0.87,2.82-2.27,3.14-4.09c0.32-1.79,0.38-3.63,0.38-5.46C877.54,692.53,876.29,691.13,874.12,690.89z"/>
	<path id="earthLand_3_" class="st3" d="M1156.25,656.66c-1.07-0.63-1.66-0.4-1.74,0.89c-0.05,0.82-0.12,1.65-0.19,2.58
		c0.09,0.89,0.08,1.91,0.32,2.87c0.19,0.76,0.82,2.09,1.01,2.05c1.19-0.26,2.81,0.22,3.28-1.69
		C1159.65,660.43,1158.81,658.17,1156.25,656.66z"/>
	<path id="earthLand_2_" class="st3" d="M697.14,622.55c0.37-0.14,0.85-0.9,0.74-1.17c-0.29-0.73-0.83-1.37-1.33-2
		c-0.37-0.45-0.97-0.75-1.25-1.24c-1.36-2.44-2.47-5.04-4-7.36c-0.49-0.74-1.05-1.43-1.63-2.1c0.8,3.55,1.67,7.08,2.61,10.59
		c1.13,1.01,2.31,1.97,3.49,2.92C696.13,622.46,696.78,622.69,697.14,622.55z"/>
	<path id="earthLand_1_" class="st3" d="M1081.52,709.79c-0.13-0.3-1.2-0.6-1.34-0.45c-1.2,1.28-2.78,2.5-3.27,4.05
		c-0.61,1.9-1.65,2.75-3.35,3.12c-1.37,0.3-2.78,0.5-4.18,0.63c-2.11,0.19-2.92,1.43-2.17,3.38c0.58,1.5,0.94,3.11,1.67,4.53
		c0.79,1.54,0.32,2.66-0.6,3.87c-1.19,1.56-2.34,3.17-2.01,5.33c0.15,1.11,0.25,2.23,0.45,3.33c0.46,2.63,2.58,4.26,5.63,4.39
		c2.14,0.09,3.63-1.23,4.38-3.86c0.11-0.4,0.2-0.8,0.3-1.2c1.26-5.18,1.11-10.72,4.13-15.45c0.39-0.6,0.24-1.52,0.53-2.22
		c0.23-0.55,0.76-0.96,1.12-1.46c0.39-0.55,1.13-1.25,1.01-1.68C1083.18,713.95,1082.38,711.85,1081.52,709.79z"/>
	<path id="earthLand" class="st3" d="M1205.57,673.85c-1.3-0.89-2.72-1.62-3.91-2.64c-1.2-1.03-2.13-2.37-3.25-3.5
		c-0.43-0.43-1.01-0.77-1.58-0.99c-1.03-0.41-2.09-0.75-3.17-1.01c-0.62-0.15-1.28-0.09-1.93-0.12c0.02,0.82-0.28,1.89,0.13,2.42
		c0.65,0.84,1.88,1.21,2.65,1.99c1.46,1.48,2.86,3.04,4.11,4.69c0.77,1.01,1.13,2.33,1.85,3.39c1.48,2.21,2.97,4.41,4.59,6.51
		c1.47-2.59,2.9-5.2,4.29-7.84c-0.47-0.38-0.94-0.75-1.38-1.14C1207.23,674.97,1206.39,674.41,1205.57,673.85z"/>
</g>
<g id="city">
	<g id="houseBack">
		<g id="floods">
			<rect id="floodsBack_16_" x="918.2" y="337.23" class="st4" width="12.98" height="5.77"/>
			<rect id="floodsBack_15_" x="933.62" y="337.23" class="st4" width="12.98" height="5.77"/>
			<rect id="floodsBack_14_" x="949.05" y="337.23" class="st4" width="12.98" height="5.77"/>
			<rect id="floodsBack_13_" x="964.48" y="337.23" class="st4" width="12.98" height="5.77"/>
			<rect id="floodsBack_12_" x="918.2" y="345.6" class="st4" width="12.98" height="5.77"/>
			<rect id="floodsBack_11_" x="933.62" y="345.6" class="st4" width="12.98" height="5.77"/>
			<rect id="floodsBack_10_" x="949.05" y="345.6" class="st4" width="12.98" height="5.77"/>
			<rect id="floodsBack_9_" x="964.48" y="345.6" class="st4" width="12.98" height="5.77"/>
			<rect id="floodsBack_8_" x="918.2" y="353.96" class="st4" width="12.98" height="5.77"/>
			<rect id="floodsBack_7_" x="933.62" y="353.96" class="st4" width="12.98" height="5.77"/>
			<rect id="floodsBack_6_" x="949.05" y="353.96" class="st4" width="12.98" height="5.77"/>
			<rect id="floodsBack_5_" x="964.48" y="353.96" class="st4" width="12.98" height="5.77"/>
			<rect id="floodsBack_4_" x="918.2" y="362.33" class="st4" width="12.98" height="5.77"/>
			<rect id="floodsBack_3_" x="933.62" y="362.33" class="st4" width="12.98" height="5.77"/>
			<rect id="floodsBack_2_" x="949.05" y="362.33" class="st4" width="12.98" height="5.77"/>
			<rect id="floodsBack_1_" x="964.48" y="362.33" class="st4" width="12.98" height="5.77"/>
			<rect id="floodsBack" x="945.68" y="368" class="st4" width="4.28" height="177.03"/>
			<rect id="floodLight_15_" x="918.74" y="337.2" class="st1" width="12.79" height="5.71"/>
			<rect id="floodLight_14_" x="933.9" y="337.2" class="st1" width="12.79" height="5.71"/>
			<rect id="floodLight_13_" x="949.06" y="337.2" class="st1" width="12.79" height="5.71"/>
			<rect id="floodLight_12_" x="964.21" y="337.2" class="st1" width="12.79" height="5.71"/>
			<rect id="floodLight_11_" x="918.74" y="345.57" class="st1" width="12.79" height="5.71"/>
			<rect id="floodLight_10_" x="933.9" y="345.57" class="st1" width="12.79" height="5.71"/>
			<rect id="floodLight_9_" x="949.06" y="345.57" class="st1" width="12.79" height="5.71"/>
			<rect id="floodLight_8_" x="964.21" y="345.57" class="st1" width="12.79" height="5.71"/>
			<rect id="floodLight_7_" x="918.74" y="353.93" class="st1" width="12.79" height="5.71"/>
			<rect id="floodLight_6_" x="933.9" y="353.93" class="st1" width="12.79" height="5.71"/>
			<rect id="floodLight_5_" x="949.06" y="353.93" class="st1" width="12.79" height="5.71"/>
			<rect id="floodLight_4_" x="964.21" y="353.93" class="st1" width="12.79" height="5.71"/>
			<rect id="floodLight_3_" x="918.74" y="362.29" class="st1" width="12.79" height="5.71"/>
			<rect id="floodLight_2_" x="933.9" y="362.29" class="st1" width="12.79" height="5.71"/>
			<rect id="floodLight_1_" x="949.06" y="362.29" class="st1" width="12.79" height="5.71"/>
			<rect id="floodLight" x="964.21" y="362.29" class="st1" width="12.79" height="5.71"/>
		</g>
		<path id="house_3_" class="st5" d="M1039.19,420.03c-6.47-25.85-29.85-45-57.71-45s-51.24,19.15-57.71,45h-5.29v125h126v-125
			H1039.19z"/>
		<polygon id="house_4_" class="st5" points="1021.49,324.03 1021.49,312.03 979.49,312.03 979.49,324.03 968.49,324.03 
			968.49,545.03 1032.49,545.03 1032.49,324.03 		"/>
		<path id="house" class="st6" d="M901.31,292.03c-1.26-13.46-12.59-24-26.38-24s-25.12,10.54-26.38,24h-3.12v52h4.5v201h50v-201
			h4.5v-52H901.31z"/>
		<polygon id="house_1_" class="st5" points="834.55,389.03 834.55,383.03 831.55,383.03 831.55,375.03 827.05,375.03 
			827.05,367.03 808.05,367.03 808.05,375.03 803.55,375.03 803.55,383.03 800.55,383.03 800.55,389.03 792.55,389.03 
			792.55,545.03 842.55,545.03 842.55,389.03 		"/>
		<polygon id="house_2_" class="st5" points="1121.29,393.61 1102.45,357 1085.62,393.61 1079.01,393.61 1079.01,545.03 
			1128.01,545.03 1128.01,393.61 		"/>
		<g id="lightMiddle">
			<rect id="light_14_" x="975.74" y="332" class="st1" width="49.5" height="10.28"/>
			<rect id="light_13_" x="975.74" y="348.24" class="st1" width="49.5" height="5.41"/>
			<rect id="light_12_" x="975.74" y="359.61" class="st1" width="49.5" height="10.28"/>
			<rect id="light_11_" x="975.74" y="386.81" class="st1" width="49.5" height="10.28"/>
			<rect id="light_10_" x="975.74" y="403.04" class="st1" width="49.5" height="5.41"/>
			<rect id="light_9_" x="975.74" y="414.41" class="st1" width="49.5" height="10.28"/>
			<rect id="light_8_" x="975.74" y="441.61" class="st1" width="49.5" height="10.28"/>
			<rect id="light_7_" x="975.74" y="457.85" class="st1" width="49.5" height="5.41"/>
			<rect id="light_6_" x="975.74" y="469.22" class="st1" width="49.5" height="10.28"/>
			<rect id="light_5_" x="975.74" y="496.42" class="st1" width="49.5" height="10.28"/>
			<rect id="light_4_" x="975.74" y="512.66" class="st1" width="49.5" height="5.41"/>
			<rect id="light_3_" x="975.74" y="524.02" class="st1" width="49.5" height="10.28"/>
		</g>
		<g id="lightRight">
			<rect id="light_27_" x="1086.01" y="400" class="st1" width="35" height="6"/>
			<rect id="light_26_" x="1086.01" y="411.5" class="st1" width="35" height="6"/>
			<rect id="light_25_" x="1086.01" y="423" class="st1" width="35" height="6"/>
			<rect id="light_24_" x="1086.01" y="434.5" class="st1" width="35" height="6"/>
			<rect id="light_23_" x="1086.01" y="446" class="st1" width="35" height="6"/>
			<rect id="light_22_" x="1086.01" y="457.5" class="st1" width="35" height="6"/>
			<rect id="light_21_" x="1086.01" y="469" class="st1" width="35" height="6"/>
			<rect id="light_20_" x="1086.01" y="538" class="st1" width="35" height="6"/>
			<rect id="light_19_" x="1086.01" y="526.5" class="st1" width="35" height="6"/>
			<rect id="light_18_" x="1086.01" y="515" class="st1" width="35" height="6"/>
			<rect id="light_17_" x="1086.01" y="503.5" class="st1" width="35" height="6"/>
			<rect id="light_16_" x="1086.01" y="492" class="st1" width="35" height="6"/>
			<rect id="light_15_" x="1086.01" y="480.5" class="st1" width="35" height="6"/>
		</g>
		<circle id="watchLight" class="st7" cx="874.93" cy="316.5" r="22.5"/>
		<circle id="light_2_" class="st1" cx="801.05" cy="400" r="6"/>
		<circle id="light_1_" class="st1" cx="817.55" cy="400" r="6"/>
		<circle id="light" class="st1" cx="834.05" cy="400" r="6"/>
		<rect id="clock" x="874" y="302" class="st8" width="0.98" height="13.84"/>
		<polygon id="clock_1_" class="st8" points="886,325.39 885.31,326 874.26,316.22 874.95,315.61 		"/>
		<path id="windmill" class="st4" d="M1211.86,383.07c-5.79-5.79-11.25-10.47-14.75-12.78c0.39-0.79,0.61-1.67,0.61-2.61
			c0-2.52-1.57-4.67-3.78-5.54c0.52-4.15,0.83-9.78,0.83-15.98c0-12.78-1.35-23.13-3.01-23.13c-1.66,0-3.01,10.36-3.01,23.13
			c0,6.2,0.32,11.83,0.83,15.98c-2.21,0.87-3.78,3.02-3.78,5.54c0,0.82,0.17,1.59,0.47,2.3c-3.5,2.31-8.98,7-14.8,12.82
			c-9.03,9.03-15.4,17.31-14.23,18.49c1.18,1.18,9.45-5.2,18.49-14.23c5.65-5.65,10.25-11,12.62-14.5c0.24,0.17,0.49,0.32,0.75,0.45
			v172.02h5.29V373.01c0.17-0.08,0.33-0.19,0.49-0.29c2.35,3.5,6.99,8.9,12.69,14.61c9.03,9.03,17.31,15.4,18.49,14.23
			C1227.26,400.38,1220.89,392.1,1211.86,383.07z"/>
		<path id="tree" class="st9" d="M1159.22,480.33c-0.1,0-0.2,0.01-0.3,0.02c-0.06-0.26-0.12-0.52-0.2-0.77
			c6.49-4.36,8.67-14.64-1.22-23.11l-5.75,0.23c-1.51-5.2-6.31-9-11.99-9c-4.75,0-8.87,2.64-10.99,6.54
			c-4.14-2.28-9.71-2.29-15.05,1.72c-0.1,0.07-0.18,0.16-0.26,0.26c-6.11,8.23-2.74,17.01,3.84,20.21
			c-4.12,2.9-5.85,8.98-1.51,14.71c5,3.81,10.24,2.99,13.44,0c0.97,0.4,1.98,0.73,3.03,0.97v53.53h9V494.4
			c1.22,0.6,2.56,1.01,3.97,1.18c0.53,6.12,4.98,11.11,10.83,12.46v37.58h6.32v-37.58c6.23-1.44,10.88-7.01,10.88-13.67
			C1173.27,486.62,1166.98,480.33,1159.22,480.33z"/>
	</g>
	<g id="houseMiddle">
		<rect id="house_16_" x="1010.09" y="324.03" class="st10" width="76" height="221"/>
		<polygon id="house_15_" class="st10" points="844.02,484.07 832.98,473.03 767.98,473.03 756.98,484.03 762.5,484.03 
			762.5,545.03 838.5,545.03 838.5,484.06 		"/>
		<polygon id="house_14_" class="st10" points="925.16,398.03 908.63,362.49 893.86,398.03 888.06,398.03 888.06,545.03 
			931.06,545.03 931.06,398.03 		"/>
		<g id="floods_3_">
			<rect id="floodsBack_67_" x="657.64" y="352.03" class="st10" width="18.18" height="8.08"/>
			<rect id="floodsBack_66_" x="679.25" y="352.03" class="st10" width="18.18" height="8.08"/>
			<rect id="floodsBack_65_" x="700.85" y="352.03" class="st10" width="18.18" height="8.08"/>
			<rect id="floodsBack_64_" x="722.46" y="352.03" class="st10" width="18.18" height="8.08"/>
			<rect id="floodsBack_63_" x="657.64" y="363.75" class="st10" width="18.18" height="8.08"/>
			<rect id="floodsBack_62_" x="679.25" y="363.75" class="st10" width="18.18" height="8.08"/>
			<rect id="floodsBack_61_" x="700.85" y="363.75" class="st10" width="18.18" height="8.08"/>
			<rect id="floodsBack_60_" x="722.46" y="363.75" class="st10" width="18.18" height="8.08"/>
			<rect id="floodsBack_59_" x="657.64" y="375.47" class="st10" width="18.18" height="8.08"/>
			<rect id="floodsBack_58_" x="679.25" y="375.47" class="st10" width="18.18" height="8.08"/>
			<rect id="floodsBack_57_" x="700.85" y="375.47" class="st10" width="18.18" height="8.08"/>
			<rect id="floodsBack_56_" x="722.46" y="375.47" class="st10" width="18.18" height="8.08"/>
			<rect id="floodsBack_55_" x="657.64" y="387.18" class="st10" width="18.18" height="8.08"/>
			<rect id="floodsBack_54_" x="679.25" y="387.18" class="st10" width="18.18" height="8.08"/>
			<rect id="floodsBack_53_" x="700.85" y="387.18" class="st10" width="18.18" height="8.08"/>
			<rect id="floodsBack_52_" x="722.46" y="387.18" class="st10" width="18.18" height="8.08"/>
			<rect id="floodsBack_51_" x="696.14" y="395.12" class="st10" width="6" height="149.91"/>
			<rect id="floodLight_63_" x="658.41" y="352" class="st1" width="18" height="8"/>
			<rect id="floodLight_62_" x="679.75" y="352" class="st1" width="18" height="8"/>
			<rect id="floodLight_61_" x="701.08" y="352" class="st1" width="18" height="8"/>
			<rect id="floodLight_60_" x="722.41" y="352" class="st1" width="18" height="8"/>
			<rect id="floodLight_59_" x="658.41" y="363.72" class="st1" width="18" height="8"/>
			<rect id="floodLight_58_" x="679.75" y="363.72" class="st1" width="18" height="8"/>
			<rect id="floodLight_57_" x="701.08" y="363.72" class="st1" width="18" height="8"/>
			<rect id="floodLight_56_" x="722.41" y="363.72" class="st1" width="18" height="8"/>
			<rect id="floodLight_55_" x="658.41" y="375.45" class="st1" width="18" height="8"/>
			<rect id="floodLight_54_" x="679.75" y="375.45" class="st1" width="18" height="8"/>
			<rect id="floodLight_53_" x="701.08" y="375.45" class="st1" width="18" height="8"/>
			<rect id="floodLight_52_" x="722.41" y="375.45" class="st1" width="18" height="8"/>
			<rect id="floodLight_51_" x="658.41" y="387.17" class="st1" width="18" height="8"/>
			<rect id="floodLight_50_" x="679.75" y="387.17" class="st1" width="18" height="8"/>
			<rect id="floodLight_49_" x="701.08" y="387.17" class="st1" width="18" height="8"/>
			<rect id="floodLight_48_" x="722.41" y="387.17" class="st1" width="18" height="8"/>
		</g>
		<g id="windmill_2_">
			<path id="windmillBack_2_" class="st11" d="M1225.66,277.03c0-4.97-4.03-9-9-9s-9,4.03-9,9c0,3.53,2.04,6.58,5,8.05v259.95h8
				V285.08C1223.62,283.61,1225.66,280.56,1225.66,277.03z"/>
			
				<ellipse id="rotor_6_" transform="matrix(0.7071 -0.7071 0.7071 0.7071 133.995 929.6868)" class="st12" cx="1189.23" cy="303.1" rx="34.95" ry="4.55"/>
			<ellipse id="rotor_2_" class="st12" cx="1216.66" cy="244.51" rx="4.55" ry="34.95"/>
			
				<ellipse id="rotor_1_" transform="matrix(0.7071 -0.7071 0.7071 0.7071 149.6882 968.3967)" class="st12" cx="1243.8" cy="303.51" rx="4.55" ry="34.95"/>
			<circle id="windmillFront_2_" class="st8" cx="1216.66" cy="277.03" r="6"/>
		</g>
		<path id="tree_2_" class="st9" d="M755.82,479.73c-0.1,0-0.2,0.01-0.3,0.02c-0.06-0.26-0.12-0.52-0.2-0.77
			c3.34-2.24,5.54-6.06,5.54-10.38c0-6.9-5.6-12.5-12.5-12.5c0,0,0,0-0.01,0c-1.51-5.2-6.31-9-11.99-9c-4.75,0-8.87,2.64-10.99,6.54
			c-1.78-0.98-3.83-1.54-6.01-1.54c-6.9,0-12.5,5.6-12.5,12.5c0,4.87,2.79,9.08,6.85,11.14c0.01,0.07,0.03,0.13,0.04,0.2
			c-2.36,1.73-3.9,4.51-3.9,7.66c0,5.25,4.25,9.5,9.5,9.5c2.5,0,4.77-0.98,6.47-2.56c0.98,0.4,1.99,0.73,3.03,0.97v53.53h9v-51.22
			c1.22,0.6,2.56,1.01,3.97,1.18c0.53,6.12,4.98,11.11,10.83,12.46v37.58h6.32v-37.58c6.23-1.44,10.88-7.01,10.88-13.67
			C769.86,486.02,763.57,479.73,755.82,479.73z"/>
		<g id="floods_2_">
			<rect id="floodsBack_50_" x="1107.14" y="331.18" class="st10" width="13.55" height="6.02"/>
			<rect id="floodsBack_49_" x="1123.24" y="331.18" class="st10" width="13.55" height="6.02"/>
			<rect id="floodsBack_48_" x="1139.35" y="331.18" class="st10" width="13.55" height="6.02"/>
			<rect id="floodsBack_47_" x="1155.45" y="331.18" class="st10" width="13.55" height="6.02"/>
			<rect id="floodsBack_46_" x="1107.14" y="339.92" class="st10" width="13.55" height="6.02"/>
			<rect id="floodsBack_45_" x="1123.24" y="339.92" class="st10" width="13.55" height="6.02"/>
			<rect id="floodsBack_44_" x="1139.35" y="339.92" class="st10" width="13.55" height="6.02"/>
			<rect id="floodsBack_43_" x="1155.45" y="339.92" class="st10" width="13.55" height="6.02"/>
			<rect id="floodsBack_42_" x="1107.14" y="348.65" class="st10" width="13.55" height="6.02"/>
			<rect id="floodsBack_41_" x="1123.24" y="348.65" class="st10" width="13.55" height="6.02"/>
			<rect id="floodsBack_40_" x="1139.35" y="348.65" class="st10" width="13.55" height="6.02"/>
			<rect id="floodsBack_39_" x="1155.45" y="348.65" class="st10" width="13.55" height="6.02"/>
			<rect id="floodsBack_38_" x="1107.14" y="357.38" class="st10" width="13.55" height="6.02"/>
			<rect id="floodsBack_37_" x="1123.24" y="357.38" class="st10" width="13.55" height="6.02"/>
			<rect id="floodsBack_36_" x="1139.35" y="357.38" class="st10" width="13.55" height="6.02"/>
			<rect id="floodsBack_35_" x="1155.45" y="357.38" class="st10" width="13.55" height="6.02"/>
			<rect id="floodsBack_34_" x="1135.83" y="363.3" class="st10" width="4.47" height="181.73"/>
			<rect id="floodLight_47_" x="1107.72" y="331.16" class="st1" width="13.42" height="5.96"/>
			<rect id="floodLight_46_" x="1123.62" y="331.16" class="st1" width="13.42" height="5.96"/>
			<rect id="floodLight_45_" x="1139.52" y="331.16" class="st1" width="13.42" height="5.96"/>
			<rect id="floodLight_44_" x="1155.42" y="331.16" class="st1" width="13.42" height="5.96"/>
			<rect id="floodLight_43_" x="1107.72" y="339.9" class="st1" width="13.42" height="5.96"/>
			<rect id="floodLight_42_" x="1123.62" y="339.9" class="st1" width="13.42" height="5.96"/>
			<rect id="floodLight_41_" x="1139.52" y="339.9" class="st1" width="13.42" height="5.96"/>
			<rect id="floodLight_40_" x="1155.42" y="339.9" class="st1" width="13.42" height="5.96"/>
			<rect id="floodLight_39_" x="1107.72" y="348.64" class="st1" width="13.42" height="5.96"/>
			<rect id="floodLight_38_" x="1123.62" y="348.64" class="st1" width="13.42" height="5.96"/>
			<rect id="floodLight_37_" x="1139.52" y="348.64" class="st1" width="13.42" height="5.96"/>
			<rect id="floodLight_36_" x="1155.42" y="348.64" class="st1" width="13.42" height="5.96"/>
			<rect id="floodLight_35_" x="1107.72" y="357.37" class="st1" width="13.42" height="5.96"/>
			<rect id="floodLight_34_" x="1123.62" y="357.37" class="st1" width="13.42" height="5.96"/>
			<rect id="floodLight_33_" x="1139.52" y="357.37" class="st1" width="13.42" height="5.96"/>
			<rect id="floodLight_32_" x="1155.42" y="357.37" class="st1" width="13.42" height="5.96"/>
		</g>
		<rect id="light_118_" x="774.74" y="491" class="st13" width="11.14" height="11.14"/>
		<rect id="light_117_" x="794.93" y="491" class="st13" width="11.14" height="11.14"/>
		<rect id="light_116_" x="815.12" y="491" class="st13" width="11.14" height="11.14"/>
		<path id="light_115_" class="st13" d="M808.13,515.37c-0.35-3.9-3.63-6.96-7.62-6.96s-7.27,3.06-7.62,6.96h-0.04V546h15.32v-30.63
			H808.13z"/>
		<g id="lightMiddle_2_">
			<rect id="light_114_" x="1022.33" y="341.03" class="st13" width="11.14" height="11.14"/>
			<rect id="light_113_" x="1042.52" y="341.03" class="st13" width="11.14" height="11.14"/>
			<rect id="light_112_" x="1062.71" y="341.03" class="st13" width="11.14" height="11.14"/>
			<rect id="light_111_" x="1022.33" y="363.03" class="st13" width="11.14" height="11.14"/>
			<rect id="light_110_" x="1042.52" y="363.03" class="st13" width="11.14" height="11.14"/>
			<rect id="light_109_" x="1062.71" y="363.03" class="st13" width="11.14" height="11.14"/>
			<rect id="light_108_" x="1022.33" y="385.03" class="st13" width="11.14" height="11.14"/>
			<rect id="light_107_" x="1042.52" y="385.03" class="st13" width="11.14" height="11.14"/>
			<rect id="light_106_" x="1062.71" y="385.03" class="st13" width="11.14" height="11.14"/>
			<rect id="light_105_" x="1022.33" y="409.03" class="st13" width="11.14" height="11.14"/>
			<rect id="light_104_" x="1042.52" y="409.03" class="st13" width="11.14" height="11.14"/>
			<rect id="light_103_" x="1062.71" y="409.03" class="st13" width="11.14" height="11.14"/>
			<rect id="light_102_" x="1022.33" y="431.03" class="st13" width="11.14" height="11.14"/>
			<rect id="light_101_" x="1042.52" y="431.03" class="st13" width="11.14" height="11.14"/>
			<rect id="light_100_" x="1062.71" y="431.03" class="st13" width="11.14" height="11.14"/>
			<rect id="light_99_" x="1022.33" y="453.03" class="st13" width="11.14" height="11.14"/>
			<rect id="light_98_" x="1042.52" y="453.03" class="st13" width="11.14" height="11.14"/>
			<rect id="light_97_" x="1062.71" y="453.03" class="st13" width="11.14" height="11.14"/>
			<rect id="light_96_" x="1022.33" y="479.03" class="st13" width="11.14" height="11.14"/>
			<rect id="light_95_" x="1042.52" y="479.03" class="st13" width="11.14" height="11.14"/>
			<rect id="light_94_" x="1062.71" y="479.03" class="st13" width="11.14" height="11.14"/>
			<rect id="light_93_" x="1022.33" y="523.03" class="st13" width="11.14" height="11.14"/>
			<rect id="light_92_" x="1042.52" y="523.03" class="st13" width="11.14" height="11.14"/>
			<rect id="light_91_" x="1062.71" y="523.03" class="st13" width="11.14" height="11.14"/>
			<rect id="light_90_" x="1022.33" y="501.03" class="st13" width="11.14" height="11.14"/>
			<rect id="light_89_" x="1042.52" y="501.03" class="st13" width="11.14" height="11.14"/>
			<rect id="light_88_" x="1062.71" y="501.03" class="st13" width="11.14" height="11.14"/>
		</g>
		<g id="lightLeft_2_">
			<rect id="light_87_" x="892.4" y="407" class="st1" width="12.12" height="8.27"/>
			<rect id="light_86_" x="906.78" y="407" class="st1" width="5.55" height="8.27"/>
			<rect id="light_85_" x="914.61" y="407" class="st1" width="12.12" height="8.27"/>
			<rect id="light_84_" x="892.4" y="424.96" class="st1" width="12.12" height="8.27"/>
			<rect id="light_83_" x="906.78" y="424.96" class="st1" width="5.55" height="8.27"/>
			<rect id="light_82_" x="914.61" y="424.96" class="st1" width="12.12" height="8.27"/>
			<rect id="light_81_" x="892.4" y="442.92" class="st1" width="12.12" height="8.27"/>
			<rect id="light_80_" x="906.78" y="442.92" class="st1" width="5.55" height="8.27"/>
			<rect id="light_79_" x="914.61" y="442.92" class="st1" width="12.12" height="8.27"/>
			<rect id="light_78_" x="892.4" y="460.88" class="st1" width="12.12" height="8.27"/>
			<rect id="light_77_" x="906.78" y="460.88" class="st1" width="5.55" height="8.27"/>
			<rect id="light_76_" x="914.61" y="460.88" class="st1" width="12.12" height="8.27"/>
			<rect id="light_75_" x="892.4" y="478.85" class="st1" width="12.12" height="8.27"/>
			<rect id="light_74_" x="906.78" y="478.85" class="st1" width="5.55" height="8.27"/>
			<rect id="light_73_" x="914.61" y="478.85" class="st1" width="12.12" height="8.27"/>
			<rect id="light_72_" x="892.4" y="496.81" class="st1" width="12.12" height="8.27"/>
			<rect id="light_71_" x="906.78" y="496.81" class="st1" width="5.55" height="8.27"/>
			<rect id="light_70_" x="914.61" y="496.81" class="st1" width="12.12" height="8.27"/>
			<rect id="light_69_" x="892.4" y="514.77" class="st1" width="12.12" height="8.27"/>
			<rect id="light_68_" x="906.78" y="514.77" class="st1" width="5.55" height="8.27"/>
			<rect id="light_67_" x="914.61" y="514.77" class="st1" width="12.12" height="8.27"/>
			<rect id="light_66_" x="892.4" y="532.73" class="st1" width="12.12" height="8.27"/>
			<rect id="light_65_" x="906.78" y="532.73" class="st1" width="5.55" height="8.27"/>
			<rect id="light_64_" x="914.61" y="532.73" class="st1" width="12.12" height="8.27"/>
		</g>
	</g>
	<g id="houseFront">
		<rect id="house_8_" x="980.67" y="473" class="st14" width="66" height="73"/>
		<rect id="house_9_" x="1019" y="519" class="st15" width="20" height="27"/>
		<circle id="light_61_" class="st1" cx="995.67" cy="491" r="7"/>
		<circle id="light_60_" class="st1" cx="1013.67" cy="491" r="7"/>
		<circle id="light_59_" class="st1" cx="1031.67" cy="491" r="7"/>
		<rect id="light_62_" x="991.67" y="503" class="st1" width="44" height="10"/>
	</g>
</g>
</svg>
