<svg xmlns="http://www.w3.org/2000/svg" viewBox="0 0 612.59 617.04"><g id="aa56a116-4d83-49df-b5f2-6323b1f6f3e3" data-name="earth"><path id="e7c912a5-6631-472e-8c1f-38e2b46f6a85" data-name="earthWater" d="M1209,674.31c-1.33-1.79-3.13-3.24-4.39-5.07-.86-1.25-1.05-3-1.72-4.35a10.46,10.46,0,0,0-2.15-3.3c-1.82-1.63-2.33-3.21-1.61-5.48.46-1.44.54-3,.88-4.49.22-.93.62-1.81.91-2.72.09-.25.22-.6.12-.79-1.6-3.23-2.13-7.07-5.32-9.39l-.51-.36c-1,.92-1.93,1.89-3,2.75-1.22,1-1.66.76-2.28-.7a15,15,0,0,1-1.24-7,2.37,2.37,0,0,0-.55-1.79c-2.24-1.73-4-4.15-6.8-5.11-1-.32-1.9-.66-2.85-1-2.22-.78-3.67-.22-5.39,1.39-2.92,2.74-6.08,5.22-9,7.94s-5.59,5.4-8.31,8.19a1.9,1.9,0,0,0-.19,1.6c1.4,4.32.22,7.92-3,10.91a32.68,32.68,0,0,1-4.15,3.28c-1.25.83-2.16.37-2.73-1.06-.71-1.79-1.6-3.5-2.4-5.26-.31-.69-.59-1.41-.86-2.12-.91-2.49-1.79-5-2.71-7.46-2-5.24-4.32-10.42-1.8-16.61a19.82,19.82,0,0,1-2.41.72,33.14,33.14,0,0,1-5,.53c-1,0-1.35-.77-.88-1.8.39-.85.65-1.75,1-2.63a16.1,16.1,0,0,0-3.38-.85c-2.65-.1-2.77-.09-3.68-2.65-1.11-3.08-1.82-3.44-5-2.79a22.21,22.21,0,0,1-10.35.13,19.37,19.37,0,0,0-5.28-.37,2.5,2.5,0,0,1-2.88-2c-.56-1.95-1.33-2.41-3.09-1.43-3.62,2-6.54,0-9.45-1.5-.85-.45-1.16-1.92-1.72-2.92a7.81,7.81,0,0,0-1.42-2.39c-1.27-1-2.24-2.37-4.35-2.24s-2.75,1.27-3.88,2.79c2.33.22,2.91,2,3.69,3.6a6,6,0,0,0,1.71,1.66c.9.75,1.87,1.43,2.73,2.21a1.23,1.23,0,0,1,.36,1.08c-.85,1.94.24,3,1.66,3.93l1.66,1.14a7.27,7.27,0,0,1,2.2-.65,5.24,5.24,0,0,0,4.76-2.21c1-1.24,2.17-2.35,3.27-3.52l.55.29A7.77,7.77,0,0,1,1099,616a3,3,0,0,0,2,3.22c1.58.78,3.08,1.72,4.62,2.6s1.81,1.93.4,3.06c-1.69,1.36-2.13,3.14-2.53,5.08a3.89,3.89,0,0,1-1.27,1.9c-2.29,2-4.63,3.93-7,5.85a5.35,5.35,0,0,1-1.89,1.11c-1.64.42-3.14.58-4.61,2a21.76,21.76,0,0,1-7.17,4.16,112.8,112.8,0,0,1-11.53,3.33,7.27,7.27,0,0,1-3-.15,2.14,2.14,0,0,1-1.91-2.71,12.18,12.18,0,0,0-2.8-10.83c-1.44-1.74-2.31-3.85-4.32-5.27-1.27-.9-1.89-2.78-2.7-4.27-1.09-2-2.07-4.08-3.11-6.11-.13-.26-.42-.45-.51-.72-1.11-3.2-3.06-5.92-4.8-8.77a2.27,2.27,0,0,1,.11-2.09,4.85,4.85,0,0,0,.92-3.64c-.12-2.24-.26-4.49-.19-6.73a5.26,5.26,0,0,1,1-2.71,3,3,0,0,0,.58-2.89c-.35-1.33-.08-2.82-.08-4.79-1,0-2.43-.2-3.82-.14-1.87.09-3.72.37-5.58.54-.53.05-1.13-.15-1.59,0-2.82,1.12-5.18.05-7.71-1.13-2-.94-3.59-2.1-4.25-4.2-.72-2.29-1.26-4.64-1.83-6.8a27.89,27.89,0,0,0-5.83,1c-.66.24-.92,2.08-1,3.21a6.09,6.09,0,0,0,.8,2.5c1.1,2.48-.61,4-1.95,5.59a1.56,1.56,0,0,1-1.31-.28c-1-3.21-3.51-5.38-5.44-8a11.56,11.56,0,0,1-1.46-2.57c-2,1.32-3.67.23-5.12,0-.36,1.56-.68,3-1,4.5a3,3,0,0,1-1.76,2.39c-.62.28-.93,1.38-1.25,2.17a16.11,16.11,0,0,0-.56,2.42,11.77,11.77,0,0,1-1.34-1.26,5,5,0,0,0-3.66-2.23c-.5,0-1.38-.94-1.3-1.23.18-.68.77-1.6,1.34-1.73a15.12,15.12,0,0,1,3.35.08c1.15,0,2.3,0,3.42,0-.49-5-3.82-7.18-7.67-8.8a7.65,7.65,0,0,1-4.71-4.7c-1-3-4.41-3.7-7-1.91a14.32,14.32,0,0,1-4.4,2c-.81.22-1.83-.42-2.78-.57a7.44,7.44,0,0,0-2.6-.2,1.89,1.89,0,0,0-1.53,2.26c.13,1.51-.75,2.39-1.91,3.13a32.54,32.54,0,0,0-3.49,2.44,3.36,3.36,0,0,0-1.42,3.67,4.08,4.08,0,0,1-1.85,4.64,21.64,21.64,0,0,1-3.59,2.27,8.46,8.46,0,0,1-4.06.56c-1.4-.2-2.28,0-2.85,1.29a6.43,6.43,0,0,1-.56.9c-1.45,2.07-1.17,2.72,1.39,3.2a20.22,20.22,0,0,0,3.68.56,5.25,5.25,0,0,0,2.75-.74c3.54-2.36,7.13-4.26,11.62-4.24,3.95,0,7.91-.54,11.86-.83,1-.07,2-.1,3-.07,1.25,0,1.7.69,1.71,2a29.69,29.69,0,0,0,.59,3.41c.2,1.6.31,3.21.47,4.87a20.81,20.81,0,0,0,2.35,1.44,5.32,5.32,0,0,0,2.13.45c1.23,0,2.48-.18,3.71-.12,2,.11,3.57.8,4.05,3,.1.45.59,1.14.91,1.15,2.59.07,4.18,1.76,5.81,3.4a1.08,1.08,0,0,0,.38.2,18.37,18.37,0,0,0,2.42-2.07,2.79,2.79,0,0,0,.61-1.95c-.34-2.22.12-2.89,2.3-3.22a9.19,9.19,0,0,1,6.79,1.21,14.4,14.4,0,0,0,3.48,1.17c1.68.54,3.33,1.2,5.05,1.57,1.32.28,2.91.63,4,.16,3.52-1.47,6.92-.87,10.41-.13s5,4.42,2.39,8c-.32.43-1.1.52-1.44.66,1.58,4.06,3.17,8.18,4.79,12.28a5.09,5.09,0,0,0,.81,1.57c2.47,2.71,3.21,6.16,4.58,9.4s2.28,7.17,5.86,9.39c2.06,1.29,3.64,3.35,5.41,5.1a2.74,2.74,0,0,1,.69,1.2c.65,2.64,1.82,3.85,4.51,3.7a72.31,72.31,0,0,0,8.75-1.26c2.07-.38,4.1-1,6.22-1.54-1,7.63-3.44,14.48-8.83,20-2.55,2.61-5.38,4.95-8,7.52-1.66,1.65-3.15,3.45-4.65,5.25-1.74,2.09-3.37,4.27-5.11,6.35a3.23,3.23,0,0,0-.81,2.88c.44,2.79.51,5.65.89,8.46s.87,5.77,1.49,8.62c1.13,5.3-.76,9.4-4.81,12.66-2.13,1.71-4.41,3.21-6.52,4.93a35.35,35.35,0,0,0-3.09,3.23c2.67,2.48,1.66,5,1.12,7.85-.63,3.24-3.08,4.21-5.64,5.67,2.55,2.38,1.17,4.11-.43,6.07-2.3,2.83-4.15,6-6.51,8.8-3.89,4.55-9.06,6.65-15,7.13-3.18.26-6.35.67-9.53,1a3.88,3.88,0,0,1-4-2.1,4.51,4.51,0,0,1-.74-2.34c.18-4.21-2.27-7.34-4.18-10.72-2.65-4.71-4.71-9.58-5.24-15.1a15.44,15.44,0,0,0-2.67-7c-3.89-5.56-3.32-11.23-1.16-17.07a16.84,16.84,0,0,1,1.89-3.39,3.86,3.86,0,0,0,.44-3.51c-.58-2.14-.81-4.37-1.26-6.56a19.51,19.51,0,0,0-1-3.7c-.24-.57-1-.92-1.37-1.23a13,13,0,0,0-1.09-3.06,63,63,0,0,0-4.24-5.68c-2.11-2.52-2.65-5-1.17-8.17.79-1.69.85-3.75,1.09-5.67.15-1.26-.62-2-1.89-2.09-1.77-.17-3.53-.45-5.3-.51a4,4,0,0,1-3-1.55,15.9,15.9,0,0,0-3.44-2.7c-1.57-1-3.11-.62-4.88,0-5.45,2-10.79,4.54-16.92,3.69-2.62-.36-5.32-.12-8-.39a5.64,5.64,0,0,1-3.14-1.36c-2.7-2.65-5.33-5.39-7.78-8.28-1.47-1.74-2.52-3.84-3.85-5.71a14.69,14.69,0,0,0-2.06-2.19A11.19,11.19,0,0,1,921,640.08c1-3.29,1-6.66-1.41-9.6a2.6,2.6,0,0,1-.09-3.49c2.62-4.07,5.05-8.27,7.43-12.49a7.91,7.91,0,0,1,4.64-4c2-.67,3.81-2.23,5.85-3.49-2.24-3.22-.36-5.67.93-8.14.35-.68,1.36-1,2-1.54a12,12,0,0,0,2.75-2.32c1.31-1.92,2-4.38,4.84-5-.26-.41-.37-.58-.47-.76-2.69-4.44-1.46-3.5-6.11-4-1.27-.12-1.81-.57-1.95-1.75a11.31,11.31,0,0,0-.38-2.09,3.46,3.46,0,0,1,1-4,4,4,0,0,0,.93-2.84c-.16-2.1-.69-4.17-1-6.26-.07-.49.06-1.4.32-1.49a12.52,12.52,0,0,1,4.33-1c3.7.13,7.38.63,11.07.9,1.38.09,2.68-1.75,2.7-3.75a17,17,0,0,0-.27-3.71c-.37-1.67-1.14-3-3.14-3.38a7.65,7.65,0,0,1-3.23-1.36,4,4,0,0,1-1.3-2.33c-.24-1.24.6-1.89,1.72-1.34,2.29,1.13,4,.58,6-.92,1.28-1,3.18-1.1,4.8-1.6,1.19-.36,2.12-.78,2.35-2.18H801.92a2.37,2.37,0,0,0-1,.78,7.65,7.65,0,0,1-4.21,3c-2.86.79-4.17,3-4.33,6.07a12.62,12.62,0,0,1,6.71-5.14c2.65-.81,5.22-2.2,8.32-.53-1.77,1.93-3.38,3.61-6,3.8-2.29.17-2.88.85-2.4,3.06a27.87,27.87,0,0,0,1.19,3.87c.84,2.19-.17,3.56-2.5,3.91a19.66,19.66,0,0,0-5.11,1.74c-.46.22-.67,1.26-.73,2a9.5,9.5,0,0,0,.37,1.9c.27,2.11-.15,2.37-2.21,2.52a13.64,13.64,0,0,0-4,1.23,4.53,4.53,0,0,0-2.6,3c-.69,1.92-2.23,3.58-3.6,5.19-.55.64-1.67,1-1.87-.6a2.19,2.19,0,0,0-.75-1.37,5.26,5.26,0,0,0-.42,1.35,6,6,0,0,1-.2,2.15,11.31,11.31,0,0,1,1.74,2.08c1.32,2.68,1.27,2.7-1.14,4.36-.15.1-.28.22-.42.33-2.73,2.24-5.42,4.52-8.19,6.7-3,2.4-3.64,5.5-1.86,9a24.61,24.61,0,0,1,2.14,5.77,7.46,7.46,0,0,1-.51,3.93c-.58,1.53-2,1.65-2.83.28-1.65-2.71-3.56-5.3-3.92-8.63-.22-2.13-2-3.18-4.13-2.78a3,3,0,0,1-2.09-.42c-2.55-1.75-7.6-1.47-9.64.71-1.87,2-4.07.94-6,.44-3-.81-5.57-.54-7.95,1.48a5.27,5.27,0,0,1-1.5.92c-3,1.15-3.32,1.5-2.82,4.68a5.39,5.39,0,0,1-.67,4,4.76,4.76,0,0,0-.54,2.91c.39,3.37-.22,7.05,2.64,9.78a3.67,3.67,0,0,1,.79,1.37c.39,1.09,1.26,1.37,2.19,1.93,3,1.77,5.64,0,8.4-.22a3,3,0,0,0,2.47-3.09c.07-2.13,1.15-3,3.13-3.28,1.65-.19,3.27-.61,4.91-.69s2.17.56,1.61,2.19-1.14,3.44-1.78,5a24.84,24.84,0,0,0-1.71,5.75,6.93,6.93,0,0,1-1,1.81h3.71c2.82,0,5.73-.65,8.26,1.15a2.28,2.28,0,0,1,1,1.6,18,18,0,0,1-.55,4.19c-.84,3.2-.82,5.9,2.25,8.19,2.86,2.14,2.59,2.11,6.08.93a7.61,7.61,0,0,1,8.19,2.12,27.53,27.53,0,0,0,2.47-4.16c.86-2.26,2.71-2.68,4.68-3.15a8,8,0,0,0,2.38-.86,7.78,7.78,0,0,1,5.39-1.37c-2.76,2.27-4.07,4.58-2.66,7.46l.75.14a4.69,4.69,0,0,0,.2-1.67c-.64-2.44.59-4.42,3.05-4.47a4.55,4.55,0,0,1,4,1.43c.55.65,1.73.78,2.64,1.11.15.06.36-.05.53,0,1.53.35,3.1,1.1,4.59,1s2.77-1.32,4.22-1.81a8.08,8.08,0,0,1,2.57.07c-.14.78-.24,1.32-.37,2a11.46,11.46,0,0,0,1.72.44c2.5.31,2.62.5,1.75,2.46a39.88,39.88,0,0,1,3.85,1.35c1.34.63,2.82,1.32,2.11,3.19a33.65,33.65,0,0,0,4.09,2.38,5.1,5.1,0,0,0,2.9.14,6.93,6.93,0,0,1,6.26,1.53c1.41,1.11,3.24,1.91,4.2,3.31,1.25,1.81.4,4.77,3,6-.47,2.66,1.07,3.64,3.34,4.15.46.11.79.81,1.24,1.3,3.23-.45,6,1.26,8.71,2.82,1.69,1-.1,1.59-.79,2.41.43,0,.75.06.85-.06,1.67-1.9,3.48-1.67,5.6-.71a9.69,9.69,0,0,0,3.83.47,5.89,5.89,0,0,1,4.8,2.24,7.75,7.75,0,0,0,5.34,3.13,3.56,3.56,0,0,1,3.42,3.84,31,31,0,0,1-.38,5.45,5.74,5.74,0,0,1-3.15,4.09,4.93,4.93,0,0,0-2.73,3.49c-.28,1.28-.74,2.51-2.41,2.7-.25,0-.57.81-.61,1.26-.22,2.89-.33,5.79-.59,8.67a12.8,12.8,0,0,1-.81,2.85c-.15.44-.63.85-.62,1.26.13,3.16-2,5.37-3.44,7.8a6.66,6.66,0,0,1-5.33,3.32,6.3,6.3,0,0,0-4.29,1.75c-.44.42-1.33.37-2,.51-.49.1-1.09,0-1.45.27a27.56,27.56,0,0,0-3.85,3.11,4.71,4.71,0,0,0-1.23,2.69,40.42,40.42,0,0,0,.21,4.78,2.2,2.2,0,0,1-1.36,2.21,9,9,0,0,0-2.44,2.67,7,7,0,0,1-2.52,1.94c-1.28.7-2,2.4-3,3.71a48.59,48.59,0,0,1-3.83,5.43c-2.52,2.66-4.81,2.84-8.13,1.17a3.89,3.89,0,0,0-1.8-.4c1.65.73,2.42,1.83,2,3.6,0,.18.15.43.26.64,1.78,3.26.37,6-3.19,7.13a23.06,23.06,0,0,1-8,1.13c-.35,0-1,.41-1,.7-.16,1.14-.13,2.31-.26,3.45a279.4,279.4,0,0,0,393.49-97.52c-1.62-2.09-3.11-4.3-4.59-6.51-.71-1.06-1.08-2.38-1.85-3.39a47,47,0,0,0-4.11-4.7c-.77-.78-2-1.15-2.65-2-.4-.53-.11-1.59-.13-2.42a10.22,10.22,0,0,1,1.93.12,24.86,24.86,0,0,1,3.17,1,4.7,4.7,0,0,1,1.58,1c1.12,1.14,2,2.47,3.25,3.5a42.54,42.54,0,0,0,3.91,2.65,26.17,26.17,0,0,1,2.41,1.77c.44.39.91.76,1.38,1.14l.72-1.4A4.2,4.2,0,0,1,1209,674.31Zm-126.24,43.46a9.07,9.07,0,0,0-1.12,1.47c-.28.69-.14,1.61-.52,2.22-3,4.72-2.87,10.27-4.13,15.44-.1.4-.18.81-.29,1.2-.75,2.64-2.25,4-4.38,3.86-3-.12-5.17-1.76-5.63-4.39-.19-1.1-.3-2.22-.45-3.33-.33-2.16.82-3.77,2-5.33.92-1.2,1.39-2.32.6-3.86a46.17,46.17,0,0,1-1.67-4.53c-.75-1.95.06-3.19,2.17-3.38a34.71,34.71,0,0,0,4.19-.63,4.08,4.08,0,0,0,3.34-3.12c.5-1.55,2.08-2.77,3.28-4,.14-.15,1.21.15,1.34.45a57,57,0,0,1,2.27,6.3C1083.91,716.52,1083.17,717.22,1082.78,717.77Zm76.15-54.41c-.47,1.91-2.08,1.43-3.28,1.69-.19,0-.82-1.29-1-2a18.41,18.41,0,0,1-.32-2.86c.07-.94.14-1.76.19-2.58.08-1.29.67-1.52,1.74-.9C1158.81,658.17,1159.65,660.43,1158.93,663.36Z" transform="translate(-656.64 -209.05)" fill="#243047"/><path id="b93064bb-c437-476e-8d6e-5a68885540d7" data-name="earthWater" d="M1007.69,571.36c.27-1.39-.73-2-1.78-2.23-2.71-.61-4.49-2.37-6.28-4.35a31.93,31.93,0,0,0-4.8-3.9c-.88-.66-1.6-.1-1.62.79a6.24,6.24,0,0,0,.52,3.43c2.59,3.82,5.29,7.61,9.95,9.23.62.22,1.26.36,1.85.62.79.34,1.56.74,2.63,1.26A8.8,8.8,0,0,1,1007.69,571.36Z" transform="translate(-656.64 -209.05)" fill="#243047"/><path id="a934156b-05ca-4b06-999c-a8e86ae2913b" data-name="earthWater" d="M788.94,755.74a19.31,19.31,0,0,1,1.68-9.4,11.42,11.42,0,0,0,.76-4.67c.13-3.83-.08-7.62,1.29-11.39.56-1.52,0-3.67-.61-5.3-.47-1.2-1.81-2.16-2.94-3-3.52-2.45-7.15-4.73-10.65-7.19a5.5,5.5,0,0,1-1.27-2.21c-.59-1.31-1.1-2.66-1.68-4a23.76,23.76,0,0,0-1.16-2.38q-3-5.22-6-10.41c-.91-1.55-1.91-3-2.83-4.58a1.44,1.44,0,0,1-.18-1,5.65,5.65,0,0,1,3.46-4.17c.59-.24,1-.92,1.51-1.4l-.39-.44c-.68.32-1.35.67-2,.93-1,.37-1.64.05-1.66-1.08,0-1.62-.29-3.12,1.45-4.38,1.52-1.09,3.16-2.7,3.62-4.38s1.59-2.31,2.48-3.42,1.13-2.93,1.25-4.48a11.12,11.12,0,0,0-.47-4.56,14.75,14.75,0,0,0-2.65-4.44c-.39-.47-1.67-.3-2.51-.2-.19,0-.35,1-.37,1.52-.05,1.42-.85,1.74-2,1.41a4.18,4.18,0,0,1-1.57-.8c-1.09-.92-2.13-1.22-3.48.42-1.35-1.55-2.35-3.45-3.92-4.29-2-1.07-3.51-2-4.18-4.42-.43-1.51-1.69-2.81-2.7-4.12a3.29,3.29,0,0,0-1.59-.92c-1.57-.46-3.17-.83-4.76-1.24-.17,0-.34-.2-.5-.18-3.65.46-5.55-2.24-7.77-4.31a4.57,4.57,0,0,0-5.21-.93,6.6,6.6,0,0,1-3.61,0,37.3,37.3,0,0,1-7.44-2.28c-4.14-2-8.72-3.26-12.06-6.75a3.6,3.6,0,0,1-1.13-3.94,3.49,3.49,0,0,0-.56-2.88c-2.51-2.87-5.24-5.56-7.88-8.32-.29-.3-.74-.57-.8-.92-.62-3.23-3.51-4.54-5.44-6.67a12,12,0,0,1-2.79-4.6,5.23,5.23,0,0,0-1.55-2.7q.74,3.67,1.56,7.33a20.68,20.68,0,0,1,1.63,2.1c1.53,2.33,2.64,4.92,4,7.36.27.49.88.79,1.25,1.24a8.1,8.1,0,0,1,1.33,2c.11.28-.37,1-.74,1.17a1.73,1.73,0,0,1-1.37-.37c-1.18-.95-2.36-1.91-3.49-2.92A279.42,279.42,0,0,0,787.68,765,29.45,29.45,0,0,0,788.94,755.74Z" transform="translate(-656.64 -209.05)" fill="#243047"/><path id="aaf53612-d1f2-4b5a-926d-f5266835ad72" data-name="earthLand" d="M1241.37,546.21H965.43c-.23,1.4-1.16,1.82-2.35,2.18-1.62.5-3.52.64-4.8,1.6-2,1.5-3.72,2-6,.92-1.12-.55-2,.1-1.72,1.34a4,4,0,0,0,1.3,2.33,7.65,7.65,0,0,0,3.23,1.36c2,.35,2.77,1.71,3.14,3.38a17,17,0,0,1,.27,3.71c0,2-1.32,3.84-2.7,3.75-3.69-.27-7.37-.77-11.07-.9a12.52,12.52,0,0,0-4.33,1c-.26.09-.39,1-.32,1.49.3,2.09.83,4.16,1,6.26a4,4,0,0,1-.93,2.84,3.46,3.46,0,0,0-1,4,11.31,11.31,0,0,1,.38,2.09c.14,1.18.68,1.63,1.95,1.75,4.65.45,3.42-.49,6.11,4,.1.18.21.35.47.76-2.89.61-3.53,3.07-4.84,5a12,12,0,0,1-2.75,2.32c-.67.53-1.68.86-2,1.54-1.29,2.47-3.17,4.92-.93,8.14-2,1.26-3.8,2.82-5.85,3.49a7.91,7.91,0,0,0-4.64,4c-2.38,4.22-4.81,8.42-7.43,12.49a2.6,2.6,0,0,0,.09,3.49c2.36,2.94,2.45,6.31,1.41,9.6a11.19,11.19,0,0,0,2.66,11.43,14.69,14.69,0,0,1,2.06,2.19c1.33,1.87,2.38,4,3.85,5.71,2.45,2.89,5.08,5.63,7.78,8.28a5.64,5.64,0,0,0,3.14,1.36c2.64.27,5.34,0,8,.39,6.13.85,11.47-1.72,16.92-3.69,1.77-.64,3.31-1,4.88,0a15.9,15.9,0,0,1,3.44,2.7,4,4,0,0,0,3,1.55c1.77.06,3.53.34,5.3.51,1.27.13,2,.83,1.89,2.09-.24,1.92-.3,4-1.09,5.67-1.48,3.13-.94,5.65,1.17,8.17a63,63,0,0,1,4.24,5.68,13,13,0,0,1,1.09,3.06c.36.31,1.13.66,1.37,1.23a19.51,19.51,0,0,1,1,3.7c.45,2.19.68,4.42,1.26,6.56a3.86,3.86,0,0,1-.44,3.51,16.84,16.84,0,0,0-1.89,3.39c-2.16,5.84-2.73,11.51,1.16,17.07a15.44,15.44,0,0,1,2.67,7c.53,5.52,2.59,10.39,5.24,15.1,1.91,3.38,4.36,6.51,4.18,10.72a4.51,4.51,0,0,0,.74,2.34,3.88,3.88,0,0,0,4,2.1c3.18-.36,6.35-.77,9.53-1,5.92-.48,11.09-2.58,15-7.13,2.36-2.77,4.21-6,6.51-8.8,1.6-2,3-3.69.43-6.07,2.56-1.46,5-2.43,5.64-5.67.54-2.81,1.55-5.37-1.12-7.85a35.35,35.35,0,0,1,3.09-3.23c2.11-1.72,4.39-3.22,6.52-4.93,4-3.26,5.94-7.36,4.81-12.66-.62-2.85-1.1-5.73-1.49-8.62s-.45-5.67-.89-8.46a3.23,3.23,0,0,1,.81-2.88c1.74-2.08,3.37-4.26,5.11-6.35,1.5-1.8,3-3.6,4.65-5.25,2.59-2.57,5.42-4.91,8-7.52,5.39-5.51,7.85-12.36,8.83-20-2.12.53-4.15,1.16-6.22,1.54a72.31,72.31,0,0,1-8.75,1.26c-2.69.15-3.86-1.06-4.51-3.7a2.74,2.74,0,0,0-.69-1.2c-1.77-1.75-3.35-3.81-5.41-5.1-3.58-2.22-4.48-6.13-5.86-9.39s-2.11-6.69-4.58-9.4a5.09,5.09,0,0,1-.81-1.57c-1.62-4.1-3.21-8.22-4.79-12.28.34-.14,1.12-.23,1.44-.66,2.61-3.57,1-7.26-2.39-8s-6.89-1.34-10.41.13c-1.14.47-2.73.12-4-.16-1.72-.37-3.37-1-5.05-1.57a14.4,14.4,0,0,1-3.48-1.17,9.19,9.19,0,0,0-6.79-1.21c-2.18.33-2.64,1-2.3,3.22a2.79,2.79,0,0,1-.61,1.95,18.37,18.37,0,0,1-2.42,2.07,1.08,1.08,0,0,1-.38-.2c-1.63-1.64-3.22-3.33-5.81-3.4-.32,0-.81-.7-.91-1.15-.48-2.22-2.08-2.91-4.05-3-1.23-.06-2.48.15-3.71.12a5.32,5.32,0,0,1-2.13-.45,20.81,20.81,0,0,1-2.35-1.44c-.16-1.66-.27-3.27-.47-4.87a29.69,29.69,0,0,1-.59-3.41c0-1.27-.46-1.93-1.71-2-1,0-2,0-3,.07-4,.29-7.91.85-11.86.83-4.49,0-8.08,1.88-11.62,4.24a5.25,5.25,0,0,1-2.75.74,20.22,20.22,0,0,1-3.68-.56c-2.56-.48-2.84-1.13-1.39-3.2a6.43,6.43,0,0,0,.56-.9c.57-1.31,1.45-1.49,2.85-1.29a8.46,8.46,0,0,0,4.06-.56,21.64,21.64,0,0,0,3.59-2.27,4.08,4.08,0,0,0,1.85-4.64,3.36,3.36,0,0,1,1.42-3.67,32.54,32.54,0,0,1,3.49-2.44c1.16-.74,2-1.62,1.91-3.13a1.89,1.89,0,0,1,1.53-2.26,7.44,7.44,0,0,1,2.6.2c1,.15,2,.79,2.78.57a14.32,14.32,0,0,0,4.4-2c2.58-1.79,6-1,7,1.91a7.65,7.65,0,0,0,4.71,4.7c3.85,1.62,7.18,3.77,7.67,8.8-1.12,0-2.27,0-3.42,0a15.12,15.12,0,0,0-3.35-.08c-.57.13-1.16,1-1.34,1.73-.08.29.8,1.19,1.3,1.23a5,5,0,0,1,3.66,2.23,11.77,11.77,0,0,0,1.34,1.26,16.11,16.11,0,0,1,.56-2.42c.32-.79.63-1.89,1.25-2.17a3,3,0,0,0,1.76-2.39c.36-1.47.68-2.94,1-4.5,1.45.2,3.11,1.29,5.12,0a1.46,1.46,0,0,1-.07-.19c-1.07-.52-1.84-.92-2.63-1.26-.59-.26-1.23-.4-1.85-.62-4.66-1.62-7.36-5.41-9.95-9.23a6.24,6.24,0,0,1-.52-3.43c0-.89.74-1.45,1.62-.79a31.93,31.93,0,0,1,4.8,3.9c1.79,2,3.57,3.74,6.28,4.35,1.05.24,2.05.84,1.78,2.23a8.8,8.8,0,0,0,.47,4.85l.21.1a.67.67,0,0,1-.14.09,11.56,11.56,0,0,0,1.46,2.57c1.93,2.59,4.4,4.76,5.44,8a1.56,1.56,0,0,0,1.31.28c1.34-1.61,3-3.11,1.95-5.59a6.09,6.09,0,0,1-.8-2.5c.07-1.13.33-3,1-3.21a27.89,27.89,0,0,1,5.83-1c.57,2.16,1.11,4.51,1.83,6.8.66,2.1,2.23,3.26,4.25,4.2,2.53,1.18,4.89,2.25,7.71,1.13.46-.18,1.06,0,1.59,0,1.86-.17,3.71-.45,5.58-.54,1.39-.06,2.79.1,3.82.14,0,2-.27,3.46.08,4.79a3,3,0,0,1-.58,2.89,5.26,5.26,0,0,0-1,2.71c-.07,2.24.07,4.49.19,6.73a4.85,4.85,0,0,1-.92,3.64,2.27,2.27,0,0,0-.11,2.09c1.74,2.85,3.69,5.57,4.8,8.77.09.27.38.46.51.72,1,2,2,4.1,3.11,6.11.81,1.49,1.43,3.37,2.7,4.27,2,1.42,2.88,3.53,4.32,5.27a12.18,12.18,0,0,1,2.8,10.83,2.14,2.14,0,0,0,1.91,2.71,7.27,7.27,0,0,0,3,.15A112.8,112.8,0,0,0,1081.5,645a21.76,21.76,0,0,0,7.17-4.16c1.47-1.38,3-1.54,4.61-2a5.35,5.35,0,0,0,1.89-1.11c2.36-1.92,4.7-3.85,7-5.85a3.89,3.89,0,0,0,1.27-1.9c.4-1.94.84-3.72,2.53-5.08,1.41-1.13,1.15-2.17-.4-3.06s-3-1.82-4.62-2.6a3,3,0,0,1-2-3.22,7.77,7.77,0,0,0-.18-1.64l-.55-.29c-1.1,1.17-2.26,2.28-3.27,3.52a5.24,5.24,0,0,1-4.76,2.21,7.27,7.27,0,0,0-2.2.65l-1.66-1.14c-1.42-.94-2.51-2-1.66-3.93a1.23,1.23,0,0,0-.36-1.08c-.86-.78-1.83-1.46-2.73-2.21a6,6,0,0,1-1.71-1.66c-.78-1.65-1.36-3.38-3.69-3.6,1.13-1.52,1.88-2.67,3.88-2.79s3.08,1.26,4.35,2.24a7.81,7.81,0,0,1,1.42,2.39c.56,1,.87,2.47,1.72,2.92,2.91,1.54,5.83,3.5,9.45,1.5,1.76-1,2.53-.52,3.09,1.43a2.5,2.5,0,0,0,2.88,2,19.37,19.37,0,0,1,5.28.37,22.21,22.21,0,0,0,10.35-.13c3.2-.65,3.91-.29,5,2.79.91,2.56,1,2.55,3.68,2.65a16.1,16.1,0,0,1,3.38.85c-.33.88-.59,1.78-1,2.63-.47,1-.08,1.8.88,1.8a33.14,33.14,0,0,0,5-.53,19.82,19.82,0,0,0,2.41-.72c-2.52,6.19-.15,11.37,1.8,16.61.92,2.48,1.8,5,2.71,7.46.27.71.55,1.43.86,2.12.8,1.76,1.69,3.47,2.4,5.26.57,1.43,1.48,1.89,2.73,1.06a32.68,32.68,0,0,0,4.15-3.28c3.23-3,4.41-6.59,3-10.91a1.9,1.9,0,0,1,.19-1.6c2.72-2.79,5.45-5.56,8.31-8.19s6.11-5.2,9-7.94c1.72-1.61,3.17-2.17,5.39-1.39,1,.34,1.9.68,2.85,1,2.83,1,4.56,3.38,6.8,5.11a2.37,2.37,0,0,1,.55,1.79,15,15,0,0,0,1.24,7c.62,1.46,1.06,1.7,2.28.7,1-.86,2-1.83,3-2.75l.51.36c3.19,2.32,3.72,6.16,5.32,9.39.1.19,0,.54-.12.79-.29.91-.69,1.79-.91,2.72-.34,1.49-.42,3-.88,4.49-.72,2.27-.21,3.85,1.61,5.48a10.46,10.46,0,0,1,2.15,3.3c.67,1.4.86,3.1,1.72,4.35,1.26,1.83,3.06,3.28,4.39,5.07a4.2,4.2,0,0,0,1.06,1.05c.68-1.3,1.34-2.6,2-3.91q3.75-7.5,7.05-15.26,3.06-7.19,5.73-14.56,2.76-7.67,5.09-15.52a279.43,279.43,0,0,0,11.42-79.31Z" transform="translate(-656.64 -209.05)" fill="#24525e"/><path id="af0be994-5d6c-4d7f-952a-21fb31f300df" data-name="earthLand" d="M874.12,690.89a7.75,7.75,0,0,1-5.34-3.13,5.89,5.89,0,0,0-4.8-2.24,9.69,9.69,0,0,1-3.83-.47c-2.12-1-3.93-1.19-5.6.71-.1.12-.42,0-.85.06.69-.82,2.48-1.44.79-2.41-2.72-1.56-5.48-3.27-8.71-2.82-.45-.49-.78-1.19-1.24-1.3-2.27-.51-3.81-1.49-3.34-4.15-2.62-1.22-1.77-4.18-3-6-1-1.4-2.79-2.2-4.2-3.31a6.93,6.93,0,0,0-6.26-1.53,5.1,5.1,0,0,1-2.9-.14,33.65,33.65,0,0,1-4.09-2.38c.71-1.87-.77-2.56-2.11-3.19a39.88,39.88,0,0,0-3.85-1.35c.87-2,.75-2.15-1.75-2.46a11.46,11.46,0,0,1-1.72-.44c.13-.71.23-1.25.37-2a8.08,8.08,0,0,0-2.57-.07c-1.45.49-2.77,1.66-4.22,1.81s-3.06-.61-4.59-1c-.17,0-.38.07-.53,0-.91-.33-2.09-.46-2.64-1.11a4.55,4.55,0,0,0-4-1.43c-2.46,0-3.69,2-3.05,4.47a4.69,4.69,0,0,1-.2,1.67l-.75-.14c-1.41-2.88-.1-5.19,2.66-7.46a7.78,7.78,0,0,0-5.39,1.37,8,8,0,0,1-2.38.86c-2,.47-3.82.89-4.68,3.15a27.53,27.53,0,0,1-2.47,4.16,7.61,7.61,0,0,0-8.19-2.12c-3.49,1.18-3.22,1.21-6.08-.93-3.07-2.29-3.09-5-2.25-8.19a18,18,0,0,0,.55-4.19,2.28,2.28,0,0,0-1-1.6c-2.53-1.8-5.44-1.19-8.26-1.15H748a6.93,6.93,0,0,0,1-1.81,24.84,24.84,0,0,1,1.71-5.75c.64-1.57,1.2-3.33,1.78-5s.15-2.28-1.61-2.19-3.26.5-4.91.69c-2,.23-3.06,1.15-3.13,3.28a3,3,0,0,1-2.47,3.09c-2.76.23-5.43,2-8.4.22-.93-.56-1.8-.84-2.19-1.93a3.67,3.67,0,0,0-.79-1.37c-2.86-2.73-2.25-6.41-2.64-9.78a4.76,4.76,0,0,1,.54-2.91,5.39,5.39,0,0,0,.67-4c-.5-3.18-.2-3.53,2.82-4.68a5.27,5.27,0,0,0,1.5-.92c2.38-2,4.94-2.29,7.95-1.48,1.89.5,4.09,1.58,6-.44,2-2.18,7.09-2.46,9.64-.71a3,3,0,0,0,2.09.42c2.09-.4,3.91.65,4.13,2.78.36,3.33,2.27,5.92,3.92,8.63.84,1.37,2.25,1.25,2.83-.28a7.46,7.46,0,0,0,.51-3.93,24.61,24.61,0,0,0-2.14-5.77c-1.78-3.51-1.18-6.61,1.86-9,2.77-2.18,5.46-4.46,8.19-6.7.14-.11.27-.23.42-.33,2.41-1.66,2.46-1.68,1.14-4.36a11.31,11.31,0,0,0-1.74-2.08,6,6,0,0,0,.2-2.15,5.26,5.26,0,0,1,.42-1.35A2.19,2.19,0,0,1,778,582c.2,1.56,1.32,1.24,1.87.6,1.37-1.61,2.91-3.27,3.6-5.19a4.53,4.53,0,0,1,2.6-3,13.64,13.64,0,0,1,4-1.23c2.06-.15,2.48-.41,2.21-2.52a9.5,9.5,0,0,1-.37-1.9c.06-.69.27-1.73.73-2a19.66,19.66,0,0,1,5.11-1.74c2.33-.35,3.34-1.72,2.5-3.91a27.87,27.87,0,0,1-1.19-3.87c-.48-2.21.11-2.89,2.4-3.06,2.57-.19,4.18-1.87,6-3.8-3.1-1.67-5.67-.28-8.32.53a12.62,12.62,0,0,0-6.71,5.14c.16-3.05,1.47-5.28,4.33-6.07a7.65,7.65,0,0,0,4.21-3,2.37,2.37,0,0,1,1-.78H682.79c0,.2,0,.39,0,.59a280.86,280.86,0,0,0,5.33,54.55,5.23,5.23,0,0,1,1.55,2.7,12,12,0,0,0,2.79,4.6c1.93,2.13,4.82,3.44,5.44,6.67.06.35.51.62.8.92,2.64,2.76,5.37,5.45,7.88,8.32a3.49,3.49,0,0,1,.56,2.88,3.6,3.6,0,0,0,1.13,3.94c3.34,3.49,7.92,4.75,12.06,6.75a37.3,37.3,0,0,0,7.44,2.28,6.6,6.6,0,0,0,3.61,0,4.57,4.57,0,0,1,5.21.93c2.22,2.07,4.12,4.77,7.77,4.31.16,0,.33.14.5.18,1.59.41,3.19.78,4.76,1.24a3.29,3.29,0,0,1,1.59.92c1,1.31,2.27,2.61,2.7,4.12.67,2.37,2.16,3.35,4.18,4.42,1.57.84,2.57,2.74,3.92,4.29,1.35-1.64,2.39-1.34,3.48-.42a4.18,4.18,0,0,0,1.57.8c1.17.33,2,0,2-1.41,0-.53.18-1.5.37-1.52.84-.1,2.12-.27,2.51.2a14.75,14.75,0,0,1,2.65,4.44,11.12,11.12,0,0,1,.47,4.56c-.12,1.55-.34,3.37-1.25,4.48s-2,1.7-2.48,3.42-2.1,3.29-3.62,4.38c-1.74,1.26-1.49,2.76-1.45,4.38,0,1.13.66,1.45,1.66,1.08.69-.26,1.36-.61,2-.93l.39.44c-.5.48-.92,1.16-1.51,1.4a5.65,5.65,0,0,0-3.46,4.17,1.44,1.44,0,0,0,.18,1c.92,1.54,1.92,3,2.83,4.58q3,5.19,6,10.41a23.76,23.76,0,0,1,1.16,2.38c.58,1.32,1.09,2.67,1.68,4a5.5,5.5,0,0,0,1.27,2.21c3.5,2.46,7.13,4.74,10.65,7.19,1.13.8,2.47,1.76,2.94,3,.63,1.63,1.17,3.78.61,5.3-1.37,3.77-1.16,7.56-1.29,11.39a11.42,11.42,0,0,1-.76,4.67,19.31,19.31,0,0,0-1.68,9.4,29.45,29.45,0,0,1-1.26,9.22,280.71,280.71,0,0,0,23.89,17.15c.13-1.14.1-2.31.26-3.45,0-.29.69-.71,1-.7a23.06,23.06,0,0,0,8-1.13c3.56-1.13,5-3.87,3.19-7.13-.11-.21-.3-.46-.26-.64.4-1.77-.37-2.87-2-3.6a3.89,3.89,0,0,1,1.8.4c3.32,1.67,5.61,1.49,8.13-1.17a48.59,48.59,0,0,0,3.83-5.43c.94-1.31,1.69-3,3-3.71a7,7,0,0,0,2.52-1.94,9,9,0,0,1,2.44-2.67,2.2,2.2,0,0,0,1.36-2.21,40.42,40.42,0,0,1-.21-4.78,4.71,4.71,0,0,1,1.23-2.69,27.56,27.56,0,0,1,3.85-3.11c.36-.26,1-.17,1.45-.27.69-.14,1.58-.09,2-.51a6.3,6.3,0,0,1,4.29-1.75,6.66,6.66,0,0,0,5.33-3.32c1.39-2.43,3.57-4.64,3.44-7.8,0-.41.47-.82.62-1.26a12.8,12.8,0,0,0,.81-2.85c.26-2.88.37-5.78.59-8.67,0-.45.36-1.23.61-1.26,1.67-.19,2.13-1.42,2.41-2.7a4.93,4.93,0,0,1,2.73-3.49,5.74,5.74,0,0,0,3.15-4.09,31,31,0,0,0,.38-5.45A3.56,3.56,0,0,0,874.12,690.89Z" transform="translate(-656.64 -209.05)" fill="#24525e"/><path id="a2ecd870-4856-4840-ae4e-f9da3caafa88" data-name="earthLand" d="M1156.25,656.66c-1.07-.62-1.66-.39-1.74.9,0,.82-.12,1.64-.19,2.58a18.41,18.41,0,0,0,.32,2.86c.19.76.82,2.09,1,2,1.2-.26,2.81.22,3.28-1.69C1159.65,660.43,1158.81,658.17,1156.25,656.66Z" transform="translate(-656.64 -209.05)" fill="#24525e"/><path id="a952d32e-6757-4cbe-9334-23bb2cbb463a" data-name="earthLand" d="M697.14,622.55c.37-.14.85-.89.74-1.17a8.1,8.1,0,0,0-1.33-2c-.37-.45-1-.75-1.25-1.24-1.36-2.44-2.47-5-4-7.36a20.68,20.68,0,0,0-1.63-2.1q1.2,5.33,2.61,10.58c1.13,1,2.31,2,3.49,2.92A1.73,1.73,0,0,0,697.14,622.55Z" transform="translate(-656.64 -209.05)" fill="#24525e"/><path id="ee71a7c6-025f-4056-83e0-e740f7edee9c" data-name="earthLand" d="M1081.52,709.79c-.13-.3-1.2-.6-1.34-.45-1.2,1.28-2.78,2.5-3.28,4a4.08,4.08,0,0,1-3.34,3.12,34.71,34.71,0,0,1-4.19.63c-2.11.19-2.92,1.43-2.17,3.38a46.17,46.17,0,0,0,1.67,4.53c.79,1.54.32,2.66-.6,3.86-1.19,1.56-2.34,3.17-2,5.33.15,1.11.26,2.23.45,3.33.46,2.63,2.58,4.27,5.63,4.39,2.13.1,3.63-1.22,4.38-3.86.11-.39.19-.8.29-1.2,1.26-5.17,1.11-10.72,4.13-15.44.38-.61.24-1.53.52-2.22a9.07,9.07,0,0,1,1.12-1.47c.39-.55,1.13-1.25,1-1.68A57,57,0,0,0,1081.52,709.79Z" transform="translate(-656.64 -209.05)" fill="#24525e"/><path id="bfaf7384-005b-4d29-871d-8052fd49e1d5" data-name="earthLand" d="M1205.57,673.85a42.54,42.54,0,0,1-3.91-2.65c-1.2-1-2.13-2.36-3.25-3.5a4.7,4.7,0,0,0-1.58-1,24.86,24.86,0,0,0-3.17-1,10.22,10.22,0,0,0-1.93-.12c0,.83-.27,1.89.13,2.42.65.84,1.88,1.21,2.65,2a47,47,0,0,1,4.11,4.7c.77,1,1.14,2.33,1.85,3.39,1.48,2.21,3,4.42,4.59,6.51q2.2-3.87,4.3-7.83c-.47-.38-.94-.75-1.38-1.14A26.17,26.17,0,0,0,1205.57,673.85Z" transform="translate(-656.64 -209.05)" fill="#24525e"/></g><g id="a8ea8227-31cb-4df6-9f35-af919eab1e0d" data-name="city"><g id="aa1fa606-0a87-4f7e-9b9a-fb327285c823" data-name="houseBack"><g id="f7073464-d4eb-404f-85a1-04c8050d3042" data-name="floods"><rect id="a17feea0-f2ff-49fa-a2eb-181424ec8b91" data-name="floodsBack" x="261.56" y="128.18" width="12.98" height="5.77" fill="#1a1a1a" stroke="#1a1a1a" stroke-linejoin="round"/><rect id="b67dc159-9a0f-4953-b36c-80b71b03e482" data-name="floodsBack" x="276.98" y="128.18" width="12.98" height="5.77" fill="#1a1a1a" stroke="#1a1a1a" stroke-linejoin="round"/><rect id="fd8d67d3-d629-4112-b033-d982592d7119" data-name="floodsBack" x="292.41" y="128.18" width="12.98" height="5.77" fill="#1a1a1a" stroke="#1a1a1a" stroke-linejoin="round"/><rect id="b211a3d3-8104-4479-9c14-5c67f9ce048f" data-name="floodsBack" x="307.83" y="128.18" width="12.98" height="5.77" fill="#1a1a1a" stroke="#1a1a1a" stroke-linejoin="round"/><rect id="aa1df414-2da5-4b80-9db6-046d858260ad" data-name="floodsBack" x="261.56" y="136.54" width="12.98" height="5.77" fill="#1a1a1a" stroke="#1a1a1a" stroke-linejoin="round"/><rect id="be9a7569-6279-4782-907c-2ae4639adf33" data-name="floodsBack" x="276.98" y="136.54" width="12.98" height="5.77" fill="#1a1a1a" stroke="#1a1a1a" stroke-linejoin="round"/><rect id="affc717d-fff7-45f6-8888-946f2f666524" data-name="floodsBack" x="292.41" y="136.54" width="12.98" height="5.77" fill="#1a1a1a" stroke="#1a1a1a" stroke-linejoin="round"/><rect id="e0896312-6cf7-4236-8f9a-aa5bede84f30" data-name="floodsBack" x="307.83" y="136.54" width="12.98" height="5.77" fill="#1a1a1a" stroke="#1a1a1a" stroke-linejoin="round"/><rect id="bf65447a-cf3a-4f8d-b8eb-a1c46e231589" data-name="floodsBack" x="261.56" y="144.91" width="12.98" height="5.77" fill="#1a1a1a" stroke="#1a1a1a" stroke-linejoin="round"/><rect id="af5eaf20-930b-47a5-b8a7-2c579883c0f5" data-name="floodsBack" x="276.98" y="144.91" width="12.98" height="5.77" fill="#1a1a1a" stroke="#1a1a1a" stroke-linejoin="round"/><rect id="b9f17691-c8cc-4626-b8b9-0d1bc983249a" data-name="floodsBack" x="292.41" y="144.91" width="12.98" height="5.77" fill="#1a1a1a" stroke="#1a1a1a" stroke-linejoin="round"/><rect id="ba18101b-4d80-44f2-b948-5015d9a8a0f3" data-name="floodsBack" x="307.83" y="144.91" width="12.98" height="5.77" fill="#1a1a1a" stroke="#1a1a1a" stroke-linejoin="round"/><rect id="b86e5f86-fcac-4120-8cf7-b278fd8ad42c" data-name="floodsBack" x="261.56" y="153.28" width="12.98" height="5.77" fill="#1a1a1a" stroke="#1a1a1a" stroke-linejoin="round"/><rect id="b8f053fd-07fe-4a5c-bc8c-77216d0ac7fd" data-name="floodsBack" x="276.98" y="153.28" width="12.98" height="5.77" fill="#1a1a1a" stroke="#1a1a1a" stroke-linejoin="round"/><rect id="fcd3ed6a-c93c-4006-aac1-0eb0a8626f67" data-name="floodsBack" x="292.41" y="153.28" width="12.98" height="5.77" fill="#1a1a1a" stroke="#1a1a1a" stroke-linejoin="round"/><rect id="afea0081-c76a-40de-870c-eacf9f1bc3c7" data-name="floodsBack" x="307.83" y="153.28" width="12.98" height="5.77" fill="#1a1a1a" stroke="#1a1a1a" stroke-linejoin="round"/><rect id="a46207dc-e43e-4a2f-b703-846f69b03fa5" data-name="floodsBack" x="289.04" y="158.94" width="4.28" height="177.03" fill="#1a1a1a" stroke="#1a1a1a" stroke-linejoin="round"/><rect id="fdcd92e6-b166-4047-b901-4db3d11a77b2" data-name="floodLight" x="262.1" y="128.15" width="12.79" height="5.71" fill="#f8e9a1"/><rect id="aa329e30-ca27-4867-9da8-5e1a8f80d1bb" data-name="floodLight" x="277.26" y="128.15" width="12.79" height="5.71" fill="#f8e9a1"/><rect id="bd875220-eb1e-424f-b7ba-094125512c2e" data-name="floodLight" x="292.42" y="128.15" width="12.79" height="5.71" fill="#f8e9a1"/><rect id="a2511ffb-f470-4d9a-989c-9b98ecb8c972" data-name="floodLight" x="307.57" y="128.15" width="12.79" height="5.71" fill="#f8e9a1"/><rect id="bb80cdaf-e207-4487-a45b-3891391f1dba" data-name="floodLight" x="262.1" y="136.51" width="12.79" height="5.71" fill="#f8e9a1"/><rect id="f4ccd86d-3d63-4795-837a-26f3599dbc10" data-name="floodLight" x="277.26" y="136.51" width="12.79" height="5.71" fill="#f8e9a1"/><rect id="b2fc6d4a-ee10-4c22-8462-3bd6750b5950" data-name="floodLight" x="292.42" y="136.51" width="12.79" height="5.71" fill="#f8e9a1"/><rect id="bcc38509-c88d-404a-890a-1fe77b7c8507" data-name="floodLight" x="307.57" y="136.51" width="12.79" height="5.71" fill="#f8e9a1"/><rect id="ebbe22d1-b53c-4d54-a98a-cc685e0a5163" data-name="floodLight" x="262.1" y="144.88" width="12.79" height="5.71" fill="#f8e9a1"/><rect id="bd2b43fa-fd0e-4df4-9e3a-24192034af34" data-name="floodLight" x="277.26" y="144.88" width="12.79" height="5.71" fill="#f8e9a1"/><rect id="a32f9328-8608-4bee-bb14-e858f173515a" data-name="floodLight" x="292.42" y="144.88" width="12.79" height="5.71" fill="#f8e9a1"/><rect id="ab2518b1-d6c8-412b-8790-c499cea05644" data-name="floodLight" x="307.57" y="144.88" width="12.79" height="5.71" fill="#f8e9a1"/><rect id="b1d379ea-b2bf-4f1a-a05d-fffa3503e321" data-name="floodLight" x="262.1" y="153.24" width="12.79" height="5.71" fill="#f8e9a1"/><rect id="acedfa01-9174-4522-9514-409867c180b9" data-name="floodLight" x="277.26" y="153.24" width="12.79" height="5.71" fill="#f8e9a1"/><rect id="a0d2f9d6-2e26-4286-982f-45efae399d10" data-name="floodLight" x="292.42" y="153.24" width="12.79" height="5.71" fill="#f8e9a1"/><rect id="b81c51b7-aa74-4005-a6f6-1e76e41055e4" data-name="floodLight" x="307.57" y="153.24" width="12.79" height="5.71" fill="#f8e9a1"/></g><path id="b79484d4-b4af-4365-9500-4b05286c6be2" data-name="house" d="M1039.19,420a59.5,59.5,0,0,0-115.42,0h-5.29V545h126V420Z" transform="translate(-656.64 -209.05)" fill="#1a1a1a" stroke="#1a1a1a" stroke-linejoin="round" stroke-width="2"/><polygon id="a446be84-1b93-4258-ab6f-357f7b43236a" data-name="house" points="364.85 114.98 364.85 102.98 322.85 102.98 322.85 114.98 311.85 114.98 311.85 335.98 375.85 335.98 375.85 114.98 364.85 114.98" fill="#1a1a1a" stroke="#1a1a1a" stroke-linejoin="round" stroke-width="2"/><path id="b560f34b-9554-4fc4-a624-a5b87d7b29a1" data-name="house" d="M901.31,292a26.5,26.5,0,0,0-52.76,0h-3.12v52h4.5V545h50V344h4.5V292Z" transform="translate(-656.64 -209.05)" fill="#1a1a1a" stroke="#1a1a1a" stroke-miterlimit="10"/><polygon id="b5773167-486e-48ba-b35c-2543c59a51d6" data-name="house" points="177.91 179.98 177.91 173.98 174.91 173.98 174.91 165.98 170.41 165.98 170.41 157.98 151.41 157.98 151.41 165.98 146.91 165.98 146.91 173.98 143.91 173.98 143.91 179.98 135.91 179.98 135.91 335.98 185.91 335.98 185.91 179.98 177.91 179.98" fill="#1a1a1a" stroke="#1a1a1a" stroke-linejoin="round" stroke-width="2"/><polygon id="ee53e943-ebe5-4f18-8968-3d25794a511e" data-name="house" points="464.65 184.56 445.81 147.95 428.98 184.56 422.37 184.56 422.37 335.98 471.37 335.98 471.37 184.56 464.65 184.56" fill="#1a1a1a" stroke="#1a1a1a" stroke-linejoin="round" stroke-width="2"/><g id="b30b8653-c563-4f1e-b424-71e5914195c9" data-name="lightMiddle"><rect id="f379c788-ffd3-4393-be4d-beb1e4e63f72" data-name="light" x="319.1" y="122.95" width="49.5" height="10.28" fill="#f8e9a1"/><rect id="b17aac6e-184e-44c6-82af-b2edf8d2cb5c" data-name="light" x="319.1" y="139.18" width="49.5" height="5.41" fill="#f8e9a1"/><rect id="ed92552e-e3a9-4769-a20a-6383494978b3" data-name="light" x="319.1" y="150.55" width="49.5" height="10.28" fill="#f8e9a1"/><rect id="b2e00aff-d8d1-44d8-961e-aef0d81912b4" data-name="light" x="319.1" y="177.75" width="49.5" height="10.28" fill="#f8e9a1"/><rect id="a29e3b41-adfe-4cf1-b61a-1756396411fe" data-name="light" x="319.1" y="193.99" width="49.5" height="5.41" fill="#f8e9a1"/><rect id="f2da2b6b-63a6-427e-8efe-2d0169924fb3" data-name="light" x="319.1" y="205.36" width="49.5" height="10.28" fill="#f8e9a1"/><rect id="be2ab86c-9554-456a-83c6-02d984554a1f" data-name="light" x="319.1" y="232.56" width="49.5" height="10.28" fill="#f8e9a1"/><rect id="b5b209cf-607f-4f9a-9c95-685f1dcff015" data-name="light" x="319.1" y="248.8" width="49.5" height="5.41" fill="#f8e9a1"/><rect id="b5cb526c-de6f-4c08-8256-43de9be7836d" data-name="light" x="319.1" y="260.16" width="49.5" height="10.28" fill="#f8e9a1"/><rect id="abf691ab-85e2-4f39-b467-85863bfbd400" data-name="light" x="319.1" y="287.36" width="49.5" height="10.28" fill="#f8e9a1"/><rect id="e39329bb-59e7-4d80-8cef-3ad935a1d2d2" data-name="light" x="319.1" y="303.6" width="49.5" height="5.41" fill="#f8e9a1"/><rect id="b199bddb-f994-4073-82ad-cc47d898c3be" data-name="light" x="319.1" y="314.97" width="49.5" height="10.28" fill="#f8e9a1"/></g><g id="e613d440-1e20-4344-ac00-caa5597a3ec1" data-name="lightRight"><rect id="bb6e5361-bfd8-4345-a52a-88c500db91f2" data-name="light" x="429.37" y="190.95" width="35" height="6" fill="#f8e9a1"/><rect id="a9464213-61bd-4122-be81-71d8c2cd02a4" data-name="light" x="429.37" y="202.45" width="35" height="6" fill="#f8e9a1"/><rect id="a48b1875-833e-400a-8584-01088a9c9400" data-name="light" x="429.37" y="213.95" width="35" height="6" fill="#f8e9a1"/><rect id="abcf0539-731c-4c29-9bd2-c6de6b26aef3" data-name="light" x="429.37" y="225.45" width="35" height="6" fill="#f8e9a1"/><rect id="bcb1ca69-94f5-47fb-bc4d-8445b935f459" data-name="light" x="429.37" y="236.95" width="35" height="6" fill="#f8e9a1"/><rect id="b26e90e3-56c9-4b39-b7e1-93823f2e8720" data-name="light" x="429.37" y="248.45" width="35" height="6" fill="#f8e9a1"/><rect id="ab1275fa-b641-4a33-92b2-3b46aeacda99" data-name="light" x="429.37" y="259.95" width="35" height="6" fill="#f8e9a1"/><rect id="b7059973-0af4-420d-be5b-6fdc30ed3214" data-name="light" x="429.37" y="328.95" width="35" height="6" fill="#f8e9a1"/><rect id="fa235781-7dae-4fc3-9512-610f7a17c314" data-name="light" x="429.37" y="317.45" width="35" height="6" fill="#f8e9a1"/><rect id="ac922d59-15cb-447c-928b-33a1ab999945" data-name="light" x="429.37" y="305.95" width="35" height="6" fill="#f8e9a1"/><rect id="ab0073ff-88c9-4751-a8ab-c2f6fb8b46e2" data-name="light" x="429.37" y="294.45" width="35" height="6" fill="#f8e9a1"/><rect id="bdfd1717-295c-4b3e-b25a-856ef3584f3a" data-name="light" x="429.37" y="282.95" width="35" height="6" fill="#f8e9a1"/><rect id="f0747262-0853-4838-ad23-add3e370a664" data-name="light" x="429.37" y="271.45" width="35" height="6" fill="#f8e9a1"/></g><circle id="ba7028dd-6f5f-4150-b68a-82f684806c5f" data-name="watchLight" cx="218.29" cy="107.45" r="22.5" fill="#f8e9be"/><circle id="e388e3d1-4fce-4cfb-9b20-5be977c765c9" data-name="light" cx="144.41" cy="190.95" r="6" fill="#f8e9a1"/><circle id="ba6aed14-1756-48d8-804c-e2d892f8a7c0" data-name="light" cx="160.91" cy="190.95" r="6" fill="#f8e9a1"/><circle id="bf1ee336-72cb-4b00-a683-cc231fc36bf4" data-name="light" cx="177.41" cy="190.95" r="6" fill="#f8e9a1"/><rect id="a9a5e803-ef5a-4b92-85b7-876d30323ea3" data-name="clock" x="217.36" y="92.95" width="0.98" height="13.84" fill="#1a1a1a"/><polygon id="a3a43a66-03a2-40aa-9be8-4f884fb25e84" data-name="clock" points="229.36 116.33 228.67 116.95 217.62 107.16 218.31 106.55 229.36 116.33" fill="#1a1a1a"/><path id="a6ca996c-b4b9-42e4-9535-d4714366ccca" data-name="windmill" d="M1211.86,383.07a109.86,109.86,0,0,0-14.75-12.78,5.91,5.91,0,0,0-3.17-8.15,135.36,135.36,0,0,0,.84-16c0-12.77-1.35-23.13-3-23.13s-3,10.36-3,23.13a135.36,135.36,0,0,0,.84,16,5.9,5.9,0,0,0-3.31,7.84,109.58,109.58,0,0,0-14.8,12.82c-9,9-15.41,17.31-14.23,18.48s9.45-5.19,18.48-14.23a112.47,112.47,0,0,0,12.63-14.5,7.17,7.17,0,0,0,.75.46V545h5.3V373c.17-.09.33-.19.49-.29a113.21,113.21,0,0,0,12.69,14.61c9,9,17.31,15.4,18.49,14.23S1220.89,392.1,1211.86,383.07Z" transform="translate(-656.64 -209.05)" fill="#1a1a1a" stroke="#1a1a1a" stroke-linejoin="round"/><path id="b0741fb3-e587-4233-9fdd-a29fc2dbb0d8" data-name="tree" d="M1159.22,480.33h-.29c-.06-.26-.12-.51-.2-.77,6.49-4.36,8.67-14.64-1.22-23.11l-5.75.23a12.49,12.49,0,0,0-23-2.46c-4.15-2.28-9.71-2.28-15,1.73a1.24,1.24,0,0,0-.26.25c-6.11,8.24-2.74,17,3.84,20.22-4.12,2.9-5.85,9-1.52,14.7,5,3.82,10.24,3,13.45,0a19.12,19.12,0,0,0,3,1v53.53h9V494.4a12.06,12.06,0,0,0,4,1.19A14,14,0,0,0,1156.06,508v37.59h6.32V508a14,14,0,0,0-3.16-27.71Z" transform="translate(-656.64 -209.05)" fill="#006837" stroke="#006837" stroke-linejoin="round" stroke-width="2"/></g><g id="f1ead3c5-0109-4ea0-9e4c-b7b06d50ebb8" data-name="houseMiddle"><rect id="f584a60c-6664-4702-9daa-7820075f84c0" data-name="house" x="353.45" y="114.98" width="76" height="221" fill="#666" stroke="#666" stroke-linejoin="round" stroke-width="2"/><polygon id="b218e1a5-8348-4c6c-94a4-34fec8a09c87" data-name="house" points="187.38 275.01 176.34 263.98 111.34 263.98 100.34 274.98 105.86 274.98 105.86 335.98 181.86 335.98 181.86 275.01 187.38 275.01" fill="#666" stroke="#666" stroke-linejoin="round" stroke-width="2"/><polygon id="a31df42a-fd8d-457d-a0e0-94fcee94cca5" data-name="house" points="268.52 188.98 251.99 153.43 237.22 188.98 231.42 188.98 231.42 335.98 274.42 335.98 274.42 188.98 268.52 188.98" fill="#666" stroke="#666" stroke-linejoin="round" stroke-width="2"/><g id="b5f8cf14-c16b-4a6b-a95f-70aa63aa94a6" data-name="floods"><rect id="ee55844a-853f-44db-a314-ddcbad336485" data-name="floodsBack" x="1" y="142.98" width="18.18" height="8.08" fill="#666" stroke="#666" stroke-linejoin="round" stroke-width="2"/><rect id="a8fe717f-9e9b-4cb4-835f-77f9875fd75c" data-name="floodsBack" x="22.61" y="142.98" width="18.18" height="8.08" fill="#666" stroke="#666" stroke-linejoin="round" stroke-width="2"/><rect id="f77b9a9c-e2da-4377-b38d-92e3724c7761" data-name="floodsBack" x="44.21" y="142.98" width="18.18" height="8.08" fill="#666" stroke="#666" stroke-linejoin="round" stroke-width="2"/><rect id="feef7356-c2e1-4066-8ce7-616ebe21c33d" data-name="floodsBack" x="65.82" y="142.98" width="18.18" height="8.08" fill="#666" stroke="#666" stroke-linejoin="round" stroke-width="2"/><rect id="b61351fb-9964-476d-954d-2520385b3f0a" data-name="floodsBack" x="1" y="154.69" width="18.18" height="8.08" fill="#666" stroke="#666" stroke-linejoin="round" stroke-width="2"/><rect id="ec8cda81-e4b1-4139-a812-51b8d0a439f5" data-name="floodsBack" x="22.61" y="154.69" width="18.18" height="8.08" fill="#666" stroke="#666" stroke-linejoin="round" stroke-width="2"/><rect id="e3d60414-03e7-48a2-b435-f616cc0cf5bb" data-name="floodsBack" x="44.21" y="154.69" width="18.18" height="8.08" fill="#666" stroke="#666" stroke-linejoin="round" stroke-width="2"/><rect id="b32f8cc4-2396-4eba-ae40-f4c494ca1582" data-name="floodsBack" x="65.82" y="154.69" width="18.18" height="8.08" fill="#666" stroke="#666" stroke-linejoin="round" stroke-width="2"/><rect id="a37f8ebf-e55b-48ea-8a2f-d0e1cca943dc" data-name="floodsBack" x="1" y="166.41" width="18.18" height="8.08" fill="#666" stroke="#666" stroke-linejoin="round" stroke-width="2"/><rect id="a654ee57-a53e-422a-b1a6-cd1af139fede" data-name="floodsBack" x="22.61" y="166.41" width="18.18" height="8.08" fill="#666" stroke="#666" stroke-linejoin="round" stroke-width="2"/><rect id="ef8d702d-6f0f-4326-8f2a-f50f2e72f9b1" data-name="floodsBack" x="44.21" y="166.41" width="18.18" height="8.08" fill="#666" stroke="#666" stroke-linejoin="round" stroke-width="2"/><rect id="b713432b-02ed-4684-ac88-529ed778e7b8" data-name="floodsBack" x="65.82" y="166.41" width="18.18" height="8.08" fill="#666" stroke="#666" stroke-linejoin="round" stroke-width="2"/><rect id="b6af3cfb-c729-4bdc-b30e-76acc027aa6c" data-name="floodsBack" x="1" y="178.13" width="18.18" height="8.08" fill="#666" stroke="#666" stroke-linejoin="round" stroke-width="2"/><rect id="a2a97ab0-90d0-4d8c-afad-961901827ddb" data-name="floodsBack" x="22.61" y="178.13" width="18.18" height="8.08" fill="#666" stroke="#666" stroke-linejoin="round" stroke-width="2"/><rect id="bb37235d-34c1-490a-aee6-6344c0ef496b" data-name="floodsBack" x="44.21" y="178.13" width="18.18" height="8.08" fill="#666" stroke="#666" stroke-linejoin="round" stroke-width="2"/><rect id="f3024d06-480f-4899-abc7-7d10774a2f13" data-name="floodsBack" x="65.82" y="178.13" width="18.18" height="8.08" fill="#666" stroke="#666" stroke-linejoin="round" stroke-width="2"/><rect id="bd930b2b-c2e2-4df0-82ba-20be67f74b3a" data-name="floodsBack" x="39.5" y="186.06" width="6" height="149.91" fill="#666" stroke="#666" stroke-linejoin="round" stroke-width="2"/><rect id="bd9faf2f-4642-4f7f-ac3f-b8f055cc53b5" data-name="floodLight" x="1.77" y="142.95" width="18" height="8" fill="#f8e9a1"/><rect id="f1537205-bd68-4c1e-83f3-878cb5bfba1c" data-name="floodLight" x="23.11" y="142.95" width="18" height="8" fill="#f8e9a1"/><rect id="eab62f6a-a55d-42b8-93fb-95eff9f9d761" data-name="floodLight" x="44.44" y="142.95" width="18" height="8" fill="#f8e9a1"/><rect id="b551a75c-bc07-4f5f-9d60-cf6c6b623a6d" data-name="floodLight" x="65.77" y="142.95" width="18" height="8" fill="#f8e9a1"/><rect id="f4a542bd-54e3-4ac6-a8eb-cf1d5a8c4a9b" data-name="floodLight" x="1.77" y="154.67" width="18" height="8" fill="#f8e9a1"/><rect id="b505ba09-4ed9-4e72-97f1-8aaa35d53e52" data-name="floodLight" x="23.11" y="154.67" width="18" height="8" fill="#f8e9a1"/><rect id="b8d101fe-5f2f-48c0-a302-dcc048e57e9c" data-name="floodLight" x="44.44" y="154.67" width="18" height="8" fill="#f8e9a1"/><rect id="fd184a5f-209a-4fc4-9599-339c79f8026f" data-name="floodLight" x="65.77" y="154.67" width="18" height="8" fill="#f8e9a1"/><rect id="b4cc810c-5128-4b20-a089-01316a28032d" data-name="floodLight" x="1.77" y="166.39" width="18" height="8" fill="#f8e9a1"/><rect id="a1b44dee-81fb-4e33-9143-464e86712b46" data-name="floodLight" x="23.11" y="166.39" width="18" height="8" fill="#f8e9a1"/><rect id="e5d1f6a6-c788-4972-9b40-75159b2cf9b4" data-name="floodLight" x="44.44" y="166.39" width="18" height="8" fill="#f8e9a1"/><rect id="f68d01d7-4454-4c1d-85d4-8aca737e3c46" data-name="floodLight" x="65.77" y="166.39" width="18" height="8" fill="#f8e9a1"/><rect id="b23b9de3-49b9-4e90-9022-a9f81873ab39" data-name="floodLight" x="1.77" y="178.12" width="18" height="8" fill="#f8e9a1"/><rect id="ffc4c37e-8f6e-4b5d-9be9-d739f6467481" data-name="floodLight" x="23.11" y="178.12" width="18" height="8" fill="#f8e9a1"/><rect id="bab3f91c-36cd-4cf1-83e5-0074ac5f65fb" data-name="floodLight" x="44.44" y="178.12" width="18" height="8" fill="#f8e9a1"/><rect id="f006d171-e99f-4200-8745-bf973fccec6e" data-name="floodLight" x="65.77" y="178.12" width="18" height="8" fill="#f8e9a1"/></g><g id="b6febbc2-0ec3-4a46-af74-4ecb699f595a" data-name="windmill"><path id="aeb0169b-1d5c-4fa5-8fc0-819b65525be4" data-name="windmillBack" d="M1225.66,277a9,9,0,1,0-13,8.05V545h8V285.08A9,9,0,0,0,1225.66,277Z" transform="translate(-656.64 -209.05)" fill="#666" stroke="#666" stroke-linejoin="round"/><ellipse id="bb61c480-a2ae-4211-ae9d-2a3b17fdb267" data-name="rotor" cx="1189.23" cy="303.1" rx="34.95" ry="4.55" transform="translate(-522.65 720.63) rotate(-45)" fill="#b3b3b3" stroke="#b3b3b3" stroke-linejoin="round"/><ellipse id="f5f045e5-9400-47ae-8915-79b12303d02f" data-name="rotor" cx="560.02" cy="35.45" rx="4.55" ry="34.95" fill="#b3b3b3" stroke="#b3b3b3" stroke-linejoin="round"/><ellipse id="e9590b0e-c43e-493d-af21-b2b22fc707ae" data-name="rotor" cx="1243.8" cy="303.51" rx="4.55" ry="34.95" transform="translate(-506.95 759.34) rotate(-45)" fill="#b3b3b3" stroke="#b3b3b3" stroke-linejoin="round"/><circle id="eaabae62-4d2c-4be3-8521-8a5b1a035335" data-name="windmillFront" cx="560.02" cy="67.98" r="6" fill="#1a1a1a"/></g><path id="a0d772bc-265d-4294-95c6-716ef9e7a857" data-name="tree" d="M755.82,479.73l-.3,0c-.06-.26-.12-.52-.2-.77a12.5,12.5,0,0,0-7-22.88h0a12.49,12.49,0,0,0-23-2.46,12.35,12.35,0,0,0-6-1.54,12.49,12.49,0,0,0-5.65,23.64c0,.06,0,.13,0,.2a9.49,9.49,0,1,0,12.08,14.6,20.18,20.18,0,0,0,3,1V545h9V493.81a12.35,12.35,0,0,0,4,1.18,14,14,0,0,0,10.83,12.46V545H759V507.45a14,14,0,0,0-3.16-27.72Z" transform="translate(-656.64 -209.05)" fill="#006837" stroke="#006837" stroke-linejoin="round" stroke-width="2"/><g id="e56062e7-4754-4cbb-9faa-3997d40f0525" data-name="floods"><rect id="a2aeeaad-051f-488a-b639-84fe38e70601" data-name="floodsBack" x="450.5" y="122.13" width="13.55" height="6.02" fill="#666" stroke="#666" stroke-linejoin="round" stroke-width="2"/><rect id="a158ec83-2ea9-45e1-a14f-bc3011130d94" data-name="floodsBack" x="466.6" y="122.13" width="13.55" height="6.02" fill="#666" stroke="#666" stroke-linejoin="round" stroke-width="2"/><rect id="bbfbf2f1-6926-4b86-8db4-66a768954cb8" data-name="floodsBack" x="482.7" y="122.13" width="13.55" height="6.02" fill="#666" stroke="#666" stroke-linejoin="round" stroke-width="2"/><rect id="f2e09ef9-8d61-4006-baf7-0bdc77501bc1" data-name="floodsBack" x="498.81" y="122.13" width="13.55" height="6.02" fill="#666" stroke="#666" stroke-linejoin="round" stroke-width="2"/><rect id="a47b9f8e-934e-4b75-82c5-cade19ea8bce" data-name="floodsBack" x="450.5" y="130.86" width="13.55" height="6.02" fill="#666" stroke="#666" stroke-linejoin="round" stroke-width="2"/><rect id="b894e819-e395-4928-a311-9b6e170cdac1" data-name="floodsBack" x="466.6" y="130.86" width="13.55" height="6.02" fill="#666" stroke="#666" stroke-linejoin="round" stroke-width="2"/><rect id="f3a8ea16-9311-430d-85d0-d9de41e0c56f" data-name="floodsBack" x="482.7" y="130.86" width="13.55" height="6.02" fill="#666" stroke="#666" stroke-linejoin="round" stroke-width="2"/><rect id="e12753bf-5725-47f2-9415-d11d7127b0bc" data-name="floodsBack" x="498.81" y="130.86" width="13.55" height="6.02" fill="#666" stroke="#666" stroke-linejoin="round" stroke-width="2"/><rect id="f8199782-9ede-49f4-bf98-04a1ab0fd22e" data-name="floodsBack" x="450.5" y="139.6" width="13.55" height="6.02" fill="#666" stroke="#666" stroke-linejoin="round" stroke-width="2"/><rect id="e879d655-6306-4a7e-927b-78cb4552d709" data-name="floodsBack" x="466.6" y="139.6" width="13.55" height="6.02" fill="#666" stroke="#666" stroke-linejoin="round" stroke-width="2"/><rect id="f3c954ac-5e48-409d-98de-e4824b610767" data-name="floodsBack" x="482.7" y="139.6" width="13.55" height="6.02" fill="#666" stroke="#666" stroke-linejoin="round" stroke-width="2"/><rect id="b0b61bec-178a-4fb5-ab3a-c17b53f190b9" data-name="floodsBack" x="498.81" y="139.6" width="13.55" height="6.02" fill="#666" stroke="#666" stroke-linejoin="round" stroke-width="2"/><rect id="a1238de7-1d67-45ef-99fe-e259142515fe" data-name="floodsBack" x="450.5" y="148.33" width="13.55" height="6.02" fill="#666" stroke="#666" stroke-linejoin="round" stroke-width="2"/><rect id="b43c2d8b-f6ae-4b4a-8faa-a97b23401c2c" data-name="floodsBack" x="466.6" y="148.33" width="13.55" height="6.02" fill="#666" stroke="#666" stroke-linejoin="round" stroke-width="2"/><rect id="a0282471-4be9-4e87-b582-01c694b09f4f" data-name="floodsBack" x="482.7" y="148.33" width="13.55" height="6.02" fill="#666" stroke="#666" stroke-linejoin="round" stroke-width="2"/><rect id="a784f546-f519-4c82-99e6-7cf453880538" data-name="floodsBack" x="498.81" y="148.33" width="13.55" height="6.02" fill="#666" stroke="#666" stroke-linejoin="round" stroke-width="2"/><rect id="b8182b65-f474-4099-b0b2-3dd4e35ef76e" data-name="floodsBack" x="479.19" y="154.24" width="4.47" height="181.73" fill="#666" stroke="#666" stroke-linejoin="round" stroke-width="2"/><rect id="b81d3414-80e4-4baf-a010-ad2ac583fb6e" data-name="floodLight" x="451.07" y="122.11" width="13.42" height="5.96" fill="#f8e9a1"/><rect id="bb48aba3-d873-4a8a-ab32-df44ebc563ce" data-name="floodLight" x="466.97" y="122.11" width="13.42" height="5.96" fill="#f8e9a1"/><rect id="af4ab054-34bc-41b5-9224-ec1c345da7fb" data-name="floodLight" x="482.87" y="122.11" width="13.42" height="5.96" fill="#f8e9a1"/><rect id="ec68e6f4-49a3-4d52-86eb-6abc85541e80" data-name="floodLight" x="498.78" y="122.11" width="13.42" height="5.96" fill="#f8e9a1"/><rect id="aca4c1dc-6761-4c24-84d6-c893b817079c" data-name="floodLight" x="451.07" y="130.84" width="13.42" height="5.96" fill="#f8e9a1"/><rect id="f4b7c0ee-2c74-45ba-8f92-5942bf7c3ffb" data-name="floodLight" x="466.97" y="130.84" width="13.42" height="5.96" fill="#f8e9a1"/><rect id="e2ff6ec1-d8f2-4098-9032-af1e349e464a" data-name="floodLight" x="482.87" y="130.84" width="13.42" height="5.96" fill="#f8e9a1"/><rect id="be6c824f-84d2-4543-a7e0-c2903042d1f4" data-name="floodLight" x="498.78" y="130.84" width="13.42" height="5.96" fill="#f8e9a1"/><rect id="b91f7058-2dbb-4cbd-90c9-de63d7105684" data-name="floodLight" x="451.07" y="139.58" width="13.42" height="5.96" fill="#f8e9a1"/><rect id="e684f12f-8839-4773-9c11-c3b4465f89a1" data-name="floodLight" x="466.97" y="139.58" width="13.42" height="5.96" fill="#f8e9a1"/><rect id="bda0cdd1-c08e-4b95-992f-dc202de87e6a" data-name="floodLight" x="482.87" y="139.58" width="13.42" height="5.96" fill="#f8e9a1"/><rect id="a62f18be-cdf3-4e2d-82b3-186f04ed4697" data-name="floodLight" x="498.78" y="139.58" width="13.42" height="5.96" fill="#f8e9a1"/><rect id="a4ee877a-566c-4262-8a7e-64afbe368365" data-name="floodLight" x="451.07" y="148.32" width="13.42" height="5.96" fill="#f8e9a1"/><rect id="bd9fe2d6-aadb-4da8-b95b-230f5167eab6" data-name="floodLight" x="466.97" y="148.32" width="13.42" height="5.96" fill="#f8e9a1"/><rect id="a414327e-a57c-4a8b-a29e-eea440301b9e" data-name="floodLight" x="482.87" y="148.32" width="13.42" height="5.96" fill="#f8e9a1"/><rect id="fc7dc168-7623-4f37-8945-0bd42f79261e" data-name="floodLight" x="498.78" y="148.32" width="13.42" height="5.96" fill="#f8e9a1"/></g><rect id="f811064a-7e89-4309-a39d-9745ebe9fad6" data-name="light" x="118.1" y="281.95" width="11.14" height="11.14" fill="#f8e9e6"/><rect id="a2bd0d03-434a-4e4f-a44a-fa003543a984" data-name="light" x="138.29" y="281.95" width="11.14" height="11.14" fill="#f8e9e6"/><rect id="b4adb2f1-36e6-42e6-a5eb-6c59bec31f7c" data-name="light" x="158.48" y="281.95" width="11.14" height="11.14" fill="#f8e9e6"/><path id="e5dea9f7-663f-45ac-837d-3e8f6f1e9489" data-name="light" d="M808.13,515.37a7.66,7.66,0,0,0-15.25,0h0V546h15.32V515.37Z" transform="translate(-656.64 -209.05)" fill="#f8e9e6"/><g id="f7a89c54-5ebf-4862-95b4-d7c8c7e8fed5" data-name="lightMiddle"><rect id="ac1aa6eb-10b2-4f6c-b8a9-d242517a7c9a" data-name="light" x="365.69" y="131.97" width="11.14" height="11.14" fill="#f8e9e6"/><rect id="e57b58c5-c9e0-4720-8291-f5386040626f" data-name="light" x="385.88" y="131.97" width="11.14" height="11.14" fill="#f8e9e6"/><rect id="ab943352-1a70-4046-8bd6-0ad07178bc38" data-name="light" x="406.07" y="131.97" width="11.14" height="11.14" fill="#f8e9e6"/><rect id="eb59a000-a8e4-46c6-a9de-4aff4acdca37" data-name="light" x="365.69" y="153.97" width="11.14" height="11.14" fill="#f8e9e6"/><rect id="ee576ea0-f4d6-4b4c-89d9-980d829f7903" data-name="light" x="385.88" y="153.97" width="11.14" height="11.14" fill="#f8e9e6"/><rect id="ec3c332b-5145-4966-93ea-b873d257ba0d" data-name="light" x="406.07" y="153.97" width="11.14" height="11.14" fill="#f8e9e6"/><rect id="b0c8f598-9a4f-478e-b118-02c15316f713" data-name="light" x="365.69" y="175.97" width="11.14" height="11.14" fill="#f8e9e6"/><rect id="f8000f13-5f9e-43f7-a12b-3a0c4abab105" data-name="light" x="385.88" y="175.97" width="11.14" height="11.14" fill="#f8e9e6"/><rect id="b85e8bc5-b06e-4936-85b0-fadb1920f294" data-name="light" x="406.07" y="175.97" width="11.14" height="11.14" fill="#f8e9e6"/><rect id="b6aac8b5-8404-4a2c-ab92-2a97020dd551" data-name="light" x="365.69" y="199.97" width="11.14" height="11.14" fill="#f8e9e6"/><rect id="aa21b724-bcad-4aed-bd50-c7f31ea87894" data-name="light" x="385.88" y="199.97" width="11.14" height="11.14" fill="#f8e9e6"/><rect id="b877288c-ee67-4fd7-9190-96d6e17911b1" data-name="light" x="406.07" y="199.97" width="11.14" height="11.14" fill="#f8e9e6"/><rect id="b4af4345-db4a-4ea9-91b8-fdbebffd36da" data-name="light" x="365.69" y="221.97" width="11.14" height="11.14" fill="#f8e9e6"/><rect id="bcb1c665-69af-44a8-be43-aa9d77315297" data-name="light" x="385.88" y="221.97" width="11.14" height="11.14" fill="#f8e9e6"/><rect id="b2266ebc-b860-4396-8bfa-e2ef01810939" data-name="light" x="406.07" y="221.97" width="11.14" height="11.14" fill="#f8e9e6"/><rect id="a7723b53-7840-4841-abca-0a50fa0d1635" data-name="light" x="365.69" y="243.97" width="11.14" height="11.14" fill="#f8e9e6"/><rect id="bf31e267-71d5-40c0-814d-00d350a74b51" data-name="light" x="385.88" y="243.97" width="11.14" height="11.14" fill="#f8e9e6"/><rect id="fb55d27e-ea30-466a-a8f9-9fc642a71492" data-name="light" x="406.07" y="243.97" width="11.14" height="11.14" fill="#f8e9e6"/><rect id="a671a70a-36f0-453c-8fcf-02559ffc0c9e" data-name="light" x="365.69" y="269.97" width="11.14" height="11.14" fill="#f8e9e6"/><rect id="b3babac9-287c-471b-af3d-9bfdae130232" data-name="light" x="385.88" y="269.97" width="11.14" height="11.14" fill="#f8e9e6"/><rect id="b7c2efee-973e-454d-b10b-86249971db2d" data-name="light" x="406.07" y="269.97" width="11.14" height="11.14" fill="#f8e9e6"/><rect id="bc16258a-0eeb-4ab1-9209-573146a0f3fc" data-name="light" x="365.69" y="313.97" width="11.14" height="11.14" fill="#f8e9e6"/><rect id="af6d088e-28b7-48c6-867c-1ffcded74f1d" data-name="light" x="385.88" y="313.97" width="11.14" height="11.14" fill="#f8e9e6"/><rect id="a661bf32-7475-4be7-a716-445e74bab6c0" data-name="light" x="406.07" y="313.97" width="11.14" height="11.14" fill="#f8e9e6"/><rect id="b6d9f208-5556-4159-add4-e79122766210" data-name="light" x="365.69" y="291.97" width="11.14" height="11.14" fill="#f8e9e6"/><rect id="f35f8f99-b441-4588-9f22-2d77114bd55f" data-name="light" x="385.88" y="291.97" width="11.14" height="11.14" fill="#f8e9e6"/><rect id="bac572b3-b8fe-4a7b-875d-7b0e9b4e6aa1" data-name="light" x="406.07" y="291.97" width="11.14" height="11.14" fill="#f8e9e6"/></g><g id="ae5b210e-167a-4ab8-bae8-8f0c9867e358" data-name="lightLeft"><rect id="b75bf6a5-c66c-4562-a3b8-80e81bca6add" data-name="light" x="235.76" y="197.95" width="12.12" height="8.27" fill="#f8e9a1"/><rect id="b3dc48d7-8c0b-4f6d-8f06-8a8a144c72d7" data-name="light" x="250.14" y="197.95" width="5.55" height="8.27" fill="#f8e9a1"/><rect id="f5b2fd6d-9f3f-4817-9821-879a2f0ce1fd" data-name="light" x="257.97" y="197.95" width="12.12" height="8.27" fill="#f8e9a1"/><rect id="ac211109-c4f8-48ae-9a3d-ea093302b90e" data-name="light" x="235.76" y="215.91" width="12.12" height="8.27" fill="#f8e9a1"/><rect id="f1aa31b8-4b29-42ad-80f6-cf5b633d91e5" data-name="light" x="250.14" y="215.91" width="5.55" height="8.27" fill="#f8e9a1"/><rect id="b67ad39a-925a-4f26-a41c-541cfae77cce" data-name="light" x="257.97" y="215.91" width="12.12" height="8.27" fill="#f8e9a1"/><rect id="a8c9f2c4-281c-4f80-8d8e-3315d4d14a4f" data-name="light" x="235.76" y="233.87" width="12.12" height="8.27" fill="#f8e9a1"/><rect id="b518193f-e5cc-4da1-9e86-74bb12c42e56" data-name="light" x="250.14" y="233.87" width="5.55" height="8.27" fill="#f8e9a1"/><rect id="a92f8e39-6527-41d7-afcf-0605659115cc" data-name="light" x="257.97" y="233.87" width="12.12" height="8.27" fill="#f8e9a1"/><rect id="f63dd602-0000-4358-83c8-12e030b781e8" data-name="light" x="235.76" y="251.83" width="12.12" height="8.27" fill="#f8e9a1"/><rect id="f0509a21-08a4-4161-b630-c94d6633e118" data-name="light" x="250.14" y="251.83" width="5.55" height="8.27" fill="#f8e9a1"/><rect id="f6b77c8a-825a-40bc-b49a-52439b076dd1" data-name="light" x="257.97" y="251.83" width="12.12" height="8.27" fill="#f8e9a1"/><rect id="bc7b33c4-3ce6-4525-804c-63a2b415e9a8" data-name="light" x="235.76" y="269.79" width="12.12" height="8.27" fill="#f8e9a1"/><rect id="b2f01c89-3ac2-4ba6-8a5e-7fbf58bf69c1" data-name="light" x="250.14" y="269.79" width="5.55" height="8.27" fill="#f8e9a1"/><rect id="a0d06c39-cd96-427d-9af3-647bd6211738" data-name="light" x="257.97" y="269.79" width="12.12" height="8.27" fill="#f8e9a1"/><rect id="b6a29334-3083-4b29-9904-55ce37e72088" data-name="light" x="235.76" y="287.75" width="12.12" height="8.27" fill="#f8e9a1"/><rect id="ef07beae-849e-45f4-a81a-b4a338ccdd0e" data-name="light" x="250.14" y="287.75" width="5.55" height="8.27" fill="#f8e9a1"/><rect id="a58b9ed4-8b6a-4dd8-b4a3-28214c39e8ce" data-name="light" x="257.97" y="287.75" width="12.12" height="8.27" fill="#f8e9a1"/><rect id="e27ee793-0fea-4084-819c-da2fd40b0ee2" data-name="light" x="235.76" y="305.72" width="12.12" height="8.27" fill="#f8e9a1"/><rect id="b1aede5b-6a0e-4f7a-b4a9-788fe0e6b944" data-name="light" x="250.14" y="305.72" width="5.55" height="8.27" fill="#f8e9a1"/><rect id="b231da68-3929-427a-8aea-2042f0e888b0" data-name="light" x="257.97" y="305.72" width="12.12" height="8.27" fill="#f8e9a1"/><rect id="ab53ed20-9a37-43fa-9290-6dd8b8a4f3c2" data-name="light" x="235.76" y="323.68" width="12.12" height="8.27" fill="#f8e9a1"/><rect id="e501b99e-c53c-471e-ac00-a7df97748951" data-name="light" x="250.14" y="323.68" width="5.55" height="8.27" fill="#f8e9a1"/><rect id="faafa546-25b0-4a48-96e0-a68a6b6a8640" data-name="light" x="257.97" y="323.68" width="12.12" height="8.27" fill="#f8e9a1"/></g></g><g id="a0dab2e3-dc01-4251-a0d3-66b480e80b95" data-name="houseFront"><rect id="e8a2b7a0-fea6-456c-934f-23a2207fe94f" data-name="house" x="324.03" y="263.95" width="66" height="73" fill="#999"/><rect id="bb195b98-5a7f-42a0-bff7-dac353acd94a" data-name="house" x="362.36" y="309.95" width="20" height="27" fill="#666"/><circle id="bcb55cbb-6360-4227-97ac-e36633bd5262" data-name="light" cx="339.03" cy="281.95" r="7" fill="#f8e9a1"/><circle id="fbdf0c30-a8b3-4de6-8cb0-bf0005fe1fc6" data-name="light" cx="357.03" cy="281.95" r="7" fill="#f8e9a1"/><circle id="b8f52de6-fbd1-4323-9646-1ed5059553bc" data-name="light" cx="375.03" cy="281.95" r="7" fill="#f8e9a1"/><rect id="ec6773c8-4348-4e8d-b6dd-b78d4e8f8e79" data-name="light" x="335.03" y="293.95" width="44" height="10" fill="#f8e9a1"/></g></g></svg>